G04 #@! TF.GenerationSoftware,KiCad,Pcbnew,5.1.6-c6e7f7d~87~ubuntu18.04.1*
G04 #@! TF.CreationDate,2020-09-10T19:55:48-05:00*
G04 #@! TF.ProjectId,MiniStereoMixer,4d696e69-5374-4657-9265-6f4d69786572,rev?*
G04 #@! TF.SameCoordinates,Original*
G04 #@! TF.FileFunction,Legend,Top*
G04 #@! TF.FilePolarity,Positive*
%FSLAX46Y46*%
G04 Gerber Fmt 4.6, Leading zero omitted, Abs format (unit mm)*
G04 Created by KiCad (PCBNEW 5.1.6-c6e7f7d~87~ubuntu18.04.1) date 2020-09-10 19:55:48*
%MOMM*%
%LPD*%
G01*
G04 APERTURE LIST*
%ADD10C,0.250000*%
%ADD11C,0.300000*%
%ADD12C,0.120000*%
%ADD13C,0.500000*%
%ADD14C,0.150000*%
G04 APERTURE END LIST*
D10*
X193532285Y-63825428D02*
X194294190Y-63825428D01*
X193913238Y-64206380D02*
X193913238Y-63444476D01*
X195246571Y-63206380D02*
X194770380Y-63206380D01*
X194722761Y-63682571D01*
X194770380Y-63634952D01*
X194865619Y-63587333D01*
X195103714Y-63587333D01*
X195198952Y-63634952D01*
X195246571Y-63682571D01*
X195294190Y-63777809D01*
X195294190Y-64015904D01*
X195246571Y-64111142D01*
X195198952Y-64158761D01*
X195103714Y-64206380D01*
X194865619Y-64206380D01*
X194770380Y-64158761D01*
X194722761Y-64111142D01*
X195579904Y-63206380D02*
X195913238Y-64206380D01*
X196246571Y-63206380D01*
X193278285Y-48458428D02*
X194040190Y-48458428D01*
X194992571Y-47839380D02*
X194516380Y-47839380D01*
X194468761Y-48315571D01*
X194516380Y-48267952D01*
X194611619Y-48220333D01*
X194849714Y-48220333D01*
X194944952Y-48267952D01*
X194992571Y-48315571D01*
X195040190Y-48410809D01*
X195040190Y-48648904D01*
X194992571Y-48744142D01*
X194944952Y-48791761D01*
X194849714Y-48839380D01*
X194611619Y-48839380D01*
X194516380Y-48791761D01*
X194468761Y-48744142D01*
X195325904Y-47839380D02*
X195659238Y-48839380D01*
X195992571Y-47839380D01*
D11*
X145290000Y-97849571D02*
X145290000Y-98849571D01*
X144932857Y-97278142D02*
X144575714Y-98349571D01*
X145504285Y-98349571D01*
X147861428Y-98778142D02*
X147718571Y-98849571D01*
X147432857Y-98849571D01*
X147290000Y-98778142D01*
X147218571Y-98706714D01*
X147147142Y-98563857D01*
X147147142Y-98135285D01*
X147218571Y-97992428D01*
X147290000Y-97921000D01*
X147432857Y-97849571D01*
X147718571Y-97849571D01*
X147861428Y-97921000D01*
X148504285Y-98849571D02*
X148504285Y-97349571D01*
X149147142Y-98849571D02*
X149147142Y-98063857D01*
X149075714Y-97921000D01*
X148932857Y-97849571D01*
X148718571Y-97849571D01*
X148575714Y-97921000D01*
X148504285Y-97992428D01*
X150504285Y-98849571D02*
X150504285Y-98063857D01*
X150432857Y-97921000D01*
X150290000Y-97849571D01*
X150004285Y-97849571D01*
X149861428Y-97921000D01*
X150504285Y-98778142D02*
X150361428Y-98849571D01*
X150004285Y-98849571D01*
X149861428Y-98778142D01*
X149790000Y-98635285D01*
X149790000Y-98492428D01*
X149861428Y-98349571D01*
X150004285Y-98278142D01*
X150361428Y-98278142D01*
X150504285Y-98206714D01*
X151218571Y-97849571D02*
X151218571Y-98849571D01*
X151218571Y-97992428D02*
X151290000Y-97921000D01*
X151432857Y-97849571D01*
X151647142Y-97849571D01*
X151790000Y-97921000D01*
X151861428Y-98063857D01*
X151861428Y-98849571D01*
X152575714Y-97849571D02*
X152575714Y-98849571D01*
X152575714Y-97992428D02*
X152647142Y-97921000D01*
X152790000Y-97849571D01*
X153004285Y-97849571D01*
X153147142Y-97921000D01*
X153218571Y-98063857D01*
X153218571Y-98849571D01*
X154504285Y-98778142D02*
X154361428Y-98849571D01*
X154075714Y-98849571D01*
X153932857Y-98778142D01*
X153861428Y-98635285D01*
X153861428Y-98063857D01*
X153932857Y-97921000D01*
X154075714Y-97849571D01*
X154361428Y-97849571D01*
X154504285Y-97921000D01*
X154575714Y-98063857D01*
X154575714Y-98206714D01*
X153861428Y-98349571D01*
X155432857Y-98849571D02*
X155290000Y-98778142D01*
X155218571Y-98635285D01*
X155218571Y-97349571D01*
X157075714Y-98778142D02*
X157218571Y-98849571D01*
X157504285Y-98849571D01*
X157647142Y-98778142D01*
X157718571Y-98635285D01*
X157718571Y-98563857D01*
X157647142Y-98421000D01*
X157504285Y-98349571D01*
X157290000Y-98349571D01*
X157147142Y-98278142D01*
X157075714Y-98135285D01*
X157075714Y-98063857D01*
X157147142Y-97921000D01*
X157290000Y-97849571D01*
X157504285Y-97849571D01*
X157647142Y-97921000D01*
X158147142Y-97849571D02*
X158718571Y-97849571D01*
X158361428Y-97349571D02*
X158361428Y-98635285D01*
X158432857Y-98778142D01*
X158575714Y-98849571D01*
X158718571Y-98849571D01*
X159790000Y-98778142D02*
X159647142Y-98849571D01*
X159361428Y-98849571D01*
X159218571Y-98778142D01*
X159147142Y-98635285D01*
X159147142Y-98063857D01*
X159218571Y-97921000D01*
X159361428Y-97849571D01*
X159647142Y-97849571D01*
X159790000Y-97921000D01*
X159861428Y-98063857D01*
X159861428Y-98206714D01*
X159147142Y-98349571D01*
X160504285Y-98849571D02*
X160504285Y-97849571D01*
X160504285Y-98135285D02*
X160575714Y-97992428D01*
X160647142Y-97921000D01*
X160790000Y-97849571D01*
X160932857Y-97849571D01*
X162004285Y-98778142D02*
X161861428Y-98849571D01*
X161575714Y-98849571D01*
X161432857Y-98778142D01*
X161361428Y-98635285D01*
X161361428Y-98063857D01*
X161432857Y-97921000D01*
X161575714Y-97849571D01*
X161861428Y-97849571D01*
X162004285Y-97921000D01*
X162075714Y-98063857D01*
X162075714Y-98206714D01*
X161361428Y-98349571D01*
X162932857Y-98849571D02*
X162790000Y-98778142D01*
X162718571Y-98706714D01*
X162647142Y-98563857D01*
X162647142Y-98135285D01*
X162718571Y-97992428D01*
X162790000Y-97921000D01*
X162932857Y-97849571D01*
X163147142Y-97849571D01*
X163290000Y-97921000D01*
X163361428Y-97992428D01*
X163432857Y-98135285D01*
X163432857Y-98563857D01*
X163361428Y-98706714D01*
X163290000Y-98778142D01*
X163147142Y-98849571D01*
X162932857Y-98849571D01*
X165861428Y-98849571D02*
X165861428Y-98063857D01*
X165790000Y-97921000D01*
X165647142Y-97849571D01*
X165361428Y-97849571D01*
X165218571Y-97921000D01*
X165861428Y-98778142D02*
X165718571Y-98849571D01*
X165361428Y-98849571D01*
X165218571Y-98778142D01*
X165147142Y-98635285D01*
X165147142Y-98492428D01*
X165218571Y-98349571D01*
X165361428Y-98278142D01*
X165718571Y-98278142D01*
X165861428Y-98206714D01*
X167218571Y-97849571D02*
X167218571Y-98849571D01*
X166575714Y-97849571D02*
X166575714Y-98635285D01*
X166647142Y-98778142D01*
X166790000Y-98849571D01*
X167004285Y-98849571D01*
X167147142Y-98778142D01*
X167218571Y-98706714D01*
X168575714Y-98849571D02*
X168575714Y-97349571D01*
X168575714Y-98778142D02*
X168432857Y-98849571D01*
X168147142Y-98849571D01*
X168004285Y-98778142D01*
X167932857Y-98706714D01*
X167861428Y-98563857D01*
X167861428Y-98135285D01*
X167932857Y-97992428D01*
X168004285Y-97921000D01*
X168147142Y-97849571D01*
X168432857Y-97849571D01*
X168575714Y-97921000D01*
X169290000Y-98849571D02*
X169290000Y-97849571D01*
X169290000Y-97349571D02*
X169218571Y-97421000D01*
X169290000Y-97492428D01*
X169361428Y-97421000D01*
X169290000Y-97349571D01*
X169290000Y-97492428D01*
X170218571Y-98849571D02*
X170075714Y-98778142D01*
X170004285Y-98706714D01*
X169932857Y-98563857D01*
X169932857Y-98135285D01*
X170004285Y-97992428D01*
X170075714Y-97921000D01*
X170218571Y-97849571D01*
X170432857Y-97849571D01*
X170575714Y-97921000D01*
X170647142Y-97992428D01*
X170718571Y-98135285D01*
X170718571Y-98563857D01*
X170647142Y-98706714D01*
X170575714Y-98778142D01*
X170432857Y-98849571D01*
X170218571Y-98849571D01*
X172504285Y-98849571D02*
X172504285Y-97849571D01*
X172504285Y-97992428D02*
X172575714Y-97921000D01*
X172718571Y-97849571D01*
X172932857Y-97849571D01*
X173075714Y-97921000D01*
X173147142Y-98063857D01*
X173147142Y-98849571D01*
X173147142Y-98063857D02*
X173218571Y-97921000D01*
X173361428Y-97849571D01*
X173575714Y-97849571D01*
X173718571Y-97921000D01*
X173790000Y-98063857D01*
X173790000Y-98849571D01*
X174504285Y-98849571D02*
X174504285Y-97849571D01*
X174504285Y-97349571D02*
X174432857Y-97421000D01*
X174504285Y-97492428D01*
X174575714Y-97421000D01*
X174504285Y-97349571D01*
X174504285Y-97492428D01*
X175075714Y-98849571D02*
X175861428Y-97849571D01*
X175075714Y-97849571D02*
X175861428Y-98849571D01*
X177004285Y-98778142D02*
X176861428Y-98849571D01*
X176575714Y-98849571D01*
X176432857Y-98778142D01*
X176361428Y-98635285D01*
X176361428Y-98063857D01*
X176432857Y-97921000D01*
X176575714Y-97849571D01*
X176861428Y-97849571D01*
X177004285Y-97921000D01*
X177075714Y-98063857D01*
X177075714Y-98206714D01*
X176361428Y-98349571D01*
X177718571Y-98849571D02*
X177718571Y-97849571D01*
X177718571Y-98135285D02*
X177790000Y-97992428D01*
X177861428Y-97921000D01*
X178004285Y-97849571D01*
X178147142Y-97849571D01*
X150139142Y-101516571D02*
X150139142Y-100730857D01*
X150067714Y-100588000D01*
X149924857Y-100516571D01*
X149639142Y-100516571D01*
X149496285Y-100588000D01*
X150139142Y-101445142D02*
X149996285Y-101516571D01*
X149639142Y-101516571D01*
X149496285Y-101445142D01*
X149424857Y-101302285D01*
X149424857Y-101159428D01*
X149496285Y-101016571D01*
X149639142Y-100945142D01*
X149996285Y-100945142D01*
X150139142Y-100873714D01*
X150853428Y-101516571D02*
X150853428Y-100516571D01*
X150853428Y-100802285D02*
X150924857Y-100659428D01*
X150996285Y-100588000D01*
X151139142Y-100516571D01*
X151282000Y-100516571D01*
X151782000Y-101516571D02*
X151782000Y-100516571D01*
X151782000Y-100802285D02*
X151853428Y-100659428D01*
X151924857Y-100588000D01*
X152067714Y-100516571D01*
X152210571Y-100516571D01*
X153282000Y-101445142D02*
X153139142Y-101516571D01*
X152853428Y-101516571D01*
X152710571Y-101445142D01*
X152639142Y-101302285D01*
X152639142Y-100730857D01*
X152710571Y-100588000D01*
X152853428Y-100516571D01*
X153139142Y-100516571D01*
X153282000Y-100588000D01*
X153353428Y-100730857D01*
X153353428Y-100873714D01*
X152639142Y-101016571D01*
X153924857Y-101445142D02*
X154067714Y-101516571D01*
X154353428Y-101516571D01*
X154496285Y-101445142D01*
X154567714Y-101302285D01*
X154567714Y-101230857D01*
X154496285Y-101088000D01*
X154353428Y-101016571D01*
X154139142Y-101016571D01*
X153996285Y-100945142D01*
X153924857Y-100802285D01*
X153924857Y-100730857D01*
X153996285Y-100588000D01*
X154139142Y-100516571D01*
X154353428Y-100516571D01*
X154496285Y-100588000D01*
X154996285Y-100516571D02*
X155567714Y-100516571D01*
X155210571Y-100016571D02*
X155210571Y-101302285D01*
X155282000Y-101445142D01*
X155424857Y-101516571D01*
X155567714Y-101516571D01*
X156639142Y-101445142D02*
X156496285Y-101516571D01*
X156210571Y-101516571D01*
X156067714Y-101445142D01*
X155996285Y-101302285D01*
X155996285Y-100730857D01*
X156067714Y-100588000D01*
X156210571Y-100516571D01*
X156496285Y-100516571D01*
X156639142Y-100588000D01*
X156710571Y-100730857D01*
X156710571Y-100873714D01*
X155996285Y-101016571D01*
X157996285Y-101516571D02*
X157996285Y-100016571D01*
X157996285Y-101445142D02*
X157853428Y-101516571D01*
X157567714Y-101516571D01*
X157424857Y-101445142D01*
X157353428Y-101373714D01*
X157282000Y-101230857D01*
X157282000Y-100802285D01*
X157353428Y-100659428D01*
X157424857Y-100588000D01*
X157567714Y-100516571D01*
X157853428Y-100516571D01*
X157996285Y-100588000D01*
X158924857Y-101516571D02*
X158782000Y-101445142D01*
X158710571Y-101302285D01*
X158710571Y-100016571D01*
X159496285Y-101516571D02*
X159496285Y-100516571D01*
X159496285Y-100016571D02*
X159424857Y-100088000D01*
X159496285Y-100159428D01*
X159567714Y-100088000D01*
X159496285Y-100016571D01*
X159496285Y-100159428D01*
X160853428Y-100516571D02*
X160853428Y-101730857D01*
X160782000Y-101873714D01*
X160710571Y-101945142D01*
X160567714Y-102016571D01*
X160353428Y-102016571D01*
X160210571Y-101945142D01*
X160853428Y-101445142D02*
X160710571Y-101516571D01*
X160424857Y-101516571D01*
X160282000Y-101445142D01*
X160210571Y-101373714D01*
X160139142Y-101230857D01*
X160139142Y-100802285D01*
X160210571Y-100659428D01*
X160282000Y-100588000D01*
X160424857Y-100516571D01*
X160710571Y-100516571D01*
X160853428Y-100588000D01*
X161567714Y-101516571D02*
X161567714Y-100016571D01*
X162210571Y-101516571D02*
X162210571Y-100730857D01*
X162139142Y-100588000D01*
X161996285Y-100516571D01*
X161782000Y-100516571D01*
X161639142Y-100588000D01*
X161567714Y-100659428D01*
X162710571Y-100516571D02*
X163282000Y-100516571D01*
X162924857Y-100016571D02*
X162924857Y-101302285D01*
X162996285Y-101445142D01*
X163139142Y-101516571D01*
X163282000Y-101516571D01*
X163782000Y-100516571D02*
X163782000Y-101516571D01*
X163782000Y-100659428D02*
X163853428Y-100588000D01*
X163996285Y-100516571D01*
X164210571Y-100516571D01*
X164353428Y-100588000D01*
X164424857Y-100730857D01*
X164424857Y-101516571D01*
X165139142Y-101516571D02*
X165139142Y-100516571D01*
X165139142Y-100016571D02*
X165067714Y-100088000D01*
X165139142Y-100159428D01*
X165210571Y-100088000D01*
X165139142Y-100016571D01*
X165139142Y-100159428D01*
X165853428Y-100516571D02*
X165853428Y-101516571D01*
X165853428Y-100659428D02*
X165924857Y-100588000D01*
X166067714Y-100516571D01*
X166282000Y-100516571D01*
X166424857Y-100588000D01*
X166496285Y-100730857D01*
X166496285Y-101516571D01*
X167853428Y-100516571D02*
X167853428Y-101730857D01*
X167782000Y-101873714D01*
X167710571Y-101945142D01*
X167567714Y-102016571D01*
X167353428Y-102016571D01*
X167210571Y-101945142D01*
X167853428Y-101445142D02*
X167710571Y-101516571D01*
X167424857Y-101516571D01*
X167282000Y-101445142D01*
X167210571Y-101373714D01*
X167139142Y-101230857D01*
X167139142Y-100802285D01*
X167210571Y-100659428D01*
X167282000Y-100588000D01*
X167424857Y-100516571D01*
X167710571Y-100516571D01*
X167853428Y-100588000D01*
X168567714Y-101373714D02*
X168639142Y-101445142D01*
X168567714Y-101516571D01*
X168496285Y-101445142D01*
X168567714Y-101373714D01*
X168567714Y-101516571D01*
X169282000Y-100516571D02*
X169282000Y-101516571D01*
X169282000Y-100659428D02*
X169353428Y-100588000D01*
X169496285Y-100516571D01*
X169710571Y-100516571D01*
X169853428Y-100588000D01*
X169924857Y-100730857D01*
X169924857Y-101516571D01*
X171210571Y-101445142D02*
X171067714Y-101516571D01*
X170782000Y-101516571D01*
X170639142Y-101445142D01*
X170567714Y-101302285D01*
X170567714Y-100730857D01*
X170639142Y-100588000D01*
X170782000Y-100516571D01*
X171067714Y-100516571D01*
X171210571Y-100588000D01*
X171282000Y-100730857D01*
X171282000Y-100873714D01*
X170567714Y-101016571D01*
X171710571Y-100516571D02*
X172282000Y-100516571D01*
X171924857Y-100016571D02*
X171924857Y-101302285D01*
X171996285Y-101445142D01*
X172139142Y-101516571D01*
X172282000Y-101516571D01*
X164084333Y-42433761D02*
X163417666Y-41481380D01*
X162941476Y-42433761D02*
X162941476Y-40433761D01*
X163703380Y-40433761D01*
X163893857Y-40529000D01*
X163989095Y-40624238D01*
X164084333Y-40814714D01*
X164084333Y-41100428D01*
X163989095Y-41290904D01*
X163893857Y-41386142D01*
X163703380Y-41481380D01*
X162941476Y-41481380D01*
X164941476Y-42433761D02*
X164941476Y-40433761D01*
X166941476Y-40529000D02*
X166751000Y-40433761D01*
X166465285Y-40433761D01*
X166179571Y-40529000D01*
X165989095Y-40719476D01*
X165893857Y-40909952D01*
X165798619Y-41290904D01*
X165798619Y-41576619D01*
X165893857Y-41957571D01*
X165989095Y-42148047D01*
X166179571Y-42338523D01*
X166465285Y-42433761D01*
X166655761Y-42433761D01*
X166941476Y-42338523D01*
X167036714Y-42243285D01*
X167036714Y-41576619D01*
X166655761Y-41576619D01*
X167893857Y-42433761D02*
X167893857Y-40433761D01*
X167893857Y-41386142D02*
X169036714Y-41386142D01*
X169036714Y-42433761D02*
X169036714Y-40433761D01*
X169703380Y-40433761D02*
X170846238Y-40433761D01*
X170274809Y-42433761D02*
X170274809Y-40433761D01*
X147828238Y-42433761D02*
X146875857Y-42433761D01*
X146875857Y-40433761D01*
X148494904Y-41386142D02*
X149161571Y-41386142D01*
X149447285Y-42433761D02*
X148494904Y-42433761D01*
X148494904Y-40433761D01*
X149447285Y-40433761D01*
X150971095Y-41386142D02*
X150304428Y-41386142D01*
X150304428Y-42433761D02*
X150304428Y-40433761D01*
X151256809Y-40433761D01*
X151733000Y-40433761D02*
X152875857Y-40433761D01*
X152304428Y-42433761D02*
X152304428Y-40433761D01*
X195739000Y-92249761D02*
X196119952Y-92249761D01*
X196310428Y-92345000D01*
X196500904Y-92535476D01*
X196596142Y-92916428D01*
X196596142Y-93583095D01*
X196500904Y-93964047D01*
X196310428Y-94154523D01*
X196119952Y-94249761D01*
X195739000Y-94249761D01*
X195548523Y-94154523D01*
X195358047Y-93964047D01*
X195262809Y-93583095D01*
X195262809Y-92916428D01*
X195358047Y-92535476D01*
X195548523Y-92345000D01*
X195739000Y-92249761D01*
X197453285Y-92249761D02*
X197453285Y-93868809D01*
X197548523Y-94059285D01*
X197643761Y-94154523D01*
X197834238Y-94249761D01*
X198215190Y-94249761D01*
X198405666Y-94154523D01*
X198500904Y-94059285D01*
X198596142Y-93868809D01*
X198596142Y-92249761D01*
X199262809Y-92249761D02*
X200405666Y-92249761D01*
X199834238Y-94249761D02*
X199834238Y-92249761D01*
X133953380Y-88661761D02*
X133953380Y-86661761D01*
X134905761Y-88661761D02*
X134905761Y-86661761D01*
X136048619Y-88661761D01*
X136048619Y-86661761D01*
X133953380Y-77485761D02*
X133953380Y-75485761D01*
X134905761Y-77485761D02*
X134905761Y-75485761D01*
X136048619Y-77485761D01*
X136048619Y-75485761D01*
X133953380Y-66436761D02*
X133953380Y-64436761D01*
X134905761Y-66436761D02*
X134905761Y-64436761D01*
X136048619Y-66436761D01*
X136048619Y-64436761D01*
X133826380Y-55006761D02*
X133826380Y-53006761D01*
X134778761Y-55006761D02*
X134778761Y-53006761D01*
X135921619Y-55006761D01*
X135921619Y-53006761D01*
D12*
G04 #@! TO.C,J6*
X204343000Y-84022000D02*
X204343000Y-90222000D01*
X204343000Y-90222000D02*
X201599000Y-90222000D01*
X201599000Y-90222000D02*
X201599000Y-91440000D01*
X201599000Y-91442000D02*
X189865000Y-91442000D01*
X189865000Y-91440000D02*
X189865000Y-82802000D01*
X189865000Y-82802000D02*
X201599000Y-82802000D01*
X201599000Y-82804000D02*
X201599000Y-84022000D01*
X201599000Y-84022000D02*
X204343000Y-84022000D01*
G04 #@! TO.C,J1*
X118237000Y-90882000D02*
X118237000Y-84682000D01*
X118237000Y-84682000D02*
X120981000Y-84682000D01*
X120981000Y-84682000D02*
X120981000Y-83464000D01*
X120981000Y-83462000D02*
X132715000Y-83462000D01*
X132715000Y-83464000D02*
X132715000Y-92102000D01*
X132715000Y-92102000D02*
X120981000Y-92102000D01*
X120981000Y-92100000D02*
X120981000Y-90882000D01*
X120981000Y-90882000D02*
X118237000Y-90882000D01*
G04 #@! TO.C,J2*
X118237000Y-79655332D02*
X118237000Y-73455332D01*
X118237000Y-73455332D02*
X120981000Y-73455332D01*
X120981000Y-73455332D02*
X120981000Y-72237332D01*
X120981000Y-72235332D02*
X132715000Y-72235332D01*
X132715000Y-72237332D02*
X132715000Y-80875332D01*
X132715000Y-80875332D02*
X120981000Y-80875332D01*
X120981000Y-80873332D02*
X120981000Y-79655332D01*
X120981000Y-79655332D02*
X118237000Y-79655332D01*
G04 #@! TO.C,J3*
X118237000Y-68428666D02*
X118237000Y-62228666D01*
X118237000Y-62228666D02*
X120981000Y-62228666D01*
X120981000Y-62228666D02*
X120981000Y-61010666D01*
X120981000Y-61008666D02*
X132715000Y-61008666D01*
X132715000Y-61010666D02*
X132715000Y-69648666D01*
X132715000Y-69648666D02*
X120981000Y-69648666D01*
X120981000Y-69646666D02*
X120981000Y-68428666D01*
X120981000Y-68428666D02*
X118237000Y-68428666D01*
G04 #@! TO.C,J4*
X118237000Y-57202000D02*
X118237000Y-51002000D01*
X118237000Y-51002000D02*
X120981000Y-51002000D01*
X120981000Y-51002000D02*
X120981000Y-49784000D01*
X120981000Y-49782000D02*
X132715000Y-49782000D01*
X132715000Y-49784000D02*
X132715000Y-58422000D01*
X132715000Y-58422000D02*
X120981000Y-58422000D01*
X120981000Y-58420000D02*
X120981000Y-57202000D01*
X120981000Y-57202000D02*
X118237000Y-57202000D01*
G04 #@! TO.C,C1*
X188520000Y-59056748D02*
X188520000Y-59579252D01*
X189940000Y-59056748D02*
X189940000Y-59579252D01*
G04 #@! TO.C,C2*
X181154000Y-55633252D02*
X181154000Y-55110748D01*
X182574000Y-55633252D02*
X182574000Y-55110748D01*
G04 #@! TO.C,C3*
X182061752Y-57837000D02*
X181539248Y-57837000D01*
X182061752Y-59257000D02*
X181539248Y-59257000D01*
G04 #@! TO.C,C4*
X189051000Y-55760252D02*
X189051000Y-55237748D01*
X187631000Y-55760252D02*
X187631000Y-55237748D01*
G04 #@! TO.C,C5*
X183336000Y-61324748D02*
X183336000Y-61847252D01*
X181916000Y-61324748D02*
X181916000Y-61847252D01*
G04 #@! TO.C,C6*
X138682252Y-85292000D02*
X138159748Y-85292000D01*
X138682252Y-83872000D02*
X138159748Y-83872000D01*
G04 #@! TO.C,C7*
X138682252Y-74073666D02*
X138159748Y-74073666D01*
X138682252Y-72653666D02*
X138159748Y-72653666D01*
G04 #@! TO.C,C8*
X138682252Y-62855333D02*
X138159748Y-62855333D01*
X138682252Y-61435333D02*
X138159748Y-61435333D01*
G04 #@! TO.C,C9*
X138682252Y-51637000D02*
X138159748Y-51637000D01*
X138682252Y-50217000D02*
X138159748Y-50217000D01*
G04 #@! TO.C,C10*
X138564252Y-90222000D02*
X138041748Y-90222000D01*
X138564252Y-91642000D02*
X138041748Y-91642000D01*
G04 #@! TO.C,C11*
X138564252Y-79003666D02*
X138041748Y-79003666D01*
X138564252Y-80423666D02*
X138041748Y-80423666D01*
G04 #@! TO.C,C12*
X138564252Y-67785333D02*
X138041748Y-67785333D01*
X138564252Y-69205333D02*
X138041748Y-69205333D01*
G04 #@! TO.C,C13*
X138564252Y-57987000D02*
X138041748Y-57987000D01*
X138564252Y-56567000D02*
X138041748Y-56567000D01*
G04 #@! TO.C,C14*
X181363252Y-75744000D02*
X180840748Y-75744000D01*
X181363252Y-77164000D02*
X180840748Y-77164000D01*
G04 #@! TO.C,C15*
X181354252Y-79323000D02*
X180831748Y-79323000D01*
X181354252Y-77903000D02*
X180831748Y-77903000D01*
G04 #@! TO.C,C16*
X186697252Y-92404000D02*
X186174748Y-92404000D01*
X186697252Y-90984000D02*
X186174748Y-90984000D01*
G04 #@! TO.C,C17*
X181354252Y-80062000D02*
X180831748Y-80062000D01*
X181354252Y-81482000D02*
X180831748Y-81482000D01*
G04 #@! TO.C,C18*
X192784252Y-79427000D02*
X192261748Y-79427000D01*
X192784252Y-80847000D02*
X192261748Y-80847000D01*
D13*
G04 #@! TO.C,J5*
X202237000Y-61525500D02*
X202237000Y-54425500D01*
X202237000Y-54425500D02*
X196937000Y-54425500D01*
X196937000Y-54425500D02*
X196937000Y-61525500D01*
X196937000Y-61525500D02*
X202237000Y-61525500D01*
D12*
G04 #@! TO.C,R1*
X180669000Y-61856252D02*
X180669000Y-61333748D01*
X179249000Y-61856252D02*
X179249000Y-61333748D01*
G04 #@! TO.C,R2*
X185173252Y-49478000D02*
X184650748Y-49478000D01*
X185173252Y-48058000D02*
X184650748Y-48058000D01*
G04 #@! TO.C,R3*
X183776252Y-52907000D02*
X183253748Y-52907000D01*
X183776252Y-51487000D02*
X183253748Y-51487000D01*
G04 #@! TO.C,R4*
X188085252Y-51487000D02*
X187562748Y-51487000D01*
X188085252Y-52907000D02*
X187562748Y-52907000D01*
G04 #@! TO.C,R5*
X185276748Y-60377000D02*
X185799252Y-60377000D01*
X185276748Y-61797000D02*
X185799252Y-61797000D01*
G04 #@! TO.C,R6*
X185808252Y-63829000D02*
X185285748Y-63829000D01*
X185808252Y-62409000D02*
X185285748Y-62409000D01*
G04 #@! TO.C,R7*
X151636252Y-44248000D02*
X151113748Y-44248000D01*
X151636252Y-45668000D02*
X151113748Y-45668000D01*
G04 #@! TO.C,R8*
X151509252Y-58791333D02*
X150986748Y-58791333D01*
X151509252Y-57371333D02*
X150986748Y-57371333D01*
G04 #@! TO.C,R9*
X151509252Y-70494666D02*
X150986748Y-70494666D01*
X151509252Y-71914666D02*
X150986748Y-71914666D01*
G04 #@! TO.C,R10*
X151645252Y-85038000D02*
X151122748Y-85038000D01*
X151645252Y-83618000D02*
X151122748Y-83618000D01*
G04 #@! TO.C,R11*
X169171252Y-84911000D02*
X168648748Y-84911000D01*
X169171252Y-83491000D02*
X168648748Y-83491000D01*
G04 #@! TO.C,R12*
X169171252Y-71830000D02*
X168648748Y-71830000D01*
X169171252Y-70410000D02*
X168648748Y-70410000D01*
G04 #@! TO.C,R13*
X169171252Y-57329000D02*
X168648748Y-57329000D01*
X169171252Y-58749000D02*
X168648748Y-58749000D01*
G04 #@! TO.C,R14*
X169171252Y-44248000D02*
X168648748Y-44248000D01*
X169171252Y-45668000D02*
X168648748Y-45668000D01*
G04 #@! TO.C,R15*
X173870252Y-91388000D02*
X173347748Y-91388000D01*
X173870252Y-89968000D02*
X173347748Y-89968000D01*
G04 #@! TO.C,R16*
X173870252Y-76887000D02*
X173347748Y-76887000D01*
X173870252Y-78307000D02*
X173347748Y-78307000D01*
G04 #@! TO.C,R17*
X173870252Y-65226000D02*
X173347748Y-65226000D01*
X173870252Y-63806000D02*
X173347748Y-63806000D01*
G04 #@! TO.C,R18*
X173870252Y-50725000D02*
X173347748Y-50725000D01*
X173870252Y-52145000D02*
X173347748Y-52145000D01*
G04 #@! TO.C,R19*
X156208252Y-90095000D02*
X155685748Y-90095000D01*
X156208252Y-91515000D02*
X155685748Y-91515000D01*
G04 #@! TO.C,R20*
X156208252Y-78391666D02*
X155685748Y-78391666D01*
X156208252Y-76971666D02*
X155685748Y-76971666D01*
G04 #@! TO.C,R21*
X156208252Y-63848333D02*
X155685748Y-63848333D01*
X156208252Y-65268333D02*
X155685748Y-65268333D01*
G04 #@! TO.C,R22*
X156208252Y-50725000D02*
X155685748Y-50725000D01*
X156208252Y-52145000D02*
X155685748Y-52145000D01*
G04 #@! TO.C,R23*
X181481252Y-90222000D02*
X180958748Y-90222000D01*
X181481252Y-91642000D02*
X180958748Y-91642000D01*
G04 #@! TO.C,R24*
X187654000Y-80138748D02*
X187654000Y-80661252D01*
X186234000Y-80138748D02*
X186234000Y-80661252D01*
G04 #@! TO.C,R25*
X185037252Y-88317000D02*
X184514748Y-88317000D01*
X185037252Y-89737000D02*
X184514748Y-89737000D01*
G04 #@! TO.C,R26*
X190067000Y-78850748D02*
X190067000Y-79373252D01*
X188647000Y-78850748D02*
X188647000Y-79373252D01*
G04 #@! TO.C,SW1*
X194310000Y-68453000D02*
X195580000Y-68453000D01*
X194310000Y-69723000D02*
X194310000Y-68453000D01*
X196622929Y-75183000D02*
X197020000Y-75183000D01*
X196622929Y-74423000D02*
X197020000Y-74423000D01*
X205680000Y-75183000D02*
X199680000Y-75183000D01*
X205680000Y-74423000D02*
X205680000Y-75183000D01*
X199680000Y-74423000D02*
X205680000Y-74423000D01*
X197020000Y-73533000D02*
X199680000Y-73533000D01*
X196622929Y-72643000D02*
X197020000Y-72643000D01*
X196622929Y-71883000D02*
X197020000Y-71883000D01*
X205680000Y-72643000D02*
X199680000Y-72643000D01*
X205680000Y-71883000D02*
X205680000Y-72643000D01*
X199680000Y-71883000D02*
X205680000Y-71883000D01*
X197020000Y-70993000D02*
X199680000Y-70993000D01*
X196690000Y-70103000D02*
X197020000Y-70103000D01*
X196690000Y-69343000D02*
X197020000Y-69343000D01*
X199680000Y-70003000D02*
X205680000Y-70003000D01*
X199680000Y-69883000D02*
X205680000Y-69883000D01*
X199680000Y-69763000D02*
X205680000Y-69763000D01*
X199680000Y-69643000D02*
X205680000Y-69643000D01*
X199680000Y-69523000D02*
X205680000Y-69523000D01*
X199680000Y-69403000D02*
X205680000Y-69403000D01*
X205680000Y-70103000D02*
X199680000Y-70103000D01*
X205680000Y-69343000D02*
X205680000Y-70103000D01*
X199680000Y-69343000D02*
X205680000Y-69343000D01*
X199680000Y-68393000D02*
X197020000Y-68393000D01*
X199680000Y-76133000D02*
X199680000Y-68393000D01*
X197020000Y-76133000D02*
X199680000Y-76133000D01*
X197020000Y-68393000D02*
X197020000Y-76133000D01*
G04 #@! TO.C,U1*
X184297000Y-56165000D02*
X186667000Y-56165000D01*
X186047000Y-59405000D02*
X185047000Y-59405000D01*
X183847000Y-55785000D02*
X185047000Y-55785000D01*
X183847000Y-57285000D02*
X183847000Y-55785000D01*
G04 #@! TO.C,U2*
X180975000Y-82530000D02*
X177525000Y-82530000D01*
X180975000Y-82530000D02*
X182925000Y-82530000D01*
X180975000Y-87650000D02*
X179025000Y-87650000D01*
X180975000Y-87650000D02*
X182925000Y-87650000D01*
G04 #@! TO.C,D1*
X198644000Y-66492000D02*
X201504000Y-66492000D01*
X201504000Y-66492000D02*
X201504000Y-64572000D01*
X201504000Y-64572000D02*
X198644000Y-64572000D01*
G04 #@! TO.C,D2*
X197666000Y-51125000D02*
X200526000Y-51125000D01*
X197666000Y-49205000D02*
X197666000Y-51125000D01*
X200526000Y-49205000D02*
X197666000Y-49205000D01*
G04 #@! TO.C,R27*
X195070252Y-66242000D02*
X194547748Y-66242000D01*
X195070252Y-64822000D02*
X194547748Y-64822000D01*
G04 #@! TO.C,R28*
X194825252Y-49455000D02*
X194302748Y-49455000D01*
X194825252Y-50875000D02*
X194302748Y-50875000D01*
G04 #@! TO.C,R29*
X191441000Y-70595748D02*
X191441000Y-71118252D01*
X192861000Y-70595748D02*
X192861000Y-71118252D01*
G04 #@! TO.C,RV1*
X153028000Y-51435000D02*
G75*
G03*
X153028000Y-51435000I-3930000J0D01*
G01*
G04 #@! TO.C,RV2*
X153028000Y-64558333D02*
G75*
G03*
X153028000Y-64558333I-3930000J0D01*
G01*
G04 #@! TO.C,RV3*
X153028000Y-77681666D02*
G75*
G03*
X153028000Y-77681666I-3930000J0D01*
G01*
G04 #@! TO.C,RV4*
X153028000Y-90805000D02*
G75*
G03*
X153028000Y-90805000I-3930000J0D01*
G01*
G04 #@! TO.C,RV5*
X170554000Y-90678000D02*
G75*
G03*
X170554000Y-90678000I-3930000J0D01*
G01*
G04 #@! TO.C,RV6*
X170554000Y-77597000D02*
G75*
G03*
X170554000Y-77597000I-3930000J0D01*
G01*
G04 #@! TO.C,RV7*
X170554000Y-64516000D02*
G75*
G03*
X170554000Y-64516000I-3930000J0D01*
G01*
G04 #@! TO.C,RV8*
X170554000Y-51435000D02*
G75*
G03*
X170554000Y-51435000I-3930000J0D01*
G01*
G04 #@! TO.C,C19*
X179653000Y-55633252D02*
X179653000Y-55110748D01*
X178233000Y-55633252D02*
X178233000Y-55110748D01*
G04 #@! TO.C,R30*
X138700252Y-85904000D02*
X138177748Y-85904000D01*
X138700252Y-87324000D02*
X138177748Y-87324000D01*
G04 #@! TO.C,R31*
X138700252Y-74728000D02*
X138177748Y-74728000D01*
X138700252Y-76148000D02*
X138177748Y-76148000D01*
G04 #@! TO.C,R32*
X138700252Y-63425000D02*
X138177748Y-63425000D01*
X138700252Y-64845000D02*
X138177748Y-64845000D01*
G04 #@! TO.C,R33*
X138682252Y-52249000D02*
X138159748Y-52249000D01*
X138682252Y-53669000D02*
X138159748Y-53669000D01*
G04 #@! TO.C,R34*
X138032748Y-88190000D02*
X138555252Y-88190000D01*
X138032748Y-89610000D02*
X138555252Y-89610000D01*
G04 #@! TO.C,R35*
X138032748Y-77014000D02*
X138555252Y-77014000D01*
X138032748Y-78434000D02*
X138555252Y-78434000D01*
G04 #@! TO.C,R36*
X138041748Y-65711000D02*
X138564252Y-65711000D01*
X138041748Y-67131000D02*
X138564252Y-67131000D01*
G04 #@! TO.C,R37*
X138032748Y-54535000D02*
X138555252Y-54535000D01*
X138032748Y-55955000D02*
X138555252Y-55955000D01*
G04 #@! TO.C,R38*
X186697252Y-94436000D02*
X186174748Y-94436000D01*
X186697252Y-93016000D02*
X186174748Y-93016000D01*
G04 #@! TO.C,R39*
X192261748Y-78688000D02*
X192784252Y-78688000D01*
X192261748Y-77268000D02*
X192784252Y-77268000D01*
G04 #@! TO.C,FB1*
X184923500Y-71372252D02*
X184923500Y-70849748D01*
X183503500Y-71372252D02*
X183503500Y-70849748D01*
G04 #@! TO.C,FB2*
X180582500Y-71435752D02*
X180582500Y-70913248D01*
X182002500Y-71435752D02*
X182002500Y-70913248D01*
G04 #@! TO.C,FB3*
X179018000Y-71381252D02*
X179018000Y-70858748D01*
X177598000Y-71381252D02*
X177598000Y-70858748D01*
G04 #@! TD*
G04 #@! TO.C,J6*
D14*
X188261666Y-83145380D02*
X188261666Y-83859666D01*
X188214047Y-84002523D01*
X188118809Y-84097761D01*
X187975952Y-84145380D01*
X187880714Y-84145380D01*
X189166428Y-83145380D02*
X188975952Y-83145380D01*
X188880714Y-83193000D01*
X188833095Y-83240619D01*
X188737857Y-83383476D01*
X188690238Y-83573952D01*
X188690238Y-83954904D01*
X188737857Y-84050142D01*
X188785476Y-84097761D01*
X188880714Y-84145380D01*
X189071190Y-84145380D01*
X189166428Y-84097761D01*
X189214047Y-84050142D01*
X189261666Y-83954904D01*
X189261666Y-83716809D01*
X189214047Y-83621571D01*
X189166428Y-83573952D01*
X189071190Y-83526333D01*
X188880714Y-83526333D01*
X188785476Y-83573952D01*
X188737857Y-83621571D01*
X188690238Y-83716809D01*
G04 #@! TO.C,J1*
X133778666Y-91400380D02*
X133778666Y-92114666D01*
X133731047Y-92257523D01*
X133635809Y-92352761D01*
X133492952Y-92400380D01*
X133397714Y-92400380D01*
X134778666Y-92400380D02*
X134207238Y-92400380D01*
X134492952Y-92400380D02*
X134492952Y-91400380D01*
X134397714Y-91543238D01*
X134302476Y-91638476D01*
X134207238Y-91686095D01*
G04 #@! TO.C,J2*
X133905666Y-80097380D02*
X133905666Y-80811666D01*
X133858047Y-80954523D01*
X133762809Y-81049761D01*
X133619952Y-81097380D01*
X133524714Y-81097380D01*
X134334238Y-80192619D02*
X134381857Y-80145000D01*
X134477095Y-80097380D01*
X134715190Y-80097380D01*
X134810428Y-80145000D01*
X134858047Y-80192619D01*
X134905666Y-80287857D01*
X134905666Y-80383095D01*
X134858047Y-80525952D01*
X134286619Y-81097380D01*
X134905666Y-81097380D01*
G04 #@! TO.C,J3*
X133905666Y-68667380D02*
X133905666Y-69381666D01*
X133858047Y-69524523D01*
X133762809Y-69619761D01*
X133619952Y-69667380D01*
X133524714Y-69667380D01*
X134286619Y-68667380D02*
X134905666Y-68667380D01*
X134572333Y-69048333D01*
X134715190Y-69048333D01*
X134810428Y-69095952D01*
X134858047Y-69143571D01*
X134905666Y-69238809D01*
X134905666Y-69476904D01*
X134858047Y-69572142D01*
X134810428Y-69619761D01*
X134715190Y-69667380D01*
X134429476Y-69667380D01*
X134334238Y-69619761D01*
X134286619Y-69572142D01*
G04 #@! TO.C,J4*
X133905666Y-57491380D02*
X133905666Y-58205666D01*
X133858047Y-58348523D01*
X133762809Y-58443761D01*
X133619952Y-58491380D01*
X133524714Y-58491380D01*
X134810428Y-57824714D02*
X134810428Y-58491380D01*
X134572333Y-57443761D02*
X134334238Y-58158047D01*
X134953285Y-58158047D01*
G04 #@! TO.C,C1*
X191237142Y-59484666D02*
X191284761Y-59532285D01*
X191332380Y-59675142D01*
X191332380Y-59770380D01*
X191284761Y-59913238D01*
X191189523Y-60008476D01*
X191094285Y-60056095D01*
X190903809Y-60103714D01*
X190760952Y-60103714D01*
X190570476Y-60056095D01*
X190475238Y-60008476D01*
X190380000Y-59913238D01*
X190332380Y-59770380D01*
X190332380Y-59675142D01*
X190380000Y-59532285D01*
X190427619Y-59484666D01*
X191332380Y-58532285D02*
X191332380Y-59103714D01*
X191332380Y-58818000D02*
X190332380Y-58818000D01*
X190475238Y-58913238D01*
X190570476Y-59008476D01*
X190618095Y-59103714D01*
G04 #@! TO.C,C2*
X177649142Y-56046666D02*
X177696761Y-56094285D01*
X177744380Y-56237142D01*
X177744380Y-56332380D01*
X177696761Y-56475238D01*
X177601523Y-56570476D01*
X177506285Y-56618095D01*
X177315809Y-56665714D01*
X177172952Y-56665714D01*
X176982476Y-56618095D01*
X176887238Y-56570476D01*
X176792000Y-56475238D01*
X176744380Y-56332380D01*
X176744380Y-56237142D01*
X176792000Y-56094285D01*
X176839619Y-56046666D01*
X176839619Y-55665714D02*
X176792000Y-55618095D01*
X176744380Y-55522857D01*
X176744380Y-55284761D01*
X176792000Y-55189523D01*
X176839619Y-55141904D01*
X176934857Y-55094285D01*
X177030095Y-55094285D01*
X177172952Y-55141904D01*
X177744380Y-55713333D01*
X177744380Y-55094285D01*
G04 #@! TO.C,C3*
X178776333Y-58904142D02*
X178728714Y-58951761D01*
X178585857Y-58999380D01*
X178490619Y-58999380D01*
X178347761Y-58951761D01*
X178252523Y-58856523D01*
X178204904Y-58761285D01*
X178157285Y-58570809D01*
X178157285Y-58427952D01*
X178204904Y-58237476D01*
X178252523Y-58142238D01*
X178347761Y-58047000D01*
X178490619Y-57999380D01*
X178585857Y-57999380D01*
X178728714Y-58047000D01*
X178776333Y-58094619D01*
X179109666Y-57999380D02*
X179728714Y-57999380D01*
X179395380Y-58380333D01*
X179538238Y-58380333D01*
X179633476Y-58427952D01*
X179681095Y-58475571D01*
X179728714Y-58570809D01*
X179728714Y-58808904D01*
X179681095Y-58904142D01*
X179633476Y-58951761D01*
X179538238Y-58999380D01*
X179252523Y-58999380D01*
X179157285Y-58951761D01*
X179109666Y-58904142D01*
G04 #@! TO.C,C4*
X190603142Y-56173666D02*
X190650761Y-56221285D01*
X190698380Y-56364142D01*
X190698380Y-56459380D01*
X190650761Y-56602238D01*
X190555523Y-56697476D01*
X190460285Y-56745095D01*
X190269809Y-56792714D01*
X190126952Y-56792714D01*
X189936476Y-56745095D01*
X189841238Y-56697476D01*
X189746000Y-56602238D01*
X189698380Y-56459380D01*
X189698380Y-56364142D01*
X189746000Y-56221285D01*
X189793619Y-56173666D01*
X190031714Y-55316523D02*
X190698380Y-55316523D01*
X189650761Y-55554619D02*
X190365047Y-55792714D01*
X190365047Y-55173666D01*
G04 #@! TO.C,C5*
X182983142Y-64682666D02*
X183030761Y-64730285D01*
X183078380Y-64873142D01*
X183078380Y-64968380D01*
X183030761Y-65111238D01*
X182935523Y-65206476D01*
X182840285Y-65254095D01*
X182649809Y-65301714D01*
X182506952Y-65301714D01*
X182316476Y-65254095D01*
X182221238Y-65206476D01*
X182126000Y-65111238D01*
X182078380Y-64968380D01*
X182078380Y-64873142D01*
X182126000Y-64730285D01*
X182173619Y-64682666D01*
X182078380Y-63777904D02*
X182078380Y-64254095D01*
X182554571Y-64301714D01*
X182506952Y-64254095D01*
X182459333Y-64158857D01*
X182459333Y-63920761D01*
X182506952Y-63825523D01*
X182554571Y-63777904D01*
X182649809Y-63730285D01*
X182887904Y-63730285D01*
X182983142Y-63777904D01*
X183030761Y-63825523D01*
X183078380Y-63920761D01*
X183078380Y-64158857D01*
X183030761Y-64254095D01*
X182983142Y-64301714D01*
G04 #@! TO.C,C6*
X141184333Y-84939142D02*
X141136714Y-84986761D01*
X140993857Y-85034380D01*
X140898619Y-85034380D01*
X140755761Y-84986761D01*
X140660523Y-84891523D01*
X140612904Y-84796285D01*
X140565285Y-84605809D01*
X140565285Y-84462952D01*
X140612904Y-84272476D01*
X140660523Y-84177238D01*
X140755761Y-84082000D01*
X140898619Y-84034380D01*
X140993857Y-84034380D01*
X141136714Y-84082000D01*
X141184333Y-84129619D01*
X142041476Y-84034380D02*
X141851000Y-84034380D01*
X141755761Y-84082000D01*
X141708142Y-84129619D01*
X141612904Y-84272476D01*
X141565285Y-84462952D01*
X141565285Y-84843904D01*
X141612904Y-84939142D01*
X141660523Y-84986761D01*
X141755761Y-85034380D01*
X141946238Y-85034380D01*
X142041476Y-84986761D01*
X142089095Y-84939142D01*
X142136714Y-84843904D01*
X142136714Y-84605809D01*
X142089095Y-84510571D01*
X142041476Y-84462952D01*
X141946238Y-84415333D01*
X141755761Y-84415333D01*
X141660523Y-84462952D01*
X141612904Y-84510571D01*
X141565285Y-84605809D01*
G04 #@! TO.C,C7*
X141184333Y-73763142D02*
X141136714Y-73810761D01*
X140993857Y-73858380D01*
X140898619Y-73858380D01*
X140755761Y-73810761D01*
X140660523Y-73715523D01*
X140612904Y-73620285D01*
X140565285Y-73429809D01*
X140565285Y-73286952D01*
X140612904Y-73096476D01*
X140660523Y-73001238D01*
X140755761Y-72906000D01*
X140898619Y-72858380D01*
X140993857Y-72858380D01*
X141136714Y-72906000D01*
X141184333Y-72953619D01*
X141517666Y-72858380D02*
X142184333Y-72858380D01*
X141755761Y-73858380D01*
G04 #@! TO.C,C8*
X141184333Y-62460142D02*
X141136714Y-62507761D01*
X140993857Y-62555380D01*
X140898619Y-62555380D01*
X140755761Y-62507761D01*
X140660523Y-62412523D01*
X140612904Y-62317285D01*
X140565285Y-62126809D01*
X140565285Y-61983952D01*
X140612904Y-61793476D01*
X140660523Y-61698238D01*
X140755761Y-61603000D01*
X140898619Y-61555380D01*
X140993857Y-61555380D01*
X141136714Y-61603000D01*
X141184333Y-61650619D01*
X141755761Y-61983952D02*
X141660523Y-61936333D01*
X141612904Y-61888714D01*
X141565285Y-61793476D01*
X141565285Y-61745857D01*
X141612904Y-61650619D01*
X141660523Y-61603000D01*
X141755761Y-61555380D01*
X141946238Y-61555380D01*
X142041476Y-61603000D01*
X142089095Y-61650619D01*
X142136714Y-61745857D01*
X142136714Y-61793476D01*
X142089095Y-61888714D01*
X142041476Y-61936333D01*
X141946238Y-61983952D01*
X141755761Y-61983952D01*
X141660523Y-62031571D01*
X141612904Y-62079190D01*
X141565285Y-62174428D01*
X141565285Y-62364904D01*
X141612904Y-62460142D01*
X141660523Y-62507761D01*
X141755761Y-62555380D01*
X141946238Y-62555380D01*
X142041476Y-62507761D01*
X142089095Y-62460142D01*
X142136714Y-62364904D01*
X142136714Y-62174428D01*
X142089095Y-62079190D01*
X142041476Y-62031571D01*
X141946238Y-61983952D01*
G04 #@! TO.C,C9*
X141184333Y-51284142D02*
X141136714Y-51331761D01*
X140993857Y-51379380D01*
X140898619Y-51379380D01*
X140755761Y-51331761D01*
X140660523Y-51236523D01*
X140612904Y-51141285D01*
X140565285Y-50950809D01*
X140565285Y-50807952D01*
X140612904Y-50617476D01*
X140660523Y-50522238D01*
X140755761Y-50427000D01*
X140898619Y-50379380D01*
X140993857Y-50379380D01*
X141136714Y-50427000D01*
X141184333Y-50474619D01*
X141660523Y-51379380D02*
X141851000Y-51379380D01*
X141946238Y-51331761D01*
X141993857Y-51284142D01*
X142089095Y-51141285D01*
X142136714Y-50950809D01*
X142136714Y-50569857D01*
X142089095Y-50474619D01*
X142041476Y-50427000D01*
X141946238Y-50379380D01*
X141755761Y-50379380D01*
X141660523Y-50427000D01*
X141612904Y-50474619D01*
X141565285Y-50569857D01*
X141565285Y-50807952D01*
X141612904Y-50903190D01*
X141660523Y-50950809D01*
X141755761Y-50998428D01*
X141946238Y-50998428D01*
X142041476Y-50950809D01*
X142089095Y-50903190D01*
X142136714Y-50807952D01*
G04 #@! TO.C,C10*
X140962142Y-91289142D02*
X140914523Y-91336761D01*
X140771666Y-91384380D01*
X140676428Y-91384380D01*
X140533571Y-91336761D01*
X140438333Y-91241523D01*
X140390714Y-91146285D01*
X140343095Y-90955809D01*
X140343095Y-90812952D01*
X140390714Y-90622476D01*
X140438333Y-90527238D01*
X140533571Y-90432000D01*
X140676428Y-90384380D01*
X140771666Y-90384380D01*
X140914523Y-90432000D01*
X140962142Y-90479619D01*
X141914523Y-91384380D02*
X141343095Y-91384380D01*
X141628809Y-91384380D02*
X141628809Y-90384380D01*
X141533571Y-90527238D01*
X141438333Y-90622476D01*
X141343095Y-90670095D01*
X142533571Y-90384380D02*
X142628809Y-90384380D01*
X142724047Y-90432000D01*
X142771666Y-90479619D01*
X142819285Y-90574857D01*
X142866904Y-90765333D01*
X142866904Y-91003428D01*
X142819285Y-91193904D01*
X142771666Y-91289142D01*
X142724047Y-91336761D01*
X142628809Y-91384380D01*
X142533571Y-91384380D01*
X142438333Y-91336761D01*
X142390714Y-91289142D01*
X142343095Y-91193904D01*
X142295476Y-91003428D01*
X142295476Y-90765333D01*
X142343095Y-90574857D01*
X142390714Y-90479619D01*
X142438333Y-90432000D01*
X142533571Y-90384380D01*
G04 #@! TO.C,C11*
X140962142Y-79986142D02*
X140914523Y-80033761D01*
X140771666Y-80081380D01*
X140676428Y-80081380D01*
X140533571Y-80033761D01*
X140438333Y-79938523D01*
X140390714Y-79843285D01*
X140343095Y-79652809D01*
X140343095Y-79509952D01*
X140390714Y-79319476D01*
X140438333Y-79224238D01*
X140533571Y-79129000D01*
X140676428Y-79081380D01*
X140771666Y-79081380D01*
X140914523Y-79129000D01*
X140962142Y-79176619D01*
X141914523Y-80081380D02*
X141343095Y-80081380D01*
X141628809Y-80081380D02*
X141628809Y-79081380D01*
X141533571Y-79224238D01*
X141438333Y-79319476D01*
X141343095Y-79367095D01*
X142866904Y-80081380D02*
X142295476Y-80081380D01*
X142581190Y-80081380D02*
X142581190Y-79081380D01*
X142485952Y-79224238D01*
X142390714Y-79319476D01*
X142295476Y-79367095D01*
G04 #@! TO.C,C12*
X141089142Y-68810142D02*
X141041523Y-68857761D01*
X140898666Y-68905380D01*
X140803428Y-68905380D01*
X140660571Y-68857761D01*
X140565333Y-68762523D01*
X140517714Y-68667285D01*
X140470095Y-68476809D01*
X140470095Y-68333952D01*
X140517714Y-68143476D01*
X140565333Y-68048238D01*
X140660571Y-67953000D01*
X140803428Y-67905380D01*
X140898666Y-67905380D01*
X141041523Y-67953000D01*
X141089142Y-68000619D01*
X142041523Y-68905380D02*
X141470095Y-68905380D01*
X141755809Y-68905380D02*
X141755809Y-67905380D01*
X141660571Y-68048238D01*
X141565333Y-68143476D01*
X141470095Y-68191095D01*
X142422476Y-68000619D02*
X142470095Y-67953000D01*
X142565333Y-67905380D01*
X142803428Y-67905380D01*
X142898666Y-67953000D01*
X142946285Y-68000619D01*
X142993904Y-68095857D01*
X142993904Y-68191095D01*
X142946285Y-68333952D01*
X142374857Y-68905380D01*
X142993904Y-68905380D01*
G04 #@! TO.C,C13*
X141089142Y-57634142D02*
X141041523Y-57681761D01*
X140898666Y-57729380D01*
X140803428Y-57729380D01*
X140660571Y-57681761D01*
X140565333Y-57586523D01*
X140517714Y-57491285D01*
X140470095Y-57300809D01*
X140470095Y-57157952D01*
X140517714Y-56967476D01*
X140565333Y-56872238D01*
X140660571Y-56777000D01*
X140803428Y-56729380D01*
X140898666Y-56729380D01*
X141041523Y-56777000D01*
X141089142Y-56824619D01*
X142041523Y-57729380D02*
X141470095Y-57729380D01*
X141755809Y-57729380D02*
X141755809Y-56729380D01*
X141660571Y-56872238D01*
X141565333Y-56967476D01*
X141470095Y-57015095D01*
X142374857Y-56729380D02*
X142993904Y-56729380D01*
X142660571Y-57110333D01*
X142803428Y-57110333D01*
X142898666Y-57157952D01*
X142946285Y-57205571D01*
X142993904Y-57300809D01*
X142993904Y-57538904D01*
X142946285Y-57634142D01*
X142898666Y-57681761D01*
X142803428Y-57729380D01*
X142517714Y-57729380D01*
X142422476Y-57681761D01*
X142374857Y-57634142D01*
G04 #@! TO.C,C14*
X177030142Y-76938142D02*
X176982523Y-76985761D01*
X176839666Y-77033380D01*
X176744428Y-77033380D01*
X176601571Y-76985761D01*
X176506333Y-76890523D01*
X176458714Y-76795285D01*
X176411095Y-76604809D01*
X176411095Y-76461952D01*
X176458714Y-76271476D01*
X176506333Y-76176238D01*
X176601571Y-76081000D01*
X176744428Y-76033380D01*
X176839666Y-76033380D01*
X176982523Y-76081000D01*
X177030142Y-76128619D01*
X177982523Y-77033380D02*
X177411095Y-77033380D01*
X177696809Y-77033380D02*
X177696809Y-76033380D01*
X177601571Y-76176238D01*
X177506333Y-76271476D01*
X177411095Y-76319095D01*
X178839666Y-76366714D02*
X178839666Y-77033380D01*
X178601571Y-75985761D02*
X178363476Y-76700047D01*
X178982523Y-76700047D01*
G04 #@! TO.C,C15*
X177030142Y-78970142D02*
X176982523Y-79017761D01*
X176839666Y-79065380D01*
X176744428Y-79065380D01*
X176601571Y-79017761D01*
X176506333Y-78922523D01*
X176458714Y-78827285D01*
X176411095Y-78636809D01*
X176411095Y-78493952D01*
X176458714Y-78303476D01*
X176506333Y-78208238D01*
X176601571Y-78113000D01*
X176744428Y-78065380D01*
X176839666Y-78065380D01*
X176982523Y-78113000D01*
X177030142Y-78160619D01*
X177982523Y-79065380D02*
X177411095Y-79065380D01*
X177696809Y-79065380D02*
X177696809Y-78065380D01*
X177601571Y-78208238D01*
X177506333Y-78303476D01*
X177411095Y-78351095D01*
X178887285Y-78065380D02*
X178411095Y-78065380D01*
X178363476Y-78541571D01*
X178411095Y-78493952D01*
X178506333Y-78446333D01*
X178744428Y-78446333D01*
X178839666Y-78493952D01*
X178887285Y-78541571D01*
X178934904Y-78636809D01*
X178934904Y-78874904D01*
X178887285Y-78970142D01*
X178839666Y-79017761D01*
X178744428Y-79065380D01*
X178506333Y-79065380D01*
X178411095Y-79017761D01*
X178363476Y-78970142D01*
G04 #@! TO.C,C16*
X188571142Y-89923857D02*
X188618761Y-89971476D01*
X188666380Y-90114333D01*
X188666380Y-90209571D01*
X188618761Y-90352428D01*
X188523523Y-90447666D01*
X188428285Y-90495285D01*
X188237809Y-90542904D01*
X188094952Y-90542904D01*
X187904476Y-90495285D01*
X187809238Y-90447666D01*
X187714000Y-90352428D01*
X187666380Y-90209571D01*
X187666380Y-90114333D01*
X187714000Y-89971476D01*
X187761619Y-89923857D01*
X188666380Y-88971476D02*
X188666380Y-89542904D01*
X188666380Y-89257190D02*
X187666380Y-89257190D01*
X187809238Y-89352428D01*
X187904476Y-89447666D01*
X187952095Y-89542904D01*
X187666380Y-88114333D02*
X187666380Y-88304809D01*
X187714000Y-88400047D01*
X187761619Y-88447666D01*
X187904476Y-88542904D01*
X188094952Y-88590523D01*
X188475904Y-88590523D01*
X188571142Y-88542904D01*
X188618761Y-88495285D01*
X188666380Y-88400047D01*
X188666380Y-88209571D01*
X188618761Y-88114333D01*
X188571142Y-88066714D01*
X188475904Y-88019095D01*
X188237809Y-88019095D01*
X188142571Y-88066714D01*
X188094952Y-88114333D01*
X188047333Y-88209571D01*
X188047333Y-88400047D01*
X188094952Y-88495285D01*
X188142571Y-88542904D01*
X188237809Y-88590523D01*
G04 #@! TO.C,C17*
X177030142Y-81510142D02*
X176982523Y-81557761D01*
X176839666Y-81605380D01*
X176744428Y-81605380D01*
X176601571Y-81557761D01*
X176506333Y-81462523D01*
X176458714Y-81367285D01*
X176411095Y-81176809D01*
X176411095Y-81033952D01*
X176458714Y-80843476D01*
X176506333Y-80748238D01*
X176601571Y-80653000D01*
X176744428Y-80605380D01*
X176839666Y-80605380D01*
X176982523Y-80653000D01*
X177030142Y-80700619D01*
X177982523Y-81605380D02*
X177411095Y-81605380D01*
X177696809Y-81605380D02*
X177696809Y-80605380D01*
X177601571Y-80748238D01*
X177506333Y-80843476D01*
X177411095Y-80891095D01*
X178315857Y-80605380D02*
X178982523Y-80605380D01*
X178553952Y-81605380D01*
G04 #@! TO.C,C18*
X195445142Y-80494142D02*
X195397523Y-80541761D01*
X195254666Y-80589380D01*
X195159428Y-80589380D01*
X195016571Y-80541761D01*
X194921333Y-80446523D01*
X194873714Y-80351285D01*
X194826095Y-80160809D01*
X194826095Y-80017952D01*
X194873714Y-79827476D01*
X194921333Y-79732238D01*
X195016571Y-79637000D01*
X195159428Y-79589380D01*
X195254666Y-79589380D01*
X195397523Y-79637000D01*
X195445142Y-79684619D01*
X196397523Y-80589380D02*
X195826095Y-80589380D01*
X196111809Y-80589380D02*
X196111809Y-79589380D01*
X196016571Y-79732238D01*
X195921333Y-79827476D01*
X195826095Y-79875095D01*
X196968952Y-80017952D02*
X196873714Y-79970333D01*
X196826095Y-79922714D01*
X196778476Y-79827476D01*
X196778476Y-79779857D01*
X196826095Y-79684619D01*
X196873714Y-79637000D01*
X196968952Y-79589380D01*
X197159428Y-79589380D01*
X197254666Y-79637000D01*
X197302285Y-79684619D01*
X197349904Y-79779857D01*
X197349904Y-79827476D01*
X197302285Y-79922714D01*
X197254666Y-79970333D01*
X197159428Y-80017952D01*
X196968952Y-80017952D01*
X196873714Y-80065571D01*
X196826095Y-80113190D01*
X196778476Y-80208428D01*
X196778476Y-80398904D01*
X196826095Y-80494142D01*
X196873714Y-80541761D01*
X196968952Y-80589380D01*
X197159428Y-80589380D01*
X197254666Y-80541761D01*
X197302285Y-80494142D01*
X197349904Y-80398904D01*
X197349904Y-80208428D01*
X197302285Y-80113190D01*
X197254666Y-80065571D01*
X197159428Y-80017952D01*
G04 #@! TO.C,J5*
X195389380Y-61108833D02*
X196103666Y-61108833D01*
X196246523Y-61156452D01*
X196341761Y-61251690D01*
X196389380Y-61394547D01*
X196389380Y-61489785D01*
X195389380Y-60156452D02*
X195389380Y-60632642D01*
X195865571Y-60680261D01*
X195817952Y-60632642D01*
X195770333Y-60537404D01*
X195770333Y-60299309D01*
X195817952Y-60204071D01*
X195865571Y-60156452D01*
X195960809Y-60108833D01*
X196198904Y-60108833D01*
X196294142Y-60156452D01*
X196341761Y-60204071D01*
X196389380Y-60299309D01*
X196389380Y-60537404D01*
X196341761Y-60632642D01*
X196294142Y-60680261D01*
G04 #@! TO.C,R1*
X178761380Y-61761666D02*
X178285190Y-62095000D01*
X178761380Y-62333095D02*
X177761380Y-62333095D01*
X177761380Y-61952142D01*
X177809000Y-61856904D01*
X177856619Y-61809285D01*
X177951857Y-61761666D01*
X178094714Y-61761666D01*
X178189952Y-61809285D01*
X178237571Y-61856904D01*
X178285190Y-61952142D01*
X178285190Y-62333095D01*
X178761380Y-60809285D02*
X178761380Y-61380714D01*
X178761380Y-61095000D02*
X177761380Y-61095000D01*
X177904238Y-61190238D01*
X177999476Y-61285476D01*
X178047095Y-61380714D01*
G04 #@! TO.C,R2*
X184745333Y-50870380D02*
X184412000Y-50394190D01*
X184173904Y-50870380D02*
X184173904Y-49870380D01*
X184554857Y-49870380D01*
X184650095Y-49918000D01*
X184697714Y-49965619D01*
X184745333Y-50060857D01*
X184745333Y-50203714D01*
X184697714Y-50298952D01*
X184650095Y-50346571D01*
X184554857Y-50394190D01*
X184173904Y-50394190D01*
X185126285Y-49965619D02*
X185173904Y-49918000D01*
X185269142Y-49870380D01*
X185507238Y-49870380D01*
X185602476Y-49918000D01*
X185650095Y-49965619D01*
X185697714Y-50060857D01*
X185697714Y-50156095D01*
X185650095Y-50298952D01*
X185078666Y-50870380D01*
X185697714Y-50870380D01*
G04 #@! TO.C,R3*
X180427333Y-52649380D02*
X180094000Y-52173190D01*
X179855904Y-52649380D02*
X179855904Y-51649380D01*
X180236857Y-51649380D01*
X180332095Y-51697000D01*
X180379714Y-51744619D01*
X180427333Y-51839857D01*
X180427333Y-51982714D01*
X180379714Y-52077952D01*
X180332095Y-52125571D01*
X180236857Y-52173190D01*
X179855904Y-52173190D01*
X180760666Y-51649380D02*
X181379714Y-51649380D01*
X181046380Y-52030333D01*
X181189238Y-52030333D01*
X181284476Y-52077952D01*
X181332095Y-52125571D01*
X181379714Y-52220809D01*
X181379714Y-52458904D01*
X181332095Y-52554142D01*
X181284476Y-52601761D01*
X181189238Y-52649380D01*
X180903523Y-52649380D01*
X180808285Y-52601761D01*
X180760666Y-52554142D01*
G04 #@! TO.C,R4*
X190714333Y-52776380D02*
X190381000Y-52300190D01*
X190142904Y-52776380D02*
X190142904Y-51776380D01*
X190523857Y-51776380D01*
X190619095Y-51824000D01*
X190666714Y-51871619D01*
X190714333Y-51966857D01*
X190714333Y-52109714D01*
X190666714Y-52204952D01*
X190619095Y-52252571D01*
X190523857Y-52300190D01*
X190142904Y-52300190D01*
X191571476Y-52109714D02*
X191571476Y-52776380D01*
X191333380Y-51728761D02*
X191095285Y-52443047D01*
X191714333Y-52443047D01*
G04 #@! TO.C,R5*
X188428333Y-62428380D02*
X188095000Y-61952190D01*
X187856904Y-62428380D02*
X187856904Y-61428380D01*
X188237857Y-61428380D01*
X188333095Y-61476000D01*
X188380714Y-61523619D01*
X188428333Y-61618857D01*
X188428333Y-61761714D01*
X188380714Y-61856952D01*
X188333095Y-61904571D01*
X188237857Y-61952190D01*
X187856904Y-61952190D01*
X189333095Y-61428380D02*
X188856904Y-61428380D01*
X188809285Y-61904571D01*
X188856904Y-61856952D01*
X188952142Y-61809333D01*
X189190238Y-61809333D01*
X189285476Y-61856952D01*
X189333095Y-61904571D01*
X189380714Y-61999809D01*
X189380714Y-62237904D01*
X189333095Y-62333142D01*
X189285476Y-62380761D01*
X189190238Y-62428380D01*
X188952142Y-62428380D01*
X188856904Y-62380761D01*
X188809285Y-62333142D01*
G04 #@! TO.C,R6*
X188428333Y-63825380D02*
X188095000Y-63349190D01*
X187856904Y-63825380D02*
X187856904Y-62825380D01*
X188237857Y-62825380D01*
X188333095Y-62873000D01*
X188380714Y-62920619D01*
X188428333Y-63015857D01*
X188428333Y-63158714D01*
X188380714Y-63253952D01*
X188333095Y-63301571D01*
X188237857Y-63349190D01*
X187856904Y-63349190D01*
X189285476Y-62825380D02*
X189095000Y-62825380D01*
X188999761Y-62873000D01*
X188952142Y-62920619D01*
X188856904Y-63063476D01*
X188809285Y-63253952D01*
X188809285Y-63634904D01*
X188856904Y-63730142D01*
X188904523Y-63777761D01*
X188999761Y-63825380D01*
X189190238Y-63825380D01*
X189285476Y-63777761D01*
X189333095Y-63730142D01*
X189380714Y-63634904D01*
X189380714Y-63396809D01*
X189333095Y-63301571D01*
X189285476Y-63253952D01*
X189190238Y-63206333D01*
X188999761Y-63206333D01*
X188904523Y-63253952D01*
X188856904Y-63301571D01*
X188809285Y-63396809D01*
G04 #@! TO.C,R7*
X151208333Y-47060380D02*
X150875000Y-46584190D01*
X150636904Y-47060380D02*
X150636904Y-46060380D01*
X151017857Y-46060380D01*
X151113095Y-46108000D01*
X151160714Y-46155619D01*
X151208333Y-46250857D01*
X151208333Y-46393714D01*
X151160714Y-46488952D01*
X151113095Y-46536571D01*
X151017857Y-46584190D01*
X150636904Y-46584190D01*
X151541666Y-46060380D02*
X152208333Y-46060380D01*
X151779761Y-47060380D01*
G04 #@! TO.C,R8*
X151081333Y-60183713D02*
X150748000Y-59707523D01*
X150509904Y-60183713D02*
X150509904Y-59183713D01*
X150890857Y-59183713D01*
X150986095Y-59231333D01*
X151033714Y-59278952D01*
X151081333Y-59374190D01*
X151081333Y-59517047D01*
X151033714Y-59612285D01*
X150986095Y-59659904D01*
X150890857Y-59707523D01*
X150509904Y-59707523D01*
X151652761Y-59612285D02*
X151557523Y-59564666D01*
X151509904Y-59517047D01*
X151462285Y-59421809D01*
X151462285Y-59374190D01*
X151509904Y-59278952D01*
X151557523Y-59231333D01*
X151652761Y-59183713D01*
X151843238Y-59183713D01*
X151938476Y-59231333D01*
X151986095Y-59278952D01*
X152033714Y-59374190D01*
X152033714Y-59421809D01*
X151986095Y-59517047D01*
X151938476Y-59564666D01*
X151843238Y-59612285D01*
X151652761Y-59612285D01*
X151557523Y-59659904D01*
X151509904Y-59707523D01*
X151462285Y-59802761D01*
X151462285Y-59993237D01*
X151509904Y-60088475D01*
X151557523Y-60136094D01*
X151652761Y-60183713D01*
X151843238Y-60183713D01*
X151938476Y-60136094D01*
X151986095Y-60088475D01*
X152033714Y-59993237D01*
X152033714Y-59802761D01*
X151986095Y-59707523D01*
X151938476Y-59659904D01*
X151843238Y-59612285D01*
G04 #@! TO.C,R9*
X151081333Y-73307046D02*
X150748000Y-72830856D01*
X150509904Y-73307046D02*
X150509904Y-72307046D01*
X150890857Y-72307046D01*
X150986095Y-72354666D01*
X151033714Y-72402285D01*
X151081333Y-72497523D01*
X151081333Y-72640380D01*
X151033714Y-72735618D01*
X150986095Y-72783237D01*
X150890857Y-72830856D01*
X150509904Y-72830856D01*
X151557523Y-73307046D02*
X151748000Y-73307046D01*
X151843238Y-73259427D01*
X151890857Y-73211808D01*
X151986095Y-73068951D01*
X152033714Y-72878475D01*
X152033714Y-72497523D01*
X151986095Y-72402285D01*
X151938476Y-72354666D01*
X151843238Y-72307046D01*
X151652761Y-72307046D01*
X151557523Y-72354666D01*
X151509904Y-72402285D01*
X151462285Y-72497523D01*
X151462285Y-72735618D01*
X151509904Y-72830856D01*
X151557523Y-72878475D01*
X151652761Y-72926094D01*
X151843238Y-72926094D01*
X151938476Y-72878475D01*
X151986095Y-72830856D01*
X152033714Y-72735618D01*
G04 #@! TO.C,R10*
X150741142Y-86430380D02*
X150407809Y-85954190D01*
X150169714Y-86430380D02*
X150169714Y-85430380D01*
X150550666Y-85430380D01*
X150645904Y-85478000D01*
X150693523Y-85525619D01*
X150741142Y-85620857D01*
X150741142Y-85763714D01*
X150693523Y-85858952D01*
X150645904Y-85906571D01*
X150550666Y-85954190D01*
X150169714Y-85954190D01*
X151693523Y-86430380D02*
X151122095Y-86430380D01*
X151407809Y-86430380D02*
X151407809Y-85430380D01*
X151312571Y-85573238D01*
X151217333Y-85668476D01*
X151122095Y-85716095D01*
X152312571Y-85430380D02*
X152407809Y-85430380D01*
X152503047Y-85478000D01*
X152550666Y-85525619D01*
X152598285Y-85620857D01*
X152645904Y-85811333D01*
X152645904Y-86049428D01*
X152598285Y-86239904D01*
X152550666Y-86335142D01*
X152503047Y-86382761D01*
X152407809Y-86430380D01*
X152312571Y-86430380D01*
X152217333Y-86382761D01*
X152169714Y-86335142D01*
X152122095Y-86239904D01*
X152074476Y-86049428D01*
X152074476Y-85811333D01*
X152122095Y-85620857D01*
X152169714Y-85525619D01*
X152217333Y-85478000D01*
X152312571Y-85430380D01*
G04 #@! TO.C,R11*
X168267142Y-86303380D02*
X167933809Y-85827190D01*
X167695714Y-86303380D02*
X167695714Y-85303380D01*
X168076666Y-85303380D01*
X168171904Y-85351000D01*
X168219523Y-85398619D01*
X168267142Y-85493857D01*
X168267142Y-85636714D01*
X168219523Y-85731952D01*
X168171904Y-85779571D01*
X168076666Y-85827190D01*
X167695714Y-85827190D01*
X169219523Y-86303380D02*
X168648095Y-86303380D01*
X168933809Y-86303380D02*
X168933809Y-85303380D01*
X168838571Y-85446238D01*
X168743333Y-85541476D01*
X168648095Y-85589095D01*
X170171904Y-86303380D02*
X169600476Y-86303380D01*
X169886190Y-86303380D02*
X169886190Y-85303380D01*
X169790952Y-85446238D01*
X169695714Y-85541476D01*
X169600476Y-85589095D01*
G04 #@! TO.C,R12*
X168267142Y-73222380D02*
X167933809Y-72746190D01*
X167695714Y-73222380D02*
X167695714Y-72222380D01*
X168076666Y-72222380D01*
X168171904Y-72270000D01*
X168219523Y-72317619D01*
X168267142Y-72412857D01*
X168267142Y-72555714D01*
X168219523Y-72650952D01*
X168171904Y-72698571D01*
X168076666Y-72746190D01*
X167695714Y-72746190D01*
X169219523Y-73222380D02*
X168648095Y-73222380D01*
X168933809Y-73222380D02*
X168933809Y-72222380D01*
X168838571Y-72365238D01*
X168743333Y-72460476D01*
X168648095Y-72508095D01*
X169600476Y-72317619D02*
X169648095Y-72270000D01*
X169743333Y-72222380D01*
X169981428Y-72222380D01*
X170076666Y-72270000D01*
X170124285Y-72317619D01*
X170171904Y-72412857D01*
X170171904Y-72508095D01*
X170124285Y-72650952D01*
X169552857Y-73222380D01*
X170171904Y-73222380D01*
G04 #@! TO.C,R13*
X168267142Y-60141380D02*
X167933809Y-59665190D01*
X167695714Y-60141380D02*
X167695714Y-59141380D01*
X168076666Y-59141380D01*
X168171904Y-59189000D01*
X168219523Y-59236619D01*
X168267142Y-59331857D01*
X168267142Y-59474714D01*
X168219523Y-59569952D01*
X168171904Y-59617571D01*
X168076666Y-59665190D01*
X167695714Y-59665190D01*
X169219523Y-60141380D02*
X168648095Y-60141380D01*
X168933809Y-60141380D02*
X168933809Y-59141380D01*
X168838571Y-59284238D01*
X168743333Y-59379476D01*
X168648095Y-59427095D01*
X169552857Y-59141380D02*
X170171904Y-59141380D01*
X169838571Y-59522333D01*
X169981428Y-59522333D01*
X170076666Y-59569952D01*
X170124285Y-59617571D01*
X170171904Y-59712809D01*
X170171904Y-59950904D01*
X170124285Y-60046142D01*
X170076666Y-60093761D01*
X169981428Y-60141380D01*
X169695714Y-60141380D01*
X169600476Y-60093761D01*
X169552857Y-60046142D01*
G04 #@! TO.C,R14*
X168267142Y-47060380D02*
X167933809Y-46584190D01*
X167695714Y-47060380D02*
X167695714Y-46060380D01*
X168076666Y-46060380D01*
X168171904Y-46108000D01*
X168219523Y-46155619D01*
X168267142Y-46250857D01*
X168267142Y-46393714D01*
X168219523Y-46488952D01*
X168171904Y-46536571D01*
X168076666Y-46584190D01*
X167695714Y-46584190D01*
X169219523Y-47060380D02*
X168648095Y-47060380D01*
X168933809Y-47060380D02*
X168933809Y-46060380D01*
X168838571Y-46203238D01*
X168743333Y-46298476D01*
X168648095Y-46346095D01*
X170076666Y-46393714D02*
X170076666Y-47060380D01*
X169838571Y-46012761D02*
X169600476Y-46727047D01*
X170219523Y-46727047D01*
G04 #@! TO.C,R15*
X172966142Y-92780380D02*
X172632809Y-92304190D01*
X172394714Y-92780380D02*
X172394714Y-91780380D01*
X172775666Y-91780380D01*
X172870904Y-91828000D01*
X172918523Y-91875619D01*
X172966142Y-91970857D01*
X172966142Y-92113714D01*
X172918523Y-92208952D01*
X172870904Y-92256571D01*
X172775666Y-92304190D01*
X172394714Y-92304190D01*
X173918523Y-92780380D02*
X173347095Y-92780380D01*
X173632809Y-92780380D02*
X173632809Y-91780380D01*
X173537571Y-91923238D01*
X173442333Y-92018476D01*
X173347095Y-92066095D01*
X174823285Y-91780380D02*
X174347095Y-91780380D01*
X174299476Y-92256571D01*
X174347095Y-92208952D01*
X174442333Y-92161333D01*
X174680428Y-92161333D01*
X174775666Y-92208952D01*
X174823285Y-92256571D01*
X174870904Y-92351809D01*
X174870904Y-92589904D01*
X174823285Y-92685142D01*
X174775666Y-92732761D01*
X174680428Y-92780380D01*
X174442333Y-92780380D01*
X174347095Y-92732761D01*
X174299476Y-92685142D01*
G04 #@! TO.C,R16*
X172966142Y-79699380D02*
X172632809Y-79223190D01*
X172394714Y-79699380D02*
X172394714Y-78699380D01*
X172775666Y-78699380D01*
X172870904Y-78747000D01*
X172918523Y-78794619D01*
X172966142Y-78889857D01*
X172966142Y-79032714D01*
X172918523Y-79127952D01*
X172870904Y-79175571D01*
X172775666Y-79223190D01*
X172394714Y-79223190D01*
X173918523Y-79699380D02*
X173347095Y-79699380D01*
X173632809Y-79699380D02*
X173632809Y-78699380D01*
X173537571Y-78842238D01*
X173442333Y-78937476D01*
X173347095Y-78985095D01*
X174775666Y-78699380D02*
X174585190Y-78699380D01*
X174489952Y-78747000D01*
X174442333Y-78794619D01*
X174347095Y-78937476D01*
X174299476Y-79127952D01*
X174299476Y-79508904D01*
X174347095Y-79604142D01*
X174394714Y-79651761D01*
X174489952Y-79699380D01*
X174680428Y-79699380D01*
X174775666Y-79651761D01*
X174823285Y-79604142D01*
X174870904Y-79508904D01*
X174870904Y-79270809D01*
X174823285Y-79175571D01*
X174775666Y-79127952D01*
X174680428Y-79080333D01*
X174489952Y-79080333D01*
X174394714Y-79127952D01*
X174347095Y-79175571D01*
X174299476Y-79270809D01*
G04 #@! TO.C,R17*
X172966142Y-66618380D02*
X172632809Y-66142190D01*
X172394714Y-66618380D02*
X172394714Y-65618380D01*
X172775666Y-65618380D01*
X172870904Y-65666000D01*
X172918523Y-65713619D01*
X172966142Y-65808857D01*
X172966142Y-65951714D01*
X172918523Y-66046952D01*
X172870904Y-66094571D01*
X172775666Y-66142190D01*
X172394714Y-66142190D01*
X173918523Y-66618380D02*
X173347095Y-66618380D01*
X173632809Y-66618380D02*
X173632809Y-65618380D01*
X173537571Y-65761238D01*
X173442333Y-65856476D01*
X173347095Y-65904095D01*
X174251857Y-65618380D02*
X174918523Y-65618380D01*
X174489952Y-66618380D01*
G04 #@! TO.C,R18*
X172966142Y-53537380D02*
X172632809Y-53061190D01*
X172394714Y-53537380D02*
X172394714Y-52537380D01*
X172775666Y-52537380D01*
X172870904Y-52585000D01*
X172918523Y-52632619D01*
X172966142Y-52727857D01*
X172966142Y-52870714D01*
X172918523Y-52965952D01*
X172870904Y-53013571D01*
X172775666Y-53061190D01*
X172394714Y-53061190D01*
X173918523Y-53537380D02*
X173347095Y-53537380D01*
X173632809Y-53537380D02*
X173632809Y-52537380D01*
X173537571Y-52680238D01*
X173442333Y-52775476D01*
X173347095Y-52823095D01*
X174489952Y-52965952D02*
X174394714Y-52918333D01*
X174347095Y-52870714D01*
X174299476Y-52775476D01*
X174299476Y-52727857D01*
X174347095Y-52632619D01*
X174394714Y-52585000D01*
X174489952Y-52537380D01*
X174680428Y-52537380D01*
X174775666Y-52585000D01*
X174823285Y-52632619D01*
X174870904Y-52727857D01*
X174870904Y-52775476D01*
X174823285Y-52870714D01*
X174775666Y-52918333D01*
X174680428Y-52965952D01*
X174489952Y-52965952D01*
X174394714Y-53013571D01*
X174347095Y-53061190D01*
X174299476Y-53156428D01*
X174299476Y-53346904D01*
X174347095Y-53442142D01*
X174394714Y-53489761D01*
X174489952Y-53537380D01*
X174680428Y-53537380D01*
X174775666Y-53489761D01*
X174823285Y-53442142D01*
X174870904Y-53346904D01*
X174870904Y-53156428D01*
X174823285Y-53061190D01*
X174775666Y-53013571D01*
X174680428Y-52965952D01*
G04 #@! TO.C,R19*
X155304142Y-92907380D02*
X154970809Y-92431190D01*
X154732714Y-92907380D02*
X154732714Y-91907380D01*
X155113666Y-91907380D01*
X155208904Y-91955000D01*
X155256523Y-92002619D01*
X155304142Y-92097857D01*
X155304142Y-92240714D01*
X155256523Y-92335952D01*
X155208904Y-92383571D01*
X155113666Y-92431190D01*
X154732714Y-92431190D01*
X156256523Y-92907380D02*
X155685095Y-92907380D01*
X155970809Y-92907380D02*
X155970809Y-91907380D01*
X155875571Y-92050238D01*
X155780333Y-92145476D01*
X155685095Y-92193095D01*
X156732714Y-92907380D02*
X156923190Y-92907380D01*
X157018428Y-92859761D01*
X157066047Y-92812142D01*
X157161285Y-92669285D01*
X157208904Y-92478809D01*
X157208904Y-92097857D01*
X157161285Y-92002619D01*
X157113666Y-91955000D01*
X157018428Y-91907380D01*
X156827952Y-91907380D01*
X156732714Y-91955000D01*
X156685095Y-92002619D01*
X156637476Y-92097857D01*
X156637476Y-92335952D01*
X156685095Y-92431190D01*
X156732714Y-92478809D01*
X156827952Y-92526428D01*
X157018428Y-92526428D01*
X157113666Y-92478809D01*
X157161285Y-92431190D01*
X157208904Y-92335952D01*
G04 #@! TO.C,R20*
X155304142Y-79784046D02*
X154970809Y-79307856D01*
X154732714Y-79784046D02*
X154732714Y-78784046D01*
X155113666Y-78784046D01*
X155208904Y-78831666D01*
X155256523Y-78879285D01*
X155304142Y-78974523D01*
X155304142Y-79117380D01*
X155256523Y-79212618D01*
X155208904Y-79260237D01*
X155113666Y-79307856D01*
X154732714Y-79307856D01*
X155685095Y-78879285D02*
X155732714Y-78831666D01*
X155827952Y-78784046D01*
X156066047Y-78784046D01*
X156161285Y-78831666D01*
X156208904Y-78879285D01*
X156256523Y-78974523D01*
X156256523Y-79069761D01*
X156208904Y-79212618D01*
X155637476Y-79784046D01*
X156256523Y-79784046D01*
X156875571Y-78784046D02*
X156970809Y-78784046D01*
X157066047Y-78831666D01*
X157113666Y-78879285D01*
X157161285Y-78974523D01*
X157208904Y-79164999D01*
X157208904Y-79403094D01*
X157161285Y-79593570D01*
X157113666Y-79688808D01*
X157066047Y-79736427D01*
X156970809Y-79784046D01*
X156875571Y-79784046D01*
X156780333Y-79736427D01*
X156732714Y-79688808D01*
X156685095Y-79593570D01*
X156637476Y-79403094D01*
X156637476Y-79164999D01*
X156685095Y-78974523D01*
X156732714Y-78879285D01*
X156780333Y-78831666D01*
X156875571Y-78784046D01*
G04 #@! TO.C,R21*
X155304142Y-66660713D02*
X154970809Y-66184523D01*
X154732714Y-66660713D02*
X154732714Y-65660713D01*
X155113666Y-65660713D01*
X155208904Y-65708333D01*
X155256523Y-65755952D01*
X155304142Y-65851190D01*
X155304142Y-65994047D01*
X155256523Y-66089285D01*
X155208904Y-66136904D01*
X155113666Y-66184523D01*
X154732714Y-66184523D01*
X155685095Y-65755952D02*
X155732714Y-65708333D01*
X155827952Y-65660713D01*
X156066047Y-65660713D01*
X156161285Y-65708333D01*
X156208904Y-65755952D01*
X156256523Y-65851190D01*
X156256523Y-65946428D01*
X156208904Y-66089285D01*
X155637476Y-66660713D01*
X156256523Y-66660713D01*
X157208904Y-66660713D02*
X156637476Y-66660713D01*
X156923190Y-66660713D02*
X156923190Y-65660713D01*
X156827952Y-65803571D01*
X156732714Y-65898809D01*
X156637476Y-65946428D01*
G04 #@! TO.C,R22*
X155304142Y-53537380D02*
X154970809Y-53061190D01*
X154732714Y-53537380D02*
X154732714Y-52537380D01*
X155113666Y-52537380D01*
X155208904Y-52585000D01*
X155256523Y-52632619D01*
X155304142Y-52727857D01*
X155304142Y-52870714D01*
X155256523Y-52965952D01*
X155208904Y-53013571D01*
X155113666Y-53061190D01*
X154732714Y-53061190D01*
X155685095Y-52632619D02*
X155732714Y-52585000D01*
X155827952Y-52537380D01*
X156066047Y-52537380D01*
X156161285Y-52585000D01*
X156208904Y-52632619D01*
X156256523Y-52727857D01*
X156256523Y-52823095D01*
X156208904Y-52965952D01*
X155637476Y-53537380D01*
X156256523Y-53537380D01*
X156637476Y-52632619D02*
X156685095Y-52585000D01*
X156780333Y-52537380D01*
X157018428Y-52537380D01*
X157113666Y-52585000D01*
X157161285Y-52632619D01*
X157208904Y-52727857D01*
X157208904Y-52823095D01*
X157161285Y-52965952D01*
X156589857Y-53537380D01*
X157208904Y-53537380D01*
G04 #@! TO.C,R23*
X180577142Y-93034380D02*
X180243809Y-92558190D01*
X180005714Y-93034380D02*
X180005714Y-92034380D01*
X180386666Y-92034380D01*
X180481904Y-92082000D01*
X180529523Y-92129619D01*
X180577142Y-92224857D01*
X180577142Y-92367714D01*
X180529523Y-92462952D01*
X180481904Y-92510571D01*
X180386666Y-92558190D01*
X180005714Y-92558190D01*
X180958095Y-92129619D02*
X181005714Y-92082000D01*
X181100952Y-92034380D01*
X181339047Y-92034380D01*
X181434285Y-92082000D01*
X181481904Y-92129619D01*
X181529523Y-92224857D01*
X181529523Y-92320095D01*
X181481904Y-92462952D01*
X180910476Y-93034380D01*
X181529523Y-93034380D01*
X181862857Y-92034380D02*
X182481904Y-92034380D01*
X182148571Y-92415333D01*
X182291428Y-92415333D01*
X182386666Y-92462952D01*
X182434285Y-92510571D01*
X182481904Y-92605809D01*
X182481904Y-92843904D01*
X182434285Y-92939142D01*
X182386666Y-92986761D01*
X182291428Y-93034380D01*
X182005714Y-93034380D01*
X181910476Y-92986761D01*
X181862857Y-92939142D01*
G04 #@! TO.C,R24*
X187015380Y-76969857D02*
X186539190Y-77303190D01*
X187015380Y-77541285D02*
X186015380Y-77541285D01*
X186015380Y-77160333D01*
X186063000Y-77065095D01*
X186110619Y-77017476D01*
X186205857Y-76969857D01*
X186348714Y-76969857D01*
X186443952Y-77017476D01*
X186491571Y-77065095D01*
X186539190Y-77160333D01*
X186539190Y-77541285D01*
X186110619Y-76588904D02*
X186063000Y-76541285D01*
X186015380Y-76446047D01*
X186015380Y-76207952D01*
X186063000Y-76112714D01*
X186110619Y-76065095D01*
X186205857Y-76017476D01*
X186301095Y-76017476D01*
X186443952Y-76065095D01*
X187015380Y-76636523D01*
X187015380Y-76017476D01*
X186348714Y-75160333D02*
X187015380Y-75160333D01*
X185967761Y-75398428D02*
X186682047Y-75636523D01*
X186682047Y-75017476D01*
G04 #@! TO.C,R25*
X180713142Y-89479380D02*
X180379809Y-89003190D01*
X180141714Y-89479380D02*
X180141714Y-88479380D01*
X180522666Y-88479380D01*
X180617904Y-88527000D01*
X180665523Y-88574619D01*
X180713142Y-88669857D01*
X180713142Y-88812714D01*
X180665523Y-88907952D01*
X180617904Y-88955571D01*
X180522666Y-89003190D01*
X180141714Y-89003190D01*
X181094095Y-88574619D02*
X181141714Y-88527000D01*
X181236952Y-88479380D01*
X181475047Y-88479380D01*
X181570285Y-88527000D01*
X181617904Y-88574619D01*
X181665523Y-88669857D01*
X181665523Y-88765095D01*
X181617904Y-88907952D01*
X181046476Y-89479380D01*
X181665523Y-89479380D01*
X182570285Y-88479380D02*
X182094095Y-88479380D01*
X182046476Y-88955571D01*
X182094095Y-88907952D01*
X182189333Y-88860333D01*
X182427428Y-88860333D01*
X182522666Y-88907952D01*
X182570285Y-88955571D01*
X182617904Y-89050809D01*
X182617904Y-89288904D01*
X182570285Y-89384142D01*
X182522666Y-89431761D01*
X182427428Y-89479380D01*
X182189333Y-89479380D01*
X182094095Y-89431761D01*
X182046476Y-89384142D01*
G04 #@! TO.C,R26*
X189809380Y-75953857D02*
X189333190Y-76287190D01*
X189809380Y-76525285D02*
X188809380Y-76525285D01*
X188809380Y-76144333D01*
X188857000Y-76049095D01*
X188904619Y-76001476D01*
X188999857Y-75953857D01*
X189142714Y-75953857D01*
X189237952Y-76001476D01*
X189285571Y-76049095D01*
X189333190Y-76144333D01*
X189333190Y-76525285D01*
X188904619Y-75572904D02*
X188857000Y-75525285D01*
X188809380Y-75430047D01*
X188809380Y-75191952D01*
X188857000Y-75096714D01*
X188904619Y-75049095D01*
X188999857Y-75001476D01*
X189095095Y-75001476D01*
X189237952Y-75049095D01*
X189809380Y-75620523D01*
X189809380Y-75001476D01*
X188809380Y-74144333D02*
X188809380Y-74334809D01*
X188857000Y-74430047D01*
X188904619Y-74477666D01*
X189047476Y-74572904D01*
X189237952Y-74620523D01*
X189618904Y-74620523D01*
X189714142Y-74572904D01*
X189761761Y-74525285D01*
X189809380Y-74430047D01*
X189809380Y-74239571D01*
X189761761Y-74144333D01*
X189714142Y-74096714D01*
X189618904Y-74049095D01*
X189380809Y-74049095D01*
X189285571Y-74096714D01*
X189237952Y-74144333D01*
X189190333Y-74239571D01*
X189190333Y-74430047D01*
X189237952Y-74525285D01*
X189285571Y-74572904D01*
X189380809Y-74620523D01*
G04 #@! TO.C,SW1*
X196913666Y-77620761D02*
X197056523Y-77668380D01*
X197294619Y-77668380D01*
X197389857Y-77620761D01*
X197437476Y-77573142D01*
X197485095Y-77477904D01*
X197485095Y-77382666D01*
X197437476Y-77287428D01*
X197389857Y-77239809D01*
X197294619Y-77192190D01*
X197104142Y-77144571D01*
X197008904Y-77096952D01*
X196961285Y-77049333D01*
X196913666Y-76954095D01*
X196913666Y-76858857D01*
X196961285Y-76763619D01*
X197008904Y-76716000D01*
X197104142Y-76668380D01*
X197342238Y-76668380D01*
X197485095Y-76716000D01*
X197818428Y-76668380D02*
X198056523Y-77668380D01*
X198247000Y-76954095D01*
X198437476Y-77668380D01*
X198675571Y-76668380D01*
X199580333Y-77668380D02*
X199008904Y-77668380D01*
X199294619Y-77668380D02*
X199294619Y-76668380D01*
X199199380Y-76811238D01*
X199104142Y-76906476D01*
X199008904Y-76954095D01*
G04 #@! TO.C,U1*
X184404095Y-53808380D02*
X184404095Y-54617904D01*
X184451714Y-54713142D01*
X184499333Y-54760761D01*
X184594571Y-54808380D01*
X184785047Y-54808380D01*
X184880285Y-54760761D01*
X184927904Y-54713142D01*
X184975523Y-54617904D01*
X184975523Y-53808380D01*
X185975523Y-54808380D02*
X185404095Y-54808380D01*
X185689809Y-54808380D02*
X185689809Y-53808380D01*
X185594571Y-53951238D01*
X185499333Y-54046476D01*
X185404095Y-54094095D01*
G04 #@! TO.C,U2*
X175387095Y-86828380D02*
X175387095Y-87637904D01*
X175434714Y-87733142D01*
X175482333Y-87780761D01*
X175577571Y-87828380D01*
X175768047Y-87828380D01*
X175863285Y-87780761D01*
X175910904Y-87733142D01*
X175958523Y-87637904D01*
X175958523Y-86828380D01*
X176387095Y-86923619D02*
X176434714Y-86876000D01*
X176529952Y-86828380D01*
X176768047Y-86828380D01*
X176863285Y-86876000D01*
X176910904Y-86923619D01*
X176958523Y-87018857D01*
X176958523Y-87114095D01*
X176910904Y-87256952D01*
X176339476Y-87828380D01*
X176958523Y-87828380D01*
G04 #@! TO.C,D1*
X198905904Y-67634380D02*
X198905904Y-66634380D01*
X199144000Y-66634380D01*
X199286857Y-66682000D01*
X199382095Y-66777238D01*
X199429714Y-66872476D01*
X199477333Y-67062952D01*
X199477333Y-67205809D01*
X199429714Y-67396285D01*
X199382095Y-67491523D01*
X199286857Y-67586761D01*
X199144000Y-67634380D01*
X198905904Y-67634380D01*
X200429714Y-67634380D02*
X199858285Y-67634380D01*
X200144000Y-67634380D02*
X200144000Y-66634380D01*
X200048761Y-66777238D01*
X199953523Y-66872476D01*
X199858285Y-66920095D01*
G04 #@! TO.C,D2*
X198787904Y-48967380D02*
X198787904Y-47967380D01*
X199026000Y-47967380D01*
X199168857Y-48015000D01*
X199264095Y-48110238D01*
X199311714Y-48205476D01*
X199359333Y-48395952D01*
X199359333Y-48538809D01*
X199311714Y-48729285D01*
X199264095Y-48824523D01*
X199168857Y-48919761D01*
X199026000Y-48967380D01*
X198787904Y-48967380D01*
X199740285Y-48062619D02*
X199787904Y-48015000D01*
X199883142Y-47967380D01*
X200121238Y-47967380D01*
X200216476Y-48015000D01*
X200264095Y-48062619D01*
X200311714Y-48157857D01*
X200311714Y-48253095D01*
X200264095Y-48395952D01*
X199692666Y-48967380D01*
X200311714Y-48967380D01*
G04 #@! TO.C,R27*
X194166142Y-67634380D02*
X193832809Y-67158190D01*
X193594714Y-67634380D02*
X193594714Y-66634380D01*
X193975666Y-66634380D01*
X194070904Y-66682000D01*
X194118523Y-66729619D01*
X194166142Y-66824857D01*
X194166142Y-66967714D01*
X194118523Y-67062952D01*
X194070904Y-67110571D01*
X193975666Y-67158190D01*
X193594714Y-67158190D01*
X194547095Y-66729619D02*
X194594714Y-66682000D01*
X194689952Y-66634380D01*
X194928047Y-66634380D01*
X195023285Y-66682000D01*
X195070904Y-66729619D01*
X195118523Y-66824857D01*
X195118523Y-66920095D01*
X195070904Y-67062952D01*
X194499476Y-67634380D01*
X195118523Y-67634380D01*
X195451857Y-66634380D02*
X196118523Y-66634380D01*
X195689952Y-67634380D01*
G04 #@! TO.C,R28*
X193921142Y-52267380D02*
X193587809Y-51791190D01*
X193349714Y-52267380D02*
X193349714Y-51267380D01*
X193730666Y-51267380D01*
X193825904Y-51315000D01*
X193873523Y-51362619D01*
X193921142Y-51457857D01*
X193921142Y-51600714D01*
X193873523Y-51695952D01*
X193825904Y-51743571D01*
X193730666Y-51791190D01*
X193349714Y-51791190D01*
X194302095Y-51362619D02*
X194349714Y-51315000D01*
X194444952Y-51267380D01*
X194683047Y-51267380D01*
X194778285Y-51315000D01*
X194825904Y-51362619D01*
X194873523Y-51457857D01*
X194873523Y-51553095D01*
X194825904Y-51695952D01*
X194254476Y-52267380D01*
X194873523Y-52267380D01*
X195444952Y-51695952D02*
X195349714Y-51648333D01*
X195302095Y-51600714D01*
X195254476Y-51505476D01*
X195254476Y-51457857D01*
X195302095Y-51362619D01*
X195349714Y-51315000D01*
X195444952Y-51267380D01*
X195635428Y-51267380D01*
X195730666Y-51315000D01*
X195778285Y-51362619D01*
X195825904Y-51457857D01*
X195825904Y-51505476D01*
X195778285Y-51600714D01*
X195730666Y-51648333D01*
X195635428Y-51695952D01*
X195444952Y-51695952D01*
X195349714Y-51743571D01*
X195302095Y-51791190D01*
X195254476Y-51886428D01*
X195254476Y-52076904D01*
X195302095Y-52172142D01*
X195349714Y-52219761D01*
X195444952Y-52267380D01*
X195635428Y-52267380D01*
X195730666Y-52219761D01*
X195778285Y-52172142D01*
X195825904Y-52076904D01*
X195825904Y-51886428D01*
X195778285Y-51791190D01*
X195730666Y-51743571D01*
X195635428Y-51695952D01*
G04 #@! TO.C,R29*
X190571380Y-71381857D02*
X190095190Y-71715190D01*
X190571380Y-71953285D02*
X189571380Y-71953285D01*
X189571380Y-71572333D01*
X189619000Y-71477095D01*
X189666619Y-71429476D01*
X189761857Y-71381857D01*
X189904714Y-71381857D01*
X189999952Y-71429476D01*
X190047571Y-71477095D01*
X190095190Y-71572333D01*
X190095190Y-71953285D01*
X189666619Y-71000904D02*
X189619000Y-70953285D01*
X189571380Y-70858047D01*
X189571380Y-70619952D01*
X189619000Y-70524714D01*
X189666619Y-70477095D01*
X189761857Y-70429476D01*
X189857095Y-70429476D01*
X189999952Y-70477095D01*
X190571380Y-71048523D01*
X190571380Y-70429476D01*
X190571380Y-69953285D02*
X190571380Y-69762809D01*
X190523761Y-69667571D01*
X190476142Y-69619952D01*
X190333285Y-69524714D01*
X190142809Y-69477095D01*
X189761857Y-69477095D01*
X189666619Y-69524714D01*
X189619000Y-69572333D01*
X189571380Y-69667571D01*
X189571380Y-69858047D01*
X189619000Y-69953285D01*
X189666619Y-70000904D01*
X189761857Y-70048523D01*
X189999952Y-70048523D01*
X190095190Y-70000904D01*
X190142809Y-69953285D01*
X190190428Y-69858047D01*
X190190428Y-69667571D01*
X190142809Y-69572333D01*
X190095190Y-69524714D01*
X189999952Y-69477095D01*
G04 #@! TO.C,RV1*
X148502761Y-56947380D02*
X148169428Y-56471190D01*
X147931333Y-56947380D02*
X147931333Y-55947380D01*
X148312285Y-55947380D01*
X148407523Y-55995000D01*
X148455142Y-56042619D01*
X148502761Y-56137857D01*
X148502761Y-56280714D01*
X148455142Y-56375952D01*
X148407523Y-56423571D01*
X148312285Y-56471190D01*
X147931333Y-56471190D01*
X148788476Y-55947380D02*
X149121809Y-56947380D01*
X149455142Y-55947380D01*
X150312285Y-56947380D02*
X149740857Y-56947380D01*
X150026571Y-56947380D02*
X150026571Y-55947380D01*
X149931333Y-56090238D01*
X149836095Y-56185476D01*
X149740857Y-56233095D01*
G04 #@! TO.C,RV2*
X148502761Y-70070713D02*
X148169428Y-69594523D01*
X147931333Y-70070713D02*
X147931333Y-69070713D01*
X148312285Y-69070713D01*
X148407523Y-69118333D01*
X148455142Y-69165952D01*
X148502761Y-69261190D01*
X148502761Y-69404047D01*
X148455142Y-69499285D01*
X148407523Y-69546904D01*
X148312285Y-69594523D01*
X147931333Y-69594523D01*
X148788476Y-69070713D02*
X149121809Y-70070713D01*
X149455142Y-69070713D01*
X149740857Y-69165952D02*
X149788476Y-69118333D01*
X149883714Y-69070713D01*
X150121809Y-69070713D01*
X150217047Y-69118333D01*
X150264666Y-69165952D01*
X150312285Y-69261190D01*
X150312285Y-69356428D01*
X150264666Y-69499285D01*
X149693238Y-70070713D01*
X150312285Y-70070713D01*
G04 #@! TO.C,RV3*
X148502761Y-83194046D02*
X148169428Y-82717856D01*
X147931333Y-83194046D02*
X147931333Y-82194046D01*
X148312285Y-82194046D01*
X148407523Y-82241666D01*
X148455142Y-82289285D01*
X148502761Y-82384523D01*
X148502761Y-82527380D01*
X148455142Y-82622618D01*
X148407523Y-82670237D01*
X148312285Y-82717856D01*
X147931333Y-82717856D01*
X148788476Y-82194046D02*
X149121809Y-83194046D01*
X149455142Y-82194046D01*
X149693238Y-82194046D02*
X150312285Y-82194046D01*
X149978952Y-82574999D01*
X150121809Y-82574999D01*
X150217047Y-82622618D01*
X150264666Y-82670237D01*
X150312285Y-82765475D01*
X150312285Y-83003570D01*
X150264666Y-83098808D01*
X150217047Y-83146427D01*
X150121809Y-83194046D01*
X149836095Y-83194046D01*
X149740857Y-83146427D01*
X149693238Y-83098808D01*
G04 #@! TO.C,RV4*
X148502761Y-96317380D02*
X148169428Y-95841190D01*
X147931333Y-96317380D02*
X147931333Y-95317380D01*
X148312285Y-95317380D01*
X148407523Y-95365000D01*
X148455142Y-95412619D01*
X148502761Y-95507857D01*
X148502761Y-95650714D01*
X148455142Y-95745952D01*
X148407523Y-95793571D01*
X148312285Y-95841190D01*
X147931333Y-95841190D01*
X148788476Y-95317380D02*
X149121809Y-96317380D01*
X149455142Y-95317380D01*
X150217047Y-95650714D02*
X150217047Y-96317380D01*
X149978952Y-95269761D02*
X149740857Y-95984047D01*
X150359904Y-95984047D01*
G04 #@! TO.C,RV5*
X166028761Y-96190380D02*
X165695428Y-95714190D01*
X165457333Y-96190380D02*
X165457333Y-95190380D01*
X165838285Y-95190380D01*
X165933523Y-95238000D01*
X165981142Y-95285619D01*
X166028761Y-95380857D01*
X166028761Y-95523714D01*
X165981142Y-95618952D01*
X165933523Y-95666571D01*
X165838285Y-95714190D01*
X165457333Y-95714190D01*
X166314476Y-95190380D02*
X166647809Y-96190380D01*
X166981142Y-95190380D01*
X167790666Y-95190380D02*
X167314476Y-95190380D01*
X167266857Y-95666571D01*
X167314476Y-95618952D01*
X167409714Y-95571333D01*
X167647809Y-95571333D01*
X167743047Y-95618952D01*
X167790666Y-95666571D01*
X167838285Y-95761809D01*
X167838285Y-95999904D01*
X167790666Y-96095142D01*
X167743047Y-96142761D01*
X167647809Y-96190380D01*
X167409714Y-96190380D01*
X167314476Y-96142761D01*
X167266857Y-96095142D01*
G04 #@! TO.C,RV6*
X166028761Y-83109380D02*
X165695428Y-82633190D01*
X165457333Y-83109380D02*
X165457333Y-82109380D01*
X165838285Y-82109380D01*
X165933523Y-82157000D01*
X165981142Y-82204619D01*
X166028761Y-82299857D01*
X166028761Y-82442714D01*
X165981142Y-82537952D01*
X165933523Y-82585571D01*
X165838285Y-82633190D01*
X165457333Y-82633190D01*
X166314476Y-82109380D02*
X166647809Y-83109380D01*
X166981142Y-82109380D01*
X167743047Y-82109380D02*
X167552571Y-82109380D01*
X167457333Y-82157000D01*
X167409714Y-82204619D01*
X167314476Y-82347476D01*
X167266857Y-82537952D01*
X167266857Y-82918904D01*
X167314476Y-83014142D01*
X167362095Y-83061761D01*
X167457333Y-83109380D01*
X167647809Y-83109380D01*
X167743047Y-83061761D01*
X167790666Y-83014142D01*
X167838285Y-82918904D01*
X167838285Y-82680809D01*
X167790666Y-82585571D01*
X167743047Y-82537952D01*
X167647809Y-82490333D01*
X167457333Y-82490333D01*
X167362095Y-82537952D01*
X167314476Y-82585571D01*
X167266857Y-82680809D01*
G04 #@! TO.C,RV7*
X166028761Y-70028380D02*
X165695428Y-69552190D01*
X165457333Y-70028380D02*
X165457333Y-69028380D01*
X165838285Y-69028380D01*
X165933523Y-69076000D01*
X165981142Y-69123619D01*
X166028761Y-69218857D01*
X166028761Y-69361714D01*
X165981142Y-69456952D01*
X165933523Y-69504571D01*
X165838285Y-69552190D01*
X165457333Y-69552190D01*
X166314476Y-69028380D02*
X166647809Y-70028380D01*
X166981142Y-69028380D01*
X167219238Y-69028380D02*
X167885904Y-69028380D01*
X167457333Y-70028380D01*
G04 #@! TO.C,RV8*
X166028761Y-56947380D02*
X165695428Y-56471190D01*
X165457333Y-56947380D02*
X165457333Y-55947380D01*
X165838285Y-55947380D01*
X165933523Y-55995000D01*
X165981142Y-56042619D01*
X166028761Y-56137857D01*
X166028761Y-56280714D01*
X165981142Y-56375952D01*
X165933523Y-56423571D01*
X165838285Y-56471190D01*
X165457333Y-56471190D01*
X166314476Y-55947380D02*
X166647809Y-56947380D01*
X166981142Y-55947380D01*
X167457333Y-56375952D02*
X167362095Y-56328333D01*
X167314476Y-56280714D01*
X167266857Y-56185476D01*
X167266857Y-56137857D01*
X167314476Y-56042619D01*
X167362095Y-55995000D01*
X167457333Y-55947380D01*
X167647809Y-55947380D01*
X167743047Y-55995000D01*
X167790666Y-56042619D01*
X167838285Y-56137857D01*
X167838285Y-56185476D01*
X167790666Y-56280714D01*
X167743047Y-56328333D01*
X167647809Y-56375952D01*
X167457333Y-56375952D01*
X167362095Y-56423571D01*
X167314476Y-56471190D01*
X167266857Y-56566428D01*
X167266857Y-56756904D01*
X167314476Y-56852142D01*
X167362095Y-56899761D01*
X167457333Y-56947380D01*
X167647809Y-56947380D01*
X167743047Y-56899761D01*
X167790666Y-56852142D01*
X167838285Y-56756904D01*
X167838285Y-56566428D01*
X167790666Y-56471190D01*
X167743047Y-56423571D01*
X167647809Y-56375952D01*
G04 #@! TO.C,C19*
X176252142Y-56014857D02*
X176299761Y-56062476D01*
X176347380Y-56205333D01*
X176347380Y-56300571D01*
X176299761Y-56443428D01*
X176204523Y-56538666D01*
X176109285Y-56586285D01*
X175918809Y-56633904D01*
X175775952Y-56633904D01*
X175585476Y-56586285D01*
X175490238Y-56538666D01*
X175395000Y-56443428D01*
X175347380Y-56300571D01*
X175347380Y-56205333D01*
X175395000Y-56062476D01*
X175442619Y-56014857D01*
X176347380Y-55062476D02*
X176347380Y-55633904D01*
X176347380Y-55348190D02*
X175347380Y-55348190D01*
X175490238Y-55443428D01*
X175585476Y-55538666D01*
X175633095Y-55633904D01*
X176347380Y-54586285D02*
X176347380Y-54395809D01*
X176299761Y-54300571D01*
X176252142Y-54252952D01*
X176109285Y-54157714D01*
X175918809Y-54110095D01*
X175537857Y-54110095D01*
X175442619Y-54157714D01*
X175395000Y-54205333D01*
X175347380Y-54300571D01*
X175347380Y-54491047D01*
X175395000Y-54586285D01*
X175442619Y-54633904D01*
X175537857Y-54681523D01*
X175775952Y-54681523D01*
X175871190Y-54633904D01*
X175918809Y-54586285D01*
X175966428Y-54491047D01*
X175966428Y-54300571D01*
X175918809Y-54205333D01*
X175871190Y-54157714D01*
X175775952Y-54110095D01*
G04 #@! TO.C,R30*
X141089142Y-87066380D02*
X140755809Y-86590190D01*
X140517714Y-87066380D02*
X140517714Y-86066380D01*
X140898666Y-86066380D01*
X140993904Y-86114000D01*
X141041523Y-86161619D01*
X141089142Y-86256857D01*
X141089142Y-86399714D01*
X141041523Y-86494952D01*
X140993904Y-86542571D01*
X140898666Y-86590190D01*
X140517714Y-86590190D01*
X141422476Y-86066380D02*
X142041523Y-86066380D01*
X141708190Y-86447333D01*
X141851047Y-86447333D01*
X141946285Y-86494952D01*
X141993904Y-86542571D01*
X142041523Y-86637809D01*
X142041523Y-86875904D01*
X141993904Y-86971142D01*
X141946285Y-87018761D01*
X141851047Y-87066380D01*
X141565333Y-87066380D01*
X141470095Y-87018761D01*
X141422476Y-86971142D01*
X142660571Y-86066380D02*
X142755809Y-86066380D01*
X142851047Y-86114000D01*
X142898666Y-86161619D01*
X142946285Y-86256857D01*
X142993904Y-86447333D01*
X142993904Y-86685428D01*
X142946285Y-86875904D01*
X142898666Y-86971142D01*
X142851047Y-87018761D01*
X142755809Y-87066380D01*
X142660571Y-87066380D01*
X142565333Y-87018761D01*
X142517714Y-86971142D01*
X142470095Y-86875904D01*
X142422476Y-86685428D01*
X142422476Y-86447333D01*
X142470095Y-86256857D01*
X142517714Y-86161619D01*
X142565333Y-86114000D01*
X142660571Y-86066380D01*
G04 #@! TO.C,R31*
X141089142Y-75890380D02*
X140755809Y-75414190D01*
X140517714Y-75890380D02*
X140517714Y-74890380D01*
X140898666Y-74890380D01*
X140993904Y-74938000D01*
X141041523Y-74985619D01*
X141089142Y-75080857D01*
X141089142Y-75223714D01*
X141041523Y-75318952D01*
X140993904Y-75366571D01*
X140898666Y-75414190D01*
X140517714Y-75414190D01*
X141422476Y-74890380D02*
X142041523Y-74890380D01*
X141708190Y-75271333D01*
X141851047Y-75271333D01*
X141946285Y-75318952D01*
X141993904Y-75366571D01*
X142041523Y-75461809D01*
X142041523Y-75699904D01*
X141993904Y-75795142D01*
X141946285Y-75842761D01*
X141851047Y-75890380D01*
X141565333Y-75890380D01*
X141470095Y-75842761D01*
X141422476Y-75795142D01*
X142993904Y-75890380D02*
X142422476Y-75890380D01*
X142708190Y-75890380D02*
X142708190Y-74890380D01*
X142612952Y-75033238D01*
X142517714Y-75128476D01*
X142422476Y-75176095D01*
G04 #@! TO.C,R32*
X141216142Y-64587380D02*
X140882809Y-64111190D01*
X140644714Y-64587380D02*
X140644714Y-63587380D01*
X141025666Y-63587380D01*
X141120904Y-63635000D01*
X141168523Y-63682619D01*
X141216142Y-63777857D01*
X141216142Y-63920714D01*
X141168523Y-64015952D01*
X141120904Y-64063571D01*
X141025666Y-64111190D01*
X140644714Y-64111190D01*
X141549476Y-63587380D02*
X142168523Y-63587380D01*
X141835190Y-63968333D01*
X141978047Y-63968333D01*
X142073285Y-64015952D01*
X142120904Y-64063571D01*
X142168523Y-64158809D01*
X142168523Y-64396904D01*
X142120904Y-64492142D01*
X142073285Y-64539761D01*
X141978047Y-64587380D01*
X141692333Y-64587380D01*
X141597095Y-64539761D01*
X141549476Y-64492142D01*
X142549476Y-63682619D02*
X142597095Y-63635000D01*
X142692333Y-63587380D01*
X142930428Y-63587380D01*
X143025666Y-63635000D01*
X143073285Y-63682619D01*
X143120904Y-63777857D01*
X143120904Y-63873095D01*
X143073285Y-64015952D01*
X142501857Y-64587380D01*
X143120904Y-64587380D01*
G04 #@! TO.C,R33*
X141089142Y-53411380D02*
X140755809Y-52935190D01*
X140517714Y-53411380D02*
X140517714Y-52411380D01*
X140898666Y-52411380D01*
X140993904Y-52459000D01*
X141041523Y-52506619D01*
X141089142Y-52601857D01*
X141089142Y-52744714D01*
X141041523Y-52839952D01*
X140993904Y-52887571D01*
X140898666Y-52935190D01*
X140517714Y-52935190D01*
X141422476Y-52411380D02*
X142041523Y-52411380D01*
X141708190Y-52792333D01*
X141851047Y-52792333D01*
X141946285Y-52839952D01*
X141993904Y-52887571D01*
X142041523Y-52982809D01*
X142041523Y-53220904D01*
X141993904Y-53316142D01*
X141946285Y-53363761D01*
X141851047Y-53411380D01*
X141565333Y-53411380D01*
X141470095Y-53363761D01*
X141422476Y-53316142D01*
X142374857Y-52411380D02*
X142993904Y-52411380D01*
X142660571Y-52792333D01*
X142803428Y-52792333D01*
X142898666Y-52839952D01*
X142946285Y-52887571D01*
X142993904Y-52982809D01*
X142993904Y-53220904D01*
X142946285Y-53316142D01*
X142898666Y-53363761D01*
X142803428Y-53411380D01*
X142517714Y-53411380D01*
X142422476Y-53363761D01*
X142374857Y-53316142D01*
G04 #@! TO.C,R34*
X140962142Y-89352380D02*
X140628809Y-88876190D01*
X140390714Y-89352380D02*
X140390714Y-88352380D01*
X140771666Y-88352380D01*
X140866904Y-88400000D01*
X140914523Y-88447619D01*
X140962142Y-88542857D01*
X140962142Y-88685714D01*
X140914523Y-88780952D01*
X140866904Y-88828571D01*
X140771666Y-88876190D01*
X140390714Y-88876190D01*
X141295476Y-88352380D02*
X141914523Y-88352380D01*
X141581190Y-88733333D01*
X141724047Y-88733333D01*
X141819285Y-88780952D01*
X141866904Y-88828571D01*
X141914523Y-88923809D01*
X141914523Y-89161904D01*
X141866904Y-89257142D01*
X141819285Y-89304761D01*
X141724047Y-89352380D01*
X141438333Y-89352380D01*
X141343095Y-89304761D01*
X141295476Y-89257142D01*
X142771666Y-88685714D02*
X142771666Y-89352380D01*
X142533571Y-88304761D02*
X142295476Y-89019047D01*
X142914523Y-89019047D01*
G04 #@! TO.C,R35*
X140962142Y-78176380D02*
X140628809Y-77700190D01*
X140390714Y-78176380D02*
X140390714Y-77176380D01*
X140771666Y-77176380D01*
X140866904Y-77224000D01*
X140914523Y-77271619D01*
X140962142Y-77366857D01*
X140962142Y-77509714D01*
X140914523Y-77604952D01*
X140866904Y-77652571D01*
X140771666Y-77700190D01*
X140390714Y-77700190D01*
X141295476Y-77176380D02*
X141914523Y-77176380D01*
X141581190Y-77557333D01*
X141724047Y-77557333D01*
X141819285Y-77604952D01*
X141866904Y-77652571D01*
X141914523Y-77747809D01*
X141914523Y-77985904D01*
X141866904Y-78081142D01*
X141819285Y-78128761D01*
X141724047Y-78176380D01*
X141438333Y-78176380D01*
X141343095Y-78128761D01*
X141295476Y-78081142D01*
X142819285Y-77176380D02*
X142343095Y-77176380D01*
X142295476Y-77652571D01*
X142343095Y-77604952D01*
X142438333Y-77557333D01*
X142676428Y-77557333D01*
X142771666Y-77604952D01*
X142819285Y-77652571D01*
X142866904Y-77747809D01*
X142866904Y-77985904D01*
X142819285Y-78081142D01*
X142771666Y-78128761D01*
X142676428Y-78176380D01*
X142438333Y-78176380D01*
X142343095Y-78128761D01*
X142295476Y-78081142D01*
G04 #@! TO.C,R36*
X141089142Y-66873380D02*
X140755809Y-66397190D01*
X140517714Y-66873380D02*
X140517714Y-65873380D01*
X140898666Y-65873380D01*
X140993904Y-65921000D01*
X141041523Y-65968619D01*
X141089142Y-66063857D01*
X141089142Y-66206714D01*
X141041523Y-66301952D01*
X140993904Y-66349571D01*
X140898666Y-66397190D01*
X140517714Y-66397190D01*
X141422476Y-65873380D02*
X142041523Y-65873380D01*
X141708190Y-66254333D01*
X141851047Y-66254333D01*
X141946285Y-66301952D01*
X141993904Y-66349571D01*
X142041523Y-66444809D01*
X142041523Y-66682904D01*
X141993904Y-66778142D01*
X141946285Y-66825761D01*
X141851047Y-66873380D01*
X141565333Y-66873380D01*
X141470095Y-66825761D01*
X141422476Y-66778142D01*
X142898666Y-65873380D02*
X142708190Y-65873380D01*
X142612952Y-65921000D01*
X142565333Y-65968619D01*
X142470095Y-66111476D01*
X142422476Y-66301952D01*
X142422476Y-66682904D01*
X142470095Y-66778142D01*
X142517714Y-66825761D01*
X142612952Y-66873380D01*
X142803428Y-66873380D01*
X142898666Y-66825761D01*
X142946285Y-66778142D01*
X142993904Y-66682904D01*
X142993904Y-66444809D01*
X142946285Y-66349571D01*
X142898666Y-66301952D01*
X142803428Y-66254333D01*
X142612952Y-66254333D01*
X142517714Y-66301952D01*
X142470095Y-66349571D01*
X142422476Y-66444809D01*
G04 #@! TO.C,R37*
X140962142Y-55824380D02*
X140628809Y-55348190D01*
X140390714Y-55824380D02*
X140390714Y-54824380D01*
X140771666Y-54824380D01*
X140866904Y-54872000D01*
X140914523Y-54919619D01*
X140962142Y-55014857D01*
X140962142Y-55157714D01*
X140914523Y-55252952D01*
X140866904Y-55300571D01*
X140771666Y-55348190D01*
X140390714Y-55348190D01*
X141295476Y-54824380D02*
X141914523Y-54824380D01*
X141581190Y-55205333D01*
X141724047Y-55205333D01*
X141819285Y-55252952D01*
X141866904Y-55300571D01*
X141914523Y-55395809D01*
X141914523Y-55633904D01*
X141866904Y-55729142D01*
X141819285Y-55776761D01*
X141724047Y-55824380D01*
X141438333Y-55824380D01*
X141343095Y-55776761D01*
X141295476Y-55729142D01*
X142247857Y-54824380D02*
X142914523Y-54824380D01*
X142485952Y-55824380D01*
G04 #@! TO.C,R38*
X184396142Y-95828380D02*
X184062809Y-95352190D01*
X183824714Y-95828380D02*
X183824714Y-94828380D01*
X184205666Y-94828380D01*
X184300904Y-94876000D01*
X184348523Y-94923619D01*
X184396142Y-95018857D01*
X184396142Y-95161714D01*
X184348523Y-95256952D01*
X184300904Y-95304571D01*
X184205666Y-95352190D01*
X183824714Y-95352190D01*
X184729476Y-94828380D02*
X185348523Y-94828380D01*
X185015190Y-95209333D01*
X185158047Y-95209333D01*
X185253285Y-95256952D01*
X185300904Y-95304571D01*
X185348523Y-95399809D01*
X185348523Y-95637904D01*
X185300904Y-95733142D01*
X185253285Y-95780761D01*
X185158047Y-95828380D01*
X184872333Y-95828380D01*
X184777095Y-95780761D01*
X184729476Y-95733142D01*
X185919952Y-95256952D02*
X185824714Y-95209333D01*
X185777095Y-95161714D01*
X185729476Y-95066476D01*
X185729476Y-95018857D01*
X185777095Y-94923619D01*
X185824714Y-94876000D01*
X185919952Y-94828380D01*
X186110428Y-94828380D01*
X186205666Y-94876000D01*
X186253285Y-94923619D01*
X186300904Y-95018857D01*
X186300904Y-95066476D01*
X186253285Y-95161714D01*
X186205666Y-95209333D01*
X186110428Y-95256952D01*
X185919952Y-95256952D01*
X185824714Y-95304571D01*
X185777095Y-95352190D01*
X185729476Y-95447428D01*
X185729476Y-95637904D01*
X185777095Y-95733142D01*
X185824714Y-95780761D01*
X185919952Y-95828380D01*
X186110428Y-95828380D01*
X186205666Y-95780761D01*
X186253285Y-95733142D01*
X186300904Y-95637904D01*
X186300904Y-95447428D01*
X186253285Y-95352190D01*
X186205666Y-95304571D01*
X186110428Y-95256952D01*
G04 #@! TO.C,R39*
X191880142Y-76780380D02*
X191546809Y-76304190D01*
X191308714Y-76780380D02*
X191308714Y-75780380D01*
X191689666Y-75780380D01*
X191784904Y-75828000D01*
X191832523Y-75875619D01*
X191880142Y-75970857D01*
X191880142Y-76113714D01*
X191832523Y-76208952D01*
X191784904Y-76256571D01*
X191689666Y-76304190D01*
X191308714Y-76304190D01*
X192213476Y-75780380D02*
X192832523Y-75780380D01*
X192499190Y-76161333D01*
X192642047Y-76161333D01*
X192737285Y-76208952D01*
X192784904Y-76256571D01*
X192832523Y-76351809D01*
X192832523Y-76589904D01*
X192784904Y-76685142D01*
X192737285Y-76732761D01*
X192642047Y-76780380D01*
X192356333Y-76780380D01*
X192261095Y-76732761D01*
X192213476Y-76685142D01*
X193308714Y-76780380D02*
X193499190Y-76780380D01*
X193594428Y-76732761D01*
X193642047Y-76685142D01*
X193737285Y-76542285D01*
X193784904Y-76351809D01*
X193784904Y-75970857D01*
X193737285Y-75875619D01*
X193689666Y-75828000D01*
X193594428Y-75780380D01*
X193403952Y-75780380D01*
X193308714Y-75828000D01*
X193261095Y-75875619D01*
X193213476Y-75970857D01*
X193213476Y-76208952D01*
X193261095Y-76304190D01*
X193308714Y-76351809D01*
X193403952Y-76399428D01*
X193594428Y-76399428D01*
X193689666Y-76351809D01*
X193737285Y-76304190D01*
X193784904Y-76208952D01*
G04 #@! TO.C,FB1*
X184205571Y-68587833D02*
X184205571Y-68921166D01*
X184729380Y-68921166D02*
X183729380Y-68921166D01*
X183729380Y-68444976D01*
X184205571Y-67730690D02*
X184253190Y-67587833D01*
X184300809Y-67540214D01*
X184396047Y-67492595D01*
X184538904Y-67492595D01*
X184634142Y-67540214D01*
X184681761Y-67587833D01*
X184729380Y-67683071D01*
X184729380Y-68064023D01*
X183729380Y-68064023D01*
X183729380Y-67730690D01*
X183777000Y-67635452D01*
X183824619Y-67587833D01*
X183919857Y-67540214D01*
X184015095Y-67540214D01*
X184110333Y-67587833D01*
X184157952Y-67635452D01*
X184205571Y-67730690D01*
X184205571Y-68064023D01*
X184729380Y-66540214D02*
X184729380Y-67111642D01*
X184729380Y-66825928D02*
X183729380Y-66825928D01*
X183872238Y-66921166D01*
X183967476Y-67016404D01*
X184015095Y-67111642D01*
G04 #@! TO.C,FB2*
X181348071Y-68587833D02*
X181348071Y-68921166D01*
X181871880Y-68921166D02*
X180871880Y-68921166D01*
X180871880Y-68444976D01*
X181348071Y-67730690D02*
X181395690Y-67587833D01*
X181443309Y-67540214D01*
X181538547Y-67492595D01*
X181681404Y-67492595D01*
X181776642Y-67540214D01*
X181824261Y-67587833D01*
X181871880Y-67683071D01*
X181871880Y-68064023D01*
X180871880Y-68064023D01*
X180871880Y-67730690D01*
X180919500Y-67635452D01*
X180967119Y-67587833D01*
X181062357Y-67540214D01*
X181157595Y-67540214D01*
X181252833Y-67587833D01*
X181300452Y-67635452D01*
X181348071Y-67730690D01*
X181348071Y-68064023D01*
X180967119Y-67111642D02*
X180919500Y-67064023D01*
X180871880Y-66968785D01*
X180871880Y-66730690D01*
X180919500Y-66635452D01*
X180967119Y-66587833D01*
X181062357Y-66540214D01*
X181157595Y-66540214D01*
X181300452Y-66587833D01*
X181871880Y-67159261D01*
X181871880Y-66540214D01*
G04 #@! TO.C,FB3*
X178300071Y-68524333D02*
X178300071Y-68857666D01*
X178823880Y-68857666D02*
X177823880Y-68857666D01*
X177823880Y-68381476D01*
X178300071Y-67667190D02*
X178347690Y-67524333D01*
X178395309Y-67476714D01*
X178490547Y-67429095D01*
X178633404Y-67429095D01*
X178728642Y-67476714D01*
X178776261Y-67524333D01*
X178823880Y-67619571D01*
X178823880Y-68000523D01*
X177823880Y-68000523D01*
X177823880Y-67667190D01*
X177871500Y-67571952D01*
X177919119Y-67524333D01*
X178014357Y-67476714D01*
X178109595Y-67476714D01*
X178204833Y-67524333D01*
X178252452Y-67571952D01*
X178300071Y-67667190D01*
X178300071Y-68000523D01*
X177823880Y-67095761D02*
X177823880Y-66476714D01*
X178204833Y-66810047D01*
X178204833Y-66667190D01*
X178252452Y-66571952D01*
X178300071Y-66524333D01*
X178395309Y-66476714D01*
X178633404Y-66476714D01*
X178728642Y-66524333D01*
X178776261Y-66571952D01*
X178823880Y-66667190D01*
X178823880Y-66952904D01*
X178776261Y-67048142D01*
X178728642Y-67095761D01*
G04 #@! TD*
M02*
