G04 #@! TF.GenerationSoftware,KiCad,Pcbnew,5.1.6-c6e7f7d~87~ubuntu18.04.1*
G04 #@! TF.CreationDate,2020-09-10T19:55:48-05:00*
G04 #@! TF.ProjectId,MiniStereoMixer,4d696e69-5374-4657-9265-6f4d69786572,rev?*
G04 #@! TF.SameCoordinates,Original*
G04 #@! TF.FileFunction,Soldermask,Top*
G04 #@! TF.FilePolarity,Negative*
%FSLAX46Y46*%
G04 Gerber Fmt 4.6, Leading zero omitted, Abs format (unit mm)*
G04 Created by KiCad (PCBNEW 5.1.6-c6e7f7d~87~ubuntu18.04.1) date 2020-09-10 19:55:48*
%MOMM*%
%LPD*%
G01*
G04 APERTURE LIST*
%ADD10C,1.700000*%
%ADD11C,2.100000*%
%ADD12R,3.700000X0.500000*%
%ADD13R,1.700000X3.100000*%
%ADD14R,2.000000X5.100000*%
%ADD15R,1.800000X1.800000*%
%ADD16O,1.800000X1.800000*%
%ADD17R,0.600000X0.350000*%
%ADD18R,1.100000X2.750000*%
%ADD19C,3.000000*%
%ADD20C,6.500000*%
G04 APERTURE END LIST*
D10*
G04 #@! TO.C,J6*
X193579000Y-87122000D03*
X199579000Y-87122000D03*
D11*
X193579000Y-83972000D03*
X197079000Y-83972000D03*
X200279000Y-83972000D03*
X197079000Y-90272000D03*
X193579000Y-90272000D03*
X200279000Y-90272000D03*
G04 #@! TD*
D10*
G04 #@! TO.C,J1*
X129001000Y-87782000D03*
X123001000Y-87782000D03*
D11*
X129001000Y-90932000D03*
X125501000Y-90932000D03*
X122301000Y-90932000D03*
X125501000Y-84632000D03*
X129001000Y-84632000D03*
X122301000Y-84632000D03*
G04 #@! TD*
D10*
G04 #@! TO.C,J2*
X129001000Y-76555332D03*
X123001000Y-76555332D03*
D11*
X129001000Y-79705332D03*
X125501000Y-79705332D03*
X122301000Y-79705332D03*
X125501000Y-73405332D03*
X129001000Y-73405332D03*
X122301000Y-73405332D03*
G04 #@! TD*
D10*
G04 #@! TO.C,J3*
X129001000Y-65328666D03*
X123001000Y-65328666D03*
D11*
X129001000Y-68478666D03*
X125501000Y-68478666D03*
X122301000Y-68478666D03*
X125501000Y-62178666D03*
X129001000Y-62178666D03*
X122301000Y-62178666D03*
G04 #@! TD*
D10*
G04 #@! TO.C,J4*
X129001000Y-54102000D03*
X123001000Y-54102000D03*
D11*
X129001000Y-57252000D03*
X125501000Y-57252000D03*
X122301000Y-57252000D03*
X125501000Y-50952000D03*
X129001000Y-50952000D03*
X122301000Y-50952000D03*
G04 #@! TD*
G04 #@! TO.C,C1*
G36*
G01*
X188751738Y-57668000D02*
X189708262Y-57668000D01*
G75*
G02*
X189980000Y-57939738I0J-271738D01*
G01*
X189980000Y-58646262D01*
G75*
G02*
X189708262Y-58918000I-271738J0D01*
G01*
X188751738Y-58918000D01*
G75*
G02*
X188480000Y-58646262I0J271738D01*
G01*
X188480000Y-57939738D01*
G75*
G02*
X188751738Y-57668000I271738J0D01*
G01*
G37*
G36*
G01*
X188751738Y-59718000D02*
X189708262Y-59718000D01*
G75*
G02*
X189980000Y-59989738I0J-271738D01*
G01*
X189980000Y-60696262D01*
G75*
G02*
X189708262Y-60968000I-271738J0D01*
G01*
X188751738Y-60968000D01*
G75*
G02*
X188480000Y-60696262I0J271738D01*
G01*
X188480000Y-59989738D01*
G75*
G02*
X188751738Y-59718000I271738J0D01*
G01*
G37*
G04 #@! TD*
G04 #@! TO.C,C2*
G36*
G01*
X182342262Y-54972000D02*
X181385738Y-54972000D01*
G75*
G02*
X181114000Y-54700262I0J271738D01*
G01*
X181114000Y-53993738D01*
G75*
G02*
X181385738Y-53722000I271738J0D01*
G01*
X182342262Y-53722000D01*
G75*
G02*
X182614000Y-53993738I0J-271738D01*
G01*
X182614000Y-54700262D01*
G75*
G02*
X182342262Y-54972000I-271738J0D01*
G01*
G37*
G36*
G01*
X182342262Y-57022000D02*
X181385738Y-57022000D01*
G75*
G02*
X181114000Y-56750262I0J271738D01*
G01*
X181114000Y-56043738D01*
G75*
G02*
X181385738Y-55772000I271738J0D01*
G01*
X182342262Y-55772000D01*
G75*
G02*
X182614000Y-56043738I0J-271738D01*
G01*
X182614000Y-56750262D01*
G75*
G02*
X182342262Y-57022000I-271738J0D01*
G01*
G37*
G04 #@! TD*
G04 #@! TO.C,C3*
G36*
G01*
X183450500Y-58068738D02*
X183450500Y-59025262D01*
G75*
G02*
X183178762Y-59297000I-271738J0D01*
G01*
X182472238Y-59297000D01*
G75*
G02*
X182200500Y-59025262I0J271738D01*
G01*
X182200500Y-58068738D01*
G75*
G02*
X182472238Y-57797000I271738J0D01*
G01*
X183178762Y-57797000D01*
G75*
G02*
X183450500Y-58068738I0J-271738D01*
G01*
G37*
G36*
G01*
X181400500Y-58068738D02*
X181400500Y-59025262D01*
G75*
G02*
X181128762Y-59297000I-271738J0D01*
G01*
X180422238Y-59297000D01*
G75*
G02*
X180150500Y-59025262I0J271738D01*
G01*
X180150500Y-58068738D01*
G75*
G02*
X180422238Y-57797000I271738J0D01*
G01*
X181128762Y-57797000D01*
G75*
G02*
X181400500Y-58068738I0J-271738D01*
G01*
G37*
G04 #@! TD*
G04 #@! TO.C,C4*
G36*
G01*
X188819262Y-57149000D02*
X187862738Y-57149000D01*
G75*
G02*
X187591000Y-56877262I0J271738D01*
G01*
X187591000Y-56170738D01*
G75*
G02*
X187862738Y-55899000I271738J0D01*
G01*
X188819262Y-55899000D01*
G75*
G02*
X189091000Y-56170738I0J-271738D01*
G01*
X189091000Y-56877262D01*
G75*
G02*
X188819262Y-57149000I-271738J0D01*
G01*
G37*
G36*
G01*
X188819262Y-55099000D02*
X187862738Y-55099000D01*
G75*
G02*
X187591000Y-54827262I0J271738D01*
G01*
X187591000Y-54120738D01*
G75*
G02*
X187862738Y-53849000I271738J0D01*
G01*
X188819262Y-53849000D01*
G75*
G02*
X189091000Y-54120738I0J-271738D01*
G01*
X189091000Y-54827262D01*
G75*
G02*
X188819262Y-55099000I-271738J0D01*
G01*
G37*
G04 #@! TD*
G04 #@! TO.C,C5*
G36*
G01*
X182147738Y-61986000D02*
X183104262Y-61986000D01*
G75*
G02*
X183376000Y-62257738I0J-271738D01*
G01*
X183376000Y-62964262D01*
G75*
G02*
X183104262Y-63236000I-271738J0D01*
G01*
X182147738Y-63236000D01*
G75*
G02*
X181876000Y-62964262I0J271738D01*
G01*
X181876000Y-62257738D01*
G75*
G02*
X182147738Y-61986000I271738J0D01*
G01*
G37*
G36*
G01*
X182147738Y-59936000D02*
X183104262Y-59936000D01*
G75*
G02*
X183376000Y-60207738I0J-271738D01*
G01*
X183376000Y-60914262D01*
G75*
G02*
X183104262Y-61186000I-271738J0D01*
G01*
X182147738Y-61186000D01*
G75*
G02*
X181876000Y-60914262I0J271738D01*
G01*
X181876000Y-60207738D01*
G75*
G02*
X182147738Y-59936000I271738J0D01*
G01*
G37*
G04 #@! TD*
G04 #@! TO.C,C6*
G36*
G01*
X138021000Y-84103738D02*
X138021000Y-85060262D01*
G75*
G02*
X137749262Y-85332000I-271738J0D01*
G01*
X137042738Y-85332000D01*
G75*
G02*
X136771000Y-85060262I0J271738D01*
G01*
X136771000Y-84103738D01*
G75*
G02*
X137042738Y-83832000I271738J0D01*
G01*
X137749262Y-83832000D01*
G75*
G02*
X138021000Y-84103738I0J-271738D01*
G01*
G37*
G36*
G01*
X140071000Y-84103738D02*
X140071000Y-85060262D01*
G75*
G02*
X139799262Y-85332000I-271738J0D01*
G01*
X139092738Y-85332000D01*
G75*
G02*
X138821000Y-85060262I0J271738D01*
G01*
X138821000Y-84103738D01*
G75*
G02*
X139092738Y-83832000I271738J0D01*
G01*
X139799262Y-83832000D01*
G75*
G02*
X140071000Y-84103738I0J-271738D01*
G01*
G37*
G04 #@! TD*
G04 #@! TO.C,C7*
G36*
G01*
X138021000Y-72885404D02*
X138021000Y-73841928D01*
G75*
G02*
X137749262Y-74113666I-271738J0D01*
G01*
X137042738Y-74113666D01*
G75*
G02*
X136771000Y-73841928I0J271738D01*
G01*
X136771000Y-72885404D01*
G75*
G02*
X137042738Y-72613666I271738J0D01*
G01*
X137749262Y-72613666D01*
G75*
G02*
X138021000Y-72885404I0J-271738D01*
G01*
G37*
G36*
G01*
X140071000Y-72885404D02*
X140071000Y-73841928D01*
G75*
G02*
X139799262Y-74113666I-271738J0D01*
G01*
X139092738Y-74113666D01*
G75*
G02*
X138821000Y-73841928I0J271738D01*
G01*
X138821000Y-72885404D01*
G75*
G02*
X139092738Y-72613666I271738J0D01*
G01*
X139799262Y-72613666D01*
G75*
G02*
X140071000Y-72885404I0J-271738D01*
G01*
G37*
G04 #@! TD*
G04 #@! TO.C,C8*
G36*
G01*
X138021000Y-61667071D02*
X138021000Y-62623595D01*
G75*
G02*
X137749262Y-62895333I-271738J0D01*
G01*
X137042738Y-62895333D01*
G75*
G02*
X136771000Y-62623595I0J271738D01*
G01*
X136771000Y-61667071D01*
G75*
G02*
X137042738Y-61395333I271738J0D01*
G01*
X137749262Y-61395333D01*
G75*
G02*
X138021000Y-61667071I0J-271738D01*
G01*
G37*
G36*
G01*
X140071000Y-61667071D02*
X140071000Y-62623595D01*
G75*
G02*
X139799262Y-62895333I-271738J0D01*
G01*
X139092738Y-62895333D01*
G75*
G02*
X138821000Y-62623595I0J271738D01*
G01*
X138821000Y-61667071D01*
G75*
G02*
X139092738Y-61395333I271738J0D01*
G01*
X139799262Y-61395333D01*
G75*
G02*
X140071000Y-61667071I0J-271738D01*
G01*
G37*
G04 #@! TD*
G04 #@! TO.C,C9*
G36*
G01*
X138021000Y-50448738D02*
X138021000Y-51405262D01*
G75*
G02*
X137749262Y-51677000I-271738J0D01*
G01*
X137042738Y-51677000D01*
G75*
G02*
X136771000Y-51405262I0J271738D01*
G01*
X136771000Y-50448738D01*
G75*
G02*
X137042738Y-50177000I271738J0D01*
G01*
X137749262Y-50177000D01*
G75*
G02*
X138021000Y-50448738I0J-271738D01*
G01*
G37*
G36*
G01*
X140071000Y-50448738D02*
X140071000Y-51405262D01*
G75*
G02*
X139799262Y-51677000I-271738J0D01*
G01*
X139092738Y-51677000D01*
G75*
G02*
X138821000Y-51405262I0J271738D01*
G01*
X138821000Y-50448738D01*
G75*
G02*
X139092738Y-50177000I271738J0D01*
G01*
X139799262Y-50177000D01*
G75*
G02*
X140071000Y-50448738I0J-271738D01*
G01*
G37*
G04 #@! TD*
G04 #@! TO.C,C10*
G36*
G01*
X139953000Y-90453738D02*
X139953000Y-91410262D01*
G75*
G02*
X139681262Y-91682000I-271738J0D01*
G01*
X138974738Y-91682000D01*
G75*
G02*
X138703000Y-91410262I0J271738D01*
G01*
X138703000Y-90453738D01*
G75*
G02*
X138974738Y-90182000I271738J0D01*
G01*
X139681262Y-90182000D01*
G75*
G02*
X139953000Y-90453738I0J-271738D01*
G01*
G37*
G36*
G01*
X137903000Y-90453738D02*
X137903000Y-91410262D01*
G75*
G02*
X137631262Y-91682000I-271738J0D01*
G01*
X136924738Y-91682000D01*
G75*
G02*
X136653000Y-91410262I0J271738D01*
G01*
X136653000Y-90453738D01*
G75*
G02*
X136924738Y-90182000I271738J0D01*
G01*
X137631262Y-90182000D01*
G75*
G02*
X137903000Y-90453738I0J-271738D01*
G01*
G37*
G04 #@! TD*
G04 #@! TO.C,C11*
G36*
G01*
X139953000Y-79235404D02*
X139953000Y-80191928D01*
G75*
G02*
X139681262Y-80463666I-271738J0D01*
G01*
X138974738Y-80463666D01*
G75*
G02*
X138703000Y-80191928I0J271738D01*
G01*
X138703000Y-79235404D01*
G75*
G02*
X138974738Y-78963666I271738J0D01*
G01*
X139681262Y-78963666D01*
G75*
G02*
X139953000Y-79235404I0J-271738D01*
G01*
G37*
G36*
G01*
X137903000Y-79235404D02*
X137903000Y-80191928D01*
G75*
G02*
X137631262Y-80463666I-271738J0D01*
G01*
X136924738Y-80463666D01*
G75*
G02*
X136653000Y-80191928I0J271738D01*
G01*
X136653000Y-79235404D01*
G75*
G02*
X136924738Y-78963666I271738J0D01*
G01*
X137631262Y-78963666D01*
G75*
G02*
X137903000Y-79235404I0J-271738D01*
G01*
G37*
G04 #@! TD*
G04 #@! TO.C,C12*
G36*
G01*
X139953000Y-68017071D02*
X139953000Y-68973595D01*
G75*
G02*
X139681262Y-69245333I-271738J0D01*
G01*
X138974738Y-69245333D01*
G75*
G02*
X138703000Y-68973595I0J271738D01*
G01*
X138703000Y-68017071D01*
G75*
G02*
X138974738Y-67745333I271738J0D01*
G01*
X139681262Y-67745333D01*
G75*
G02*
X139953000Y-68017071I0J-271738D01*
G01*
G37*
G36*
G01*
X137903000Y-68017071D02*
X137903000Y-68973595D01*
G75*
G02*
X137631262Y-69245333I-271738J0D01*
G01*
X136924738Y-69245333D01*
G75*
G02*
X136653000Y-68973595I0J271738D01*
G01*
X136653000Y-68017071D01*
G75*
G02*
X136924738Y-67745333I271738J0D01*
G01*
X137631262Y-67745333D01*
G75*
G02*
X137903000Y-68017071I0J-271738D01*
G01*
G37*
G04 #@! TD*
G04 #@! TO.C,C13*
G36*
G01*
X137903000Y-56798738D02*
X137903000Y-57755262D01*
G75*
G02*
X137631262Y-58027000I-271738J0D01*
G01*
X136924738Y-58027000D01*
G75*
G02*
X136653000Y-57755262I0J271738D01*
G01*
X136653000Y-56798738D01*
G75*
G02*
X136924738Y-56527000I271738J0D01*
G01*
X137631262Y-56527000D01*
G75*
G02*
X137903000Y-56798738I0J-271738D01*
G01*
G37*
G36*
G01*
X139953000Y-56798738D02*
X139953000Y-57755262D01*
G75*
G02*
X139681262Y-58027000I-271738J0D01*
G01*
X138974738Y-58027000D01*
G75*
G02*
X138703000Y-57755262I0J271738D01*
G01*
X138703000Y-56798738D01*
G75*
G02*
X138974738Y-56527000I271738J0D01*
G01*
X139681262Y-56527000D01*
G75*
G02*
X139953000Y-56798738I0J-271738D01*
G01*
G37*
G04 #@! TD*
G04 #@! TO.C,C14*
G36*
G01*
X182752000Y-75975738D02*
X182752000Y-76932262D01*
G75*
G02*
X182480262Y-77204000I-271738J0D01*
G01*
X181773738Y-77204000D01*
G75*
G02*
X181502000Y-76932262I0J271738D01*
G01*
X181502000Y-75975738D01*
G75*
G02*
X181773738Y-75704000I271738J0D01*
G01*
X182480262Y-75704000D01*
G75*
G02*
X182752000Y-75975738I0J-271738D01*
G01*
G37*
G36*
G01*
X180702000Y-75975738D02*
X180702000Y-76932262D01*
G75*
G02*
X180430262Y-77204000I-271738J0D01*
G01*
X179723738Y-77204000D01*
G75*
G02*
X179452000Y-76932262I0J271738D01*
G01*
X179452000Y-75975738D01*
G75*
G02*
X179723738Y-75704000I271738J0D01*
G01*
X180430262Y-75704000D01*
G75*
G02*
X180702000Y-75975738I0J-271738D01*
G01*
G37*
G04 #@! TD*
G04 #@! TO.C,C15*
G36*
G01*
X180693000Y-78134738D02*
X180693000Y-79091262D01*
G75*
G02*
X180421262Y-79363000I-271738J0D01*
G01*
X179714738Y-79363000D01*
G75*
G02*
X179443000Y-79091262I0J271738D01*
G01*
X179443000Y-78134738D01*
G75*
G02*
X179714738Y-77863000I271738J0D01*
G01*
X180421262Y-77863000D01*
G75*
G02*
X180693000Y-78134738I0J-271738D01*
G01*
G37*
G36*
G01*
X182743000Y-78134738D02*
X182743000Y-79091262D01*
G75*
G02*
X182471262Y-79363000I-271738J0D01*
G01*
X181764738Y-79363000D01*
G75*
G02*
X181493000Y-79091262I0J271738D01*
G01*
X181493000Y-78134738D01*
G75*
G02*
X181764738Y-77863000I271738J0D01*
G01*
X182471262Y-77863000D01*
G75*
G02*
X182743000Y-78134738I0J-271738D01*
G01*
G37*
G04 #@! TD*
G04 #@! TO.C,C16*
G36*
G01*
X186036000Y-91215738D02*
X186036000Y-92172262D01*
G75*
G02*
X185764262Y-92444000I-271738J0D01*
G01*
X185057738Y-92444000D01*
G75*
G02*
X184786000Y-92172262I0J271738D01*
G01*
X184786000Y-91215738D01*
G75*
G02*
X185057738Y-90944000I271738J0D01*
G01*
X185764262Y-90944000D01*
G75*
G02*
X186036000Y-91215738I0J-271738D01*
G01*
G37*
G36*
G01*
X188086000Y-91215738D02*
X188086000Y-92172262D01*
G75*
G02*
X187814262Y-92444000I-271738J0D01*
G01*
X187107738Y-92444000D01*
G75*
G02*
X186836000Y-92172262I0J271738D01*
G01*
X186836000Y-91215738D01*
G75*
G02*
X187107738Y-90944000I271738J0D01*
G01*
X187814262Y-90944000D01*
G75*
G02*
X188086000Y-91215738I0J-271738D01*
G01*
G37*
G04 #@! TD*
G04 #@! TO.C,C17*
G36*
G01*
X182743000Y-80293738D02*
X182743000Y-81250262D01*
G75*
G02*
X182471262Y-81522000I-271738J0D01*
G01*
X181764738Y-81522000D01*
G75*
G02*
X181493000Y-81250262I0J271738D01*
G01*
X181493000Y-80293738D01*
G75*
G02*
X181764738Y-80022000I271738J0D01*
G01*
X182471262Y-80022000D01*
G75*
G02*
X182743000Y-80293738I0J-271738D01*
G01*
G37*
G36*
G01*
X180693000Y-80293738D02*
X180693000Y-81250262D01*
G75*
G02*
X180421262Y-81522000I-271738J0D01*
G01*
X179714738Y-81522000D01*
G75*
G02*
X179443000Y-81250262I0J271738D01*
G01*
X179443000Y-80293738D01*
G75*
G02*
X179714738Y-80022000I271738J0D01*
G01*
X180421262Y-80022000D01*
G75*
G02*
X180693000Y-80293738I0J-271738D01*
G01*
G37*
G04 #@! TD*
G04 #@! TO.C,C18*
G36*
G01*
X194173000Y-79658738D02*
X194173000Y-80615262D01*
G75*
G02*
X193901262Y-80887000I-271738J0D01*
G01*
X193194738Y-80887000D01*
G75*
G02*
X192923000Y-80615262I0J271738D01*
G01*
X192923000Y-79658738D01*
G75*
G02*
X193194738Y-79387000I271738J0D01*
G01*
X193901262Y-79387000D01*
G75*
G02*
X194173000Y-79658738I0J-271738D01*
G01*
G37*
G36*
G01*
X192123000Y-79658738D02*
X192123000Y-80615262D01*
G75*
G02*
X191851262Y-80887000I-271738J0D01*
G01*
X191144738Y-80887000D01*
G75*
G02*
X190873000Y-80615262I0J271738D01*
G01*
X190873000Y-79658738D01*
G75*
G02*
X191144738Y-79387000I271738J0D01*
G01*
X191851262Y-79387000D01*
G75*
G02*
X192123000Y-79658738I0J-271738D01*
G01*
G37*
G04 #@! TD*
D12*
G04 #@! TO.C,J5*
X197237000Y-59275500D03*
X197237000Y-58625500D03*
X197237000Y-57975500D03*
X197237000Y-57325500D03*
X197237000Y-56675500D03*
D13*
X198237000Y-53911500D03*
X198237000Y-62039500D03*
D14*
X200777000Y-61023500D03*
X200787000Y-54927500D03*
G04 #@! TD*
G04 #@! TO.C,R1*
G36*
G01*
X180437262Y-63245000D02*
X179480738Y-63245000D01*
G75*
G02*
X179209000Y-62973262I0J271738D01*
G01*
X179209000Y-62266738D01*
G75*
G02*
X179480738Y-61995000I271738J0D01*
G01*
X180437262Y-61995000D01*
G75*
G02*
X180709000Y-62266738I0J-271738D01*
G01*
X180709000Y-62973262D01*
G75*
G02*
X180437262Y-63245000I-271738J0D01*
G01*
G37*
G36*
G01*
X180437262Y-61195000D02*
X179480738Y-61195000D01*
G75*
G02*
X179209000Y-60923262I0J271738D01*
G01*
X179209000Y-60216738D01*
G75*
G02*
X179480738Y-59945000I271738J0D01*
G01*
X180437262Y-59945000D01*
G75*
G02*
X180709000Y-60216738I0J-271738D01*
G01*
X180709000Y-60923262D01*
G75*
G02*
X180437262Y-61195000I-271738J0D01*
G01*
G37*
G04 #@! TD*
G04 #@! TO.C,R2*
G36*
G01*
X184512000Y-48289738D02*
X184512000Y-49246262D01*
G75*
G02*
X184240262Y-49518000I-271738J0D01*
G01*
X183533738Y-49518000D01*
G75*
G02*
X183262000Y-49246262I0J271738D01*
G01*
X183262000Y-48289738D01*
G75*
G02*
X183533738Y-48018000I271738J0D01*
G01*
X184240262Y-48018000D01*
G75*
G02*
X184512000Y-48289738I0J-271738D01*
G01*
G37*
G36*
G01*
X186562000Y-48289738D02*
X186562000Y-49246262D01*
G75*
G02*
X186290262Y-49518000I-271738J0D01*
G01*
X185583738Y-49518000D01*
G75*
G02*
X185312000Y-49246262I0J271738D01*
G01*
X185312000Y-48289738D01*
G75*
G02*
X185583738Y-48018000I271738J0D01*
G01*
X186290262Y-48018000D01*
G75*
G02*
X186562000Y-48289738I0J-271738D01*
G01*
G37*
G04 #@! TD*
G04 #@! TO.C,R3*
G36*
G01*
X183115000Y-51718738D02*
X183115000Y-52675262D01*
G75*
G02*
X182843262Y-52947000I-271738J0D01*
G01*
X182136738Y-52947000D01*
G75*
G02*
X181865000Y-52675262I0J271738D01*
G01*
X181865000Y-51718738D01*
G75*
G02*
X182136738Y-51447000I271738J0D01*
G01*
X182843262Y-51447000D01*
G75*
G02*
X183115000Y-51718738I0J-271738D01*
G01*
G37*
G36*
G01*
X185165000Y-51718738D02*
X185165000Y-52675262D01*
G75*
G02*
X184893262Y-52947000I-271738J0D01*
G01*
X184186738Y-52947000D01*
G75*
G02*
X183915000Y-52675262I0J271738D01*
G01*
X183915000Y-51718738D01*
G75*
G02*
X184186738Y-51447000I271738J0D01*
G01*
X184893262Y-51447000D01*
G75*
G02*
X185165000Y-51718738I0J-271738D01*
G01*
G37*
G04 #@! TD*
G04 #@! TO.C,R4*
G36*
G01*
X189474000Y-51718738D02*
X189474000Y-52675262D01*
G75*
G02*
X189202262Y-52947000I-271738J0D01*
G01*
X188495738Y-52947000D01*
G75*
G02*
X188224000Y-52675262I0J271738D01*
G01*
X188224000Y-51718738D01*
G75*
G02*
X188495738Y-51447000I271738J0D01*
G01*
X189202262Y-51447000D01*
G75*
G02*
X189474000Y-51718738I0J-271738D01*
G01*
G37*
G36*
G01*
X187424000Y-51718738D02*
X187424000Y-52675262D01*
G75*
G02*
X187152262Y-52947000I-271738J0D01*
G01*
X186445738Y-52947000D01*
G75*
G02*
X186174000Y-52675262I0J271738D01*
G01*
X186174000Y-51718738D01*
G75*
G02*
X186445738Y-51447000I271738J0D01*
G01*
X187152262Y-51447000D01*
G75*
G02*
X187424000Y-51718738I0J-271738D01*
G01*
G37*
G04 #@! TD*
G04 #@! TO.C,R5*
G36*
G01*
X185938000Y-61565262D02*
X185938000Y-60608738D01*
G75*
G02*
X186209738Y-60337000I271738J0D01*
G01*
X186916262Y-60337000D01*
G75*
G02*
X187188000Y-60608738I0J-271738D01*
G01*
X187188000Y-61565262D01*
G75*
G02*
X186916262Y-61837000I-271738J0D01*
G01*
X186209738Y-61837000D01*
G75*
G02*
X185938000Y-61565262I0J271738D01*
G01*
G37*
G36*
G01*
X183888000Y-61565262D02*
X183888000Y-60608738D01*
G75*
G02*
X184159738Y-60337000I271738J0D01*
G01*
X184866262Y-60337000D01*
G75*
G02*
X185138000Y-60608738I0J-271738D01*
G01*
X185138000Y-61565262D01*
G75*
G02*
X184866262Y-61837000I-271738J0D01*
G01*
X184159738Y-61837000D01*
G75*
G02*
X183888000Y-61565262I0J271738D01*
G01*
G37*
G04 #@! TD*
G04 #@! TO.C,R6*
G36*
G01*
X185147000Y-62640738D02*
X185147000Y-63597262D01*
G75*
G02*
X184875262Y-63869000I-271738J0D01*
G01*
X184168738Y-63869000D01*
G75*
G02*
X183897000Y-63597262I0J271738D01*
G01*
X183897000Y-62640738D01*
G75*
G02*
X184168738Y-62369000I271738J0D01*
G01*
X184875262Y-62369000D01*
G75*
G02*
X185147000Y-62640738I0J-271738D01*
G01*
G37*
G36*
G01*
X187197000Y-62640738D02*
X187197000Y-63597262D01*
G75*
G02*
X186925262Y-63869000I-271738J0D01*
G01*
X186218738Y-63869000D01*
G75*
G02*
X185947000Y-63597262I0J271738D01*
G01*
X185947000Y-62640738D01*
G75*
G02*
X186218738Y-62369000I271738J0D01*
G01*
X186925262Y-62369000D01*
G75*
G02*
X187197000Y-62640738I0J-271738D01*
G01*
G37*
G04 #@! TD*
G04 #@! TO.C,R7*
G36*
G01*
X153025000Y-44479738D02*
X153025000Y-45436262D01*
G75*
G02*
X152753262Y-45708000I-271738J0D01*
G01*
X152046738Y-45708000D01*
G75*
G02*
X151775000Y-45436262I0J271738D01*
G01*
X151775000Y-44479738D01*
G75*
G02*
X152046738Y-44208000I271738J0D01*
G01*
X152753262Y-44208000D01*
G75*
G02*
X153025000Y-44479738I0J-271738D01*
G01*
G37*
G36*
G01*
X150975000Y-44479738D02*
X150975000Y-45436262D01*
G75*
G02*
X150703262Y-45708000I-271738J0D01*
G01*
X149996738Y-45708000D01*
G75*
G02*
X149725000Y-45436262I0J271738D01*
G01*
X149725000Y-44479738D01*
G75*
G02*
X149996738Y-44208000I271738J0D01*
G01*
X150703262Y-44208000D01*
G75*
G02*
X150975000Y-44479738I0J-271738D01*
G01*
G37*
G04 #@! TD*
G04 #@! TO.C,R8*
G36*
G01*
X150848000Y-57603071D02*
X150848000Y-58559595D01*
G75*
G02*
X150576262Y-58831333I-271738J0D01*
G01*
X149869738Y-58831333D01*
G75*
G02*
X149598000Y-58559595I0J271738D01*
G01*
X149598000Y-57603071D01*
G75*
G02*
X149869738Y-57331333I271738J0D01*
G01*
X150576262Y-57331333D01*
G75*
G02*
X150848000Y-57603071I0J-271738D01*
G01*
G37*
G36*
G01*
X152898000Y-57603071D02*
X152898000Y-58559595D01*
G75*
G02*
X152626262Y-58831333I-271738J0D01*
G01*
X151919738Y-58831333D01*
G75*
G02*
X151648000Y-58559595I0J271738D01*
G01*
X151648000Y-57603071D01*
G75*
G02*
X151919738Y-57331333I271738J0D01*
G01*
X152626262Y-57331333D01*
G75*
G02*
X152898000Y-57603071I0J-271738D01*
G01*
G37*
G04 #@! TD*
G04 #@! TO.C,R9*
G36*
G01*
X152898000Y-70726404D02*
X152898000Y-71682928D01*
G75*
G02*
X152626262Y-71954666I-271738J0D01*
G01*
X151919738Y-71954666D01*
G75*
G02*
X151648000Y-71682928I0J271738D01*
G01*
X151648000Y-70726404D01*
G75*
G02*
X151919738Y-70454666I271738J0D01*
G01*
X152626262Y-70454666D01*
G75*
G02*
X152898000Y-70726404I0J-271738D01*
G01*
G37*
G36*
G01*
X150848000Y-70726404D02*
X150848000Y-71682928D01*
G75*
G02*
X150576262Y-71954666I-271738J0D01*
G01*
X149869738Y-71954666D01*
G75*
G02*
X149598000Y-71682928I0J271738D01*
G01*
X149598000Y-70726404D01*
G75*
G02*
X149869738Y-70454666I271738J0D01*
G01*
X150576262Y-70454666D01*
G75*
G02*
X150848000Y-70726404I0J-271738D01*
G01*
G37*
G04 #@! TD*
G04 #@! TO.C,R10*
G36*
G01*
X150984000Y-83849738D02*
X150984000Y-84806262D01*
G75*
G02*
X150712262Y-85078000I-271738J0D01*
G01*
X150005738Y-85078000D01*
G75*
G02*
X149734000Y-84806262I0J271738D01*
G01*
X149734000Y-83849738D01*
G75*
G02*
X150005738Y-83578000I271738J0D01*
G01*
X150712262Y-83578000D01*
G75*
G02*
X150984000Y-83849738I0J-271738D01*
G01*
G37*
G36*
G01*
X153034000Y-83849738D02*
X153034000Y-84806262D01*
G75*
G02*
X152762262Y-85078000I-271738J0D01*
G01*
X152055738Y-85078000D01*
G75*
G02*
X151784000Y-84806262I0J271738D01*
G01*
X151784000Y-83849738D01*
G75*
G02*
X152055738Y-83578000I271738J0D01*
G01*
X152762262Y-83578000D01*
G75*
G02*
X153034000Y-83849738I0J-271738D01*
G01*
G37*
G04 #@! TD*
G04 #@! TO.C,R11*
G36*
G01*
X168510000Y-83722738D02*
X168510000Y-84679262D01*
G75*
G02*
X168238262Y-84951000I-271738J0D01*
G01*
X167531738Y-84951000D01*
G75*
G02*
X167260000Y-84679262I0J271738D01*
G01*
X167260000Y-83722738D01*
G75*
G02*
X167531738Y-83451000I271738J0D01*
G01*
X168238262Y-83451000D01*
G75*
G02*
X168510000Y-83722738I0J-271738D01*
G01*
G37*
G36*
G01*
X170560000Y-83722738D02*
X170560000Y-84679262D01*
G75*
G02*
X170288262Y-84951000I-271738J0D01*
G01*
X169581738Y-84951000D01*
G75*
G02*
X169310000Y-84679262I0J271738D01*
G01*
X169310000Y-83722738D01*
G75*
G02*
X169581738Y-83451000I271738J0D01*
G01*
X170288262Y-83451000D01*
G75*
G02*
X170560000Y-83722738I0J-271738D01*
G01*
G37*
G04 #@! TD*
G04 #@! TO.C,R12*
G36*
G01*
X168510000Y-70641738D02*
X168510000Y-71598262D01*
G75*
G02*
X168238262Y-71870000I-271738J0D01*
G01*
X167531738Y-71870000D01*
G75*
G02*
X167260000Y-71598262I0J271738D01*
G01*
X167260000Y-70641738D01*
G75*
G02*
X167531738Y-70370000I271738J0D01*
G01*
X168238262Y-70370000D01*
G75*
G02*
X168510000Y-70641738I0J-271738D01*
G01*
G37*
G36*
G01*
X170560000Y-70641738D02*
X170560000Y-71598262D01*
G75*
G02*
X170288262Y-71870000I-271738J0D01*
G01*
X169581738Y-71870000D01*
G75*
G02*
X169310000Y-71598262I0J271738D01*
G01*
X169310000Y-70641738D01*
G75*
G02*
X169581738Y-70370000I271738J0D01*
G01*
X170288262Y-70370000D01*
G75*
G02*
X170560000Y-70641738I0J-271738D01*
G01*
G37*
G04 #@! TD*
G04 #@! TO.C,R13*
G36*
G01*
X170560000Y-57560738D02*
X170560000Y-58517262D01*
G75*
G02*
X170288262Y-58789000I-271738J0D01*
G01*
X169581738Y-58789000D01*
G75*
G02*
X169310000Y-58517262I0J271738D01*
G01*
X169310000Y-57560738D01*
G75*
G02*
X169581738Y-57289000I271738J0D01*
G01*
X170288262Y-57289000D01*
G75*
G02*
X170560000Y-57560738I0J-271738D01*
G01*
G37*
G36*
G01*
X168510000Y-57560738D02*
X168510000Y-58517262D01*
G75*
G02*
X168238262Y-58789000I-271738J0D01*
G01*
X167531738Y-58789000D01*
G75*
G02*
X167260000Y-58517262I0J271738D01*
G01*
X167260000Y-57560738D01*
G75*
G02*
X167531738Y-57289000I271738J0D01*
G01*
X168238262Y-57289000D01*
G75*
G02*
X168510000Y-57560738I0J-271738D01*
G01*
G37*
G04 #@! TD*
G04 #@! TO.C,R14*
G36*
G01*
X170560000Y-44479738D02*
X170560000Y-45436262D01*
G75*
G02*
X170288262Y-45708000I-271738J0D01*
G01*
X169581738Y-45708000D01*
G75*
G02*
X169310000Y-45436262I0J271738D01*
G01*
X169310000Y-44479738D01*
G75*
G02*
X169581738Y-44208000I271738J0D01*
G01*
X170288262Y-44208000D01*
G75*
G02*
X170560000Y-44479738I0J-271738D01*
G01*
G37*
G36*
G01*
X168510000Y-44479738D02*
X168510000Y-45436262D01*
G75*
G02*
X168238262Y-45708000I-271738J0D01*
G01*
X167531738Y-45708000D01*
G75*
G02*
X167260000Y-45436262I0J271738D01*
G01*
X167260000Y-44479738D01*
G75*
G02*
X167531738Y-44208000I271738J0D01*
G01*
X168238262Y-44208000D01*
G75*
G02*
X168510000Y-44479738I0J-271738D01*
G01*
G37*
G04 #@! TD*
G04 #@! TO.C,R15*
G36*
G01*
X173209000Y-90199738D02*
X173209000Y-91156262D01*
G75*
G02*
X172937262Y-91428000I-271738J0D01*
G01*
X172230738Y-91428000D01*
G75*
G02*
X171959000Y-91156262I0J271738D01*
G01*
X171959000Y-90199738D01*
G75*
G02*
X172230738Y-89928000I271738J0D01*
G01*
X172937262Y-89928000D01*
G75*
G02*
X173209000Y-90199738I0J-271738D01*
G01*
G37*
G36*
G01*
X175259000Y-90199738D02*
X175259000Y-91156262D01*
G75*
G02*
X174987262Y-91428000I-271738J0D01*
G01*
X174280738Y-91428000D01*
G75*
G02*
X174009000Y-91156262I0J271738D01*
G01*
X174009000Y-90199738D01*
G75*
G02*
X174280738Y-89928000I271738J0D01*
G01*
X174987262Y-89928000D01*
G75*
G02*
X175259000Y-90199738I0J-271738D01*
G01*
G37*
G04 #@! TD*
G04 #@! TO.C,R16*
G36*
G01*
X175259000Y-77118738D02*
X175259000Y-78075262D01*
G75*
G02*
X174987262Y-78347000I-271738J0D01*
G01*
X174280738Y-78347000D01*
G75*
G02*
X174009000Y-78075262I0J271738D01*
G01*
X174009000Y-77118738D01*
G75*
G02*
X174280738Y-76847000I271738J0D01*
G01*
X174987262Y-76847000D01*
G75*
G02*
X175259000Y-77118738I0J-271738D01*
G01*
G37*
G36*
G01*
X173209000Y-77118738D02*
X173209000Y-78075262D01*
G75*
G02*
X172937262Y-78347000I-271738J0D01*
G01*
X172230738Y-78347000D01*
G75*
G02*
X171959000Y-78075262I0J271738D01*
G01*
X171959000Y-77118738D01*
G75*
G02*
X172230738Y-76847000I271738J0D01*
G01*
X172937262Y-76847000D01*
G75*
G02*
X173209000Y-77118738I0J-271738D01*
G01*
G37*
G04 #@! TD*
G04 #@! TO.C,R17*
G36*
G01*
X173209000Y-64037738D02*
X173209000Y-64994262D01*
G75*
G02*
X172937262Y-65266000I-271738J0D01*
G01*
X172230738Y-65266000D01*
G75*
G02*
X171959000Y-64994262I0J271738D01*
G01*
X171959000Y-64037738D01*
G75*
G02*
X172230738Y-63766000I271738J0D01*
G01*
X172937262Y-63766000D01*
G75*
G02*
X173209000Y-64037738I0J-271738D01*
G01*
G37*
G36*
G01*
X175259000Y-64037738D02*
X175259000Y-64994262D01*
G75*
G02*
X174987262Y-65266000I-271738J0D01*
G01*
X174280738Y-65266000D01*
G75*
G02*
X174009000Y-64994262I0J271738D01*
G01*
X174009000Y-64037738D01*
G75*
G02*
X174280738Y-63766000I271738J0D01*
G01*
X174987262Y-63766000D01*
G75*
G02*
X175259000Y-64037738I0J-271738D01*
G01*
G37*
G04 #@! TD*
G04 #@! TO.C,R18*
G36*
G01*
X175259000Y-50956738D02*
X175259000Y-51913262D01*
G75*
G02*
X174987262Y-52185000I-271738J0D01*
G01*
X174280738Y-52185000D01*
G75*
G02*
X174009000Y-51913262I0J271738D01*
G01*
X174009000Y-50956738D01*
G75*
G02*
X174280738Y-50685000I271738J0D01*
G01*
X174987262Y-50685000D01*
G75*
G02*
X175259000Y-50956738I0J-271738D01*
G01*
G37*
G36*
G01*
X173209000Y-50956738D02*
X173209000Y-51913262D01*
G75*
G02*
X172937262Y-52185000I-271738J0D01*
G01*
X172230738Y-52185000D01*
G75*
G02*
X171959000Y-51913262I0J271738D01*
G01*
X171959000Y-50956738D01*
G75*
G02*
X172230738Y-50685000I271738J0D01*
G01*
X172937262Y-50685000D01*
G75*
G02*
X173209000Y-50956738I0J-271738D01*
G01*
G37*
G04 #@! TD*
G04 #@! TO.C,R19*
G36*
G01*
X157597000Y-90326738D02*
X157597000Y-91283262D01*
G75*
G02*
X157325262Y-91555000I-271738J0D01*
G01*
X156618738Y-91555000D01*
G75*
G02*
X156347000Y-91283262I0J271738D01*
G01*
X156347000Y-90326738D01*
G75*
G02*
X156618738Y-90055000I271738J0D01*
G01*
X157325262Y-90055000D01*
G75*
G02*
X157597000Y-90326738I0J-271738D01*
G01*
G37*
G36*
G01*
X155547000Y-90326738D02*
X155547000Y-91283262D01*
G75*
G02*
X155275262Y-91555000I-271738J0D01*
G01*
X154568738Y-91555000D01*
G75*
G02*
X154297000Y-91283262I0J271738D01*
G01*
X154297000Y-90326738D01*
G75*
G02*
X154568738Y-90055000I271738J0D01*
G01*
X155275262Y-90055000D01*
G75*
G02*
X155547000Y-90326738I0J-271738D01*
G01*
G37*
G04 #@! TD*
G04 #@! TO.C,R20*
G36*
G01*
X155547000Y-77203404D02*
X155547000Y-78159928D01*
G75*
G02*
X155275262Y-78431666I-271738J0D01*
G01*
X154568738Y-78431666D01*
G75*
G02*
X154297000Y-78159928I0J271738D01*
G01*
X154297000Y-77203404D01*
G75*
G02*
X154568738Y-76931666I271738J0D01*
G01*
X155275262Y-76931666D01*
G75*
G02*
X155547000Y-77203404I0J-271738D01*
G01*
G37*
G36*
G01*
X157597000Y-77203404D02*
X157597000Y-78159928D01*
G75*
G02*
X157325262Y-78431666I-271738J0D01*
G01*
X156618738Y-78431666D01*
G75*
G02*
X156347000Y-78159928I0J271738D01*
G01*
X156347000Y-77203404D01*
G75*
G02*
X156618738Y-76931666I271738J0D01*
G01*
X157325262Y-76931666D01*
G75*
G02*
X157597000Y-77203404I0J-271738D01*
G01*
G37*
G04 #@! TD*
G04 #@! TO.C,R21*
G36*
G01*
X157597000Y-64080071D02*
X157597000Y-65036595D01*
G75*
G02*
X157325262Y-65308333I-271738J0D01*
G01*
X156618738Y-65308333D01*
G75*
G02*
X156347000Y-65036595I0J271738D01*
G01*
X156347000Y-64080071D01*
G75*
G02*
X156618738Y-63808333I271738J0D01*
G01*
X157325262Y-63808333D01*
G75*
G02*
X157597000Y-64080071I0J-271738D01*
G01*
G37*
G36*
G01*
X155547000Y-64080071D02*
X155547000Y-65036595D01*
G75*
G02*
X155275262Y-65308333I-271738J0D01*
G01*
X154568738Y-65308333D01*
G75*
G02*
X154297000Y-65036595I0J271738D01*
G01*
X154297000Y-64080071D01*
G75*
G02*
X154568738Y-63808333I271738J0D01*
G01*
X155275262Y-63808333D01*
G75*
G02*
X155547000Y-64080071I0J-271738D01*
G01*
G37*
G04 #@! TD*
G04 #@! TO.C,R22*
G36*
G01*
X157597000Y-50956738D02*
X157597000Y-51913262D01*
G75*
G02*
X157325262Y-52185000I-271738J0D01*
G01*
X156618738Y-52185000D01*
G75*
G02*
X156347000Y-51913262I0J271738D01*
G01*
X156347000Y-50956738D01*
G75*
G02*
X156618738Y-50685000I271738J0D01*
G01*
X157325262Y-50685000D01*
G75*
G02*
X157597000Y-50956738I0J-271738D01*
G01*
G37*
G36*
G01*
X155547000Y-50956738D02*
X155547000Y-51913262D01*
G75*
G02*
X155275262Y-52185000I-271738J0D01*
G01*
X154568738Y-52185000D01*
G75*
G02*
X154297000Y-51913262I0J271738D01*
G01*
X154297000Y-50956738D01*
G75*
G02*
X154568738Y-50685000I271738J0D01*
G01*
X155275262Y-50685000D01*
G75*
G02*
X155547000Y-50956738I0J-271738D01*
G01*
G37*
G04 #@! TD*
G04 #@! TO.C,R23*
G36*
G01*
X182870000Y-90453738D02*
X182870000Y-91410262D01*
G75*
G02*
X182598262Y-91682000I-271738J0D01*
G01*
X181891738Y-91682000D01*
G75*
G02*
X181620000Y-91410262I0J271738D01*
G01*
X181620000Y-90453738D01*
G75*
G02*
X181891738Y-90182000I271738J0D01*
G01*
X182598262Y-90182000D01*
G75*
G02*
X182870000Y-90453738I0J-271738D01*
G01*
G37*
G36*
G01*
X180820000Y-90453738D02*
X180820000Y-91410262D01*
G75*
G02*
X180548262Y-91682000I-271738J0D01*
G01*
X179841738Y-91682000D01*
G75*
G02*
X179570000Y-91410262I0J271738D01*
G01*
X179570000Y-90453738D01*
G75*
G02*
X179841738Y-90182000I271738J0D01*
G01*
X180548262Y-90182000D01*
G75*
G02*
X180820000Y-90453738I0J-271738D01*
G01*
G37*
G04 #@! TD*
G04 #@! TO.C,R24*
G36*
G01*
X186465738Y-80800000D02*
X187422262Y-80800000D01*
G75*
G02*
X187694000Y-81071738I0J-271738D01*
G01*
X187694000Y-81778262D01*
G75*
G02*
X187422262Y-82050000I-271738J0D01*
G01*
X186465738Y-82050000D01*
G75*
G02*
X186194000Y-81778262I0J271738D01*
G01*
X186194000Y-81071738D01*
G75*
G02*
X186465738Y-80800000I271738J0D01*
G01*
G37*
G36*
G01*
X186465738Y-78750000D02*
X187422262Y-78750000D01*
G75*
G02*
X187694000Y-79021738I0J-271738D01*
G01*
X187694000Y-79728262D01*
G75*
G02*
X187422262Y-80000000I-271738J0D01*
G01*
X186465738Y-80000000D01*
G75*
G02*
X186194000Y-79728262I0J271738D01*
G01*
X186194000Y-79021738D01*
G75*
G02*
X186465738Y-78750000I271738J0D01*
G01*
G37*
G04 #@! TD*
G04 #@! TO.C,R25*
G36*
G01*
X186426000Y-88548738D02*
X186426000Y-89505262D01*
G75*
G02*
X186154262Y-89777000I-271738J0D01*
G01*
X185447738Y-89777000D01*
G75*
G02*
X185176000Y-89505262I0J271738D01*
G01*
X185176000Y-88548738D01*
G75*
G02*
X185447738Y-88277000I271738J0D01*
G01*
X186154262Y-88277000D01*
G75*
G02*
X186426000Y-88548738I0J-271738D01*
G01*
G37*
G36*
G01*
X184376000Y-88548738D02*
X184376000Y-89505262D01*
G75*
G02*
X184104262Y-89777000I-271738J0D01*
G01*
X183397738Y-89777000D01*
G75*
G02*
X183126000Y-89505262I0J271738D01*
G01*
X183126000Y-88548738D01*
G75*
G02*
X183397738Y-88277000I271738J0D01*
G01*
X184104262Y-88277000D01*
G75*
G02*
X184376000Y-88548738I0J-271738D01*
G01*
G37*
G04 #@! TD*
G04 #@! TO.C,R26*
G36*
G01*
X188878738Y-79512000D02*
X189835262Y-79512000D01*
G75*
G02*
X190107000Y-79783738I0J-271738D01*
G01*
X190107000Y-80490262D01*
G75*
G02*
X189835262Y-80762000I-271738J0D01*
G01*
X188878738Y-80762000D01*
G75*
G02*
X188607000Y-80490262I0J271738D01*
G01*
X188607000Y-79783738D01*
G75*
G02*
X188878738Y-79512000I271738J0D01*
G01*
G37*
G36*
G01*
X188878738Y-77462000D02*
X189835262Y-77462000D01*
G75*
G02*
X190107000Y-77733738I0J-271738D01*
G01*
X190107000Y-78440262D01*
G75*
G02*
X189835262Y-78712000I-271738J0D01*
G01*
X188878738Y-78712000D01*
G75*
G02*
X188607000Y-78440262I0J271738D01*
G01*
X188607000Y-77733738D01*
G75*
G02*
X188878738Y-77462000I271738J0D01*
G01*
G37*
G04 #@! TD*
D15*
G04 #@! TO.C,SW1*
X195580000Y-69723000D03*
D16*
X195580000Y-72263000D03*
X195580000Y-74803000D03*
G04 #@! TD*
D17*
G04 #@! TO.C,U1*
X184597000Y-56535000D03*
X184597000Y-57035000D03*
X184597000Y-57535000D03*
X184597000Y-58035000D03*
X184597000Y-58535000D03*
X184597000Y-59035000D03*
X186497000Y-59035000D03*
X186497000Y-58535000D03*
X186497000Y-58035000D03*
X186497000Y-57535000D03*
X186497000Y-57035000D03*
X186497000Y-56535000D03*
D18*
X185547000Y-57785000D03*
G04 #@! TD*
G04 #@! TO.C,U2*
G36*
G01*
X177475000Y-83360000D02*
X177475000Y-83010000D01*
G75*
G02*
X177650000Y-82835000I175000J0D01*
G01*
X179150000Y-82835000D01*
G75*
G02*
X179325000Y-83010000I0J-175000D01*
G01*
X179325000Y-83360000D01*
G75*
G02*
X179150000Y-83535000I-175000J0D01*
G01*
X177650000Y-83535000D01*
G75*
G02*
X177475000Y-83360000I0J175000D01*
G01*
G37*
G36*
G01*
X177475000Y-84630000D02*
X177475000Y-84280000D01*
G75*
G02*
X177650000Y-84105000I175000J0D01*
G01*
X179150000Y-84105000D01*
G75*
G02*
X179325000Y-84280000I0J-175000D01*
G01*
X179325000Y-84630000D01*
G75*
G02*
X179150000Y-84805000I-175000J0D01*
G01*
X177650000Y-84805000D01*
G75*
G02*
X177475000Y-84630000I0J175000D01*
G01*
G37*
G36*
G01*
X177475000Y-85900000D02*
X177475000Y-85550000D01*
G75*
G02*
X177650000Y-85375000I175000J0D01*
G01*
X179150000Y-85375000D01*
G75*
G02*
X179325000Y-85550000I0J-175000D01*
G01*
X179325000Y-85900000D01*
G75*
G02*
X179150000Y-86075000I-175000J0D01*
G01*
X177650000Y-86075000D01*
G75*
G02*
X177475000Y-85900000I0J175000D01*
G01*
G37*
G36*
G01*
X177475000Y-87170000D02*
X177475000Y-86820000D01*
G75*
G02*
X177650000Y-86645000I175000J0D01*
G01*
X179150000Y-86645000D01*
G75*
G02*
X179325000Y-86820000I0J-175000D01*
G01*
X179325000Y-87170000D01*
G75*
G02*
X179150000Y-87345000I-175000J0D01*
G01*
X177650000Y-87345000D01*
G75*
G02*
X177475000Y-87170000I0J175000D01*
G01*
G37*
G36*
G01*
X182625000Y-87170000D02*
X182625000Y-86820000D01*
G75*
G02*
X182800000Y-86645000I175000J0D01*
G01*
X184300000Y-86645000D01*
G75*
G02*
X184475000Y-86820000I0J-175000D01*
G01*
X184475000Y-87170000D01*
G75*
G02*
X184300000Y-87345000I-175000J0D01*
G01*
X182800000Y-87345000D01*
G75*
G02*
X182625000Y-87170000I0J175000D01*
G01*
G37*
G36*
G01*
X182625000Y-85900000D02*
X182625000Y-85550000D01*
G75*
G02*
X182800000Y-85375000I175000J0D01*
G01*
X184300000Y-85375000D01*
G75*
G02*
X184475000Y-85550000I0J-175000D01*
G01*
X184475000Y-85900000D01*
G75*
G02*
X184300000Y-86075000I-175000J0D01*
G01*
X182800000Y-86075000D01*
G75*
G02*
X182625000Y-85900000I0J175000D01*
G01*
G37*
G36*
G01*
X182625000Y-84630000D02*
X182625000Y-84280000D01*
G75*
G02*
X182800000Y-84105000I175000J0D01*
G01*
X184300000Y-84105000D01*
G75*
G02*
X184475000Y-84280000I0J-175000D01*
G01*
X184475000Y-84630000D01*
G75*
G02*
X184300000Y-84805000I-175000J0D01*
G01*
X182800000Y-84805000D01*
G75*
G02*
X182625000Y-84630000I0J175000D01*
G01*
G37*
G36*
G01*
X182625000Y-83360000D02*
X182625000Y-83010000D01*
G75*
G02*
X182800000Y-82835000I175000J0D01*
G01*
X184300000Y-82835000D01*
G75*
G02*
X184475000Y-83010000I0J-175000D01*
G01*
X184475000Y-83360000D01*
G75*
G02*
X184300000Y-83535000I-175000J0D01*
G01*
X182800000Y-83535000D01*
G75*
G02*
X182625000Y-83360000I0J175000D01*
G01*
G37*
G04 #@! TD*
D19*
G04 #@! TO.C,H1*
X141732000Y-99822000D03*
G04 #@! TD*
G04 #@! TO.C,H2*
X180594000Y-99822000D03*
G04 #@! TD*
G04 #@! TO.C,H3*
X141732000Y-42926000D03*
G04 #@! TD*
G04 #@! TO.C,H4*
X180594000Y-42926000D03*
G04 #@! TD*
D20*
G04 #@! TO.C,H5*
X133873000Y-43124000D03*
G04 #@! TD*
G04 #@! TO.C,H6*
X133873000Y-99124000D03*
G04 #@! TD*
G04 #@! TO.C,H7*
X188873000Y-43124000D03*
G04 #@! TD*
G04 #@! TO.C,H8*
X188873000Y-99124000D03*
G04 #@! TD*
G04 #@! TO.C,D1*
G36*
G01*
X199244000Y-65053738D02*
X199244000Y-66010262D01*
G75*
G02*
X198972262Y-66282000I-271738J0D01*
G01*
X198265738Y-66282000D01*
G75*
G02*
X197994000Y-66010262I0J271738D01*
G01*
X197994000Y-65053738D01*
G75*
G02*
X198265738Y-64782000I271738J0D01*
G01*
X198972262Y-64782000D01*
G75*
G02*
X199244000Y-65053738I0J-271738D01*
G01*
G37*
G36*
G01*
X201294000Y-65053738D02*
X201294000Y-66010262D01*
G75*
G02*
X201022262Y-66282000I-271738J0D01*
G01*
X200315738Y-66282000D01*
G75*
G02*
X200044000Y-66010262I0J271738D01*
G01*
X200044000Y-65053738D01*
G75*
G02*
X200315738Y-64782000I271738J0D01*
G01*
X201022262Y-64782000D01*
G75*
G02*
X201294000Y-65053738I0J-271738D01*
G01*
G37*
G04 #@! TD*
G04 #@! TO.C,D2*
G36*
G01*
X197876000Y-50643262D02*
X197876000Y-49686738D01*
G75*
G02*
X198147738Y-49415000I271738J0D01*
G01*
X198854262Y-49415000D01*
G75*
G02*
X199126000Y-49686738I0J-271738D01*
G01*
X199126000Y-50643262D01*
G75*
G02*
X198854262Y-50915000I-271738J0D01*
G01*
X198147738Y-50915000D01*
G75*
G02*
X197876000Y-50643262I0J271738D01*
G01*
G37*
G36*
G01*
X199926000Y-50643262D02*
X199926000Y-49686738D01*
G75*
G02*
X200197738Y-49415000I271738J0D01*
G01*
X200904262Y-49415000D01*
G75*
G02*
X201176000Y-49686738I0J-271738D01*
G01*
X201176000Y-50643262D01*
G75*
G02*
X200904262Y-50915000I-271738J0D01*
G01*
X200197738Y-50915000D01*
G75*
G02*
X199926000Y-50643262I0J271738D01*
G01*
G37*
G04 #@! TD*
G04 #@! TO.C,R27*
G36*
G01*
X194409000Y-65053738D02*
X194409000Y-66010262D01*
G75*
G02*
X194137262Y-66282000I-271738J0D01*
G01*
X193430738Y-66282000D01*
G75*
G02*
X193159000Y-66010262I0J271738D01*
G01*
X193159000Y-65053738D01*
G75*
G02*
X193430738Y-64782000I271738J0D01*
G01*
X194137262Y-64782000D01*
G75*
G02*
X194409000Y-65053738I0J-271738D01*
G01*
G37*
G36*
G01*
X196459000Y-65053738D02*
X196459000Y-66010262D01*
G75*
G02*
X196187262Y-66282000I-271738J0D01*
G01*
X195480738Y-66282000D01*
G75*
G02*
X195209000Y-66010262I0J271738D01*
G01*
X195209000Y-65053738D01*
G75*
G02*
X195480738Y-64782000I271738J0D01*
G01*
X196187262Y-64782000D01*
G75*
G02*
X196459000Y-65053738I0J-271738D01*
G01*
G37*
G04 #@! TD*
G04 #@! TO.C,R28*
G36*
G01*
X196214000Y-49686738D02*
X196214000Y-50643262D01*
G75*
G02*
X195942262Y-50915000I-271738J0D01*
G01*
X195235738Y-50915000D01*
G75*
G02*
X194964000Y-50643262I0J271738D01*
G01*
X194964000Y-49686738D01*
G75*
G02*
X195235738Y-49415000I271738J0D01*
G01*
X195942262Y-49415000D01*
G75*
G02*
X196214000Y-49686738I0J-271738D01*
G01*
G37*
G36*
G01*
X194164000Y-49686738D02*
X194164000Y-50643262D01*
G75*
G02*
X193892262Y-50915000I-271738J0D01*
G01*
X193185738Y-50915000D01*
G75*
G02*
X192914000Y-50643262I0J271738D01*
G01*
X192914000Y-49686738D01*
G75*
G02*
X193185738Y-49415000I271738J0D01*
G01*
X193892262Y-49415000D01*
G75*
G02*
X194164000Y-49686738I0J-271738D01*
G01*
G37*
G04 #@! TD*
G04 #@! TO.C,R29*
G36*
G01*
X191672738Y-69207000D02*
X192629262Y-69207000D01*
G75*
G02*
X192901000Y-69478738I0J-271738D01*
G01*
X192901000Y-70185262D01*
G75*
G02*
X192629262Y-70457000I-271738J0D01*
G01*
X191672738Y-70457000D01*
G75*
G02*
X191401000Y-70185262I0J271738D01*
G01*
X191401000Y-69478738D01*
G75*
G02*
X191672738Y-69207000I271738J0D01*
G01*
G37*
G36*
G01*
X191672738Y-71257000D02*
X192629262Y-71257000D01*
G75*
G02*
X192901000Y-71528738I0J-271738D01*
G01*
X192901000Y-72235262D01*
G75*
G02*
X192629262Y-72507000I-271738J0D01*
G01*
X191672738Y-72507000D01*
G75*
G02*
X191401000Y-72235262I0J271738D01*
G01*
X191401000Y-71528738D01*
G75*
G02*
X191672738Y-71257000I271738J0D01*
G01*
G37*
G04 #@! TD*
D11*
G04 #@! TO.C,RV1*
X149098000Y-48895000D03*
X152098000Y-51435000D03*
X149098000Y-53895000D03*
G04 #@! TD*
G04 #@! TO.C,RV2*
X149098000Y-67018333D03*
X152098000Y-64558333D03*
X149098000Y-62018333D03*
G04 #@! TD*
G04 #@! TO.C,RV3*
X149098000Y-80141666D03*
X152098000Y-77681666D03*
X149098000Y-75141666D03*
G04 #@! TD*
G04 #@! TO.C,RV4*
X149098000Y-88265000D03*
X152098000Y-90805000D03*
X149098000Y-93265000D03*
G04 #@! TD*
G04 #@! TO.C,RV5*
X166624000Y-93138000D03*
X169624000Y-90678000D03*
X166624000Y-88138000D03*
G04 #@! TD*
G04 #@! TO.C,RV6*
X166624000Y-80057000D03*
X169624000Y-77597000D03*
X166624000Y-75057000D03*
G04 #@! TD*
G04 #@! TO.C,RV7*
X166624000Y-61976000D03*
X169624000Y-64516000D03*
X166624000Y-66976000D03*
G04 #@! TD*
G04 #@! TO.C,RV8*
X166624000Y-48895000D03*
X169624000Y-51435000D03*
X166624000Y-53895000D03*
G04 #@! TD*
G04 #@! TO.C,C19*
G36*
G01*
X179421262Y-57022000D02*
X178464738Y-57022000D01*
G75*
G02*
X178193000Y-56750262I0J271738D01*
G01*
X178193000Y-56043738D01*
G75*
G02*
X178464738Y-55772000I271738J0D01*
G01*
X179421262Y-55772000D01*
G75*
G02*
X179693000Y-56043738I0J-271738D01*
G01*
X179693000Y-56750262D01*
G75*
G02*
X179421262Y-57022000I-271738J0D01*
G01*
G37*
G36*
G01*
X179421262Y-54972000D02*
X178464738Y-54972000D01*
G75*
G02*
X178193000Y-54700262I0J271738D01*
G01*
X178193000Y-53993738D01*
G75*
G02*
X178464738Y-53722000I271738J0D01*
G01*
X179421262Y-53722000D01*
G75*
G02*
X179693000Y-53993738I0J-271738D01*
G01*
X179693000Y-54700262D01*
G75*
G02*
X179421262Y-54972000I-271738J0D01*
G01*
G37*
G04 #@! TD*
G04 #@! TO.C,R30*
G36*
G01*
X140089000Y-86135738D02*
X140089000Y-87092262D01*
G75*
G02*
X139817262Y-87364000I-271738J0D01*
G01*
X139110738Y-87364000D01*
G75*
G02*
X138839000Y-87092262I0J271738D01*
G01*
X138839000Y-86135738D01*
G75*
G02*
X139110738Y-85864000I271738J0D01*
G01*
X139817262Y-85864000D01*
G75*
G02*
X140089000Y-86135738I0J-271738D01*
G01*
G37*
G36*
G01*
X138039000Y-86135738D02*
X138039000Y-87092262D01*
G75*
G02*
X137767262Y-87364000I-271738J0D01*
G01*
X137060738Y-87364000D01*
G75*
G02*
X136789000Y-87092262I0J271738D01*
G01*
X136789000Y-86135738D01*
G75*
G02*
X137060738Y-85864000I271738J0D01*
G01*
X137767262Y-85864000D01*
G75*
G02*
X138039000Y-86135738I0J-271738D01*
G01*
G37*
G04 #@! TD*
G04 #@! TO.C,R31*
G36*
G01*
X140089000Y-74959738D02*
X140089000Y-75916262D01*
G75*
G02*
X139817262Y-76188000I-271738J0D01*
G01*
X139110738Y-76188000D01*
G75*
G02*
X138839000Y-75916262I0J271738D01*
G01*
X138839000Y-74959738D01*
G75*
G02*
X139110738Y-74688000I271738J0D01*
G01*
X139817262Y-74688000D01*
G75*
G02*
X140089000Y-74959738I0J-271738D01*
G01*
G37*
G36*
G01*
X138039000Y-74959738D02*
X138039000Y-75916262D01*
G75*
G02*
X137767262Y-76188000I-271738J0D01*
G01*
X137060738Y-76188000D01*
G75*
G02*
X136789000Y-75916262I0J271738D01*
G01*
X136789000Y-74959738D01*
G75*
G02*
X137060738Y-74688000I271738J0D01*
G01*
X137767262Y-74688000D01*
G75*
G02*
X138039000Y-74959738I0J-271738D01*
G01*
G37*
G04 #@! TD*
G04 #@! TO.C,R32*
G36*
G01*
X140089000Y-63656738D02*
X140089000Y-64613262D01*
G75*
G02*
X139817262Y-64885000I-271738J0D01*
G01*
X139110738Y-64885000D01*
G75*
G02*
X138839000Y-64613262I0J271738D01*
G01*
X138839000Y-63656738D01*
G75*
G02*
X139110738Y-63385000I271738J0D01*
G01*
X139817262Y-63385000D01*
G75*
G02*
X140089000Y-63656738I0J-271738D01*
G01*
G37*
G36*
G01*
X138039000Y-63656738D02*
X138039000Y-64613262D01*
G75*
G02*
X137767262Y-64885000I-271738J0D01*
G01*
X137060738Y-64885000D01*
G75*
G02*
X136789000Y-64613262I0J271738D01*
G01*
X136789000Y-63656738D01*
G75*
G02*
X137060738Y-63385000I271738J0D01*
G01*
X137767262Y-63385000D01*
G75*
G02*
X138039000Y-63656738I0J-271738D01*
G01*
G37*
G04 #@! TD*
G04 #@! TO.C,R33*
G36*
G01*
X140071000Y-52480738D02*
X140071000Y-53437262D01*
G75*
G02*
X139799262Y-53709000I-271738J0D01*
G01*
X139092738Y-53709000D01*
G75*
G02*
X138821000Y-53437262I0J271738D01*
G01*
X138821000Y-52480738D01*
G75*
G02*
X139092738Y-52209000I271738J0D01*
G01*
X139799262Y-52209000D01*
G75*
G02*
X140071000Y-52480738I0J-271738D01*
G01*
G37*
G36*
G01*
X138021000Y-52480738D02*
X138021000Y-53437262D01*
G75*
G02*
X137749262Y-53709000I-271738J0D01*
G01*
X137042738Y-53709000D01*
G75*
G02*
X136771000Y-53437262I0J271738D01*
G01*
X136771000Y-52480738D01*
G75*
G02*
X137042738Y-52209000I271738J0D01*
G01*
X137749262Y-52209000D01*
G75*
G02*
X138021000Y-52480738I0J-271738D01*
G01*
G37*
G04 #@! TD*
G04 #@! TO.C,R34*
G36*
G01*
X138694000Y-89378262D02*
X138694000Y-88421738D01*
G75*
G02*
X138965738Y-88150000I271738J0D01*
G01*
X139672262Y-88150000D01*
G75*
G02*
X139944000Y-88421738I0J-271738D01*
G01*
X139944000Y-89378262D01*
G75*
G02*
X139672262Y-89650000I-271738J0D01*
G01*
X138965738Y-89650000D01*
G75*
G02*
X138694000Y-89378262I0J271738D01*
G01*
G37*
G36*
G01*
X136644000Y-89378262D02*
X136644000Y-88421738D01*
G75*
G02*
X136915738Y-88150000I271738J0D01*
G01*
X137622262Y-88150000D01*
G75*
G02*
X137894000Y-88421738I0J-271738D01*
G01*
X137894000Y-89378262D01*
G75*
G02*
X137622262Y-89650000I-271738J0D01*
G01*
X136915738Y-89650000D01*
G75*
G02*
X136644000Y-89378262I0J271738D01*
G01*
G37*
G04 #@! TD*
G04 #@! TO.C,R35*
G36*
G01*
X138694000Y-78202262D02*
X138694000Y-77245738D01*
G75*
G02*
X138965738Y-76974000I271738J0D01*
G01*
X139672262Y-76974000D01*
G75*
G02*
X139944000Y-77245738I0J-271738D01*
G01*
X139944000Y-78202262D01*
G75*
G02*
X139672262Y-78474000I-271738J0D01*
G01*
X138965738Y-78474000D01*
G75*
G02*
X138694000Y-78202262I0J271738D01*
G01*
G37*
G36*
G01*
X136644000Y-78202262D02*
X136644000Y-77245738D01*
G75*
G02*
X136915738Y-76974000I271738J0D01*
G01*
X137622262Y-76974000D01*
G75*
G02*
X137894000Y-77245738I0J-271738D01*
G01*
X137894000Y-78202262D01*
G75*
G02*
X137622262Y-78474000I-271738J0D01*
G01*
X136915738Y-78474000D01*
G75*
G02*
X136644000Y-78202262I0J271738D01*
G01*
G37*
G04 #@! TD*
G04 #@! TO.C,R36*
G36*
G01*
X138703000Y-66899262D02*
X138703000Y-65942738D01*
G75*
G02*
X138974738Y-65671000I271738J0D01*
G01*
X139681262Y-65671000D01*
G75*
G02*
X139953000Y-65942738I0J-271738D01*
G01*
X139953000Y-66899262D01*
G75*
G02*
X139681262Y-67171000I-271738J0D01*
G01*
X138974738Y-67171000D01*
G75*
G02*
X138703000Y-66899262I0J271738D01*
G01*
G37*
G36*
G01*
X136653000Y-66899262D02*
X136653000Y-65942738D01*
G75*
G02*
X136924738Y-65671000I271738J0D01*
G01*
X137631262Y-65671000D01*
G75*
G02*
X137903000Y-65942738I0J-271738D01*
G01*
X137903000Y-66899262D01*
G75*
G02*
X137631262Y-67171000I-271738J0D01*
G01*
X136924738Y-67171000D01*
G75*
G02*
X136653000Y-66899262I0J271738D01*
G01*
G37*
G04 #@! TD*
G04 #@! TO.C,R37*
G36*
G01*
X138694000Y-55723262D02*
X138694000Y-54766738D01*
G75*
G02*
X138965738Y-54495000I271738J0D01*
G01*
X139672262Y-54495000D01*
G75*
G02*
X139944000Y-54766738I0J-271738D01*
G01*
X139944000Y-55723262D01*
G75*
G02*
X139672262Y-55995000I-271738J0D01*
G01*
X138965738Y-55995000D01*
G75*
G02*
X138694000Y-55723262I0J271738D01*
G01*
G37*
G36*
G01*
X136644000Y-55723262D02*
X136644000Y-54766738D01*
G75*
G02*
X136915738Y-54495000I271738J0D01*
G01*
X137622262Y-54495000D01*
G75*
G02*
X137894000Y-54766738I0J-271738D01*
G01*
X137894000Y-55723262D01*
G75*
G02*
X137622262Y-55995000I-271738J0D01*
G01*
X136915738Y-55995000D01*
G75*
G02*
X136644000Y-55723262I0J271738D01*
G01*
G37*
G04 #@! TD*
G04 #@! TO.C,R38*
G36*
G01*
X186036000Y-93247738D02*
X186036000Y-94204262D01*
G75*
G02*
X185764262Y-94476000I-271738J0D01*
G01*
X185057738Y-94476000D01*
G75*
G02*
X184786000Y-94204262I0J271738D01*
G01*
X184786000Y-93247738D01*
G75*
G02*
X185057738Y-92976000I271738J0D01*
G01*
X185764262Y-92976000D01*
G75*
G02*
X186036000Y-93247738I0J-271738D01*
G01*
G37*
G36*
G01*
X188086000Y-93247738D02*
X188086000Y-94204262D01*
G75*
G02*
X187814262Y-94476000I-271738J0D01*
G01*
X187107738Y-94476000D01*
G75*
G02*
X186836000Y-94204262I0J271738D01*
G01*
X186836000Y-93247738D01*
G75*
G02*
X187107738Y-92976000I271738J0D01*
G01*
X187814262Y-92976000D01*
G75*
G02*
X188086000Y-93247738I0J-271738D01*
G01*
G37*
G04 #@! TD*
G04 #@! TO.C,R39*
G36*
G01*
X190873000Y-78456262D02*
X190873000Y-77499738D01*
G75*
G02*
X191144738Y-77228000I271738J0D01*
G01*
X191851262Y-77228000D01*
G75*
G02*
X192123000Y-77499738I0J-271738D01*
G01*
X192123000Y-78456262D01*
G75*
G02*
X191851262Y-78728000I-271738J0D01*
G01*
X191144738Y-78728000D01*
G75*
G02*
X190873000Y-78456262I0J271738D01*
G01*
G37*
G36*
G01*
X192923000Y-78456262D02*
X192923000Y-77499738D01*
G75*
G02*
X193194738Y-77228000I271738J0D01*
G01*
X193901262Y-77228000D01*
G75*
G02*
X194173000Y-77499738I0J-271738D01*
G01*
X194173000Y-78456262D01*
G75*
G02*
X193901262Y-78728000I-271738J0D01*
G01*
X193194738Y-78728000D01*
G75*
G02*
X192923000Y-78456262I0J271738D01*
G01*
G37*
G04 #@! TD*
G04 #@! TO.C,FB1*
G36*
G01*
X184691762Y-72761000D02*
X183735238Y-72761000D01*
G75*
G02*
X183463500Y-72489262I0J271738D01*
G01*
X183463500Y-71782738D01*
G75*
G02*
X183735238Y-71511000I271738J0D01*
G01*
X184691762Y-71511000D01*
G75*
G02*
X184963500Y-71782738I0J-271738D01*
G01*
X184963500Y-72489262D01*
G75*
G02*
X184691762Y-72761000I-271738J0D01*
G01*
G37*
G36*
G01*
X184691762Y-70711000D02*
X183735238Y-70711000D01*
G75*
G02*
X183463500Y-70439262I0J271738D01*
G01*
X183463500Y-69732738D01*
G75*
G02*
X183735238Y-69461000I271738J0D01*
G01*
X184691762Y-69461000D01*
G75*
G02*
X184963500Y-69732738I0J-271738D01*
G01*
X184963500Y-70439262D01*
G75*
G02*
X184691762Y-70711000I-271738J0D01*
G01*
G37*
G04 #@! TD*
G04 #@! TO.C,FB2*
G36*
G01*
X181770762Y-70774500D02*
X180814238Y-70774500D01*
G75*
G02*
X180542500Y-70502762I0J271738D01*
G01*
X180542500Y-69796238D01*
G75*
G02*
X180814238Y-69524500I271738J0D01*
G01*
X181770762Y-69524500D01*
G75*
G02*
X182042500Y-69796238I0J-271738D01*
G01*
X182042500Y-70502762D01*
G75*
G02*
X181770762Y-70774500I-271738J0D01*
G01*
G37*
G36*
G01*
X181770762Y-72824500D02*
X180814238Y-72824500D01*
G75*
G02*
X180542500Y-72552762I0J271738D01*
G01*
X180542500Y-71846238D01*
G75*
G02*
X180814238Y-71574500I271738J0D01*
G01*
X181770762Y-71574500D01*
G75*
G02*
X182042500Y-71846238I0J-271738D01*
G01*
X182042500Y-72552762D01*
G75*
G02*
X181770762Y-72824500I-271738J0D01*
G01*
G37*
G04 #@! TD*
G04 #@! TO.C,FB3*
G36*
G01*
X178786262Y-72770000D02*
X177829738Y-72770000D01*
G75*
G02*
X177558000Y-72498262I0J271738D01*
G01*
X177558000Y-71791738D01*
G75*
G02*
X177829738Y-71520000I271738J0D01*
G01*
X178786262Y-71520000D01*
G75*
G02*
X179058000Y-71791738I0J-271738D01*
G01*
X179058000Y-72498262D01*
G75*
G02*
X178786262Y-72770000I-271738J0D01*
G01*
G37*
G36*
G01*
X178786262Y-70720000D02*
X177829738Y-70720000D01*
G75*
G02*
X177558000Y-70448262I0J271738D01*
G01*
X177558000Y-69741738D01*
G75*
G02*
X177829738Y-69470000I271738J0D01*
G01*
X178786262Y-69470000D01*
G75*
G02*
X179058000Y-69741738I0J-271738D01*
G01*
X179058000Y-70448262D01*
G75*
G02*
X178786262Y-70720000I-271738J0D01*
G01*
G37*
G04 #@! TD*
M02*
