G04 #@! TF.GenerationSoftware,KiCad,Pcbnew,5.1.6-c6e7f7d~87~ubuntu18.04.1*
G04 #@! TF.CreationDate,2020-09-10T19:55:48-05:00*
G04 #@! TF.ProjectId,MiniStereoMixer,4d696e69-5374-4657-9265-6f4d69786572,rev?*
G04 #@! TF.SameCoordinates,Original*
G04 #@! TF.FileFunction,Soldermask,Bot*
G04 #@! TF.FilePolarity,Negative*
%FSLAX46Y46*%
G04 Gerber Fmt 4.6, Leading zero omitted, Abs format (unit mm)*
G04 Created by KiCad (PCBNEW 5.1.6-c6e7f7d~87~ubuntu18.04.1) date 2020-09-10 19:55:48*
%MOMM*%
%LPD*%
G01*
G04 APERTURE LIST*
%ADD10C,1.700000*%
%ADD11C,2.100000*%
%ADD12R,1.800000X1.800000*%
%ADD13O,1.800000X1.800000*%
%ADD14C,6.500000*%
G04 APERTURE END LIST*
D10*
G04 #@! TO.C,J6*
X193579000Y-87122000D03*
X199579000Y-87122000D03*
D11*
X193579000Y-83972000D03*
X197079000Y-83972000D03*
X200279000Y-83972000D03*
X197079000Y-90272000D03*
X193579000Y-90272000D03*
X200279000Y-90272000D03*
G04 #@! TD*
D10*
G04 #@! TO.C,J1*
X129001000Y-87782000D03*
X123001000Y-87782000D03*
D11*
X129001000Y-90932000D03*
X125501000Y-90932000D03*
X122301000Y-90932000D03*
X125501000Y-84632000D03*
X129001000Y-84632000D03*
X122301000Y-84632000D03*
G04 #@! TD*
D10*
G04 #@! TO.C,J2*
X129001000Y-76555332D03*
X123001000Y-76555332D03*
D11*
X129001000Y-79705332D03*
X125501000Y-79705332D03*
X122301000Y-79705332D03*
X125501000Y-73405332D03*
X129001000Y-73405332D03*
X122301000Y-73405332D03*
G04 #@! TD*
D10*
G04 #@! TO.C,J3*
X129001000Y-65328666D03*
X123001000Y-65328666D03*
D11*
X129001000Y-68478666D03*
X125501000Y-68478666D03*
X122301000Y-68478666D03*
X125501000Y-62178666D03*
X129001000Y-62178666D03*
X122301000Y-62178666D03*
G04 #@! TD*
D10*
G04 #@! TO.C,J4*
X129001000Y-54102000D03*
X123001000Y-54102000D03*
D11*
X129001000Y-57252000D03*
X125501000Y-57252000D03*
X122301000Y-57252000D03*
X125501000Y-50952000D03*
X129001000Y-50952000D03*
X122301000Y-50952000D03*
G04 #@! TD*
D12*
G04 #@! TO.C,SW1*
X195580000Y-69723000D03*
D13*
X195580000Y-72263000D03*
X195580000Y-74803000D03*
G04 #@! TD*
D14*
G04 #@! TO.C,H5*
X133873000Y-43124000D03*
G04 #@! TD*
G04 #@! TO.C,H6*
X133873000Y-99124000D03*
G04 #@! TD*
G04 #@! TO.C,H7*
X188873000Y-43124000D03*
G04 #@! TD*
G04 #@! TO.C,H8*
X188873000Y-99124000D03*
G04 #@! TD*
D11*
G04 #@! TO.C,RV1*
X149098000Y-48895000D03*
X152098000Y-51435000D03*
X149098000Y-53895000D03*
G04 #@! TD*
G04 #@! TO.C,RV2*
X149098000Y-67018333D03*
X152098000Y-64558333D03*
X149098000Y-62018333D03*
G04 #@! TD*
G04 #@! TO.C,RV3*
X149098000Y-80141666D03*
X152098000Y-77681666D03*
X149098000Y-75141666D03*
G04 #@! TD*
G04 #@! TO.C,RV4*
X149098000Y-88265000D03*
X152098000Y-90805000D03*
X149098000Y-93265000D03*
G04 #@! TD*
G04 #@! TO.C,RV5*
X166624000Y-93138000D03*
X169624000Y-90678000D03*
X166624000Y-88138000D03*
G04 #@! TD*
G04 #@! TO.C,RV6*
X166624000Y-80057000D03*
X169624000Y-77597000D03*
X166624000Y-75057000D03*
G04 #@! TD*
G04 #@! TO.C,RV7*
X166624000Y-61976000D03*
X169624000Y-64516000D03*
X166624000Y-66976000D03*
G04 #@! TD*
G04 #@! TO.C,RV8*
X166624000Y-48895000D03*
X169624000Y-51435000D03*
X166624000Y-53895000D03*
G04 #@! TD*
M02*
