M48
; DRILL file {KiCad 5.1.6-c6e7f7d~87~ubuntu18.04.1} date Thu Sep 10 19:51:20 2020
; FORMAT={-:-/ absolute / inch / decimal}
; #@! TF.CreationDate,2020-09-10T19:51:20-05:00
; #@! TF.GenerationSoftware,Kicad,Pcbnew,5.1.6-c6e7f7d~87~ubuntu18.04.1
FMAT,2
INCH
T1C0.0118
T2C0.0157
T3C0.0394
T4C0.0472
T5C0.0512
T6C0.0551
T7C0.1260
T8C0.0630
%
G90
G05
T1
X7.305Y-2.2356
X7.305Y-2.275
X7.305Y-2.3144
T2
X5.61Y-2.885
X5.615Y-2.005
X5.615Y-2.445
X5.645Y-3.325
X6.945Y-3.375
X7.01Y-3.61
X7.02Y-3.155
X7.0815Y-3.31
X7.1025Y-2.14
X7.11Y-2.22
X7.14Y-2.385
X7.14Y-2.5525
X7.1415Y-3.4271
X7.16Y-3.355
X7.225Y-2.13
X7.23Y-1.985
X7.23Y-2.475
X7.2357Y-3.5807
X7.2825Y-2.1775
X7.3375Y-2.5925
X7.345Y-2.18
X7.39Y-2.34
X7.475Y-2.145
X7.525Y-1.975
X7.53Y-2.58
X7.625Y-2.145
T3
X6.56Y-3.47
X6.56Y-3.6669
X5.87Y-2.4417
X5.87Y-2.6385
X6.56Y-2.44
X6.56Y-2.6369
X6.56Y-2.955
X6.56Y-3.1519
X5.87Y-2.9583
X5.87Y-3.1552
X6.56Y-1.925
X6.56Y-2.1219
X5.87Y-3.475
X5.87Y-3.6719
X7.7Y-2.745
X7.7Y-2.845
X7.7Y-2.945
X5.87Y-1.925
X5.87Y-2.1219
T4
X5.9881Y-2.025
X6.6781Y-3.57
X5.9881Y-2.5417
X6.6781Y-2.54
X6.6781Y-3.055
X5.9881Y-3.0583
X6.6781Y-2.025
X5.9881Y-3.575
T5
X4.815Y-3.332
X4.815Y-3.58
X4.941Y-3.58
X5.0788Y-3.332
X5.0788Y-3.58
X4.815Y-2.448
X4.815Y-2.696
X4.941Y-2.696
X5.0788Y-2.448
X5.0788Y-2.696
X4.815Y-2.89
X4.815Y-3.138
X4.941Y-3.138
X5.0788Y-2.89
X5.0788Y-3.138
X7.6212Y-3.306
X7.6212Y-3.554
X7.759Y-3.306
X7.885Y-3.306
X7.885Y-3.554
X4.815Y-2.006
X4.815Y-2.254
X4.941Y-2.254
X5.0788Y-2.006
X5.0788Y-2.254
T6
X4.941Y-3.332
X4.941Y-2.89
X7.759Y-3.554
X4.941Y-2.006
X4.941Y-2.448
T7
X7.4359Y-3.9025
X5.2706Y-3.9025
X7.4359Y-1.6978
X5.2706Y-1.6978
T8
X4.8426Y-3.456
X5.0788Y-3.456
X4.8426Y-2.572
X5.0788Y-2.572
X4.8426Y-3.014
X5.0788Y-3.014
X7.6212Y-3.43
X7.8574Y-3.43
X4.8426Y-2.13
X5.0788Y-2.13
T0
M30
