G04 #@! TF.GenerationSoftware,KiCad,Pcbnew,5.1.6-c6e7f7d~87~ubuntu18.04.1*
G04 #@! TF.CreationDate,2020-09-10T19:55:48-05:00*
G04 #@! TF.ProjectId,MiniStereoMixer,4d696e69-5374-4657-9265-6f4d69786572,rev?*
G04 #@! TF.SameCoordinates,Original*
G04 #@! TF.FileFunction,Copper,L1,Top*
G04 #@! TF.FilePolarity,Positive*
%FSLAX46Y46*%
G04 Gerber Fmt 4.6, Leading zero omitted, Abs format (unit mm)*
G04 Created by KiCad (PCBNEW 5.1.6-c6e7f7d~87~ubuntu18.04.1) date 2020-09-10 19:55:48*
%MOMM*%
%LPD*%
G01*
G04 APERTURE LIST*
G04 #@! TA.AperFunction,ComponentPad*
%ADD10C,2.000000*%
G04 #@! TD*
G04 #@! TA.AperFunction,SMDPad,CuDef*
%ADD11R,3.600000X0.400000*%
G04 #@! TD*
G04 #@! TA.AperFunction,SMDPad,CuDef*
%ADD12R,1.600000X3.000000*%
G04 #@! TD*
G04 #@! TA.AperFunction,SMDPad,CuDef*
%ADD13R,1.900000X5.000000*%
G04 #@! TD*
G04 #@! TA.AperFunction,ComponentPad*
%ADD14R,1.700000X1.700000*%
G04 #@! TD*
G04 #@! TA.AperFunction,ComponentPad*
%ADD15O,1.700000X1.700000*%
G04 #@! TD*
G04 #@! TA.AperFunction,SMDPad,CuDef*
%ADD16R,0.500000X0.250000*%
G04 #@! TD*
G04 #@! TA.AperFunction,ViaPad*
%ADD17C,0.600000*%
G04 #@! TD*
G04 #@! TA.AperFunction,SMDPad,CuDef*
%ADD18R,1.000000X2.650000*%
G04 #@! TD*
G04 #@! TA.AperFunction,SMDPad,CuDef*
%ADD19C,1.500000*%
G04 #@! TD*
G04 #@! TA.AperFunction,ComponentPad*
%ADD20C,6.400000*%
G04 #@! TD*
G04 #@! TA.AperFunction,ViaPad*
%ADD21C,0.800000*%
G04 #@! TD*
G04 #@! TA.AperFunction,Conductor*
%ADD22C,0.250000*%
G04 #@! TD*
G04 #@! TA.AperFunction,Conductor*
%ADD23C,0.500000*%
G04 #@! TD*
G04 #@! TA.AperFunction,Conductor*
%ADD24C,0.560000*%
G04 #@! TD*
G04 APERTURE END LIST*
D10*
G04 #@! TO.P,J6,T*
G04 #@! TO.N,Net-(C18-Pad1)*
X193579000Y-83972000D03*
G04 #@! TO.P,J6,R*
G04 #@! TO.N,Net-(C16-Pad1)*
X197079000Y-83972000D03*
G04 #@! TO.P,J6,S*
G04 #@! TO.N,GNDA*
X200279000Y-83972000D03*
G04 #@! TO.P,J6,R*
G04 #@! TO.N,Net-(C16-Pad1)*
X197079000Y-90272000D03*
G04 #@! TO.P,J6,T*
G04 #@! TO.N,Net-(C18-Pad1)*
X193579000Y-90272000D03*
G04 #@! TO.P,J6,S*
G04 #@! TO.N,GNDA*
X200279000Y-90272000D03*
G04 #@! TD*
G04 #@! TO.P,J1,T*
G04 #@! TO.N,Net-(C10-Pad2)*
X129001000Y-90932000D03*
G04 #@! TO.P,J1,R*
G04 #@! TO.N,Net-(C6-Pad2)*
X125501000Y-90932000D03*
G04 #@! TO.P,J1,S*
G04 #@! TO.N,GNDA*
X122301000Y-90932000D03*
G04 #@! TO.P,J1,R*
G04 #@! TO.N,Net-(C6-Pad2)*
X125501000Y-84632000D03*
G04 #@! TO.P,J1,T*
G04 #@! TO.N,Net-(C10-Pad2)*
X129001000Y-84632000D03*
G04 #@! TO.P,J1,S*
G04 #@! TO.N,GNDA*
X122301000Y-84632000D03*
G04 #@! TD*
G04 #@! TO.P,J2,T*
G04 #@! TO.N,Net-(C11-Pad2)*
X129001000Y-79705332D03*
G04 #@! TO.P,J2,R*
G04 #@! TO.N,Net-(C7-Pad2)*
X125501000Y-79705332D03*
G04 #@! TO.P,J2,S*
G04 #@! TO.N,GNDA*
X122301000Y-79705332D03*
G04 #@! TO.P,J2,R*
G04 #@! TO.N,Net-(C7-Pad2)*
X125501000Y-73405332D03*
G04 #@! TO.P,J2,T*
G04 #@! TO.N,Net-(C11-Pad2)*
X129001000Y-73405332D03*
G04 #@! TO.P,J2,S*
G04 #@! TO.N,GNDA*
X122301000Y-73405332D03*
G04 #@! TD*
G04 #@! TO.P,J3,T*
G04 #@! TO.N,Net-(C12-Pad2)*
X129001000Y-68478666D03*
G04 #@! TO.P,J3,R*
G04 #@! TO.N,Net-(C8-Pad2)*
X125501000Y-68478666D03*
G04 #@! TO.P,J3,S*
G04 #@! TO.N,GNDA*
X122301000Y-68478666D03*
G04 #@! TO.P,J3,R*
G04 #@! TO.N,Net-(C8-Pad2)*
X125501000Y-62178666D03*
G04 #@! TO.P,J3,T*
G04 #@! TO.N,Net-(C12-Pad2)*
X129001000Y-62178666D03*
G04 #@! TO.P,J3,S*
G04 #@! TO.N,GNDA*
X122301000Y-62178666D03*
G04 #@! TD*
G04 #@! TO.P,J4,T*
G04 #@! TO.N,Net-(C13-Pad2)*
X129001000Y-57252000D03*
G04 #@! TO.P,J4,R*
G04 #@! TO.N,Net-(C9-Pad2)*
X125501000Y-57252000D03*
G04 #@! TO.P,J4,S*
G04 #@! TO.N,GNDA*
X122301000Y-57252000D03*
G04 #@! TO.P,J4,R*
G04 #@! TO.N,Net-(C9-Pad2)*
X125501000Y-50952000D03*
G04 #@! TO.P,J4,T*
G04 #@! TO.N,Net-(C13-Pad2)*
X129001000Y-50952000D03*
G04 #@! TO.P,J4,S*
G04 #@! TO.N,GNDA*
X122301000Y-50952000D03*
G04 #@! TD*
G04 #@! TO.P,C1,1*
G04 #@! TO.N,Net-(C1-Pad1)*
G04 #@! TA.AperFunction,SMDPad,CuDef*
G36*
G01*
X188779999Y-57718000D02*
X189680001Y-57718000D01*
G75*
G02*
X189930000Y-57967999I0J-249999D01*
G01*
X189930000Y-58618001D01*
G75*
G02*
X189680001Y-58868000I-249999J0D01*
G01*
X188779999Y-58868000D01*
G75*
G02*
X188530000Y-58618001I0J249999D01*
G01*
X188530000Y-57967999D01*
G75*
G02*
X188779999Y-57718000I249999J0D01*
G01*
G37*
G04 #@! TD.AperFunction*
G04 #@! TO.P,C1,2*
G04 #@! TO.N,Net-(C1-Pad2)*
G04 #@! TA.AperFunction,SMDPad,CuDef*
G36*
G01*
X188779999Y-59768000D02*
X189680001Y-59768000D01*
G75*
G02*
X189930000Y-60017999I0J-249999D01*
G01*
X189930000Y-60668001D01*
G75*
G02*
X189680001Y-60918000I-249999J0D01*
G01*
X188779999Y-60918000D01*
G75*
G02*
X188530000Y-60668001I0J249999D01*
G01*
X188530000Y-60017999D01*
G75*
G02*
X188779999Y-59768000I249999J0D01*
G01*
G37*
G04 #@! TD.AperFunction*
G04 #@! TD*
G04 #@! TO.P,C2,2*
G04 #@! TO.N,GND*
G04 #@! TA.AperFunction,SMDPad,CuDef*
G36*
G01*
X182314001Y-54922000D02*
X181413999Y-54922000D01*
G75*
G02*
X181164000Y-54672001I0J249999D01*
G01*
X181164000Y-54021999D01*
G75*
G02*
X181413999Y-53772000I249999J0D01*
G01*
X182314001Y-53772000D01*
G75*
G02*
X182564000Y-54021999I0J-249999D01*
G01*
X182564000Y-54672001D01*
G75*
G02*
X182314001Y-54922000I-249999J0D01*
G01*
G37*
G04 #@! TD.AperFunction*
G04 #@! TO.P,C2,1*
G04 #@! TO.N,+5V*
G04 #@! TA.AperFunction,SMDPad,CuDef*
G36*
G01*
X182314001Y-56972000D02*
X181413999Y-56972000D01*
G75*
G02*
X181164000Y-56722001I0J249999D01*
G01*
X181164000Y-56071999D01*
G75*
G02*
X181413999Y-55822000I249999J0D01*
G01*
X182314001Y-55822000D01*
G75*
G02*
X182564000Y-56071999I0J-249999D01*
G01*
X182564000Y-56722001D01*
G75*
G02*
X182314001Y-56972000I-249999J0D01*
G01*
G37*
G04 #@! TD.AperFunction*
G04 #@! TD*
G04 #@! TO.P,C3,1*
G04 #@! TO.N,Net-(C3-Pad1)*
G04 #@! TA.AperFunction,SMDPad,CuDef*
G36*
G01*
X183400500Y-58096999D02*
X183400500Y-58997001D01*
G75*
G02*
X183150501Y-59247000I-249999J0D01*
G01*
X182500499Y-59247000D01*
G75*
G02*
X182250500Y-58997001I0J249999D01*
G01*
X182250500Y-58096999D01*
G75*
G02*
X182500499Y-57847000I249999J0D01*
G01*
X183150501Y-57847000D01*
G75*
G02*
X183400500Y-58096999I0J-249999D01*
G01*
G37*
G04 #@! TD.AperFunction*
G04 #@! TO.P,C3,2*
G04 #@! TO.N,GND*
G04 #@! TA.AperFunction,SMDPad,CuDef*
G36*
G01*
X181350500Y-58096999D02*
X181350500Y-58997001D01*
G75*
G02*
X181100501Y-59247000I-249999J0D01*
G01*
X180450499Y-59247000D01*
G75*
G02*
X180200500Y-58997001I0J249999D01*
G01*
X180200500Y-58096999D01*
G75*
G02*
X180450499Y-57847000I249999J0D01*
G01*
X181100501Y-57847000D01*
G75*
G02*
X181350500Y-58096999I0J-249999D01*
G01*
G37*
G04 #@! TD.AperFunction*
G04 #@! TD*
G04 #@! TO.P,C4,1*
G04 #@! TO.N,/+5V_OUT*
G04 #@! TA.AperFunction,SMDPad,CuDef*
G36*
G01*
X188791001Y-57099000D02*
X187890999Y-57099000D01*
G75*
G02*
X187641000Y-56849001I0J249999D01*
G01*
X187641000Y-56198999D01*
G75*
G02*
X187890999Y-55949000I249999J0D01*
G01*
X188791001Y-55949000D01*
G75*
G02*
X189041000Y-56198999I0J-249999D01*
G01*
X189041000Y-56849001D01*
G75*
G02*
X188791001Y-57099000I-249999J0D01*
G01*
G37*
G04 #@! TD.AperFunction*
G04 #@! TO.P,C4,2*
G04 #@! TO.N,GND*
G04 #@! TA.AperFunction,SMDPad,CuDef*
G36*
G01*
X188791001Y-55049000D02*
X187890999Y-55049000D01*
G75*
G02*
X187641000Y-54799001I0J249999D01*
G01*
X187641000Y-54148999D01*
G75*
G02*
X187890999Y-53899000I249999J0D01*
G01*
X188791001Y-53899000D01*
G75*
G02*
X189041000Y-54148999I0J-249999D01*
G01*
X189041000Y-54799001D01*
G75*
G02*
X188791001Y-55049000I-249999J0D01*
G01*
G37*
G04 #@! TD.AperFunction*
G04 #@! TD*
G04 #@! TO.P,C5,2*
G04 #@! TO.N,GND*
G04 #@! TA.AperFunction,SMDPad,CuDef*
G36*
G01*
X182175999Y-62036000D02*
X183076001Y-62036000D01*
G75*
G02*
X183326000Y-62285999I0J-249999D01*
G01*
X183326000Y-62936001D01*
G75*
G02*
X183076001Y-63186000I-249999J0D01*
G01*
X182175999Y-63186000D01*
G75*
G02*
X181926000Y-62936001I0J249999D01*
G01*
X181926000Y-62285999D01*
G75*
G02*
X182175999Y-62036000I249999J0D01*
G01*
G37*
G04 #@! TD.AperFunction*
G04 #@! TO.P,C5,1*
G04 #@! TO.N,/-5V_OUT*
G04 #@! TA.AperFunction,SMDPad,CuDef*
G36*
G01*
X182175999Y-59986000D02*
X183076001Y-59986000D01*
G75*
G02*
X183326000Y-60235999I0J-249999D01*
G01*
X183326000Y-60886001D01*
G75*
G02*
X183076001Y-61136000I-249999J0D01*
G01*
X182175999Y-61136000D01*
G75*
G02*
X181926000Y-60886001I0J249999D01*
G01*
X181926000Y-60235999D01*
G75*
G02*
X182175999Y-59986000I249999J0D01*
G01*
G37*
G04 #@! TD.AperFunction*
G04 #@! TD*
G04 #@! TO.P,C6,2*
G04 #@! TO.N,Net-(C6-Pad2)*
G04 #@! TA.AperFunction,SMDPad,CuDef*
G36*
G01*
X137971000Y-84131999D02*
X137971000Y-85032001D01*
G75*
G02*
X137721001Y-85282000I-249999J0D01*
G01*
X137070999Y-85282000D01*
G75*
G02*
X136821000Y-85032001I0J249999D01*
G01*
X136821000Y-84131999D01*
G75*
G02*
X137070999Y-83882000I249999J0D01*
G01*
X137721001Y-83882000D01*
G75*
G02*
X137971000Y-84131999I0J-249999D01*
G01*
G37*
G04 #@! TD.AperFunction*
G04 #@! TO.P,C6,1*
G04 #@! TO.N,Net-(C6-Pad1)*
G04 #@! TA.AperFunction,SMDPad,CuDef*
G36*
G01*
X140021000Y-84131999D02*
X140021000Y-85032001D01*
G75*
G02*
X139771001Y-85282000I-249999J0D01*
G01*
X139120999Y-85282000D01*
G75*
G02*
X138871000Y-85032001I0J249999D01*
G01*
X138871000Y-84131999D01*
G75*
G02*
X139120999Y-83882000I249999J0D01*
G01*
X139771001Y-83882000D01*
G75*
G02*
X140021000Y-84131999I0J-249999D01*
G01*
G37*
G04 #@! TD.AperFunction*
G04 #@! TD*
G04 #@! TO.P,C7,2*
G04 #@! TO.N,Net-(C7-Pad2)*
G04 #@! TA.AperFunction,SMDPad,CuDef*
G36*
G01*
X137971000Y-72913665D02*
X137971000Y-73813667D01*
G75*
G02*
X137721001Y-74063666I-249999J0D01*
G01*
X137070999Y-74063666D01*
G75*
G02*
X136821000Y-73813667I0J249999D01*
G01*
X136821000Y-72913665D01*
G75*
G02*
X137070999Y-72663666I249999J0D01*
G01*
X137721001Y-72663666D01*
G75*
G02*
X137971000Y-72913665I0J-249999D01*
G01*
G37*
G04 #@! TD.AperFunction*
G04 #@! TO.P,C7,1*
G04 #@! TO.N,Net-(C7-Pad1)*
G04 #@! TA.AperFunction,SMDPad,CuDef*
G36*
G01*
X140021000Y-72913665D02*
X140021000Y-73813667D01*
G75*
G02*
X139771001Y-74063666I-249999J0D01*
G01*
X139120999Y-74063666D01*
G75*
G02*
X138871000Y-73813667I0J249999D01*
G01*
X138871000Y-72913665D01*
G75*
G02*
X139120999Y-72663666I249999J0D01*
G01*
X139771001Y-72663666D01*
G75*
G02*
X140021000Y-72913665I0J-249999D01*
G01*
G37*
G04 #@! TD.AperFunction*
G04 #@! TD*
G04 #@! TO.P,C8,2*
G04 #@! TO.N,Net-(C8-Pad2)*
G04 #@! TA.AperFunction,SMDPad,CuDef*
G36*
G01*
X137971000Y-61695332D02*
X137971000Y-62595334D01*
G75*
G02*
X137721001Y-62845333I-249999J0D01*
G01*
X137070999Y-62845333D01*
G75*
G02*
X136821000Y-62595334I0J249999D01*
G01*
X136821000Y-61695332D01*
G75*
G02*
X137070999Y-61445333I249999J0D01*
G01*
X137721001Y-61445333D01*
G75*
G02*
X137971000Y-61695332I0J-249999D01*
G01*
G37*
G04 #@! TD.AperFunction*
G04 #@! TO.P,C8,1*
G04 #@! TO.N,Net-(C8-Pad1)*
G04 #@! TA.AperFunction,SMDPad,CuDef*
G36*
G01*
X140021000Y-61695332D02*
X140021000Y-62595334D01*
G75*
G02*
X139771001Y-62845333I-249999J0D01*
G01*
X139120999Y-62845333D01*
G75*
G02*
X138871000Y-62595334I0J249999D01*
G01*
X138871000Y-61695332D01*
G75*
G02*
X139120999Y-61445333I249999J0D01*
G01*
X139771001Y-61445333D01*
G75*
G02*
X140021000Y-61695332I0J-249999D01*
G01*
G37*
G04 #@! TD.AperFunction*
G04 #@! TD*
G04 #@! TO.P,C9,2*
G04 #@! TO.N,Net-(C9-Pad2)*
G04 #@! TA.AperFunction,SMDPad,CuDef*
G36*
G01*
X137971000Y-50476999D02*
X137971000Y-51377001D01*
G75*
G02*
X137721001Y-51627000I-249999J0D01*
G01*
X137070999Y-51627000D01*
G75*
G02*
X136821000Y-51377001I0J249999D01*
G01*
X136821000Y-50476999D01*
G75*
G02*
X137070999Y-50227000I249999J0D01*
G01*
X137721001Y-50227000D01*
G75*
G02*
X137971000Y-50476999I0J-249999D01*
G01*
G37*
G04 #@! TD.AperFunction*
G04 #@! TO.P,C9,1*
G04 #@! TO.N,Net-(C9-Pad1)*
G04 #@! TA.AperFunction,SMDPad,CuDef*
G36*
G01*
X140021000Y-50476999D02*
X140021000Y-51377001D01*
G75*
G02*
X139771001Y-51627000I-249999J0D01*
G01*
X139120999Y-51627000D01*
G75*
G02*
X138871000Y-51377001I0J249999D01*
G01*
X138871000Y-50476999D01*
G75*
G02*
X139120999Y-50227000I249999J0D01*
G01*
X139771001Y-50227000D01*
G75*
G02*
X140021000Y-50476999I0J-249999D01*
G01*
G37*
G04 #@! TD.AperFunction*
G04 #@! TD*
G04 #@! TO.P,C10,1*
G04 #@! TO.N,Net-(C10-Pad1)*
G04 #@! TA.AperFunction,SMDPad,CuDef*
G36*
G01*
X139903000Y-90481999D02*
X139903000Y-91382001D01*
G75*
G02*
X139653001Y-91632000I-249999J0D01*
G01*
X139002999Y-91632000D01*
G75*
G02*
X138753000Y-91382001I0J249999D01*
G01*
X138753000Y-90481999D01*
G75*
G02*
X139002999Y-90232000I249999J0D01*
G01*
X139653001Y-90232000D01*
G75*
G02*
X139903000Y-90481999I0J-249999D01*
G01*
G37*
G04 #@! TD.AperFunction*
G04 #@! TO.P,C10,2*
G04 #@! TO.N,Net-(C10-Pad2)*
G04 #@! TA.AperFunction,SMDPad,CuDef*
G36*
G01*
X137853000Y-90481999D02*
X137853000Y-91382001D01*
G75*
G02*
X137603001Y-91632000I-249999J0D01*
G01*
X136952999Y-91632000D01*
G75*
G02*
X136703000Y-91382001I0J249999D01*
G01*
X136703000Y-90481999D01*
G75*
G02*
X136952999Y-90232000I249999J0D01*
G01*
X137603001Y-90232000D01*
G75*
G02*
X137853000Y-90481999I0J-249999D01*
G01*
G37*
G04 #@! TD.AperFunction*
G04 #@! TD*
G04 #@! TO.P,C11,1*
G04 #@! TO.N,Net-(C11-Pad1)*
G04 #@! TA.AperFunction,SMDPad,CuDef*
G36*
G01*
X139903000Y-79263665D02*
X139903000Y-80163667D01*
G75*
G02*
X139653001Y-80413666I-249999J0D01*
G01*
X139002999Y-80413666D01*
G75*
G02*
X138753000Y-80163667I0J249999D01*
G01*
X138753000Y-79263665D01*
G75*
G02*
X139002999Y-79013666I249999J0D01*
G01*
X139653001Y-79013666D01*
G75*
G02*
X139903000Y-79263665I0J-249999D01*
G01*
G37*
G04 #@! TD.AperFunction*
G04 #@! TO.P,C11,2*
G04 #@! TO.N,Net-(C11-Pad2)*
G04 #@! TA.AperFunction,SMDPad,CuDef*
G36*
G01*
X137853000Y-79263665D02*
X137853000Y-80163667D01*
G75*
G02*
X137603001Y-80413666I-249999J0D01*
G01*
X136952999Y-80413666D01*
G75*
G02*
X136703000Y-80163667I0J249999D01*
G01*
X136703000Y-79263665D01*
G75*
G02*
X136952999Y-79013666I249999J0D01*
G01*
X137603001Y-79013666D01*
G75*
G02*
X137853000Y-79263665I0J-249999D01*
G01*
G37*
G04 #@! TD.AperFunction*
G04 #@! TD*
G04 #@! TO.P,C12,1*
G04 #@! TO.N,Net-(C12-Pad1)*
G04 #@! TA.AperFunction,SMDPad,CuDef*
G36*
G01*
X139903000Y-68045332D02*
X139903000Y-68945334D01*
G75*
G02*
X139653001Y-69195333I-249999J0D01*
G01*
X139002999Y-69195333D01*
G75*
G02*
X138753000Y-68945334I0J249999D01*
G01*
X138753000Y-68045332D01*
G75*
G02*
X139002999Y-67795333I249999J0D01*
G01*
X139653001Y-67795333D01*
G75*
G02*
X139903000Y-68045332I0J-249999D01*
G01*
G37*
G04 #@! TD.AperFunction*
G04 #@! TO.P,C12,2*
G04 #@! TO.N,Net-(C12-Pad2)*
G04 #@! TA.AperFunction,SMDPad,CuDef*
G36*
G01*
X137853000Y-68045332D02*
X137853000Y-68945334D01*
G75*
G02*
X137603001Y-69195333I-249999J0D01*
G01*
X136952999Y-69195333D01*
G75*
G02*
X136703000Y-68945334I0J249999D01*
G01*
X136703000Y-68045332D01*
G75*
G02*
X136952999Y-67795333I249999J0D01*
G01*
X137603001Y-67795333D01*
G75*
G02*
X137853000Y-68045332I0J-249999D01*
G01*
G37*
G04 #@! TD.AperFunction*
G04 #@! TD*
G04 #@! TO.P,C13,2*
G04 #@! TO.N,Net-(C13-Pad2)*
G04 #@! TA.AperFunction,SMDPad,CuDef*
G36*
G01*
X137853000Y-56826999D02*
X137853000Y-57727001D01*
G75*
G02*
X137603001Y-57977000I-249999J0D01*
G01*
X136952999Y-57977000D01*
G75*
G02*
X136703000Y-57727001I0J249999D01*
G01*
X136703000Y-56826999D01*
G75*
G02*
X136952999Y-56577000I249999J0D01*
G01*
X137603001Y-56577000D01*
G75*
G02*
X137853000Y-56826999I0J-249999D01*
G01*
G37*
G04 #@! TD.AperFunction*
G04 #@! TO.P,C13,1*
G04 #@! TO.N,Net-(C13-Pad1)*
G04 #@! TA.AperFunction,SMDPad,CuDef*
G36*
G01*
X139903000Y-56826999D02*
X139903000Y-57727001D01*
G75*
G02*
X139653001Y-57977000I-249999J0D01*
G01*
X139002999Y-57977000D01*
G75*
G02*
X138753000Y-57727001I0J249999D01*
G01*
X138753000Y-56826999D01*
G75*
G02*
X139002999Y-56577000I249999J0D01*
G01*
X139653001Y-56577000D01*
G75*
G02*
X139903000Y-56826999I0J-249999D01*
G01*
G37*
G04 #@! TD.AperFunction*
G04 #@! TD*
G04 #@! TO.P,C14,1*
G04 #@! TO.N,+5VA*
G04 #@! TA.AperFunction,SMDPad,CuDef*
G36*
G01*
X182702000Y-76003999D02*
X182702000Y-76904001D01*
G75*
G02*
X182452001Y-77154000I-249999J0D01*
G01*
X181801999Y-77154000D01*
G75*
G02*
X181552000Y-76904001I0J249999D01*
G01*
X181552000Y-76003999D01*
G75*
G02*
X181801999Y-75754000I249999J0D01*
G01*
X182452001Y-75754000D01*
G75*
G02*
X182702000Y-76003999I0J-249999D01*
G01*
G37*
G04 #@! TD.AperFunction*
G04 #@! TO.P,C14,2*
G04 #@! TO.N,-5VA*
G04 #@! TA.AperFunction,SMDPad,CuDef*
G36*
G01*
X180652000Y-76003999D02*
X180652000Y-76904001D01*
G75*
G02*
X180402001Y-77154000I-249999J0D01*
G01*
X179751999Y-77154000D01*
G75*
G02*
X179502000Y-76904001I0J249999D01*
G01*
X179502000Y-76003999D01*
G75*
G02*
X179751999Y-75754000I249999J0D01*
G01*
X180402001Y-75754000D01*
G75*
G02*
X180652000Y-76003999I0J-249999D01*
G01*
G37*
G04 #@! TD.AperFunction*
G04 #@! TD*
G04 #@! TO.P,C15,2*
G04 #@! TO.N,-5VA*
G04 #@! TA.AperFunction,SMDPad,CuDef*
G36*
G01*
X180643000Y-78162999D02*
X180643000Y-79063001D01*
G75*
G02*
X180393001Y-79313000I-249999J0D01*
G01*
X179742999Y-79313000D01*
G75*
G02*
X179493000Y-79063001I0J249999D01*
G01*
X179493000Y-78162999D01*
G75*
G02*
X179742999Y-77913000I249999J0D01*
G01*
X180393001Y-77913000D01*
G75*
G02*
X180643000Y-78162999I0J-249999D01*
G01*
G37*
G04 #@! TD.AperFunction*
G04 #@! TO.P,C15,1*
G04 #@! TO.N,+5VA*
G04 #@! TA.AperFunction,SMDPad,CuDef*
G36*
G01*
X182693000Y-78162999D02*
X182693000Y-79063001D01*
G75*
G02*
X182443001Y-79313000I-249999J0D01*
G01*
X181792999Y-79313000D01*
G75*
G02*
X181543000Y-79063001I0J249999D01*
G01*
X181543000Y-78162999D01*
G75*
G02*
X181792999Y-77913000I249999J0D01*
G01*
X182443001Y-77913000D01*
G75*
G02*
X182693000Y-78162999I0J-249999D01*
G01*
G37*
G04 #@! TD.AperFunction*
G04 #@! TD*
G04 #@! TO.P,C16,2*
G04 #@! TO.N,Net-(C16-Pad2)*
G04 #@! TA.AperFunction,SMDPad,CuDef*
G36*
G01*
X185986000Y-91243999D02*
X185986000Y-92144001D01*
G75*
G02*
X185736001Y-92394000I-249999J0D01*
G01*
X185085999Y-92394000D01*
G75*
G02*
X184836000Y-92144001I0J249999D01*
G01*
X184836000Y-91243999D01*
G75*
G02*
X185085999Y-90994000I249999J0D01*
G01*
X185736001Y-90994000D01*
G75*
G02*
X185986000Y-91243999I0J-249999D01*
G01*
G37*
G04 #@! TD.AperFunction*
G04 #@! TO.P,C16,1*
G04 #@! TO.N,Net-(C16-Pad1)*
G04 #@! TA.AperFunction,SMDPad,CuDef*
G36*
G01*
X188036000Y-91243999D02*
X188036000Y-92144001D01*
G75*
G02*
X187786001Y-92394000I-249999J0D01*
G01*
X187135999Y-92394000D01*
G75*
G02*
X186886000Y-92144001I0J249999D01*
G01*
X186886000Y-91243999D01*
G75*
G02*
X187135999Y-90994000I249999J0D01*
G01*
X187786001Y-90994000D01*
G75*
G02*
X188036000Y-91243999I0J-249999D01*
G01*
G37*
G04 #@! TD.AperFunction*
G04 #@! TD*
G04 #@! TO.P,C17,1*
G04 #@! TO.N,+5VA*
G04 #@! TA.AperFunction,SMDPad,CuDef*
G36*
G01*
X182693000Y-80321999D02*
X182693000Y-81222001D01*
G75*
G02*
X182443001Y-81472000I-249999J0D01*
G01*
X181792999Y-81472000D01*
G75*
G02*
X181543000Y-81222001I0J249999D01*
G01*
X181543000Y-80321999D01*
G75*
G02*
X181792999Y-80072000I249999J0D01*
G01*
X182443001Y-80072000D01*
G75*
G02*
X182693000Y-80321999I0J-249999D01*
G01*
G37*
G04 #@! TD.AperFunction*
G04 #@! TO.P,C17,2*
G04 #@! TO.N,-5VA*
G04 #@! TA.AperFunction,SMDPad,CuDef*
G36*
G01*
X180643000Y-80321999D02*
X180643000Y-81222001D01*
G75*
G02*
X180393001Y-81472000I-249999J0D01*
G01*
X179742999Y-81472000D01*
G75*
G02*
X179493000Y-81222001I0J249999D01*
G01*
X179493000Y-80321999D01*
G75*
G02*
X179742999Y-80072000I249999J0D01*
G01*
X180393001Y-80072000D01*
G75*
G02*
X180643000Y-80321999I0J-249999D01*
G01*
G37*
G04 #@! TD.AperFunction*
G04 #@! TD*
G04 #@! TO.P,C18,1*
G04 #@! TO.N,Net-(C18-Pad1)*
G04 #@! TA.AperFunction,SMDPad,CuDef*
G36*
G01*
X194123000Y-79686999D02*
X194123000Y-80587001D01*
G75*
G02*
X193873001Y-80837000I-249999J0D01*
G01*
X193222999Y-80837000D01*
G75*
G02*
X192973000Y-80587001I0J249999D01*
G01*
X192973000Y-79686999D01*
G75*
G02*
X193222999Y-79437000I249999J0D01*
G01*
X193873001Y-79437000D01*
G75*
G02*
X194123000Y-79686999I0J-249999D01*
G01*
G37*
G04 #@! TD.AperFunction*
G04 #@! TO.P,C18,2*
G04 #@! TO.N,Net-(C18-Pad2)*
G04 #@! TA.AperFunction,SMDPad,CuDef*
G36*
G01*
X192073000Y-79686999D02*
X192073000Y-80587001D01*
G75*
G02*
X191823001Y-80837000I-249999J0D01*
G01*
X191172999Y-80837000D01*
G75*
G02*
X190923000Y-80587001I0J249999D01*
G01*
X190923000Y-79686999D01*
G75*
G02*
X191172999Y-79437000I249999J0D01*
G01*
X191823001Y-79437000D01*
G75*
G02*
X192073000Y-79686999I0J-249999D01*
G01*
G37*
G04 #@! TD.AperFunction*
G04 #@! TD*
D11*
G04 #@! TO.P,J5,1*
G04 #@! TO.N,Net-(J5-Pad1)*
X197237000Y-59275500D03*
G04 #@! TO.P,J5,2*
G04 #@! TO.N,N/C*
X197237000Y-58625500D03*
G04 #@! TO.P,J5,3*
X197237000Y-57975500D03*
G04 #@! TO.P,J5,4*
X197237000Y-57325500D03*
G04 #@! TO.P,J5,5*
G04 #@! TO.N,GND*
X197237000Y-56675500D03*
D12*
G04 #@! TO.P,J5,6*
X198237000Y-53911500D03*
X198237000Y-62039500D03*
D13*
X200777000Y-61023500D03*
X200787000Y-54927500D03*
G04 #@! TD*
G04 #@! TO.P,R1,1*
G04 #@! TO.N,GND*
G04 #@! TA.AperFunction,SMDPad,CuDef*
G36*
G01*
X180409001Y-63195000D02*
X179508999Y-63195000D01*
G75*
G02*
X179259000Y-62945001I0J249999D01*
G01*
X179259000Y-62294999D01*
G75*
G02*
X179508999Y-62045000I249999J0D01*
G01*
X180409001Y-62045000D01*
G75*
G02*
X180659000Y-62294999I0J-249999D01*
G01*
X180659000Y-62945001D01*
G75*
G02*
X180409001Y-63195000I-249999J0D01*
G01*
G37*
G04 #@! TD.AperFunction*
G04 #@! TO.P,R1,2*
G04 #@! TO.N,/-5V_OUT*
G04 #@! TA.AperFunction,SMDPad,CuDef*
G36*
G01*
X180409001Y-61145000D02*
X179508999Y-61145000D01*
G75*
G02*
X179259000Y-60895001I0J249999D01*
G01*
X179259000Y-60244999D01*
G75*
G02*
X179508999Y-59995000I249999J0D01*
G01*
X180409001Y-59995000D01*
G75*
G02*
X180659000Y-60244999I0J-249999D01*
G01*
X180659000Y-60895001D01*
G75*
G02*
X180409001Y-61145000I-249999J0D01*
G01*
G37*
G04 #@! TD.AperFunction*
G04 #@! TD*
G04 #@! TO.P,R2,2*
G04 #@! TO.N,+5V*
G04 #@! TA.AperFunction,SMDPad,CuDef*
G36*
G01*
X184462000Y-48317999D02*
X184462000Y-49218001D01*
G75*
G02*
X184212001Y-49468000I-249999J0D01*
G01*
X183561999Y-49468000D01*
G75*
G02*
X183312000Y-49218001I0J249999D01*
G01*
X183312000Y-48317999D01*
G75*
G02*
X183561999Y-48068000I249999J0D01*
G01*
X184212001Y-48068000D01*
G75*
G02*
X184462000Y-48317999I0J-249999D01*
G01*
G37*
G04 #@! TD.AperFunction*
G04 #@! TO.P,R2,1*
G04 #@! TO.N,/+5V_OUT*
G04 #@! TA.AperFunction,SMDPad,CuDef*
G36*
G01*
X186512000Y-48317999D02*
X186512000Y-49218001D01*
G75*
G02*
X186262001Y-49468000I-249999J0D01*
G01*
X185611999Y-49468000D01*
G75*
G02*
X185362000Y-49218001I0J249999D01*
G01*
X185362000Y-48317999D01*
G75*
G02*
X185611999Y-48068000I249999J0D01*
G01*
X186262001Y-48068000D01*
G75*
G02*
X186512000Y-48317999I0J-249999D01*
G01*
G37*
G04 #@! TD.AperFunction*
G04 #@! TD*
G04 #@! TO.P,R3,2*
G04 #@! TO.N,GND*
G04 #@! TA.AperFunction,SMDPad,CuDef*
G36*
G01*
X183065000Y-51746999D02*
X183065000Y-52647001D01*
G75*
G02*
X182815001Y-52897000I-249999J0D01*
G01*
X182164999Y-52897000D01*
G75*
G02*
X181915000Y-52647001I0J249999D01*
G01*
X181915000Y-51746999D01*
G75*
G02*
X182164999Y-51497000I249999J0D01*
G01*
X182815001Y-51497000D01*
G75*
G02*
X183065000Y-51746999I0J-249999D01*
G01*
G37*
G04 #@! TD.AperFunction*
G04 #@! TO.P,R3,1*
G04 #@! TO.N,Net-(R3-Pad1)*
G04 #@! TA.AperFunction,SMDPad,CuDef*
G36*
G01*
X185115000Y-51746999D02*
X185115000Y-52647001D01*
G75*
G02*
X184865001Y-52897000I-249999J0D01*
G01*
X184214999Y-52897000D01*
G75*
G02*
X183965000Y-52647001I0J249999D01*
G01*
X183965000Y-51746999D01*
G75*
G02*
X184214999Y-51497000I249999J0D01*
G01*
X184865001Y-51497000D01*
G75*
G02*
X185115000Y-51746999I0J-249999D01*
G01*
G37*
G04 #@! TD.AperFunction*
G04 #@! TD*
G04 #@! TO.P,R4,1*
G04 #@! TO.N,/+5V_OUT*
G04 #@! TA.AperFunction,SMDPad,CuDef*
G36*
G01*
X189424000Y-51746999D02*
X189424000Y-52647001D01*
G75*
G02*
X189174001Y-52897000I-249999J0D01*
G01*
X188523999Y-52897000D01*
G75*
G02*
X188274000Y-52647001I0J249999D01*
G01*
X188274000Y-51746999D01*
G75*
G02*
X188523999Y-51497000I249999J0D01*
G01*
X189174001Y-51497000D01*
G75*
G02*
X189424000Y-51746999I0J-249999D01*
G01*
G37*
G04 #@! TD.AperFunction*
G04 #@! TO.P,R4,2*
G04 #@! TO.N,Net-(R3-Pad1)*
G04 #@! TA.AperFunction,SMDPad,CuDef*
G36*
G01*
X187374000Y-51746999D02*
X187374000Y-52647001D01*
G75*
G02*
X187124001Y-52897000I-249999J0D01*
G01*
X186473999Y-52897000D01*
G75*
G02*
X186224000Y-52647001I0J249999D01*
G01*
X186224000Y-51746999D01*
G75*
G02*
X186473999Y-51497000I249999J0D01*
G01*
X187124001Y-51497000D01*
G75*
G02*
X187374000Y-51746999I0J-249999D01*
G01*
G37*
G04 #@! TD.AperFunction*
G04 #@! TD*
G04 #@! TO.P,R5,2*
G04 #@! TO.N,Net-(R5-Pad2)*
G04 #@! TA.AperFunction,SMDPad,CuDef*
G36*
G01*
X185988000Y-61537001D02*
X185988000Y-60636999D01*
G75*
G02*
X186237999Y-60387000I249999J0D01*
G01*
X186888001Y-60387000D01*
G75*
G02*
X187138000Y-60636999I0J-249999D01*
G01*
X187138000Y-61537001D01*
G75*
G02*
X186888001Y-61787000I-249999J0D01*
G01*
X186237999Y-61787000D01*
G75*
G02*
X185988000Y-61537001I0J249999D01*
G01*
G37*
G04 #@! TD.AperFunction*
G04 #@! TO.P,R5,1*
G04 #@! TO.N,/-5V_OUT*
G04 #@! TA.AperFunction,SMDPad,CuDef*
G36*
G01*
X183938000Y-61537001D02*
X183938000Y-60636999D01*
G75*
G02*
X184187999Y-60387000I249999J0D01*
G01*
X184838001Y-60387000D01*
G75*
G02*
X185088000Y-60636999I0J-249999D01*
G01*
X185088000Y-61537001D01*
G75*
G02*
X184838001Y-61787000I-249999J0D01*
G01*
X184187999Y-61787000D01*
G75*
G02*
X183938000Y-61537001I0J249999D01*
G01*
G37*
G04 #@! TD.AperFunction*
G04 #@! TD*
G04 #@! TO.P,R6,2*
G04 #@! TO.N,GND*
G04 #@! TA.AperFunction,SMDPad,CuDef*
G36*
G01*
X185097000Y-62668999D02*
X185097000Y-63569001D01*
G75*
G02*
X184847001Y-63819000I-249999J0D01*
G01*
X184196999Y-63819000D01*
G75*
G02*
X183947000Y-63569001I0J249999D01*
G01*
X183947000Y-62668999D01*
G75*
G02*
X184196999Y-62419000I249999J0D01*
G01*
X184847001Y-62419000D01*
G75*
G02*
X185097000Y-62668999I0J-249999D01*
G01*
G37*
G04 #@! TD.AperFunction*
G04 #@! TO.P,R6,1*
G04 #@! TO.N,Net-(R5-Pad2)*
G04 #@! TA.AperFunction,SMDPad,CuDef*
G36*
G01*
X187147000Y-62668999D02*
X187147000Y-63569001D01*
G75*
G02*
X186897001Y-63819000I-249999J0D01*
G01*
X186246999Y-63819000D01*
G75*
G02*
X185997000Y-63569001I0J249999D01*
G01*
X185997000Y-62668999D01*
G75*
G02*
X186246999Y-62419000I249999J0D01*
G01*
X186897001Y-62419000D01*
G75*
G02*
X187147000Y-62668999I0J-249999D01*
G01*
G37*
G04 #@! TD.AperFunction*
G04 #@! TD*
G04 #@! TO.P,R7,1*
G04 #@! TO.N,Net-(R22-Pad2)*
G04 #@! TA.AperFunction,SMDPad,CuDef*
G36*
G01*
X152975000Y-44507999D02*
X152975000Y-45408001D01*
G75*
G02*
X152725001Y-45658000I-249999J0D01*
G01*
X152074999Y-45658000D01*
G75*
G02*
X151825000Y-45408001I0J249999D01*
G01*
X151825000Y-44507999D01*
G75*
G02*
X152074999Y-44258000I249999J0D01*
G01*
X152725001Y-44258000D01*
G75*
G02*
X152975000Y-44507999I0J-249999D01*
G01*
G37*
G04 #@! TD.AperFunction*
G04 #@! TO.P,R7,2*
G04 #@! TO.N,Net-(C13-Pad1)*
G04 #@! TA.AperFunction,SMDPad,CuDef*
G36*
G01*
X150925000Y-44507999D02*
X150925000Y-45408001D01*
G75*
G02*
X150675001Y-45658000I-249999J0D01*
G01*
X150024999Y-45658000D01*
G75*
G02*
X149775000Y-45408001I0J249999D01*
G01*
X149775000Y-44507999D01*
G75*
G02*
X150024999Y-44258000I249999J0D01*
G01*
X150675001Y-44258000D01*
G75*
G02*
X150925000Y-44507999I0J-249999D01*
G01*
G37*
G04 #@! TD.AperFunction*
G04 #@! TD*
G04 #@! TO.P,R8,2*
G04 #@! TO.N,Net-(C12-Pad1)*
G04 #@! TA.AperFunction,SMDPad,CuDef*
G36*
G01*
X150798000Y-57631332D02*
X150798000Y-58531334D01*
G75*
G02*
X150548001Y-58781333I-249999J0D01*
G01*
X149897999Y-58781333D01*
G75*
G02*
X149648000Y-58531334I0J249999D01*
G01*
X149648000Y-57631332D01*
G75*
G02*
X149897999Y-57381333I249999J0D01*
G01*
X150548001Y-57381333D01*
G75*
G02*
X150798000Y-57631332I0J-249999D01*
G01*
G37*
G04 #@! TD.AperFunction*
G04 #@! TO.P,R8,1*
G04 #@! TO.N,Net-(R21-Pad2)*
G04 #@! TA.AperFunction,SMDPad,CuDef*
G36*
G01*
X152848000Y-57631332D02*
X152848000Y-58531334D01*
G75*
G02*
X152598001Y-58781333I-249999J0D01*
G01*
X151947999Y-58781333D01*
G75*
G02*
X151698000Y-58531334I0J249999D01*
G01*
X151698000Y-57631332D01*
G75*
G02*
X151947999Y-57381333I249999J0D01*
G01*
X152598001Y-57381333D01*
G75*
G02*
X152848000Y-57631332I0J-249999D01*
G01*
G37*
G04 #@! TD.AperFunction*
G04 #@! TD*
G04 #@! TO.P,R9,1*
G04 #@! TO.N,Net-(R20-Pad2)*
G04 #@! TA.AperFunction,SMDPad,CuDef*
G36*
G01*
X152848000Y-70754665D02*
X152848000Y-71654667D01*
G75*
G02*
X152598001Y-71904666I-249999J0D01*
G01*
X151947999Y-71904666D01*
G75*
G02*
X151698000Y-71654667I0J249999D01*
G01*
X151698000Y-70754665D01*
G75*
G02*
X151947999Y-70504666I249999J0D01*
G01*
X152598001Y-70504666D01*
G75*
G02*
X152848000Y-70754665I0J-249999D01*
G01*
G37*
G04 #@! TD.AperFunction*
G04 #@! TO.P,R9,2*
G04 #@! TO.N,Net-(C11-Pad1)*
G04 #@! TA.AperFunction,SMDPad,CuDef*
G36*
G01*
X150798000Y-70754665D02*
X150798000Y-71654667D01*
G75*
G02*
X150548001Y-71904666I-249999J0D01*
G01*
X149897999Y-71904666D01*
G75*
G02*
X149648000Y-71654667I0J249999D01*
G01*
X149648000Y-70754665D01*
G75*
G02*
X149897999Y-70504666I249999J0D01*
G01*
X150548001Y-70504666D01*
G75*
G02*
X150798000Y-70754665I0J-249999D01*
G01*
G37*
G04 #@! TD.AperFunction*
G04 #@! TD*
G04 #@! TO.P,R10,2*
G04 #@! TO.N,Net-(C10-Pad1)*
G04 #@! TA.AperFunction,SMDPad,CuDef*
G36*
G01*
X150934000Y-83877999D02*
X150934000Y-84778001D01*
G75*
G02*
X150684001Y-85028000I-249999J0D01*
G01*
X150033999Y-85028000D01*
G75*
G02*
X149784000Y-84778001I0J249999D01*
G01*
X149784000Y-83877999D01*
G75*
G02*
X150033999Y-83628000I249999J0D01*
G01*
X150684001Y-83628000D01*
G75*
G02*
X150934000Y-83877999I0J-249999D01*
G01*
G37*
G04 #@! TD.AperFunction*
G04 #@! TO.P,R10,1*
G04 #@! TO.N,Net-(R10-Pad1)*
G04 #@! TA.AperFunction,SMDPad,CuDef*
G36*
G01*
X152984000Y-83877999D02*
X152984000Y-84778001D01*
G75*
G02*
X152734001Y-85028000I-249999J0D01*
G01*
X152083999Y-85028000D01*
G75*
G02*
X151834000Y-84778001I0J249999D01*
G01*
X151834000Y-83877999D01*
G75*
G02*
X152083999Y-83628000I249999J0D01*
G01*
X152734001Y-83628000D01*
G75*
G02*
X152984000Y-83877999I0J-249999D01*
G01*
G37*
G04 #@! TD.AperFunction*
G04 #@! TD*
G04 #@! TO.P,R11,2*
G04 #@! TO.N,Net-(C6-Pad1)*
G04 #@! TA.AperFunction,SMDPad,CuDef*
G36*
G01*
X168460000Y-83750999D02*
X168460000Y-84651001D01*
G75*
G02*
X168210001Y-84901000I-249999J0D01*
G01*
X167559999Y-84901000D01*
G75*
G02*
X167310000Y-84651001I0J249999D01*
G01*
X167310000Y-83750999D01*
G75*
G02*
X167559999Y-83501000I249999J0D01*
G01*
X168210001Y-83501000D01*
G75*
G02*
X168460000Y-83750999I0J-249999D01*
G01*
G37*
G04 #@! TD.AperFunction*
G04 #@! TO.P,R11,1*
G04 #@! TO.N,Net-(R11-Pad1)*
G04 #@! TA.AperFunction,SMDPad,CuDef*
G36*
G01*
X170510000Y-83750999D02*
X170510000Y-84651001D01*
G75*
G02*
X170260001Y-84901000I-249999J0D01*
G01*
X169609999Y-84901000D01*
G75*
G02*
X169360000Y-84651001I0J249999D01*
G01*
X169360000Y-83750999D01*
G75*
G02*
X169609999Y-83501000I249999J0D01*
G01*
X170260001Y-83501000D01*
G75*
G02*
X170510000Y-83750999I0J-249999D01*
G01*
G37*
G04 #@! TD.AperFunction*
G04 #@! TD*
G04 #@! TO.P,R12,2*
G04 #@! TO.N,Net-(C7-Pad1)*
G04 #@! TA.AperFunction,SMDPad,CuDef*
G36*
G01*
X168460000Y-70669999D02*
X168460000Y-71570001D01*
G75*
G02*
X168210001Y-71820000I-249999J0D01*
G01*
X167559999Y-71820000D01*
G75*
G02*
X167310000Y-71570001I0J249999D01*
G01*
X167310000Y-70669999D01*
G75*
G02*
X167559999Y-70420000I249999J0D01*
G01*
X168210001Y-70420000D01*
G75*
G02*
X168460000Y-70669999I0J-249999D01*
G01*
G37*
G04 #@! TD.AperFunction*
G04 #@! TO.P,R12,1*
G04 #@! TO.N,Net-(R12-Pad1)*
G04 #@! TA.AperFunction,SMDPad,CuDef*
G36*
G01*
X170510000Y-70669999D02*
X170510000Y-71570001D01*
G75*
G02*
X170260001Y-71820000I-249999J0D01*
G01*
X169609999Y-71820000D01*
G75*
G02*
X169360000Y-71570001I0J249999D01*
G01*
X169360000Y-70669999D01*
G75*
G02*
X169609999Y-70420000I249999J0D01*
G01*
X170260001Y-70420000D01*
G75*
G02*
X170510000Y-70669999I0J-249999D01*
G01*
G37*
G04 #@! TD.AperFunction*
G04 #@! TD*
G04 #@! TO.P,R13,1*
G04 #@! TO.N,Net-(R13-Pad1)*
G04 #@! TA.AperFunction,SMDPad,CuDef*
G36*
G01*
X170510000Y-57588999D02*
X170510000Y-58489001D01*
G75*
G02*
X170260001Y-58739000I-249999J0D01*
G01*
X169609999Y-58739000D01*
G75*
G02*
X169360000Y-58489001I0J249999D01*
G01*
X169360000Y-57588999D01*
G75*
G02*
X169609999Y-57339000I249999J0D01*
G01*
X170260001Y-57339000D01*
G75*
G02*
X170510000Y-57588999I0J-249999D01*
G01*
G37*
G04 #@! TD.AperFunction*
G04 #@! TO.P,R13,2*
G04 #@! TO.N,Net-(C8-Pad1)*
G04 #@! TA.AperFunction,SMDPad,CuDef*
G36*
G01*
X168460000Y-57588999D02*
X168460000Y-58489001D01*
G75*
G02*
X168210001Y-58739000I-249999J0D01*
G01*
X167559999Y-58739000D01*
G75*
G02*
X167310000Y-58489001I0J249999D01*
G01*
X167310000Y-57588999D01*
G75*
G02*
X167559999Y-57339000I249999J0D01*
G01*
X168210001Y-57339000D01*
G75*
G02*
X168460000Y-57588999I0J-249999D01*
G01*
G37*
G04 #@! TD.AperFunction*
G04 #@! TD*
G04 #@! TO.P,R14,1*
G04 #@! TO.N,Net-(R14-Pad1)*
G04 #@! TA.AperFunction,SMDPad,CuDef*
G36*
G01*
X170510000Y-44507999D02*
X170510000Y-45408001D01*
G75*
G02*
X170260001Y-45658000I-249999J0D01*
G01*
X169609999Y-45658000D01*
G75*
G02*
X169360000Y-45408001I0J249999D01*
G01*
X169360000Y-44507999D01*
G75*
G02*
X169609999Y-44258000I249999J0D01*
G01*
X170260001Y-44258000D01*
G75*
G02*
X170510000Y-44507999I0J-249999D01*
G01*
G37*
G04 #@! TD.AperFunction*
G04 #@! TO.P,R14,2*
G04 #@! TO.N,Net-(C9-Pad1)*
G04 #@! TA.AperFunction,SMDPad,CuDef*
G36*
G01*
X168460000Y-44507999D02*
X168460000Y-45408001D01*
G75*
G02*
X168210001Y-45658000I-249999J0D01*
G01*
X167559999Y-45658000D01*
G75*
G02*
X167310000Y-45408001I0J249999D01*
G01*
X167310000Y-44507999D01*
G75*
G02*
X167559999Y-44258000I249999J0D01*
G01*
X168210001Y-44258000D01*
G75*
G02*
X168460000Y-44507999I0J-249999D01*
G01*
G37*
G04 #@! TD.AperFunction*
G04 #@! TD*
G04 #@! TO.P,R15,2*
G04 #@! TO.N,Net-(R11-Pad1)*
G04 #@! TA.AperFunction,SMDPad,CuDef*
G36*
G01*
X173159000Y-90227999D02*
X173159000Y-91128001D01*
G75*
G02*
X172909001Y-91378000I-249999J0D01*
G01*
X172258999Y-91378000D01*
G75*
G02*
X172009000Y-91128001I0J249999D01*
G01*
X172009000Y-90227999D01*
G75*
G02*
X172258999Y-89978000I249999J0D01*
G01*
X172909001Y-89978000D01*
G75*
G02*
X173159000Y-90227999I0J-249999D01*
G01*
G37*
G04 #@! TD.AperFunction*
G04 #@! TO.P,R15,1*
G04 #@! TO.N,Net-(R15-Pad1)*
G04 #@! TA.AperFunction,SMDPad,CuDef*
G36*
G01*
X175209000Y-90227999D02*
X175209000Y-91128001D01*
G75*
G02*
X174959001Y-91378000I-249999J0D01*
G01*
X174308999Y-91378000D01*
G75*
G02*
X174059000Y-91128001I0J249999D01*
G01*
X174059000Y-90227999D01*
G75*
G02*
X174308999Y-89978000I249999J0D01*
G01*
X174959001Y-89978000D01*
G75*
G02*
X175209000Y-90227999I0J-249999D01*
G01*
G37*
G04 #@! TD.AperFunction*
G04 #@! TD*
G04 #@! TO.P,R16,1*
G04 #@! TO.N,Net-(R15-Pad1)*
G04 #@! TA.AperFunction,SMDPad,CuDef*
G36*
G01*
X175209000Y-77146999D02*
X175209000Y-78047001D01*
G75*
G02*
X174959001Y-78297000I-249999J0D01*
G01*
X174308999Y-78297000D01*
G75*
G02*
X174059000Y-78047001I0J249999D01*
G01*
X174059000Y-77146999D01*
G75*
G02*
X174308999Y-76897000I249999J0D01*
G01*
X174959001Y-76897000D01*
G75*
G02*
X175209000Y-77146999I0J-249999D01*
G01*
G37*
G04 #@! TD.AperFunction*
G04 #@! TO.P,R16,2*
G04 #@! TO.N,Net-(R12-Pad1)*
G04 #@! TA.AperFunction,SMDPad,CuDef*
G36*
G01*
X173159000Y-77146999D02*
X173159000Y-78047001D01*
G75*
G02*
X172909001Y-78297000I-249999J0D01*
G01*
X172258999Y-78297000D01*
G75*
G02*
X172009000Y-78047001I0J249999D01*
G01*
X172009000Y-77146999D01*
G75*
G02*
X172258999Y-76897000I249999J0D01*
G01*
X172909001Y-76897000D01*
G75*
G02*
X173159000Y-77146999I0J-249999D01*
G01*
G37*
G04 #@! TD.AperFunction*
G04 #@! TD*
G04 #@! TO.P,R17,2*
G04 #@! TO.N,Net-(R13-Pad1)*
G04 #@! TA.AperFunction,SMDPad,CuDef*
G36*
G01*
X173159000Y-64065999D02*
X173159000Y-64966001D01*
G75*
G02*
X172909001Y-65216000I-249999J0D01*
G01*
X172258999Y-65216000D01*
G75*
G02*
X172009000Y-64966001I0J249999D01*
G01*
X172009000Y-64065999D01*
G75*
G02*
X172258999Y-63816000I249999J0D01*
G01*
X172909001Y-63816000D01*
G75*
G02*
X173159000Y-64065999I0J-249999D01*
G01*
G37*
G04 #@! TD.AperFunction*
G04 #@! TO.P,R17,1*
G04 #@! TO.N,Net-(R15-Pad1)*
G04 #@! TA.AperFunction,SMDPad,CuDef*
G36*
G01*
X175209000Y-64065999D02*
X175209000Y-64966001D01*
G75*
G02*
X174959001Y-65216000I-249999J0D01*
G01*
X174308999Y-65216000D01*
G75*
G02*
X174059000Y-64966001I0J249999D01*
G01*
X174059000Y-64065999D01*
G75*
G02*
X174308999Y-63816000I249999J0D01*
G01*
X174959001Y-63816000D01*
G75*
G02*
X175209000Y-64065999I0J-249999D01*
G01*
G37*
G04 #@! TD.AperFunction*
G04 #@! TD*
G04 #@! TO.P,R18,1*
G04 #@! TO.N,Net-(R15-Pad1)*
G04 #@! TA.AperFunction,SMDPad,CuDef*
G36*
G01*
X175209000Y-50984999D02*
X175209000Y-51885001D01*
G75*
G02*
X174959001Y-52135000I-249999J0D01*
G01*
X174308999Y-52135000D01*
G75*
G02*
X174059000Y-51885001I0J249999D01*
G01*
X174059000Y-50984999D01*
G75*
G02*
X174308999Y-50735000I249999J0D01*
G01*
X174959001Y-50735000D01*
G75*
G02*
X175209000Y-50984999I0J-249999D01*
G01*
G37*
G04 #@! TD.AperFunction*
G04 #@! TO.P,R18,2*
G04 #@! TO.N,Net-(R14-Pad1)*
G04 #@! TA.AperFunction,SMDPad,CuDef*
G36*
G01*
X173159000Y-50984999D02*
X173159000Y-51885001D01*
G75*
G02*
X172909001Y-52135000I-249999J0D01*
G01*
X172258999Y-52135000D01*
G75*
G02*
X172009000Y-51885001I0J249999D01*
G01*
X172009000Y-50984999D01*
G75*
G02*
X172258999Y-50735000I249999J0D01*
G01*
X172909001Y-50735000D01*
G75*
G02*
X173159000Y-50984999I0J-249999D01*
G01*
G37*
G04 #@! TD.AperFunction*
G04 #@! TD*
G04 #@! TO.P,R19,1*
G04 #@! TO.N,Net-(R19-Pad1)*
G04 #@! TA.AperFunction,SMDPad,CuDef*
G36*
G01*
X157547000Y-90354999D02*
X157547000Y-91255001D01*
G75*
G02*
X157297001Y-91505000I-249999J0D01*
G01*
X156646999Y-91505000D01*
G75*
G02*
X156397000Y-91255001I0J249999D01*
G01*
X156397000Y-90354999D01*
G75*
G02*
X156646999Y-90105000I249999J0D01*
G01*
X157297001Y-90105000D01*
G75*
G02*
X157547000Y-90354999I0J-249999D01*
G01*
G37*
G04 #@! TD.AperFunction*
G04 #@! TO.P,R19,2*
G04 #@! TO.N,Net-(R10-Pad1)*
G04 #@! TA.AperFunction,SMDPad,CuDef*
G36*
G01*
X155497000Y-90354999D02*
X155497000Y-91255001D01*
G75*
G02*
X155247001Y-91505000I-249999J0D01*
G01*
X154596999Y-91505000D01*
G75*
G02*
X154347000Y-91255001I0J249999D01*
G01*
X154347000Y-90354999D01*
G75*
G02*
X154596999Y-90105000I249999J0D01*
G01*
X155247001Y-90105000D01*
G75*
G02*
X155497000Y-90354999I0J-249999D01*
G01*
G37*
G04 #@! TD.AperFunction*
G04 #@! TD*
G04 #@! TO.P,R20,2*
G04 #@! TO.N,Net-(R20-Pad2)*
G04 #@! TA.AperFunction,SMDPad,CuDef*
G36*
G01*
X155497000Y-77231665D02*
X155497000Y-78131667D01*
G75*
G02*
X155247001Y-78381666I-249999J0D01*
G01*
X154596999Y-78381666D01*
G75*
G02*
X154347000Y-78131667I0J249999D01*
G01*
X154347000Y-77231665D01*
G75*
G02*
X154596999Y-76981666I249999J0D01*
G01*
X155247001Y-76981666D01*
G75*
G02*
X155497000Y-77231665I0J-249999D01*
G01*
G37*
G04 #@! TD.AperFunction*
G04 #@! TO.P,R20,1*
G04 #@! TO.N,Net-(R19-Pad1)*
G04 #@! TA.AperFunction,SMDPad,CuDef*
G36*
G01*
X157547000Y-77231665D02*
X157547000Y-78131667D01*
G75*
G02*
X157297001Y-78381666I-249999J0D01*
G01*
X156646999Y-78381666D01*
G75*
G02*
X156397000Y-78131667I0J249999D01*
G01*
X156397000Y-77231665D01*
G75*
G02*
X156646999Y-76981666I249999J0D01*
G01*
X157297001Y-76981666D01*
G75*
G02*
X157547000Y-77231665I0J-249999D01*
G01*
G37*
G04 #@! TD.AperFunction*
G04 #@! TD*
G04 #@! TO.P,R21,1*
G04 #@! TO.N,Net-(R19-Pad1)*
G04 #@! TA.AperFunction,SMDPad,CuDef*
G36*
G01*
X157547000Y-64108332D02*
X157547000Y-65008334D01*
G75*
G02*
X157297001Y-65258333I-249999J0D01*
G01*
X156646999Y-65258333D01*
G75*
G02*
X156397000Y-65008334I0J249999D01*
G01*
X156397000Y-64108332D01*
G75*
G02*
X156646999Y-63858333I249999J0D01*
G01*
X157297001Y-63858333D01*
G75*
G02*
X157547000Y-64108332I0J-249999D01*
G01*
G37*
G04 #@! TD.AperFunction*
G04 #@! TO.P,R21,2*
G04 #@! TO.N,Net-(R21-Pad2)*
G04 #@! TA.AperFunction,SMDPad,CuDef*
G36*
G01*
X155497000Y-64108332D02*
X155497000Y-65008334D01*
G75*
G02*
X155247001Y-65258333I-249999J0D01*
G01*
X154596999Y-65258333D01*
G75*
G02*
X154347000Y-65008334I0J249999D01*
G01*
X154347000Y-64108332D01*
G75*
G02*
X154596999Y-63858333I249999J0D01*
G01*
X155247001Y-63858333D01*
G75*
G02*
X155497000Y-64108332I0J-249999D01*
G01*
G37*
G04 #@! TD.AperFunction*
G04 #@! TD*
G04 #@! TO.P,R22,1*
G04 #@! TO.N,Net-(R19-Pad1)*
G04 #@! TA.AperFunction,SMDPad,CuDef*
G36*
G01*
X157547000Y-50984999D02*
X157547000Y-51885001D01*
G75*
G02*
X157297001Y-52135000I-249999J0D01*
G01*
X156646999Y-52135000D01*
G75*
G02*
X156397000Y-51885001I0J249999D01*
G01*
X156397000Y-50984999D01*
G75*
G02*
X156646999Y-50735000I249999J0D01*
G01*
X157297001Y-50735000D01*
G75*
G02*
X157547000Y-50984999I0J-249999D01*
G01*
G37*
G04 #@! TD.AperFunction*
G04 #@! TO.P,R22,2*
G04 #@! TO.N,Net-(R22-Pad2)*
G04 #@! TA.AperFunction,SMDPad,CuDef*
G36*
G01*
X155497000Y-50984999D02*
X155497000Y-51885001D01*
G75*
G02*
X155247001Y-52135000I-249999J0D01*
G01*
X154596999Y-52135000D01*
G75*
G02*
X154347000Y-51885001I0J249999D01*
G01*
X154347000Y-50984999D01*
G75*
G02*
X154596999Y-50735000I249999J0D01*
G01*
X155247001Y-50735000D01*
G75*
G02*
X155497000Y-50984999I0J-249999D01*
G01*
G37*
G04 #@! TD.AperFunction*
G04 #@! TD*
G04 #@! TO.P,R23,1*
G04 #@! TO.N,Net-(R23-Pad1)*
G04 #@! TA.AperFunction,SMDPad,CuDef*
G36*
G01*
X182820000Y-90481999D02*
X182820000Y-91382001D01*
G75*
G02*
X182570001Y-91632000I-249999J0D01*
G01*
X181919999Y-91632000D01*
G75*
G02*
X181670000Y-91382001I0J249999D01*
G01*
X181670000Y-90481999D01*
G75*
G02*
X181919999Y-90232000I249999J0D01*
G01*
X182570001Y-90232000D01*
G75*
G02*
X182820000Y-90481999I0J-249999D01*
G01*
G37*
G04 #@! TD.AperFunction*
G04 #@! TO.P,R23,2*
G04 #@! TO.N,Net-(R15-Pad1)*
G04 #@! TA.AperFunction,SMDPad,CuDef*
G36*
G01*
X180770000Y-90481999D02*
X180770000Y-91382001D01*
G75*
G02*
X180520001Y-91632000I-249999J0D01*
G01*
X179869999Y-91632000D01*
G75*
G02*
X179620000Y-91382001I0J249999D01*
G01*
X179620000Y-90481999D01*
G75*
G02*
X179869999Y-90232000I249999J0D01*
G01*
X180520001Y-90232000D01*
G75*
G02*
X180770000Y-90481999I0J-249999D01*
G01*
G37*
G04 #@! TD.AperFunction*
G04 #@! TD*
G04 #@! TO.P,R24,2*
G04 #@! TO.N,Net-(R19-Pad1)*
G04 #@! TA.AperFunction,SMDPad,CuDef*
G36*
G01*
X186493999Y-80850000D02*
X187394001Y-80850000D01*
G75*
G02*
X187644000Y-81099999I0J-249999D01*
G01*
X187644000Y-81750001D01*
G75*
G02*
X187394001Y-82000000I-249999J0D01*
G01*
X186493999Y-82000000D01*
G75*
G02*
X186244000Y-81750001I0J249999D01*
G01*
X186244000Y-81099999D01*
G75*
G02*
X186493999Y-80850000I249999J0D01*
G01*
G37*
G04 #@! TD.AperFunction*
G04 #@! TO.P,R24,1*
G04 #@! TO.N,Net-(R24-Pad1)*
G04 #@! TA.AperFunction,SMDPad,CuDef*
G36*
G01*
X186493999Y-78800000D02*
X187394001Y-78800000D01*
G75*
G02*
X187644000Y-79049999I0J-249999D01*
G01*
X187644000Y-79700001D01*
G75*
G02*
X187394001Y-79950000I-249999J0D01*
G01*
X186493999Y-79950000D01*
G75*
G02*
X186244000Y-79700001I0J249999D01*
G01*
X186244000Y-79049999D01*
G75*
G02*
X186493999Y-78800000I249999J0D01*
G01*
G37*
G04 #@! TD.AperFunction*
G04 #@! TD*
G04 #@! TO.P,R25,1*
G04 #@! TO.N,Net-(C16-Pad2)*
G04 #@! TA.AperFunction,SMDPad,CuDef*
G36*
G01*
X186376000Y-88576999D02*
X186376000Y-89477001D01*
G75*
G02*
X186126001Y-89727000I-249999J0D01*
G01*
X185475999Y-89727000D01*
G75*
G02*
X185226000Y-89477001I0J249999D01*
G01*
X185226000Y-88576999D01*
G75*
G02*
X185475999Y-88327000I249999J0D01*
G01*
X186126001Y-88327000D01*
G75*
G02*
X186376000Y-88576999I0J-249999D01*
G01*
G37*
G04 #@! TD.AperFunction*
G04 #@! TO.P,R25,2*
G04 #@! TO.N,Net-(R23-Pad1)*
G04 #@! TA.AperFunction,SMDPad,CuDef*
G36*
G01*
X184326000Y-88576999D02*
X184326000Y-89477001D01*
G75*
G02*
X184076001Y-89727000I-249999J0D01*
G01*
X183425999Y-89727000D01*
G75*
G02*
X183176000Y-89477001I0J249999D01*
G01*
X183176000Y-88576999D01*
G75*
G02*
X183425999Y-88327000I249999J0D01*
G01*
X184076001Y-88327000D01*
G75*
G02*
X184326000Y-88576999I0J-249999D01*
G01*
G37*
G04 #@! TD.AperFunction*
G04 #@! TD*
G04 #@! TO.P,R26,2*
G04 #@! TO.N,Net-(C18-Pad2)*
G04 #@! TA.AperFunction,SMDPad,CuDef*
G36*
G01*
X188906999Y-79562000D02*
X189807001Y-79562000D01*
G75*
G02*
X190057000Y-79811999I0J-249999D01*
G01*
X190057000Y-80462001D01*
G75*
G02*
X189807001Y-80712000I-249999J0D01*
G01*
X188906999Y-80712000D01*
G75*
G02*
X188657000Y-80462001I0J249999D01*
G01*
X188657000Y-79811999D01*
G75*
G02*
X188906999Y-79562000I249999J0D01*
G01*
G37*
G04 #@! TD.AperFunction*
G04 #@! TO.P,R26,1*
G04 #@! TO.N,Net-(R24-Pad1)*
G04 #@! TA.AperFunction,SMDPad,CuDef*
G36*
G01*
X188906999Y-77512000D02*
X189807001Y-77512000D01*
G75*
G02*
X190057000Y-77761999I0J-249999D01*
G01*
X190057000Y-78412001D01*
G75*
G02*
X189807001Y-78662000I-249999J0D01*
G01*
X188906999Y-78662000D01*
G75*
G02*
X188657000Y-78412001I0J249999D01*
G01*
X188657000Y-77761999D01*
G75*
G02*
X188906999Y-77512000I249999J0D01*
G01*
G37*
G04 #@! TD.AperFunction*
G04 #@! TD*
D14*
G04 #@! TO.P,SW1,1*
G04 #@! TO.N,+5V*
X195580000Y-69723000D03*
D15*
G04 #@! TO.P,SW1,2*
G04 #@! TO.N,Net-(J5-Pad1)*
X195580000Y-72263000D03*
G04 #@! TO.P,SW1,3*
G04 #@! TO.N,N/C*
X195580000Y-74803000D03*
G04 #@! TD*
D16*
G04 #@! TO.P,U1,1*
G04 #@! TO.N,GND*
X184597000Y-56535000D03*
G04 #@! TO.P,U1,2*
G04 #@! TO.N,Net-(R3-Pad1)*
X184597000Y-57035000D03*
G04 #@! TO.P,U1,3*
G04 #@! TO.N,+5V*
X184597000Y-57535000D03*
G04 #@! TO.P,U1,4*
G04 #@! TO.N,GND*
X184597000Y-58035000D03*
G04 #@! TO.P,U1,5*
G04 #@! TO.N,Net-(C3-Pad1)*
X184597000Y-58535000D03*
G04 #@! TO.P,U1,6*
G04 #@! TO.N,/-5V_OUT*
X184597000Y-59035000D03*
G04 #@! TO.P,U1,7*
G04 #@! TO.N,Net-(R5-Pad2)*
X186497000Y-59035000D03*
G04 #@! TO.P,U1,8*
G04 #@! TO.N,+5V*
X186497000Y-58535000D03*
G04 #@! TO.P,U1,9*
G04 #@! TO.N,Net-(C1-Pad2)*
X186497000Y-58035000D03*
G04 #@! TO.P,U1,10*
G04 #@! TO.N,Net-(C1-Pad1)*
X186497000Y-57535000D03*
G04 #@! TO.P,U1,11*
G04 #@! TO.N,/+5V_OUT*
X186497000Y-57035000D03*
G04 #@! TO.P,U1,12*
G04 #@! TO.N,+5V*
X186497000Y-56535000D03*
D17*
G04 #@! TD*
G04 #@! TO.N,GND*
G04 #@! TO.C,U1*
X185547000Y-57785000D03*
G04 #@! TO.N,GND*
G04 #@! TO.C,U1*
X185547000Y-56785000D03*
X185547000Y-58785000D03*
D18*
G04 #@! TD*
G04 #@! TO.P,U1,13*
G04 #@! TO.N,GND*
X185547000Y-57785000D03*
G04 #@! TO.P,U2,1*
G04 #@! TO.N,Net-(R23-Pad1)*
G04 #@! TA.AperFunction,SMDPad,CuDef*
G36*
G01*
X177525000Y-83335000D02*
X177525000Y-83035000D01*
G75*
G02*
X177675000Y-82885000I150000J0D01*
G01*
X179125000Y-82885000D01*
G75*
G02*
X179275000Y-83035000I0J-150000D01*
G01*
X179275000Y-83335000D01*
G75*
G02*
X179125000Y-83485000I-150000J0D01*
G01*
X177675000Y-83485000D01*
G75*
G02*
X177525000Y-83335000I0J150000D01*
G01*
G37*
G04 #@! TD.AperFunction*
G04 #@! TO.P,U2,2*
G04 #@! TO.N,Net-(R15-Pad1)*
G04 #@! TA.AperFunction,SMDPad,CuDef*
G36*
G01*
X177525000Y-84605000D02*
X177525000Y-84305000D01*
G75*
G02*
X177675000Y-84155000I150000J0D01*
G01*
X179125000Y-84155000D01*
G75*
G02*
X179275000Y-84305000I0J-150000D01*
G01*
X179275000Y-84605000D01*
G75*
G02*
X179125000Y-84755000I-150000J0D01*
G01*
X177675000Y-84755000D01*
G75*
G02*
X177525000Y-84605000I0J150000D01*
G01*
G37*
G04 #@! TD.AperFunction*
G04 #@! TO.P,U2,3*
G04 #@! TO.N,GNDA*
G04 #@! TA.AperFunction,SMDPad,CuDef*
G36*
G01*
X177525000Y-85875000D02*
X177525000Y-85575000D01*
G75*
G02*
X177675000Y-85425000I150000J0D01*
G01*
X179125000Y-85425000D01*
G75*
G02*
X179275000Y-85575000I0J-150000D01*
G01*
X179275000Y-85875000D01*
G75*
G02*
X179125000Y-86025000I-150000J0D01*
G01*
X177675000Y-86025000D01*
G75*
G02*
X177525000Y-85875000I0J150000D01*
G01*
G37*
G04 #@! TD.AperFunction*
G04 #@! TO.P,U2,4*
G04 #@! TO.N,-5VA*
G04 #@! TA.AperFunction,SMDPad,CuDef*
G36*
G01*
X177525000Y-87145000D02*
X177525000Y-86845000D01*
G75*
G02*
X177675000Y-86695000I150000J0D01*
G01*
X179125000Y-86695000D01*
G75*
G02*
X179275000Y-86845000I0J-150000D01*
G01*
X179275000Y-87145000D01*
G75*
G02*
X179125000Y-87295000I-150000J0D01*
G01*
X177675000Y-87295000D01*
G75*
G02*
X177525000Y-87145000I0J150000D01*
G01*
G37*
G04 #@! TD.AperFunction*
G04 #@! TO.P,U2,5*
G04 #@! TO.N,GNDA*
G04 #@! TA.AperFunction,SMDPad,CuDef*
G36*
G01*
X182675000Y-87145000D02*
X182675000Y-86845000D01*
G75*
G02*
X182825000Y-86695000I150000J0D01*
G01*
X184275000Y-86695000D01*
G75*
G02*
X184425000Y-86845000I0J-150000D01*
G01*
X184425000Y-87145000D01*
G75*
G02*
X184275000Y-87295000I-150000J0D01*
G01*
X182825000Y-87295000D01*
G75*
G02*
X182675000Y-87145000I0J150000D01*
G01*
G37*
G04 #@! TD.AperFunction*
G04 #@! TO.P,U2,6*
G04 #@! TO.N,Net-(R19-Pad1)*
G04 #@! TA.AperFunction,SMDPad,CuDef*
G36*
G01*
X182675000Y-85875000D02*
X182675000Y-85575000D01*
G75*
G02*
X182825000Y-85425000I150000J0D01*
G01*
X184275000Y-85425000D01*
G75*
G02*
X184425000Y-85575000I0J-150000D01*
G01*
X184425000Y-85875000D01*
G75*
G02*
X184275000Y-86025000I-150000J0D01*
G01*
X182825000Y-86025000D01*
G75*
G02*
X182675000Y-85875000I0J150000D01*
G01*
G37*
G04 #@! TD.AperFunction*
G04 #@! TO.P,U2,7*
G04 #@! TO.N,Net-(R24-Pad1)*
G04 #@! TA.AperFunction,SMDPad,CuDef*
G36*
G01*
X182675000Y-84605000D02*
X182675000Y-84305000D01*
G75*
G02*
X182825000Y-84155000I150000J0D01*
G01*
X184275000Y-84155000D01*
G75*
G02*
X184425000Y-84305000I0J-150000D01*
G01*
X184425000Y-84605000D01*
G75*
G02*
X184275000Y-84755000I-150000J0D01*
G01*
X182825000Y-84755000D01*
G75*
G02*
X182675000Y-84605000I0J150000D01*
G01*
G37*
G04 #@! TD.AperFunction*
G04 #@! TO.P,U2,8*
G04 #@! TO.N,+5VA*
G04 #@! TA.AperFunction,SMDPad,CuDef*
G36*
G01*
X182675000Y-83335000D02*
X182675000Y-83035000D01*
G75*
G02*
X182825000Y-82885000I150000J0D01*
G01*
X184275000Y-82885000D01*
G75*
G02*
X184425000Y-83035000I0J-150000D01*
G01*
X184425000Y-83335000D01*
G75*
G02*
X184275000Y-83485000I-150000J0D01*
G01*
X182825000Y-83485000D01*
G75*
G02*
X182675000Y-83335000I0J150000D01*
G01*
G37*
G04 #@! TD.AperFunction*
G04 #@! TD*
D19*
G04 #@! TO.P,H1,*
G04 #@! TO.N,*
X141732000Y-99822000D03*
G04 #@! TD*
G04 #@! TO.P,H2,*
G04 #@! TO.N,*
X180594000Y-99822000D03*
G04 #@! TD*
G04 #@! TO.P,H3,*
G04 #@! TO.N,*
X141732000Y-42926000D03*
G04 #@! TD*
G04 #@! TO.P,H4,*
G04 #@! TO.N,*
X180594000Y-42926000D03*
G04 #@! TD*
D20*
G04 #@! TO.P,H5,1*
G04 #@! TO.N,N/C*
X133873000Y-43124000D03*
G04 #@! TD*
G04 #@! TO.P,H6,1*
G04 #@! TO.N,N/C*
X133873000Y-99124000D03*
G04 #@! TD*
G04 #@! TO.P,H7,1*
G04 #@! TO.N,N/C*
X188873000Y-43124000D03*
G04 #@! TD*
G04 #@! TO.P,H8,1*
G04 #@! TO.N,N/C*
X188873000Y-99124000D03*
G04 #@! TD*
G04 #@! TO.P,D1,2*
G04 #@! TO.N,Net-(D1-Pad2)*
G04 #@! TA.AperFunction,SMDPad,CuDef*
G36*
G01*
X199194000Y-65081999D02*
X199194000Y-65982001D01*
G75*
G02*
X198944001Y-66232000I-249999J0D01*
G01*
X198293999Y-66232000D01*
G75*
G02*
X198044000Y-65982001I0J249999D01*
G01*
X198044000Y-65081999D01*
G75*
G02*
X198293999Y-64832000I249999J0D01*
G01*
X198944001Y-64832000D01*
G75*
G02*
X199194000Y-65081999I0J-249999D01*
G01*
G37*
G04 #@! TD.AperFunction*
G04 #@! TO.P,D1,1*
G04 #@! TO.N,GND*
G04 #@! TA.AperFunction,SMDPad,CuDef*
G36*
G01*
X201244000Y-65081999D02*
X201244000Y-65982001D01*
G75*
G02*
X200994001Y-66232000I-249999J0D01*
G01*
X200343999Y-66232000D01*
G75*
G02*
X200094000Y-65982001I0J249999D01*
G01*
X200094000Y-65081999D01*
G75*
G02*
X200343999Y-64832000I249999J0D01*
G01*
X200994001Y-64832000D01*
G75*
G02*
X201244000Y-65081999I0J-249999D01*
G01*
G37*
G04 #@! TD.AperFunction*
G04 #@! TD*
G04 #@! TO.P,D2,1*
G04 #@! TO.N,Net-(D2-Pad1)*
G04 #@! TA.AperFunction,SMDPad,CuDef*
G36*
G01*
X197926000Y-50615001D02*
X197926000Y-49714999D01*
G75*
G02*
X198175999Y-49465000I249999J0D01*
G01*
X198826001Y-49465000D01*
G75*
G02*
X199076000Y-49714999I0J-249999D01*
G01*
X199076000Y-50615001D01*
G75*
G02*
X198826001Y-50865000I-249999J0D01*
G01*
X198175999Y-50865000D01*
G75*
G02*
X197926000Y-50615001I0J249999D01*
G01*
G37*
G04 #@! TD.AperFunction*
G04 #@! TO.P,D2,2*
G04 #@! TO.N,GND*
G04 #@! TA.AperFunction,SMDPad,CuDef*
G36*
G01*
X199976000Y-50615001D02*
X199976000Y-49714999D01*
G75*
G02*
X200225999Y-49465000I249999J0D01*
G01*
X200876001Y-49465000D01*
G75*
G02*
X201126000Y-49714999I0J-249999D01*
G01*
X201126000Y-50615001D01*
G75*
G02*
X200876001Y-50865000I-249999J0D01*
G01*
X200225999Y-50865000D01*
G75*
G02*
X199976000Y-50615001I0J249999D01*
G01*
G37*
G04 #@! TD.AperFunction*
G04 #@! TD*
G04 #@! TO.P,R27,2*
G04 #@! TO.N,/+5V_OUT*
G04 #@! TA.AperFunction,SMDPad,CuDef*
G36*
G01*
X194359000Y-65081999D02*
X194359000Y-65982001D01*
G75*
G02*
X194109001Y-66232000I-249999J0D01*
G01*
X193458999Y-66232000D01*
G75*
G02*
X193209000Y-65982001I0J249999D01*
G01*
X193209000Y-65081999D01*
G75*
G02*
X193458999Y-64832000I249999J0D01*
G01*
X194109001Y-64832000D01*
G75*
G02*
X194359000Y-65081999I0J-249999D01*
G01*
G37*
G04 #@! TD.AperFunction*
G04 #@! TO.P,R27,1*
G04 #@! TO.N,Net-(D1-Pad2)*
G04 #@! TA.AperFunction,SMDPad,CuDef*
G36*
G01*
X196409000Y-65081999D02*
X196409000Y-65982001D01*
G75*
G02*
X196159001Y-66232000I-249999J0D01*
G01*
X195508999Y-66232000D01*
G75*
G02*
X195259000Y-65982001I0J249999D01*
G01*
X195259000Y-65081999D01*
G75*
G02*
X195508999Y-64832000I249999J0D01*
G01*
X196159001Y-64832000D01*
G75*
G02*
X196409000Y-65081999I0J-249999D01*
G01*
G37*
G04 #@! TD.AperFunction*
G04 #@! TD*
G04 #@! TO.P,R28,1*
G04 #@! TO.N,Net-(D2-Pad1)*
G04 #@! TA.AperFunction,SMDPad,CuDef*
G36*
G01*
X196164000Y-49714999D02*
X196164000Y-50615001D01*
G75*
G02*
X195914001Y-50865000I-249999J0D01*
G01*
X195263999Y-50865000D01*
G75*
G02*
X195014000Y-50615001I0J249999D01*
G01*
X195014000Y-49714999D01*
G75*
G02*
X195263999Y-49465000I249999J0D01*
G01*
X195914001Y-49465000D01*
G75*
G02*
X196164000Y-49714999I0J-249999D01*
G01*
G37*
G04 #@! TD.AperFunction*
G04 #@! TO.P,R28,2*
G04 #@! TO.N,/-5V_OUT*
G04 #@! TA.AperFunction,SMDPad,CuDef*
G36*
G01*
X194114000Y-49714999D02*
X194114000Y-50615001D01*
G75*
G02*
X193864001Y-50865000I-249999J0D01*
G01*
X193213999Y-50865000D01*
G75*
G02*
X192964000Y-50615001I0J249999D01*
G01*
X192964000Y-49714999D01*
G75*
G02*
X193213999Y-49465000I249999J0D01*
G01*
X193864001Y-49465000D01*
G75*
G02*
X194114000Y-49714999I0J-249999D01*
G01*
G37*
G04 #@! TD.AperFunction*
G04 #@! TD*
G04 #@! TO.P,R29,1*
G04 #@! TO.N,+5V*
G04 #@! TA.AperFunction,SMDPad,CuDef*
G36*
G01*
X191700999Y-69257000D02*
X192601001Y-69257000D01*
G75*
G02*
X192851000Y-69506999I0J-249999D01*
G01*
X192851000Y-70157001D01*
G75*
G02*
X192601001Y-70407000I-249999J0D01*
G01*
X191700999Y-70407000D01*
G75*
G02*
X191451000Y-70157001I0J249999D01*
G01*
X191451000Y-69506999D01*
G75*
G02*
X191700999Y-69257000I249999J0D01*
G01*
G37*
G04 #@! TD.AperFunction*
G04 #@! TO.P,R29,2*
G04 #@! TO.N,Net-(J5-Pad1)*
G04 #@! TA.AperFunction,SMDPad,CuDef*
G36*
G01*
X191700999Y-71307000D02*
X192601001Y-71307000D01*
G75*
G02*
X192851000Y-71556999I0J-249999D01*
G01*
X192851000Y-72207001D01*
G75*
G02*
X192601001Y-72457000I-249999J0D01*
G01*
X191700999Y-72457000D01*
G75*
G02*
X191451000Y-72207001I0J249999D01*
G01*
X191451000Y-71556999D01*
G75*
G02*
X191700999Y-71307000I249999J0D01*
G01*
G37*
G04 #@! TD.AperFunction*
G04 #@! TD*
D10*
G04 #@! TO.P,RV1,1*
G04 #@! TO.N,Net-(C13-Pad1)*
X149098000Y-48895000D03*
G04 #@! TO.P,RV1,2*
G04 #@! TO.N,Net-(R22-Pad2)*
X152098000Y-51435000D03*
G04 #@! TO.P,RV1,3*
G04 #@! TO.N,GNDA*
X149098000Y-53895000D03*
G04 #@! TD*
G04 #@! TO.P,RV2,3*
G04 #@! TO.N,GNDA*
X149098000Y-67018333D03*
G04 #@! TO.P,RV2,2*
G04 #@! TO.N,Net-(R21-Pad2)*
X152098000Y-64558333D03*
G04 #@! TO.P,RV2,1*
G04 #@! TO.N,Net-(C12-Pad1)*
X149098000Y-62018333D03*
G04 #@! TD*
G04 #@! TO.P,RV3,3*
G04 #@! TO.N,GNDA*
X149098000Y-80141666D03*
G04 #@! TO.P,RV3,2*
G04 #@! TO.N,Net-(R20-Pad2)*
X152098000Y-77681666D03*
G04 #@! TO.P,RV3,1*
G04 #@! TO.N,Net-(C11-Pad1)*
X149098000Y-75141666D03*
G04 #@! TD*
G04 #@! TO.P,RV4,1*
G04 #@! TO.N,Net-(C10-Pad1)*
X149098000Y-88265000D03*
G04 #@! TO.P,RV4,2*
G04 #@! TO.N,Net-(R10-Pad1)*
X152098000Y-90805000D03*
G04 #@! TO.P,RV4,3*
G04 #@! TO.N,GNDA*
X149098000Y-93265000D03*
G04 #@! TD*
G04 #@! TO.P,RV5,3*
G04 #@! TO.N,GNDA*
X166624000Y-93138000D03*
G04 #@! TO.P,RV5,2*
G04 #@! TO.N,Net-(R11-Pad1)*
X169624000Y-90678000D03*
G04 #@! TO.P,RV5,1*
G04 #@! TO.N,Net-(C6-Pad1)*
X166624000Y-88138000D03*
G04 #@! TD*
G04 #@! TO.P,RV6,3*
G04 #@! TO.N,GNDA*
X166624000Y-80057000D03*
G04 #@! TO.P,RV6,2*
G04 #@! TO.N,Net-(R12-Pad1)*
X169624000Y-77597000D03*
G04 #@! TO.P,RV6,1*
G04 #@! TO.N,Net-(C7-Pad1)*
X166624000Y-75057000D03*
G04 #@! TD*
G04 #@! TO.P,RV7,1*
G04 #@! TO.N,Net-(C8-Pad1)*
X166624000Y-61976000D03*
G04 #@! TO.P,RV7,2*
G04 #@! TO.N,Net-(R13-Pad1)*
X169624000Y-64516000D03*
G04 #@! TO.P,RV7,3*
G04 #@! TO.N,GNDA*
X166624000Y-66976000D03*
G04 #@! TD*
G04 #@! TO.P,RV8,1*
G04 #@! TO.N,Net-(C9-Pad1)*
X166624000Y-48895000D03*
G04 #@! TO.P,RV8,2*
G04 #@! TO.N,Net-(R14-Pad1)*
X169624000Y-51435000D03*
G04 #@! TO.P,RV8,3*
G04 #@! TO.N,GNDA*
X166624000Y-53895000D03*
G04 #@! TD*
G04 #@! TO.P,C19,1*
G04 #@! TO.N,+5V*
G04 #@! TA.AperFunction,SMDPad,CuDef*
G36*
G01*
X179393001Y-56972000D02*
X178492999Y-56972000D01*
G75*
G02*
X178243000Y-56722001I0J249999D01*
G01*
X178243000Y-56071999D01*
G75*
G02*
X178492999Y-55822000I249999J0D01*
G01*
X179393001Y-55822000D01*
G75*
G02*
X179643000Y-56071999I0J-249999D01*
G01*
X179643000Y-56722001D01*
G75*
G02*
X179393001Y-56972000I-249999J0D01*
G01*
G37*
G04 #@! TD.AperFunction*
G04 #@! TO.P,C19,2*
G04 #@! TO.N,GND*
G04 #@! TA.AperFunction,SMDPad,CuDef*
G36*
G01*
X179393001Y-54922000D02*
X178492999Y-54922000D01*
G75*
G02*
X178243000Y-54672001I0J249999D01*
G01*
X178243000Y-54021999D01*
G75*
G02*
X178492999Y-53772000I249999J0D01*
G01*
X179393001Y-53772000D01*
G75*
G02*
X179643000Y-54021999I0J-249999D01*
G01*
X179643000Y-54672001D01*
G75*
G02*
X179393001Y-54922000I-249999J0D01*
G01*
G37*
G04 #@! TD.AperFunction*
G04 #@! TD*
G04 #@! TO.P,R30,1*
G04 #@! TO.N,Net-(C6-Pad1)*
G04 #@! TA.AperFunction,SMDPad,CuDef*
G36*
G01*
X140039000Y-86163999D02*
X140039000Y-87064001D01*
G75*
G02*
X139789001Y-87314000I-249999J0D01*
G01*
X139138999Y-87314000D01*
G75*
G02*
X138889000Y-87064001I0J249999D01*
G01*
X138889000Y-86163999D01*
G75*
G02*
X139138999Y-85914000I249999J0D01*
G01*
X139789001Y-85914000D01*
G75*
G02*
X140039000Y-86163999I0J-249999D01*
G01*
G37*
G04 #@! TD.AperFunction*
G04 #@! TO.P,R30,2*
G04 #@! TO.N,Net-(C6-Pad2)*
G04 #@! TA.AperFunction,SMDPad,CuDef*
G36*
G01*
X137989000Y-86163999D02*
X137989000Y-87064001D01*
G75*
G02*
X137739001Y-87314000I-249999J0D01*
G01*
X137088999Y-87314000D01*
G75*
G02*
X136839000Y-87064001I0J249999D01*
G01*
X136839000Y-86163999D01*
G75*
G02*
X137088999Y-85914000I249999J0D01*
G01*
X137739001Y-85914000D01*
G75*
G02*
X137989000Y-86163999I0J-249999D01*
G01*
G37*
G04 #@! TD.AperFunction*
G04 #@! TD*
G04 #@! TO.P,R31,1*
G04 #@! TO.N,Net-(C7-Pad1)*
G04 #@! TA.AperFunction,SMDPad,CuDef*
G36*
G01*
X140039000Y-74987999D02*
X140039000Y-75888001D01*
G75*
G02*
X139789001Y-76138000I-249999J0D01*
G01*
X139138999Y-76138000D01*
G75*
G02*
X138889000Y-75888001I0J249999D01*
G01*
X138889000Y-74987999D01*
G75*
G02*
X139138999Y-74738000I249999J0D01*
G01*
X139789001Y-74738000D01*
G75*
G02*
X140039000Y-74987999I0J-249999D01*
G01*
G37*
G04 #@! TD.AperFunction*
G04 #@! TO.P,R31,2*
G04 #@! TO.N,Net-(C7-Pad2)*
G04 #@! TA.AperFunction,SMDPad,CuDef*
G36*
G01*
X137989000Y-74987999D02*
X137989000Y-75888001D01*
G75*
G02*
X137739001Y-76138000I-249999J0D01*
G01*
X137088999Y-76138000D01*
G75*
G02*
X136839000Y-75888001I0J249999D01*
G01*
X136839000Y-74987999D01*
G75*
G02*
X137088999Y-74738000I249999J0D01*
G01*
X137739001Y-74738000D01*
G75*
G02*
X137989000Y-74987999I0J-249999D01*
G01*
G37*
G04 #@! TD.AperFunction*
G04 #@! TD*
G04 #@! TO.P,R32,1*
G04 #@! TO.N,Net-(C8-Pad1)*
G04 #@! TA.AperFunction,SMDPad,CuDef*
G36*
G01*
X140039000Y-63684999D02*
X140039000Y-64585001D01*
G75*
G02*
X139789001Y-64835000I-249999J0D01*
G01*
X139138999Y-64835000D01*
G75*
G02*
X138889000Y-64585001I0J249999D01*
G01*
X138889000Y-63684999D01*
G75*
G02*
X139138999Y-63435000I249999J0D01*
G01*
X139789001Y-63435000D01*
G75*
G02*
X140039000Y-63684999I0J-249999D01*
G01*
G37*
G04 #@! TD.AperFunction*
G04 #@! TO.P,R32,2*
G04 #@! TO.N,Net-(C8-Pad2)*
G04 #@! TA.AperFunction,SMDPad,CuDef*
G36*
G01*
X137989000Y-63684999D02*
X137989000Y-64585001D01*
G75*
G02*
X137739001Y-64835000I-249999J0D01*
G01*
X137088999Y-64835000D01*
G75*
G02*
X136839000Y-64585001I0J249999D01*
G01*
X136839000Y-63684999D01*
G75*
G02*
X137088999Y-63435000I249999J0D01*
G01*
X137739001Y-63435000D01*
G75*
G02*
X137989000Y-63684999I0J-249999D01*
G01*
G37*
G04 #@! TD.AperFunction*
G04 #@! TD*
G04 #@! TO.P,R33,1*
G04 #@! TO.N,Net-(C9-Pad1)*
G04 #@! TA.AperFunction,SMDPad,CuDef*
G36*
G01*
X140021000Y-52508999D02*
X140021000Y-53409001D01*
G75*
G02*
X139771001Y-53659000I-249999J0D01*
G01*
X139120999Y-53659000D01*
G75*
G02*
X138871000Y-53409001I0J249999D01*
G01*
X138871000Y-52508999D01*
G75*
G02*
X139120999Y-52259000I249999J0D01*
G01*
X139771001Y-52259000D01*
G75*
G02*
X140021000Y-52508999I0J-249999D01*
G01*
G37*
G04 #@! TD.AperFunction*
G04 #@! TO.P,R33,2*
G04 #@! TO.N,Net-(C9-Pad2)*
G04 #@! TA.AperFunction,SMDPad,CuDef*
G36*
G01*
X137971000Y-52508999D02*
X137971000Y-53409001D01*
G75*
G02*
X137721001Y-53659000I-249999J0D01*
G01*
X137070999Y-53659000D01*
G75*
G02*
X136821000Y-53409001I0J249999D01*
G01*
X136821000Y-52508999D01*
G75*
G02*
X137070999Y-52259000I249999J0D01*
G01*
X137721001Y-52259000D01*
G75*
G02*
X137971000Y-52508999I0J-249999D01*
G01*
G37*
G04 #@! TD.AperFunction*
G04 #@! TD*
G04 #@! TO.P,R34,2*
G04 #@! TO.N,Net-(C10-Pad1)*
G04 #@! TA.AperFunction,SMDPad,CuDef*
G36*
G01*
X138744000Y-89350001D02*
X138744000Y-88449999D01*
G75*
G02*
X138993999Y-88200000I249999J0D01*
G01*
X139644001Y-88200000D01*
G75*
G02*
X139894000Y-88449999I0J-249999D01*
G01*
X139894000Y-89350001D01*
G75*
G02*
X139644001Y-89600000I-249999J0D01*
G01*
X138993999Y-89600000D01*
G75*
G02*
X138744000Y-89350001I0J249999D01*
G01*
G37*
G04 #@! TD.AperFunction*
G04 #@! TO.P,R34,1*
G04 #@! TO.N,Net-(C10-Pad2)*
G04 #@! TA.AperFunction,SMDPad,CuDef*
G36*
G01*
X136694000Y-89350001D02*
X136694000Y-88449999D01*
G75*
G02*
X136943999Y-88200000I249999J0D01*
G01*
X137594001Y-88200000D01*
G75*
G02*
X137844000Y-88449999I0J-249999D01*
G01*
X137844000Y-89350001D01*
G75*
G02*
X137594001Y-89600000I-249999J0D01*
G01*
X136943999Y-89600000D01*
G75*
G02*
X136694000Y-89350001I0J249999D01*
G01*
G37*
G04 #@! TD.AperFunction*
G04 #@! TD*
G04 #@! TO.P,R35,2*
G04 #@! TO.N,Net-(C11-Pad1)*
G04 #@! TA.AperFunction,SMDPad,CuDef*
G36*
G01*
X138744000Y-78174001D02*
X138744000Y-77273999D01*
G75*
G02*
X138993999Y-77024000I249999J0D01*
G01*
X139644001Y-77024000D01*
G75*
G02*
X139894000Y-77273999I0J-249999D01*
G01*
X139894000Y-78174001D01*
G75*
G02*
X139644001Y-78424000I-249999J0D01*
G01*
X138993999Y-78424000D01*
G75*
G02*
X138744000Y-78174001I0J249999D01*
G01*
G37*
G04 #@! TD.AperFunction*
G04 #@! TO.P,R35,1*
G04 #@! TO.N,Net-(C11-Pad2)*
G04 #@! TA.AperFunction,SMDPad,CuDef*
G36*
G01*
X136694000Y-78174001D02*
X136694000Y-77273999D01*
G75*
G02*
X136943999Y-77024000I249999J0D01*
G01*
X137594001Y-77024000D01*
G75*
G02*
X137844000Y-77273999I0J-249999D01*
G01*
X137844000Y-78174001D01*
G75*
G02*
X137594001Y-78424000I-249999J0D01*
G01*
X136943999Y-78424000D01*
G75*
G02*
X136694000Y-78174001I0J249999D01*
G01*
G37*
G04 #@! TD.AperFunction*
G04 #@! TD*
G04 #@! TO.P,R36,2*
G04 #@! TO.N,Net-(C12-Pad1)*
G04 #@! TA.AperFunction,SMDPad,CuDef*
G36*
G01*
X138753000Y-66871001D02*
X138753000Y-65970999D01*
G75*
G02*
X139002999Y-65721000I249999J0D01*
G01*
X139653001Y-65721000D01*
G75*
G02*
X139903000Y-65970999I0J-249999D01*
G01*
X139903000Y-66871001D01*
G75*
G02*
X139653001Y-67121000I-249999J0D01*
G01*
X139002999Y-67121000D01*
G75*
G02*
X138753000Y-66871001I0J249999D01*
G01*
G37*
G04 #@! TD.AperFunction*
G04 #@! TO.P,R36,1*
G04 #@! TO.N,Net-(C12-Pad2)*
G04 #@! TA.AperFunction,SMDPad,CuDef*
G36*
G01*
X136703000Y-66871001D02*
X136703000Y-65970999D01*
G75*
G02*
X136952999Y-65721000I249999J0D01*
G01*
X137603001Y-65721000D01*
G75*
G02*
X137853000Y-65970999I0J-249999D01*
G01*
X137853000Y-66871001D01*
G75*
G02*
X137603001Y-67121000I-249999J0D01*
G01*
X136952999Y-67121000D01*
G75*
G02*
X136703000Y-66871001I0J249999D01*
G01*
G37*
G04 #@! TD.AperFunction*
G04 #@! TD*
G04 #@! TO.P,R37,2*
G04 #@! TO.N,Net-(C13-Pad1)*
G04 #@! TA.AperFunction,SMDPad,CuDef*
G36*
G01*
X138744000Y-55695001D02*
X138744000Y-54794999D01*
G75*
G02*
X138993999Y-54545000I249999J0D01*
G01*
X139644001Y-54545000D01*
G75*
G02*
X139894000Y-54794999I0J-249999D01*
G01*
X139894000Y-55695001D01*
G75*
G02*
X139644001Y-55945000I-249999J0D01*
G01*
X138993999Y-55945000D01*
G75*
G02*
X138744000Y-55695001I0J249999D01*
G01*
G37*
G04 #@! TD.AperFunction*
G04 #@! TO.P,R37,1*
G04 #@! TO.N,Net-(C13-Pad2)*
G04 #@! TA.AperFunction,SMDPad,CuDef*
G36*
G01*
X136694000Y-55695001D02*
X136694000Y-54794999D01*
G75*
G02*
X136943999Y-54545000I249999J0D01*
G01*
X137594001Y-54545000D01*
G75*
G02*
X137844000Y-54794999I0J-249999D01*
G01*
X137844000Y-55695001D01*
G75*
G02*
X137594001Y-55945000I-249999J0D01*
G01*
X136943999Y-55945000D01*
G75*
G02*
X136694000Y-55695001I0J249999D01*
G01*
G37*
G04 #@! TD.AperFunction*
G04 #@! TD*
G04 #@! TO.P,R38,2*
G04 #@! TO.N,Net-(C16-Pad2)*
G04 #@! TA.AperFunction,SMDPad,CuDef*
G36*
G01*
X185986000Y-93275999D02*
X185986000Y-94176001D01*
G75*
G02*
X185736001Y-94426000I-249999J0D01*
G01*
X185085999Y-94426000D01*
G75*
G02*
X184836000Y-94176001I0J249999D01*
G01*
X184836000Y-93275999D01*
G75*
G02*
X185085999Y-93026000I249999J0D01*
G01*
X185736001Y-93026000D01*
G75*
G02*
X185986000Y-93275999I0J-249999D01*
G01*
G37*
G04 #@! TD.AperFunction*
G04 #@! TO.P,R38,1*
G04 #@! TO.N,Net-(C16-Pad1)*
G04 #@! TA.AperFunction,SMDPad,CuDef*
G36*
G01*
X188036000Y-93275999D02*
X188036000Y-94176001D01*
G75*
G02*
X187786001Y-94426000I-249999J0D01*
G01*
X187135999Y-94426000D01*
G75*
G02*
X186886000Y-94176001I0J249999D01*
G01*
X186886000Y-93275999D01*
G75*
G02*
X187135999Y-93026000I249999J0D01*
G01*
X187786001Y-93026000D01*
G75*
G02*
X188036000Y-93275999I0J-249999D01*
G01*
G37*
G04 #@! TD.AperFunction*
G04 #@! TD*
G04 #@! TO.P,R39,1*
G04 #@! TO.N,Net-(C18-Pad2)*
G04 #@! TA.AperFunction,SMDPad,CuDef*
G36*
G01*
X190923000Y-78428001D02*
X190923000Y-77527999D01*
G75*
G02*
X191172999Y-77278000I249999J0D01*
G01*
X191823001Y-77278000D01*
G75*
G02*
X192073000Y-77527999I0J-249999D01*
G01*
X192073000Y-78428001D01*
G75*
G02*
X191823001Y-78678000I-249999J0D01*
G01*
X191172999Y-78678000D01*
G75*
G02*
X190923000Y-78428001I0J249999D01*
G01*
G37*
G04 #@! TD.AperFunction*
G04 #@! TO.P,R39,2*
G04 #@! TO.N,Net-(C18-Pad1)*
G04 #@! TA.AperFunction,SMDPad,CuDef*
G36*
G01*
X192973000Y-78428001D02*
X192973000Y-77527999D01*
G75*
G02*
X193222999Y-77278000I249999J0D01*
G01*
X193873001Y-77278000D01*
G75*
G02*
X194123000Y-77527999I0J-249999D01*
G01*
X194123000Y-78428001D01*
G75*
G02*
X193873001Y-78678000I-249999J0D01*
G01*
X193222999Y-78678000D01*
G75*
G02*
X192973000Y-78428001I0J249999D01*
G01*
G37*
G04 #@! TD.AperFunction*
G04 #@! TD*
G04 #@! TO.P,FB1,1*
G04 #@! TO.N,+5VA*
G04 #@! TA.AperFunction,SMDPad,CuDef*
G36*
G01*
X184663501Y-72711000D02*
X183763499Y-72711000D01*
G75*
G02*
X183513500Y-72461001I0J249999D01*
G01*
X183513500Y-71810999D01*
G75*
G02*
X183763499Y-71561000I249999J0D01*
G01*
X184663501Y-71561000D01*
G75*
G02*
X184913500Y-71810999I0J-249999D01*
G01*
X184913500Y-72461001D01*
G75*
G02*
X184663501Y-72711000I-249999J0D01*
G01*
G37*
G04 #@! TD.AperFunction*
G04 #@! TO.P,FB1,2*
G04 #@! TO.N,/+5V_OUT*
G04 #@! TA.AperFunction,SMDPad,CuDef*
G36*
G01*
X184663501Y-70661000D02*
X183763499Y-70661000D01*
G75*
G02*
X183513500Y-70411001I0J249999D01*
G01*
X183513500Y-69760999D01*
G75*
G02*
X183763499Y-69511000I249999J0D01*
G01*
X184663501Y-69511000D01*
G75*
G02*
X184913500Y-69760999I0J-249999D01*
G01*
X184913500Y-70411001D01*
G75*
G02*
X184663501Y-70661000I-249999J0D01*
G01*
G37*
G04 #@! TD.AperFunction*
G04 #@! TD*
G04 #@! TO.P,FB2,2*
G04 #@! TO.N,/-5V_OUT*
G04 #@! TA.AperFunction,SMDPad,CuDef*
G36*
G01*
X181742501Y-70724500D02*
X180842499Y-70724500D01*
G75*
G02*
X180592500Y-70474501I0J249999D01*
G01*
X180592500Y-69824499D01*
G75*
G02*
X180842499Y-69574500I249999J0D01*
G01*
X181742501Y-69574500D01*
G75*
G02*
X181992500Y-69824499I0J-249999D01*
G01*
X181992500Y-70474501D01*
G75*
G02*
X181742501Y-70724500I-249999J0D01*
G01*
G37*
G04 #@! TD.AperFunction*
G04 #@! TO.P,FB2,1*
G04 #@! TO.N,-5VA*
G04 #@! TA.AperFunction,SMDPad,CuDef*
G36*
G01*
X181742501Y-72774500D02*
X180842499Y-72774500D01*
G75*
G02*
X180592500Y-72524501I0J249999D01*
G01*
X180592500Y-71874499D01*
G75*
G02*
X180842499Y-71624500I249999J0D01*
G01*
X181742501Y-71624500D01*
G75*
G02*
X181992500Y-71874499I0J-249999D01*
G01*
X181992500Y-72524501D01*
G75*
G02*
X181742501Y-72774500I-249999J0D01*
G01*
G37*
G04 #@! TD.AperFunction*
G04 #@! TD*
G04 #@! TO.P,FB3,1*
G04 #@! TO.N,GNDA*
G04 #@! TA.AperFunction,SMDPad,CuDef*
G36*
G01*
X178758001Y-72720000D02*
X177857999Y-72720000D01*
G75*
G02*
X177608000Y-72470001I0J249999D01*
G01*
X177608000Y-71819999D01*
G75*
G02*
X177857999Y-71570000I249999J0D01*
G01*
X178758001Y-71570000D01*
G75*
G02*
X179008000Y-71819999I0J-249999D01*
G01*
X179008000Y-72470001D01*
G75*
G02*
X178758001Y-72720000I-249999J0D01*
G01*
G37*
G04 #@! TD.AperFunction*
G04 #@! TO.P,FB3,2*
G04 #@! TO.N,GND*
G04 #@! TA.AperFunction,SMDPad,CuDef*
G36*
G01*
X178758001Y-70670000D02*
X177857999Y-70670000D01*
G75*
G02*
X177608000Y-70420001I0J249999D01*
G01*
X177608000Y-69769999D01*
G75*
G02*
X177857999Y-69520000I249999J0D01*
G01*
X178758001Y-69520000D01*
G75*
G02*
X179008000Y-69769999I0J-249999D01*
G01*
X179008000Y-70420001D01*
G75*
G02*
X178758001Y-70670000I-249999J0D01*
G01*
G37*
G04 #@! TD.AperFunction*
G04 #@! TD*
D21*
G04 #@! TO.N,GND*
X183515000Y-54102000D03*
X184975500Y-55308500D03*
X189865000Y-54483000D03*
X193675000Y-54483000D03*
X183642000Y-62865000D03*
X180403500Y-54356000D03*
G04 #@! TO.N,+5V*
X186563000Y-55372000D03*
X187706000Y-59436000D03*
X183642000Y-50419000D03*
X180594002Y-56388000D03*
G04 #@! TO.N,Net-(C6-Pad1)*
X143383000Y-84455000D03*
G04 #@! TO.N,Net-(C7-Pad1)*
X142494000Y-73279000D03*
G04 #@! TO.N,Net-(C8-Pad1)*
X142621000Y-62103000D03*
G04 #@! TO.N,Net-(C9-Pad1)*
X142621000Y-50927000D03*
G04 #@! TO.N,Net-(R19-Pad1)*
X181864000Y-85217000D03*
X178054000Y-91694000D03*
G04 #@! TO.N,Net-(R23-Pad1)*
X183787000Y-90950000D03*
X179870990Y-84074000D03*
G04 #@! TO.N,/+5V_OUT*
X191262000Y-65532000D03*
X186372500Y-65849500D03*
G04 #@! TO.N,/-5V_OUT*
X181356000Y-60579000D03*
X191135000Y-50165000D03*
X181356000Y-64833500D03*
G04 #@! TO.N,GNDA*
X176403000Y-85725000D03*
X178308000Y-80137000D03*
X181394990Y-87047352D03*
G04 #@! TD*
D22*
G04 #@! TO.N,Net-(C1-Pad1)*
X188472000Y-57535000D02*
X189230000Y-58293000D01*
X186497000Y-57535000D02*
X188472000Y-57535000D01*
G04 #@! TO.N,Net-(C1-Pad2)*
X189230000Y-59886996D02*
X189230000Y-60343000D01*
X187378004Y-58035000D02*
X189230000Y-59886996D01*
X186497000Y-58035000D02*
X187378004Y-58035000D01*
G04 #@! TO.N,GND*
X185097000Y-56535000D02*
X185547000Y-56985000D01*
X185547000Y-56985000D02*
X185547000Y-57785000D01*
X184597000Y-56535000D02*
X185097000Y-56535000D01*
D23*
X181864000Y-54347000D02*
X183270000Y-54347000D01*
X183270000Y-54347000D02*
X183515000Y-54102000D01*
X185810000Y-54474000D02*
X184975500Y-55308500D01*
X188341000Y-54474000D02*
X185810000Y-54474000D01*
D22*
X182617000Y-62620000D02*
X182626000Y-62611000D01*
X183388000Y-62611000D02*
X183642000Y-62865000D01*
X182626000Y-62611000D02*
X183388000Y-62611000D01*
X184268000Y-62865000D02*
X184522000Y-63119000D01*
X183642000Y-62865000D02*
X184268000Y-62865000D01*
X185297000Y-58035000D02*
X185547000Y-57785000D01*
X184597000Y-58035000D02*
X185297000Y-58035000D01*
X198237000Y-55675500D02*
X197237000Y-56675500D01*
X198237000Y-53911500D02*
X198237000Y-55675500D01*
X200787000Y-61013500D02*
X200777000Y-61023500D01*
X200777000Y-61023500D02*
X199961500Y-61023500D01*
X198945500Y-62039500D02*
X198237000Y-62039500D01*
D23*
X188341000Y-54474000D02*
X189856000Y-54474000D01*
D22*
X189856000Y-54474000D02*
X189865000Y-54483000D01*
X193675000Y-54483000D02*
X193675000Y-55626000D01*
X194724500Y-56675500D02*
X197237000Y-56675500D01*
X193675000Y-55626000D02*
X194724500Y-56675500D01*
X200669000Y-61131500D02*
X200777000Y-61023500D01*
X200669000Y-65532000D02*
X200669000Y-61131500D01*
X200551000Y-54691500D02*
X200787000Y-54927500D01*
X200551000Y-50165000D02*
X200551000Y-54691500D01*
D23*
X179959000Y-62620000D02*
X182617000Y-62620000D01*
X182490000Y-52197000D02*
X182490000Y-52841000D01*
X181864000Y-53467000D02*
X181864000Y-54347000D01*
X182490000Y-52841000D02*
X181864000Y-53467000D01*
X197665500Y-54483000D02*
X198237000Y-53911500D01*
X193675000Y-54483000D02*
X197665500Y-54483000D01*
X200787000Y-54927500D02*
X200787000Y-61013500D01*
X199761000Y-62039500D02*
X200777000Y-61023500D01*
X198237000Y-62039500D02*
X199761000Y-62039500D01*
X199771000Y-53911500D02*
X200787000Y-54927500D01*
X198237000Y-53911500D02*
X199771000Y-53911500D01*
X178308000Y-62230000D02*
X178308000Y-58166000D01*
X179959000Y-62620000D02*
X178698000Y-62620000D01*
X178698000Y-62620000D02*
X178308000Y-62230000D01*
X178943000Y-54347000D02*
X177428000Y-54347000D01*
X177428000Y-54347000D02*
X177165000Y-54610000D01*
X177165000Y-57023000D02*
X178308000Y-58166000D01*
X177165000Y-54610000D02*
X177165000Y-57023000D01*
X178562000Y-58547000D02*
X180775500Y-58547000D01*
X178308000Y-58166000D02*
X178308000Y-58293000D01*
X178308000Y-58293000D02*
X178562000Y-58547000D01*
X180403500Y-54356000D02*
X181864000Y-54347000D01*
X178943000Y-54347000D02*
X180412500Y-54347000D01*
X180412500Y-54347000D02*
X180403500Y-54356000D01*
X178308000Y-68008500D02*
X178308000Y-70095000D01*
X179895500Y-66421000D02*
X178308000Y-68008500D01*
X179959000Y-62620000D02*
X179895500Y-62683500D01*
X179895500Y-62683500D02*
X179895500Y-66421000D01*
D22*
G04 #@! TO.N,+5V*
X184597000Y-57535000D02*
X183702000Y-57535000D01*
X182564000Y-56397000D02*
X181864000Y-56397000D01*
X183702000Y-57535000D02*
X182564000Y-56397000D01*
X186497000Y-56535000D02*
X186497000Y-55438000D01*
X186497000Y-55438000D02*
X186563000Y-55372000D01*
X181855000Y-56388000D02*
X181864000Y-56397000D01*
X186497000Y-58535000D02*
X186997000Y-58535000D01*
X186997000Y-58535000D02*
X187706000Y-59244000D01*
X187706000Y-59244000D02*
X187706000Y-59436000D01*
X183642000Y-49013000D02*
X183887000Y-48768000D01*
D23*
X183642000Y-50419000D02*
X183642000Y-49013000D01*
D22*
X195471000Y-69832000D02*
X195580000Y-69723000D01*
D23*
X192151000Y-69832000D02*
X195471000Y-69832000D01*
X178943000Y-56397000D02*
X180585002Y-56397000D01*
X180585002Y-56397000D02*
X180594002Y-56388000D01*
X181855000Y-56388000D02*
X180594002Y-56388000D01*
D22*
G04 #@! TO.N,Net-(C3-Pad1)*
X182837500Y-58535000D02*
X182825500Y-58547000D01*
X184597000Y-58535000D02*
X182837500Y-58535000D01*
D23*
G04 #@! TO.N,+5VA*
X182127000Y-78604000D02*
X182118000Y-78613000D01*
X182127000Y-76454000D02*
X182127000Y-78604000D01*
X182118000Y-78613000D02*
X182118000Y-80772000D01*
X183550000Y-83185000D02*
X182499000Y-83185000D01*
X182118000Y-82804000D02*
X182118000Y-80772000D01*
X182499000Y-83185000D02*
X182118000Y-82804000D01*
X182127000Y-76454000D02*
X182127000Y-76191000D01*
X184213500Y-74104500D02*
X184213500Y-72136000D01*
X182127000Y-76191000D02*
X184213500Y-74104500D01*
G04 #@! TO.N,-5VA*
X180077000Y-78604000D02*
X180068000Y-78613000D01*
X180077000Y-76454000D02*
X180077000Y-78604000D01*
X180068000Y-78613000D02*
X180068000Y-80772000D01*
X180213000Y-80917000D02*
X180068000Y-80772000D01*
X180213000Y-82169000D02*
X180213000Y-80917000D01*
X180721000Y-82677000D02*
X180213000Y-82169000D01*
X180721000Y-86106000D02*
X180721000Y-82677000D01*
X178400000Y-86995000D02*
X179832000Y-86995000D01*
X179832000Y-86995000D02*
X180721000Y-86106000D01*
X181292500Y-72199500D02*
X181292500Y-73660000D01*
X180077000Y-74875500D02*
X180077000Y-76454000D01*
X181292500Y-73660000D02*
X180077000Y-74875500D01*
G04 #@! TO.N,Net-(C6-Pad2)*
X125501000Y-84632000D02*
X125501000Y-90932000D01*
X134874000Y-84582000D02*
X137396000Y-84582000D01*
X132969000Y-82677000D02*
X134874000Y-84582000D01*
X125501000Y-84632000D02*
X127456000Y-82677000D01*
X127456000Y-82677000D02*
X132969000Y-82677000D01*
X137396000Y-86596000D02*
X137414000Y-86614000D01*
X137396000Y-84582000D02*
X137396000Y-86596000D01*
G04 #@! TO.N,Net-(C6-Pad1)*
X167885000Y-86877000D02*
X166624000Y-88138000D01*
X167885000Y-84201000D02*
X167885000Y-86877000D01*
X139446000Y-84582000D02*
X143256000Y-84582000D01*
X143256000Y-84582000D02*
X143383000Y-84455000D01*
X139446000Y-86596000D02*
X139464000Y-86614000D01*
X139446000Y-84582000D02*
X139446000Y-86596000D01*
G04 #@! TO.N,Net-(C7-Pad2)*
X125501000Y-73405332D02*
X125501000Y-79705332D01*
X126111000Y-71501000D02*
X132842000Y-71501000D01*
X125501000Y-73405332D02*
X125501000Y-72111000D01*
X134704666Y-73363666D02*
X137396000Y-73363666D01*
X132842000Y-71501000D02*
X134704666Y-73363666D01*
X125501000Y-72111000D02*
X126111000Y-71501000D01*
X137396000Y-75420000D02*
X137414000Y-75438000D01*
X137396000Y-73363666D02*
X137396000Y-75420000D01*
G04 #@! TO.N,Net-(C7-Pad1)*
X167885000Y-73796000D02*
X166624000Y-75057000D01*
X167885000Y-71120000D02*
X167885000Y-73796000D01*
X139446000Y-73363666D02*
X142409334Y-73363666D01*
X142409334Y-73363666D02*
X142494000Y-73279000D01*
X139464000Y-73381666D02*
X139446000Y-73363666D01*
X139464000Y-75438000D02*
X139464000Y-73381666D01*
G04 #@! TO.N,Net-(C8-Pad2)*
X125501000Y-62178666D02*
X125501000Y-68478666D01*
X135297333Y-62145333D02*
X137396000Y-62145333D01*
X132842000Y-59690000D02*
X135297333Y-62145333D01*
X125501000Y-62178666D02*
X127989666Y-59690000D01*
X127989666Y-59690000D02*
X132842000Y-59690000D01*
X137396000Y-64117000D02*
X137414000Y-64135000D01*
X137396000Y-62145333D02*
X137396000Y-64117000D01*
G04 #@! TO.N,Net-(C8-Pad1)*
X167885000Y-60715000D02*
X166624000Y-61976000D01*
X167885000Y-58039000D02*
X167885000Y-60715000D01*
X139446000Y-62145333D02*
X142578667Y-62145333D01*
X142578667Y-62145333D02*
X142621000Y-62103000D01*
X139464000Y-62163333D02*
X139446000Y-62145333D01*
X139464000Y-64135000D02*
X139464000Y-62163333D01*
G04 #@! TO.N,Net-(C9-Pad2)*
X125501000Y-50952000D02*
X125501000Y-57252000D01*
X125501000Y-50952000D02*
X128066000Y-48387000D01*
X128066000Y-48387000D02*
X132842000Y-48387000D01*
X135382000Y-50927000D02*
X137396000Y-50927000D01*
X132842000Y-48387000D02*
X135382000Y-50927000D01*
X137396000Y-50927000D02*
X137396000Y-52959000D01*
G04 #@! TO.N,Net-(C9-Pad1)*
X167885000Y-47634000D02*
X166624000Y-48895000D01*
X167885000Y-44958000D02*
X167885000Y-47634000D01*
X139446000Y-50927000D02*
X142621000Y-50927000D01*
X139446000Y-52959000D02*
X139446000Y-50927000D01*
G04 #@! TO.N,Net-(C10-Pad1)*
X150359000Y-87004000D02*
X149098000Y-88265000D01*
X150359000Y-84328000D02*
X150359000Y-87004000D01*
X146431000Y-90932000D02*
X149098000Y-88265000D01*
X139328000Y-90932000D02*
X146431000Y-90932000D01*
X139328000Y-88909000D02*
X139319000Y-88900000D01*
X139328000Y-90932000D02*
X139328000Y-88909000D01*
G04 #@! TO.N,Net-(C10-Pad2)*
X130683000Y-89250000D02*
X129001000Y-90932000D01*
X129001000Y-84632000D02*
X130683000Y-86314000D01*
X130683000Y-86314000D02*
X130683000Y-89250000D01*
X129001000Y-90932000D02*
X137278000Y-90932000D01*
X137269000Y-90923000D02*
X137278000Y-90932000D01*
X137269000Y-88900000D02*
X137269000Y-90923000D01*
G04 #@! TO.N,Net-(C11-Pad1)*
X150223000Y-74016666D02*
X149098000Y-75141666D01*
X150223000Y-71204666D02*
X150223000Y-74016666D01*
X144526000Y-79713666D02*
X149098000Y-75141666D01*
X139328000Y-79713666D02*
X144526000Y-79713666D01*
X139319000Y-79704666D02*
X139328000Y-79713666D01*
X139319000Y-77724000D02*
X139319000Y-79704666D01*
G04 #@! TO.N,Net-(C11-Pad2)*
X129001000Y-73405332D02*
X130683000Y-75087332D01*
X130683000Y-78023332D02*
X129001000Y-79705332D01*
X130683000Y-75087332D02*
X130683000Y-78023332D01*
X137269666Y-79705332D02*
X137278000Y-79713666D01*
X129001000Y-79705332D02*
X137269666Y-79705332D01*
X137278000Y-77733000D02*
X137269000Y-77724000D01*
X137278000Y-79713666D02*
X137278000Y-77733000D01*
G04 #@! TO.N,Net-(C12-Pad1)*
X150223000Y-60893333D02*
X149098000Y-62018333D01*
X150223000Y-58081333D02*
X150223000Y-60893333D01*
X142621000Y-68495333D02*
X149098000Y-62018333D01*
X139328000Y-68495333D02*
X142621000Y-68495333D01*
X139328000Y-68495333D02*
X139328000Y-66421000D01*
G04 #@! TO.N,Net-(C12-Pad2)*
X130683000Y-66796666D02*
X129001000Y-68478666D01*
X129001000Y-62178666D02*
X130683000Y-63860666D01*
X130683000Y-63860666D02*
X130683000Y-66796666D01*
X137261333Y-68478666D02*
X137278000Y-68495333D01*
X129001000Y-68478666D02*
X137261333Y-68478666D01*
X137278000Y-66421000D02*
X137278000Y-68495333D01*
G04 #@! TO.N,Net-(C13-Pad2)*
X130556000Y-55697000D02*
X129001000Y-57252000D01*
X129001000Y-50952000D02*
X130556000Y-52507000D01*
X130556000Y-52507000D02*
X130556000Y-55697000D01*
X137253000Y-57252000D02*
X137278000Y-57277000D01*
X129001000Y-57252000D02*
X137253000Y-57252000D01*
X137269000Y-57268000D02*
X137278000Y-57277000D01*
X137269000Y-55245000D02*
X137269000Y-57268000D01*
G04 #@! TO.N,Net-(C13-Pad1)*
X150350000Y-47643000D02*
X149098000Y-48895000D01*
X150350000Y-44958000D02*
X150350000Y-47643000D01*
X140716000Y-57277000D02*
X149098000Y-48895000D01*
X139328000Y-57277000D02*
X140716000Y-57277000D01*
X139328000Y-55254000D02*
X139319000Y-55245000D01*
X139328000Y-57277000D02*
X139328000Y-55254000D01*
G04 #@! TO.N,Net-(C16-Pad2)*
X185411000Y-93726000D02*
X185411000Y-91694000D01*
X185411000Y-91694000D02*
X185411000Y-90687000D01*
X185801000Y-90297000D02*
X185801000Y-89027000D01*
X185411000Y-90687000D02*
X185801000Y-90297000D01*
D24*
G04 #@! TO.N,Net-(C16-Pad1)*
X197079000Y-90272000D02*
X197079000Y-83972000D01*
D23*
X197079000Y-92050000D02*
X196800000Y-92329000D01*
X196800000Y-92329000D02*
X189212000Y-92329000D01*
D24*
X197079000Y-90272000D02*
X197079000Y-92050000D01*
D23*
X187461000Y-91694000D02*
X187461000Y-93726000D01*
X188577000Y-91694000D02*
X189212000Y-92329000D01*
X187461000Y-91694000D02*
X188577000Y-91694000D01*
D22*
G04 #@! TO.N,Net-(C18-Pad1)*
X193548000Y-83941000D02*
X193579000Y-83972000D01*
D23*
X193548000Y-80137000D02*
X193548000Y-83941000D01*
X193579000Y-83972000D02*
X191770000Y-85781000D01*
X191770000Y-88463000D02*
X193579000Y-90272000D01*
X191770000Y-85781000D02*
X191770000Y-88463000D01*
X193548000Y-77978000D02*
X193548000Y-80137000D01*
G04 #@! TO.N,Net-(C18-Pad2)*
X189357000Y-80137000D02*
X191498000Y-80137000D01*
X191498000Y-77978000D02*
X191498000Y-80137000D01*
D22*
G04 #@! TO.N,Net-(J5-Pad1)*
X192532000Y-72263000D02*
X192151000Y-71882000D01*
D23*
X195580000Y-72263000D02*
X192532000Y-72263000D01*
D22*
X194978500Y-59275500D02*
X197237000Y-59275500D01*
D23*
X189611000Y-64643000D02*
X194978500Y-59275500D01*
X189611000Y-70993000D02*
X189611000Y-64643000D01*
X192151000Y-71882000D02*
X190500000Y-71882000D01*
X190500000Y-71882000D02*
X189611000Y-70993000D01*
D22*
G04 #@! TO.N,Net-(R3-Pad1)*
X184597000Y-57035000D02*
X183908000Y-57035000D01*
X183908000Y-57035000D02*
X183642000Y-56769000D01*
X183642000Y-56769000D02*
X183642000Y-55372000D01*
X183642000Y-55372000D02*
X184531000Y-54483000D01*
X184531000Y-52206000D02*
X184540000Y-52197000D01*
X184531000Y-54483000D02*
X184531000Y-52206000D01*
D23*
X186799000Y-52197000D02*
X184540000Y-52197000D01*
D22*
G04 #@! TO.N,Net-(R5-Pad2)*
X186497000Y-61021000D02*
X186563000Y-61087000D01*
X186497000Y-59035000D02*
X186497000Y-61021000D01*
X186572000Y-61096000D02*
X186563000Y-61087000D01*
D23*
X186563000Y-63110000D02*
X186572000Y-63119000D01*
X186563000Y-61087000D02*
X186563000Y-63110000D01*
G04 #@! TO.N,Net-(R22-Pad2)*
X152400000Y-51133000D02*
X152098000Y-51435000D01*
X152400000Y-44958000D02*
X152400000Y-51133000D01*
X152098000Y-51435000D02*
X154922000Y-51435000D01*
G04 #@! TO.N,Net-(R21-Pad2)*
X152098000Y-64558333D02*
X154922000Y-64558333D01*
X152273000Y-64383333D02*
X152098000Y-64558333D01*
X152273000Y-58081333D02*
X152273000Y-64383333D01*
G04 #@! TO.N,Net-(R20-Pad2)*
X152098000Y-77681666D02*
X154922000Y-77681666D01*
X152273000Y-77506666D02*
X152098000Y-77681666D01*
X152273000Y-71204666D02*
X152273000Y-77506666D01*
G04 #@! TO.N,Net-(R10-Pad1)*
X152098000Y-90805000D02*
X154922000Y-90805000D01*
X152409000Y-90494000D02*
X152098000Y-90805000D01*
X152409000Y-84328000D02*
X152409000Y-90494000D01*
G04 #@! TO.N,Net-(R11-Pad1)*
X169624000Y-90678000D02*
X172584000Y-90678000D01*
X169935000Y-90367000D02*
X169624000Y-90678000D01*
X169935000Y-84201000D02*
X169935000Y-90367000D01*
G04 #@! TO.N,Net-(R12-Pad1)*
X169624000Y-77597000D02*
X172584000Y-77597000D01*
X169935000Y-77286000D02*
X169624000Y-77597000D01*
X169935000Y-71120000D02*
X169935000Y-77286000D01*
G04 #@! TO.N,Net-(R13-Pad1)*
X169624000Y-64516000D02*
X172584000Y-64516000D01*
X169935000Y-64205000D02*
X169624000Y-64516000D01*
X169935000Y-58039000D02*
X169935000Y-64205000D01*
G04 #@! TO.N,Net-(R14-Pad1)*
X169624000Y-51435000D02*
X172584000Y-51435000D01*
X169935000Y-51124000D02*
X169624000Y-51435000D01*
X169935000Y-44958000D02*
X169935000Y-51124000D01*
G04 #@! TO.N,Net-(R15-Pad1)*
X174634000Y-51435000D02*
X174634000Y-64516000D01*
X174634000Y-64516000D02*
X174634000Y-77597000D01*
X174634000Y-77597000D02*
X174634000Y-84210000D01*
X174634000Y-84210000D02*
X174634000Y-90678000D01*
X179941000Y-90678000D02*
X180195000Y-90932000D01*
X174634000Y-90678000D02*
X179941000Y-90678000D01*
X174879000Y-84455000D02*
X174634000Y-84210000D01*
X178400000Y-84455000D02*
X174879000Y-84455000D01*
G04 #@! TO.N,Net-(R19-Pad1)*
X156972000Y-51435000D02*
X156972000Y-64558333D01*
X156972000Y-64558333D02*
X156972000Y-77681666D01*
X156972000Y-77681666D02*
X156972000Y-90805000D01*
X186944000Y-81425000D02*
X186944000Y-84836000D01*
X186055000Y-85725000D02*
X183550000Y-85725000D01*
X186944000Y-84836000D02*
X186055000Y-85725000D01*
X183550000Y-85725000D02*
X182372000Y-85725000D01*
X182372000Y-85725000D02*
X181864000Y-85217000D01*
X178054000Y-91694000D02*
X178054000Y-92837000D01*
X178054000Y-92837000D02*
X174371000Y-96520000D01*
X174371000Y-96520000D02*
X159766000Y-96520000D01*
X156972000Y-93726000D02*
X156972000Y-90805000D01*
X159766000Y-96520000D02*
X156972000Y-93726000D01*
D22*
G04 #@! TO.N,Net-(R23-Pad1)*
X182263000Y-90950000D02*
X182245000Y-90932000D01*
D23*
X178981990Y-83185000D02*
X179870990Y-84074000D01*
X178400000Y-83185000D02*
X178981990Y-83185000D01*
X183787000Y-90950000D02*
X182263000Y-90950000D01*
X183751000Y-90914000D02*
X183787000Y-90950000D01*
X183751000Y-89027000D02*
X183751000Y-90914000D01*
D22*
G04 #@! TO.N,Net-(R24-Pad1)*
X189112000Y-77842000D02*
X189357000Y-78087000D01*
D23*
X186944000Y-79375000D02*
X188087000Y-78232000D01*
X189212000Y-78232000D02*
X189357000Y-78087000D01*
X188087000Y-78232000D02*
X189212000Y-78232000D01*
X185674000Y-79375000D02*
X186944000Y-79375000D01*
X185293000Y-79756000D02*
X185674000Y-79375000D01*
X183550000Y-84455000D02*
X185293000Y-84455000D01*
X185293000Y-84455000D02*
X185293000Y-79756000D01*
D22*
G04 #@! TO.N,Net-(D1-Pad2)*
X198619000Y-65532000D02*
X195834000Y-65532000D01*
G04 #@! TO.N,Net-(D2-Pad1)*
X198501000Y-50165000D02*
X195589000Y-50165000D01*
G04 #@! TO.N,/+5V_OUT*
X187830000Y-57035000D02*
X188341000Y-56524000D01*
X186497000Y-57035000D02*
X187830000Y-57035000D01*
D23*
X188341000Y-56524000D02*
X190745000Y-56524000D01*
X190745000Y-56524000D02*
X191389000Y-55880000D01*
X191389000Y-55880000D02*
X191389000Y-52832000D01*
X190754000Y-52197000D02*
X188849000Y-52197000D01*
X191389000Y-52832000D02*
X190754000Y-52197000D01*
X191135000Y-56914000D02*
X190745000Y-56524000D01*
X191135000Y-61087000D02*
X191135000Y-56914000D01*
X193784000Y-65532000D02*
X191262000Y-65532000D01*
X188849000Y-51943000D02*
X188849000Y-52197000D01*
X185937000Y-48768000D02*
X185937000Y-49031000D01*
X185937000Y-49031000D02*
X188849000Y-51943000D01*
X184213500Y-68008500D02*
X186372500Y-65849500D01*
X184213500Y-70086000D02*
X184213500Y-68008500D01*
X186372500Y-65849500D02*
X187579000Y-65849500D01*
X187579000Y-65849500D02*
X188595000Y-64833500D01*
X188595000Y-63627000D02*
X191135000Y-61087000D01*
X188595000Y-64833500D02*
X188595000Y-63627000D01*
D22*
G04 #@! TO.N,/-5V_OUT*
X184597000Y-61003000D02*
X184513000Y-61087000D01*
X184597000Y-59035000D02*
X184597000Y-61003000D01*
X179968000Y-60561000D02*
X179959000Y-60570000D01*
X182771000Y-60706000D02*
X182626000Y-60561000D01*
X183515000Y-60706000D02*
X182771000Y-60706000D01*
X184513000Y-61087000D02*
X183896000Y-61087000D01*
X183896000Y-61087000D02*
X183515000Y-60706000D01*
D23*
X181338000Y-60561000D02*
X181356000Y-60579000D01*
X181356000Y-60579000D02*
X179968000Y-60561000D01*
X182626000Y-60561000D02*
X181247000Y-60561000D01*
X181247000Y-60561000D02*
X181338000Y-60561000D01*
X181247000Y-60561000D02*
X181356000Y-60579000D01*
X193539000Y-50165000D02*
X191135000Y-50165000D01*
X181292500Y-64897000D02*
X181356000Y-64833500D01*
X181292500Y-70149500D02*
X181292500Y-64897000D01*
G04 #@! TO.N,GNDA*
X122301000Y-73405332D02*
X122301000Y-68478666D01*
X121301001Y-63178665D02*
X122301000Y-62178666D01*
X121301001Y-67478667D02*
X121301001Y-63178665D01*
X122301000Y-68478666D02*
X121301001Y-67478667D01*
X122301000Y-62178666D02*
X122301000Y-57252000D01*
X121301001Y-51951999D02*
X122301000Y-50952000D01*
X121301001Y-56252001D02*
X121301001Y-51951999D01*
X122301000Y-57252000D02*
X121301001Y-56252001D01*
X178400000Y-85725000D02*
X176403000Y-85725000D01*
X121301001Y-85631999D02*
X122301000Y-84632000D01*
X122301000Y-90932000D02*
X121301001Y-89932001D01*
X121301001Y-89932001D02*
X121301001Y-85631999D01*
X122301000Y-84632000D02*
X122301000Y-79705332D01*
X121301001Y-74405331D02*
X122301000Y-73405332D01*
X122301000Y-79705332D02*
X121301001Y-78705333D01*
X121301001Y-78705333D02*
X121301001Y-74405331D01*
X166624000Y-53895000D02*
X164799000Y-53895000D01*
X164799000Y-53895000D02*
X161290000Y-57404000D01*
X161290000Y-87804000D02*
X166624000Y-93138000D01*
X161464000Y-80057000D02*
X161290000Y-79883000D01*
X166624000Y-80057000D02*
X161464000Y-80057000D01*
X161290000Y-79883000D02*
X161290000Y-87804000D01*
X161370000Y-66976000D02*
X161290000Y-67056000D01*
X166624000Y-66976000D02*
X161370000Y-66976000D01*
X161290000Y-57404000D02*
X161290000Y-67056000D01*
X161290000Y-67056000D02*
X161290000Y-79883000D01*
X200279000Y-83972000D02*
X201278999Y-84971999D01*
X201278999Y-89272001D02*
X200279000Y-90272000D01*
X201278999Y-84971999D02*
X201278999Y-89272001D01*
X181447342Y-86995000D02*
X181394990Y-87047352D01*
X183550000Y-86995000D02*
X181447342Y-86995000D01*
X178308000Y-80137000D02*
X178308000Y-72145000D01*
G04 #@! TD*
M02*
