G04 #@! TF.GenerationSoftware,KiCad,Pcbnew,5.1.6-c6e7f7d~87~ubuntu18.04.1*
G04 #@! TF.CreationDate,2020-09-10T19:55:48-05:00*
G04 #@! TF.ProjectId,MiniStereoMixer,4d696e69-5374-4657-9265-6f4d69786572,rev?*
G04 #@! TF.SameCoordinates,Original*
G04 #@! TF.FileFunction,Paste,Top*
G04 #@! TF.FilePolarity,Positive*
%FSLAX46Y46*%
G04 Gerber Fmt 4.6, Leading zero omitted, Abs format (unit mm)*
G04 Created by KiCad (PCBNEW 5.1.6-c6e7f7d~87~ubuntu18.04.1) date 2020-09-10 19:55:48*
%MOMM*%
%LPD*%
G01*
G04 APERTURE LIST*
%ADD10R,3.600000X0.400000*%
%ADD11R,1.120000X2.100000*%
%ADD12R,1.520000X4.000000*%
%ADD13R,0.500000X0.250000*%
%ADD14R,0.950000X0.800000*%
G04 APERTURE END LIST*
G04 #@! TO.C,C1*
G36*
G01*
X188779999Y-57718000D02*
X189680001Y-57718000D01*
G75*
G02*
X189930000Y-57967999I0J-249999D01*
G01*
X189930000Y-58618001D01*
G75*
G02*
X189680001Y-58868000I-249999J0D01*
G01*
X188779999Y-58868000D01*
G75*
G02*
X188530000Y-58618001I0J249999D01*
G01*
X188530000Y-57967999D01*
G75*
G02*
X188779999Y-57718000I249999J0D01*
G01*
G37*
G36*
G01*
X188779999Y-59768000D02*
X189680001Y-59768000D01*
G75*
G02*
X189930000Y-60017999I0J-249999D01*
G01*
X189930000Y-60668001D01*
G75*
G02*
X189680001Y-60918000I-249999J0D01*
G01*
X188779999Y-60918000D01*
G75*
G02*
X188530000Y-60668001I0J249999D01*
G01*
X188530000Y-60017999D01*
G75*
G02*
X188779999Y-59768000I249999J0D01*
G01*
G37*
G04 #@! TD*
G04 #@! TO.C,C2*
G36*
G01*
X182314001Y-54922000D02*
X181413999Y-54922000D01*
G75*
G02*
X181164000Y-54672001I0J249999D01*
G01*
X181164000Y-54021999D01*
G75*
G02*
X181413999Y-53772000I249999J0D01*
G01*
X182314001Y-53772000D01*
G75*
G02*
X182564000Y-54021999I0J-249999D01*
G01*
X182564000Y-54672001D01*
G75*
G02*
X182314001Y-54922000I-249999J0D01*
G01*
G37*
G36*
G01*
X182314001Y-56972000D02*
X181413999Y-56972000D01*
G75*
G02*
X181164000Y-56722001I0J249999D01*
G01*
X181164000Y-56071999D01*
G75*
G02*
X181413999Y-55822000I249999J0D01*
G01*
X182314001Y-55822000D01*
G75*
G02*
X182564000Y-56071999I0J-249999D01*
G01*
X182564000Y-56722001D01*
G75*
G02*
X182314001Y-56972000I-249999J0D01*
G01*
G37*
G04 #@! TD*
G04 #@! TO.C,C3*
G36*
G01*
X183400500Y-58096999D02*
X183400500Y-58997001D01*
G75*
G02*
X183150501Y-59247000I-249999J0D01*
G01*
X182500499Y-59247000D01*
G75*
G02*
X182250500Y-58997001I0J249999D01*
G01*
X182250500Y-58096999D01*
G75*
G02*
X182500499Y-57847000I249999J0D01*
G01*
X183150501Y-57847000D01*
G75*
G02*
X183400500Y-58096999I0J-249999D01*
G01*
G37*
G36*
G01*
X181350500Y-58096999D02*
X181350500Y-58997001D01*
G75*
G02*
X181100501Y-59247000I-249999J0D01*
G01*
X180450499Y-59247000D01*
G75*
G02*
X180200500Y-58997001I0J249999D01*
G01*
X180200500Y-58096999D01*
G75*
G02*
X180450499Y-57847000I249999J0D01*
G01*
X181100501Y-57847000D01*
G75*
G02*
X181350500Y-58096999I0J-249999D01*
G01*
G37*
G04 #@! TD*
G04 #@! TO.C,C4*
G36*
G01*
X188791001Y-57099000D02*
X187890999Y-57099000D01*
G75*
G02*
X187641000Y-56849001I0J249999D01*
G01*
X187641000Y-56198999D01*
G75*
G02*
X187890999Y-55949000I249999J0D01*
G01*
X188791001Y-55949000D01*
G75*
G02*
X189041000Y-56198999I0J-249999D01*
G01*
X189041000Y-56849001D01*
G75*
G02*
X188791001Y-57099000I-249999J0D01*
G01*
G37*
G36*
G01*
X188791001Y-55049000D02*
X187890999Y-55049000D01*
G75*
G02*
X187641000Y-54799001I0J249999D01*
G01*
X187641000Y-54148999D01*
G75*
G02*
X187890999Y-53899000I249999J0D01*
G01*
X188791001Y-53899000D01*
G75*
G02*
X189041000Y-54148999I0J-249999D01*
G01*
X189041000Y-54799001D01*
G75*
G02*
X188791001Y-55049000I-249999J0D01*
G01*
G37*
G04 #@! TD*
G04 #@! TO.C,C5*
G36*
G01*
X182175999Y-62036000D02*
X183076001Y-62036000D01*
G75*
G02*
X183326000Y-62285999I0J-249999D01*
G01*
X183326000Y-62936001D01*
G75*
G02*
X183076001Y-63186000I-249999J0D01*
G01*
X182175999Y-63186000D01*
G75*
G02*
X181926000Y-62936001I0J249999D01*
G01*
X181926000Y-62285999D01*
G75*
G02*
X182175999Y-62036000I249999J0D01*
G01*
G37*
G36*
G01*
X182175999Y-59986000D02*
X183076001Y-59986000D01*
G75*
G02*
X183326000Y-60235999I0J-249999D01*
G01*
X183326000Y-60886001D01*
G75*
G02*
X183076001Y-61136000I-249999J0D01*
G01*
X182175999Y-61136000D01*
G75*
G02*
X181926000Y-60886001I0J249999D01*
G01*
X181926000Y-60235999D01*
G75*
G02*
X182175999Y-59986000I249999J0D01*
G01*
G37*
G04 #@! TD*
G04 #@! TO.C,C6*
G36*
G01*
X137971000Y-84131999D02*
X137971000Y-85032001D01*
G75*
G02*
X137721001Y-85282000I-249999J0D01*
G01*
X137070999Y-85282000D01*
G75*
G02*
X136821000Y-85032001I0J249999D01*
G01*
X136821000Y-84131999D01*
G75*
G02*
X137070999Y-83882000I249999J0D01*
G01*
X137721001Y-83882000D01*
G75*
G02*
X137971000Y-84131999I0J-249999D01*
G01*
G37*
G36*
G01*
X140021000Y-84131999D02*
X140021000Y-85032001D01*
G75*
G02*
X139771001Y-85282000I-249999J0D01*
G01*
X139120999Y-85282000D01*
G75*
G02*
X138871000Y-85032001I0J249999D01*
G01*
X138871000Y-84131999D01*
G75*
G02*
X139120999Y-83882000I249999J0D01*
G01*
X139771001Y-83882000D01*
G75*
G02*
X140021000Y-84131999I0J-249999D01*
G01*
G37*
G04 #@! TD*
G04 #@! TO.C,C7*
G36*
G01*
X137971000Y-72913665D02*
X137971000Y-73813667D01*
G75*
G02*
X137721001Y-74063666I-249999J0D01*
G01*
X137070999Y-74063666D01*
G75*
G02*
X136821000Y-73813667I0J249999D01*
G01*
X136821000Y-72913665D01*
G75*
G02*
X137070999Y-72663666I249999J0D01*
G01*
X137721001Y-72663666D01*
G75*
G02*
X137971000Y-72913665I0J-249999D01*
G01*
G37*
G36*
G01*
X140021000Y-72913665D02*
X140021000Y-73813667D01*
G75*
G02*
X139771001Y-74063666I-249999J0D01*
G01*
X139120999Y-74063666D01*
G75*
G02*
X138871000Y-73813667I0J249999D01*
G01*
X138871000Y-72913665D01*
G75*
G02*
X139120999Y-72663666I249999J0D01*
G01*
X139771001Y-72663666D01*
G75*
G02*
X140021000Y-72913665I0J-249999D01*
G01*
G37*
G04 #@! TD*
G04 #@! TO.C,C8*
G36*
G01*
X137971000Y-61695332D02*
X137971000Y-62595334D01*
G75*
G02*
X137721001Y-62845333I-249999J0D01*
G01*
X137070999Y-62845333D01*
G75*
G02*
X136821000Y-62595334I0J249999D01*
G01*
X136821000Y-61695332D01*
G75*
G02*
X137070999Y-61445333I249999J0D01*
G01*
X137721001Y-61445333D01*
G75*
G02*
X137971000Y-61695332I0J-249999D01*
G01*
G37*
G36*
G01*
X140021000Y-61695332D02*
X140021000Y-62595334D01*
G75*
G02*
X139771001Y-62845333I-249999J0D01*
G01*
X139120999Y-62845333D01*
G75*
G02*
X138871000Y-62595334I0J249999D01*
G01*
X138871000Y-61695332D01*
G75*
G02*
X139120999Y-61445333I249999J0D01*
G01*
X139771001Y-61445333D01*
G75*
G02*
X140021000Y-61695332I0J-249999D01*
G01*
G37*
G04 #@! TD*
G04 #@! TO.C,C9*
G36*
G01*
X137971000Y-50476999D02*
X137971000Y-51377001D01*
G75*
G02*
X137721001Y-51627000I-249999J0D01*
G01*
X137070999Y-51627000D01*
G75*
G02*
X136821000Y-51377001I0J249999D01*
G01*
X136821000Y-50476999D01*
G75*
G02*
X137070999Y-50227000I249999J0D01*
G01*
X137721001Y-50227000D01*
G75*
G02*
X137971000Y-50476999I0J-249999D01*
G01*
G37*
G36*
G01*
X140021000Y-50476999D02*
X140021000Y-51377001D01*
G75*
G02*
X139771001Y-51627000I-249999J0D01*
G01*
X139120999Y-51627000D01*
G75*
G02*
X138871000Y-51377001I0J249999D01*
G01*
X138871000Y-50476999D01*
G75*
G02*
X139120999Y-50227000I249999J0D01*
G01*
X139771001Y-50227000D01*
G75*
G02*
X140021000Y-50476999I0J-249999D01*
G01*
G37*
G04 #@! TD*
G04 #@! TO.C,C10*
G36*
G01*
X139903000Y-90481999D02*
X139903000Y-91382001D01*
G75*
G02*
X139653001Y-91632000I-249999J0D01*
G01*
X139002999Y-91632000D01*
G75*
G02*
X138753000Y-91382001I0J249999D01*
G01*
X138753000Y-90481999D01*
G75*
G02*
X139002999Y-90232000I249999J0D01*
G01*
X139653001Y-90232000D01*
G75*
G02*
X139903000Y-90481999I0J-249999D01*
G01*
G37*
G36*
G01*
X137853000Y-90481999D02*
X137853000Y-91382001D01*
G75*
G02*
X137603001Y-91632000I-249999J0D01*
G01*
X136952999Y-91632000D01*
G75*
G02*
X136703000Y-91382001I0J249999D01*
G01*
X136703000Y-90481999D01*
G75*
G02*
X136952999Y-90232000I249999J0D01*
G01*
X137603001Y-90232000D01*
G75*
G02*
X137853000Y-90481999I0J-249999D01*
G01*
G37*
G04 #@! TD*
G04 #@! TO.C,C11*
G36*
G01*
X139903000Y-79263665D02*
X139903000Y-80163667D01*
G75*
G02*
X139653001Y-80413666I-249999J0D01*
G01*
X139002999Y-80413666D01*
G75*
G02*
X138753000Y-80163667I0J249999D01*
G01*
X138753000Y-79263665D01*
G75*
G02*
X139002999Y-79013666I249999J0D01*
G01*
X139653001Y-79013666D01*
G75*
G02*
X139903000Y-79263665I0J-249999D01*
G01*
G37*
G36*
G01*
X137853000Y-79263665D02*
X137853000Y-80163667D01*
G75*
G02*
X137603001Y-80413666I-249999J0D01*
G01*
X136952999Y-80413666D01*
G75*
G02*
X136703000Y-80163667I0J249999D01*
G01*
X136703000Y-79263665D01*
G75*
G02*
X136952999Y-79013666I249999J0D01*
G01*
X137603001Y-79013666D01*
G75*
G02*
X137853000Y-79263665I0J-249999D01*
G01*
G37*
G04 #@! TD*
G04 #@! TO.C,C12*
G36*
G01*
X139903000Y-68045332D02*
X139903000Y-68945334D01*
G75*
G02*
X139653001Y-69195333I-249999J0D01*
G01*
X139002999Y-69195333D01*
G75*
G02*
X138753000Y-68945334I0J249999D01*
G01*
X138753000Y-68045332D01*
G75*
G02*
X139002999Y-67795333I249999J0D01*
G01*
X139653001Y-67795333D01*
G75*
G02*
X139903000Y-68045332I0J-249999D01*
G01*
G37*
G36*
G01*
X137853000Y-68045332D02*
X137853000Y-68945334D01*
G75*
G02*
X137603001Y-69195333I-249999J0D01*
G01*
X136952999Y-69195333D01*
G75*
G02*
X136703000Y-68945334I0J249999D01*
G01*
X136703000Y-68045332D01*
G75*
G02*
X136952999Y-67795333I249999J0D01*
G01*
X137603001Y-67795333D01*
G75*
G02*
X137853000Y-68045332I0J-249999D01*
G01*
G37*
G04 #@! TD*
G04 #@! TO.C,C13*
G36*
G01*
X137853000Y-56826999D02*
X137853000Y-57727001D01*
G75*
G02*
X137603001Y-57977000I-249999J0D01*
G01*
X136952999Y-57977000D01*
G75*
G02*
X136703000Y-57727001I0J249999D01*
G01*
X136703000Y-56826999D01*
G75*
G02*
X136952999Y-56577000I249999J0D01*
G01*
X137603001Y-56577000D01*
G75*
G02*
X137853000Y-56826999I0J-249999D01*
G01*
G37*
G36*
G01*
X139903000Y-56826999D02*
X139903000Y-57727001D01*
G75*
G02*
X139653001Y-57977000I-249999J0D01*
G01*
X139002999Y-57977000D01*
G75*
G02*
X138753000Y-57727001I0J249999D01*
G01*
X138753000Y-56826999D01*
G75*
G02*
X139002999Y-56577000I249999J0D01*
G01*
X139653001Y-56577000D01*
G75*
G02*
X139903000Y-56826999I0J-249999D01*
G01*
G37*
G04 #@! TD*
G04 #@! TO.C,C14*
G36*
G01*
X182702000Y-76003999D02*
X182702000Y-76904001D01*
G75*
G02*
X182452001Y-77154000I-249999J0D01*
G01*
X181801999Y-77154000D01*
G75*
G02*
X181552000Y-76904001I0J249999D01*
G01*
X181552000Y-76003999D01*
G75*
G02*
X181801999Y-75754000I249999J0D01*
G01*
X182452001Y-75754000D01*
G75*
G02*
X182702000Y-76003999I0J-249999D01*
G01*
G37*
G36*
G01*
X180652000Y-76003999D02*
X180652000Y-76904001D01*
G75*
G02*
X180402001Y-77154000I-249999J0D01*
G01*
X179751999Y-77154000D01*
G75*
G02*
X179502000Y-76904001I0J249999D01*
G01*
X179502000Y-76003999D01*
G75*
G02*
X179751999Y-75754000I249999J0D01*
G01*
X180402001Y-75754000D01*
G75*
G02*
X180652000Y-76003999I0J-249999D01*
G01*
G37*
G04 #@! TD*
G04 #@! TO.C,C15*
G36*
G01*
X180643000Y-78162999D02*
X180643000Y-79063001D01*
G75*
G02*
X180393001Y-79313000I-249999J0D01*
G01*
X179742999Y-79313000D01*
G75*
G02*
X179493000Y-79063001I0J249999D01*
G01*
X179493000Y-78162999D01*
G75*
G02*
X179742999Y-77913000I249999J0D01*
G01*
X180393001Y-77913000D01*
G75*
G02*
X180643000Y-78162999I0J-249999D01*
G01*
G37*
G36*
G01*
X182693000Y-78162999D02*
X182693000Y-79063001D01*
G75*
G02*
X182443001Y-79313000I-249999J0D01*
G01*
X181792999Y-79313000D01*
G75*
G02*
X181543000Y-79063001I0J249999D01*
G01*
X181543000Y-78162999D01*
G75*
G02*
X181792999Y-77913000I249999J0D01*
G01*
X182443001Y-77913000D01*
G75*
G02*
X182693000Y-78162999I0J-249999D01*
G01*
G37*
G04 #@! TD*
G04 #@! TO.C,C16*
G36*
G01*
X185986000Y-91243999D02*
X185986000Y-92144001D01*
G75*
G02*
X185736001Y-92394000I-249999J0D01*
G01*
X185085999Y-92394000D01*
G75*
G02*
X184836000Y-92144001I0J249999D01*
G01*
X184836000Y-91243999D01*
G75*
G02*
X185085999Y-90994000I249999J0D01*
G01*
X185736001Y-90994000D01*
G75*
G02*
X185986000Y-91243999I0J-249999D01*
G01*
G37*
G36*
G01*
X188036000Y-91243999D02*
X188036000Y-92144001D01*
G75*
G02*
X187786001Y-92394000I-249999J0D01*
G01*
X187135999Y-92394000D01*
G75*
G02*
X186886000Y-92144001I0J249999D01*
G01*
X186886000Y-91243999D01*
G75*
G02*
X187135999Y-90994000I249999J0D01*
G01*
X187786001Y-90994000D01*
G75*
G02*
X188036000Y-91243999I0J-249999D01*
G01*
G37*
G04 #@! TD*
G04 #@! TO.C,C17*
G36*
G01*
X182693000Y-80321999D02*
X182693000Y-81222001D01*
G75*
G02*
X182443001Y-81472000I-249999J0D01*
G01*
X181792999Y-81472000D01*
G75*
G02*
X181543000Y-81222001I0J249999D01*
G01*
X181543000Y-80321999D01*
G75*
G02*
X181792999Y-80072000I249999J0D01*
G01*
X182443001Y-80072000D01*
G75*
G02*
X182693000Y-80321999I0J-249999D01*
G01*
G37*
G36*
G01*
X180643000Y-80321999D02*
X180643000Y-81222001D01*
G75*
G02*
X180393001Y-81472000I-249999J0D01*
G01*
X179742999Y-81472000D01*
G75*
G02*
X179493000Y-81222001I0J249999D01*
G01*
X179493000Y-80321999D01*
G75*
G02*
X179742999Y-80072000I249999J0D01*
G01*
X180393001Y-80072000D01*
G75*
G02*
X180643000Y-80321999I0J-249999D01*
G01*
G37*
G04 #@! TD*
G04 #@! TO.C,C18*
G36*
G01*
X194123000Y-79686999D02*
X194123000Y-80587001D01*
G75*
G02*
X193873001Y-80837000I-249999J0D01*
G01*
X193222999Y-80837000D01*
G75*
G02*
X192973000Y-80587001I0J249999D01*
G01*
X192973000Y-79686999D01*
G75*
G02*
X193222999Y-79437000I249999J0D01*
G01*
X193873001Y-79437000D01*
G75*
G02*
X194123000Y-79686999I0J-249999D01*
G01*
G37*
G36*
G01*
X192073000Y-79686999D02*
X192073000Y-80587001D01*
G75*
G02*
X191823001Y-80837000I-249999J0D01*
G01*
X191172999Y-80837000D01*
G75*
G02*
X190923000Y-80587001I0J249999D01*
G01*
X190923000Y-79686999D01*
G75*
G02*
X191172999Y-79437000I249999J0D01*
G01*
X191823001Y-79437000D01*
G75*
G02*
X192073000Y-79686999I0J-249999D01*
G01*
G37*
G04 #@! TD*
D10*
G04 #@! TO.C,J5*
X197237000Y-59275500D03*
X197237000Y-58625500D03*
X197237000Y-57975500D03*
X197237000Y-57325500D03*
X197237000Y-56675500D03*
D11*
X198237000Y-53911500D03*
X198237000Y-62039500D03*
D12*
X200777000Y-61023500D03*
X200787000Y-54927500D03*
G04 #@! TD*
G04 #@! TO.C,R1*
G36*
G01*
X180409001Y-63195000D02*
X179508999Y-63195000D01*
G75*
G02*
X179259000Y-62945001I0J249999D01*
G01*
X179259000Y-62294999D01*
G75*
G02*
X179508999Y-62045000I249999J0D01*
G01*
X180409001Y-62045000D01*
G75*
G02*
X180659000Y-62294999I0J-249999D01*
G01*
X180659000Y-62945001D01*
G75*
G02*
X180409001Y-63195000I-249999J0D01*
G01*
G37*
G36*
G01*
X180409001Y-61145000D02*
X179508999Y-61145000D01*
G75*
G02*
X179259000Y-60895001I0J249999D01*
G01*
X179259000Y-60244999D01*
G75*
G02*
X179508999Y-59995000I249999J0D01*
G01*
X180409001Y-59995000D01*
G75*
G02*
X180659000Y-60244999I0J-249999D01*
G01*
X180659000Y-60895001D01*
G75*
G02*
X180409001Y-61145000I-249999J0D01*
G01*
G37*
G04 #@! TD*
G04 #@! TO.C,R2*
G36*
G01*
X184462000Y-48317999D02*
X184462000Y-49218001D01*
G75*
G02*
X184212001Y-49468000I-249999J0D01*
G01*
X183561999Y-49468000D01*
G75*
G02*
X183312000Y-49218001I0J249999D01*
G01*
X183312000Y-48317999D01*
G75*
G02*
X183561999Y-48068000I249999J0D01*
G01*
X184212001Y-48068000D01*
G75*
G02*
X184462000Y-48317999I0J-249999D01*
G01*
G37*
G36*
G01*
X186512000Y-48317999D02*
X186512000Y-49218001D01*
G75*
G02*
X186262001Y-49468000I-249999J0D01*
G01*
X185611999Y-49468000D01*
G75*
G02*
X185362000Y-49218001I0J249999D01*
G01*
X185362000Y-48317999D01*
G75*
G02*
X185611999Y-48068000I249999J0D01*
G01*
X186262001Y-48068000D01*
G75*
G02*
X186512000Y-48317999I0J-249999D01*
G01*
G37*
G04 #@! TD*
G04 #@! TO.C,R3*
G36*
G01*
X183065000Y-51746999D02*
X183065000Y-52647001D01*
G75*
G02*
X182815001Y-52897000I-249999J0D01*
G01*
X182164999Y-52897000D01*
G75*
G02*
X181915000Y-52647001I0J249999D01*
G01*
X181915000Y-51746999D01*
G75*
G02*
X182164999Y-51497000I249999J0D01*
G01*
X182815001Y-51497000D01*
G75*
G02*
X183065000Y-51746999I0J-249999D01*
G01*
G37*
G36*
G01*
X185115000Y-51746999D02*
X185115000Y-52647001D01*
G75*
G02*
X184865001Y-52897000I-249999J0D01*
G01*
X184214999Y-52897000D01*
G75*
G02*
X183965000Y-52647001I0J249999D01*
G01*
X183965000Y-51746999D01*
G75*
G02*
X184214999Y-51497000I249999J0D01*
G01*
X184865001Y-51497000D01*
G75*
G02*
X185115000Y-51746999I0J-249999D01*
G01*
G37*
G04 #@! TD*
G04 #@! TO.C,R4*
G36*
G01*
X189424000Y-51746999D02*
X189424000Y-52647001D01*
G75*
G02*
X189174001Y-52897000I-249999J0D01*
G01*
X188523999Y-52897000D01*
G75*
G02*
X188274000Y-52647001I0J249999D01*
G01*
X188274000Y-51746999D01*
G75*
G02*
X188523999Y-51497000I249999J0D01*
G01*
X189174001Y-51497000D01*
G75*
G02*
X189424000Y-51746999I0J-249999D01*
G01*
G37*
G36*
G01*
X187374000Y-51746999D02*
X187374000Y-52647001D01*
G75*
G02*
X187124001Y-52897000I-249999J0D01*
G01*
X186473999Y-52897000D01*
G75*
G02*
X186224000Y-52647001I0J249999D01*
G01*
X186224000Y-51746999D01*
G75*
G02*
X186473999Y-51497000I249999J0D01*
G01*
X187124001Y-51497000D01*
G75*
G02*
X187374000Y-51746999I0J-249999D01*
G01*
G37*
G04 #@! TD*
G04 #@! TO.C,R5*
G36*
G01*
X185988000Y-61537001D02*
X185988000Y-60636999D01*
G75*
G02*
X186237999Y-60387000I249999J0D01*
G01*
X186888001Y-60387000D01*
G75*
G02*
X187138000Y-60636999I0J-249999D01*
G01*
X187138000Y-61537001D01*
G75*
G02*
X186888001Y-61787000I-249999J0D01*
G01*
X186237999Y-61787000D01*
G75*
G02*
X185988000Y-61537001I0J249999D01*
G01*
G37*
G36*
G01*
X183938000Y-61537001D02*
X183938000Y-60636999D01*
G75*
G02*
X184187999Y-60387000I249999J0D01*
G01*
X184838001Y-60387000D01*
G75*
G02*
X185088000Y-60636999I0J-249999D01*
G01*
X185088000Y-61537001D01*
G75*
G02*
X184838001Y-61787000I-249999J0D01*
G01*
X184187999Y-61787000D01*
G75*
G02*
X183938000Y-61537001I0J249999D01*
G01*
G37*
G04 #@! TD*
G04 #@! TO.C,R6*
G36*
G01*
X185097000Y-62668999D02*
X185097000Y-63569001D01*
G75*
G02*
X184847001Y-63819000I-249999J0D01*
G01*
X184196999Y-63819000D01*
G75*
G02*
X183947000Y-63569001I0J249999D01*
G01*
X183947000Y-62668999D01*
G75*
G02*
X184196999Y-62419000I249999J0D01*
G01*
X184847001Y-62419000D01*
G75*
G02*
X185097000Y-62668999I0J-249999D01*
G01*
G37*
G36*
G01*
X187147000Y-62668999D02*
X187147000Y-63569001D01*
G75*
G02*
X186897001Y-63819000I-249999J0D01*
G01*
X186246999Y-63819000D01*
G75*
G02*
X185997000Y-63569001I0J249999D01*
G01*
X185997000Y-62668999D01*
G75*
G02*
X186246999Y-62419000I249999J0D01*
G01*
X186897001Y-62419000D01*
G75*
G02*
X187147000Y-62668999I0J-249999D01*
G01*
G37*
G04 #@! TD*
G04 #@! TO.C,R7*
G36*
G01*
X152975000Y-44507999D02*
X152975000Y-45408001D01*
G75*
G02*
X152725001Y-45658000I-249999J0D01*
G01*
X152074999Y-45658000D01*
G75*
G02*
X151825000Y-45408001I0J249999D01*
G01*
X151825000Y-44507999D01*
G75*
G02*
X152074999Y-44258000I249999J0D01*
G01*
X152725001Y-44258000D01*
G75*
G02*
X152975000Y-44507999I0J-249999D01*
G01*
G37*
G36*
G01*
X150925000Y-44507999D02*
X150925000Y-45408001D01*
G75*
G02*
X150675001Y-45658000I-249999J0D01*
G01*
X150024999Y-45658000D01*
G75*
G02*
X149775000Y-45408001I0J249999D01*
G01*
X149775000Y-44507999D01*
G75*
G02*
X150024999Y-44258000I249999J0D01*
G01*
X150675001Y-44258000D01*
G75*
G02*
X150925000Y-44507999I0J-249999D01*
G01*
G37*
G04 #@! TD*
G04 #@! TO.C,R8*
G36*
G01*
X150798000Y-57631332D02*
X150798000Y-58531334D01*
G75*
G02*
X150548001Y-58781333I-249999J0D01*
G01*
X149897999Y-58781333D01*
G75*
G02*
X149648000Y-58531334I0J249999D01*
G01*
X149648000Y-57631332D01*
G75*
G02*
X149897999Y-57381333I249999J0D01*
G01*
X150548001Y-57381333D01*
G75*
G02*
X150798000Y-57631332I0J-249999D01*
G01*
G37*
G36*
G01*
X152848000Y-57631332D02*
X152848000Y-58531334D01*
G75*
G02*
X152598001Y-58781333I-249999J0D01*
G01*
X151947999Y-58781333D01*
G75*
G02*
X151698000Y-58531334I0J249999D01*
G01*
X151698000Y-57631332D01*
G75*
G02*
X151947999Y-57381333I249999J0D01*
G01*
X152598001Y-57381333D01*
G75*
G02*
X152848000Y-57631332I0J-249999D01*
G01*
G37*
G04 #@! TD*
G04 #@! TO.C,R9*
G36*
G01*
X152848000Y-70754665D02*
X152848000Y-71654667D01*
G75*
G02*
X152598001Y-71904666I-249999J0D01*
G01*
X151947999Y-71904666D01*
G75*
G02*
X151698000Y-71654667I0J249999D01*
G01*
X151698000Y-70754665D01*
G75*
G02*
X151947999Y-70504666I249999J0D01*
G01*
X152598001Y-70504666D01*
G75*
G02*
X152848000Y-70754665I0J-249999D01*
G01*
G37*
G36*
G01*
X150798000Y-70754665D02*
X150798000Y-71654667D01*
G75*
G02*
X150548001Y-71904666I-249999J0D01*
G01*
X149897999Y-71904666D01*
G75*
G02*
X149648000Y-71654667I0J249999D01*
G01*
X149648000Y-70754665D01*
G75*
G02*
X149897999Y-70504666I249999J0D01*
G01*
X150548001Y-70504666D01*
G75*
G02*
X150798000Y-70754665I0J-249999D01*
G01*
G37*
G04 #@! TD*
G04 #@! TO.C,R10*
G36*
G01*
X150934000Y-83877999D02*
X150934000Y-84778001D01*
G75*
G02*
X150684001Y-85028000I-249999J0D01*
G01*
X150033999Y-85028000D01*
G75*
G02*
X149784000Y-84778001I0J249999D01*
G01*
X149784000Y-83877999D01*
G75*
G02*
X150033999Y-83628000I249999J0D01*
G01*
X150684001Y-83628000D01*
G75*
G02*
X150934000Y-83877999I0J-249999D01*
G01*
G37*
G36*
G01*
X152984000Y-83877999D02*
X152984000Y-84778001D01*
G75*
G02*
X152734001Y-85028000I-249999J0D01*
G01*
X152083999Y-85028000D01*
G75*
G02*
X151834000Y-84778001I0J249999D01*
G01*
X151834000Y-83877999D01*
G75*
G02*
X152083999Y-83628000I249999J0D01*
G01*
X152734001Y-83628000D01*
G75*
G02*
X152984000Y-83877999I0J-249999D01*
G01*
G37*
G04 #@! TD*
G04 #@! TO.C,R11*
G36*
G01*
X168460000Y-83750999D02*
X168460000Y-84651001D01*
G75*
G02*
X168210001Y-84901000I-249999J0D01*
G01*
X167559999Y-84901000D01*
G75*
G02*
X167310000Y-84651001I0J249999D01*
G01*
X167310000Y-83750999D01*
G75*
G02*
X167559999Y-83501000I249999J0D01*
G01*
X168210001Y-83501000D01*
G75*
G02*
X168460000Y-83750999I0J-249999D01*
G01*
G37*
G36*
G01*
X170510000Y-83750999D02*
X170510000Y-84651001D01*
G75*
G02*
X170260001Y-84901000I-249999J0D01*
G01*
X169609999Y-84901000D01*
G75*
G02*
X169360000Y-84651001I0J249999D01*
G01*
X169360000Y-83750999D01*
G75*
G02*
X169609999Y-83501000I249999J0D01*
G01*
X170260001Y-83501000D01*
G75*
G02*
X170510000Y-83750999I0J-249999D01*
G01*
G37*
G04 #@! TD*
G04 #@! TO.C,R12*
G36*
G01*
X168460000Y-70669999D02*
X168460000Y-71570001D01*
G75*
G02*
X168210001Y-71820000I-249999J0D01*
G01*
X167559999Y-71820000D01*
G75*
G02*
X167310000Y-71570001I0J249999D01*
G01*
X167310000Y-70669999D01*
G75*
G02*
X167559999Y-70420000I249999J0D01*
G01*
X168210001Y-70420000D01*
G75*
G02*
X168460000Y-70669999I0J-249999D01*
G01*
G37*
G36*
G01*
X170510000Y-70669999D02*
X170510000Y-71570001D01*
G75*
G02*
X170260001Y-71820000I-249999J0D01*
G01*
X169609999Y-71820000D01*
G75*
G02*
X169360000Y-71570001I0J249999D01*
G01*
X169360000Y-70669999D01*
G75*
G02*
X169609999Y-70420000I249999J0D01*
G01*
X170260001Y-70420000D01*
G75*
G02*
X170510000Y-70669999I0J-249999D01*
G01*
G37*
G04 #@! TD*
G04 #@! TO.C,R13*
G36*
G01*
X170510000Y-57588999D02*
X170510000Y-58489001D01*
G75*
G02*
X170260001Y-58739000I-249999J0D01*
G01*
X169609999Y-58739000D01*
G75*
G02*
X169360000Y-58489001I0J249999D01*
G01*
X169360000Y-57588999D01*
G75*
G02*
X169609999Y-57339000I249999J0D01*
G01*
X170260001Y-57339000D01*
G75*
G02*
X170510000Y-57588999I0J-249999D01*
G01*
G37*
G36*
G01*
X168460000Y-57588999D02*
X168460000Y-58489001D01*
G75*
G02*
X168210001Y-58739000I-249999J0D01*
G01*
X167559999Y-58739000D01*
G75*
G02*
X167310000Y-58489001I0J249999D01*
G01*
X167310000Y-57588999D01*
G75*
G02*
X167559999Y-57339000I249999J0D01*
G01*
X168210001Y-57339000D01*
G75*
G02*
X168460000Y-57588999I0J-249999D01*
G01*
G37*
G04 #@! TD*
G04 #@! TO.C,R14*
G36*
G01*
X170510000Y-44507999D02*
X170510000Y-45408001D01*
G75*
G02*
X170260001Y-45658000I-249999J0D01*
G01*
X169609999Y-45658000D01*
G75*
G02*
X169360000Y-45408001I0J249999D01*
G01*
X169360000Y-44507999D01*
G75*
G02*
X169609999Y-44258000I249999J0D01*
G01*
X170260001Y-44258000D01*
G75*
G02*
X170510000Y-44507999I0J-249999D01*
G01*
G37*
G36*
G01*
X168460000Y-44507999D02*
X168460000Y-45408001D01*
G75*
G02*
X168210001Y-45658000I-249999J0D01*
G01*
X167559999Y-45658000D01*
G75*
G02*
X167310000Y-45408001I0J249999D01*
G01*
X167310000Y-44507999D01*
G75*
G02*
X167559999Y-44258000I249999J0D01*
G01*
X168210001Y-44258000D01*
G75*
G02*
X168460000Y-44507999I0J-249999D01*
G01*
G37*
G04 #@! TD*
G04 #@! TO.C,R15*
G36*
G01*
X173159000Y-90227999D02*
X173159000Y-91128001D01*
G75*
G02*
X172909001Y-91378000I-249999J0D01*
G01*
X172258999Y-91378000D01*
G75*
G02*
X172009000Y-91128001I0J249999D01*
G01*
X172009000Y-90227999D01*
G75*
G02*
X172258999Y-89978000I249999J0D01*
G01*
X172909001Y-89978000D01*
G75*
G02*
X173159000Y-90227999I0J-249999D01*
G01*
G37*
G36*
G01*
X175209000Y-90227999D02*
X175209000Y-91128001D01*
G75*
G02*
X174959001Y-91378000I-249999J0D01*
G01*
X174308999Y-91378000D01*
G75*
G02*
X174059000Y-91128001I0J249999D01*
G01*
X174059000Y-90227999D01*
G75*
G02*
X174308999Y-89978000I249999J0D01*
G01*
X174959001Y-89978000D01*
G75*
G02*
X175209000Y-90227999I0J-249999D01*
G01*
G37*
G04 #@! TD*
G04 #@! TO.C,R16*
G36*
G01*
X175209000Y-77146999D02*
X175209000Y-78047001D01*
G75*
G02*
X174959001Y-78297000I-249999J0D01*
G01*
X174308999Y-78297000D01*
G75*
G02*
X174059000Y-78047001I0J249999D01*
G01*
X174059000Y-77146999D01*
G75*
G02*
X174308999Y-76897000I249999J0D01*
G01*
X174959001Y-76897000D01*
G75*
G02*
X175209000Y-77146999I0J-249999D01*
G01*
G37*
G36*
G01*
X173159000Y-77146999D02*
X173159000Y-78047001D01*
G75*
G02*
X172909001Y-78297000I-249999J0D01*
G01*
X172258999Y-78297000D01*
G75*
G02*
X172009000Y-78047001I0J249999D01*
G01*
X172009000Y-77146999D01*
G75*
G02*
X172258999Y-76897000I249999J0D01*
G01*
X172909001Y-76897000D01*
G75*
G02*
X173159000Y-77146999I0J-249999D01*
G01*
G37*
G04 #@! TD*
G04 #@! TO.C,R17*
G36*
G01*
X173159000Y-64065999D02*
X173159000Y-64966001D01*
G75*
G02*
X172909001Y-65216000I-249999J0D01*
G01*
X172258999Y-65216000D01*
G75*
G02*
X172009000Y-64966001I0J249999D01*
G01*
X172009000Y-64065999D01*
G75*
G02*
X172258999Y-63816000I249999J0D01*
G01*
X172909001Y-63816000D01*
G75*
G02*
X173159000Y-64065999I0J-249999D01*
G01*
G37*
G36*
G01*
X175209000Y-64065999D02*
X175209000Y-64966001D01*
G75*
G02*
X174959001Y-65216000I-249999J0D01*
G01*
X174308999Y-65216000D01*
G75*
G02*
X174059000Y-64966001I0J249999D01*
G01*
X174059000Y-64065999D01*
G75*
G02*
X174308999Y-63816000I249999J0D01*
G01*
X174959001Y-63816000D01*
G75*
G02*
X175209000Y-64065999I0J-249999D01*
G01*
G37*
G04 #@! TD*
G04 #@! TO.C,R18*
G36*
G01*
X175209000Y-50984999D02*
X175209000Y-51885001D01*
G75*
G02*
X174959001Y-52135000I-249999J0D01*
G01*
X174308999Y-52135000D01*
G75*
G02*
X174059000Y-51885001I0J249999D01*
G01*
X174059000Y-50984999D01*
G75*
G02*
X174308999Y-50735000I249999J0D01*
G01*
X174959001Y-50735000D01*
G75*
G02*
X175209000Y-50984999I0J-249999D01*
G01*
G37*
G36*
G01*
X173159000Y-50984999D02*
X173159000Y-51885001D01*
G75*
G02*
X172909001Y-52135000I-249999J0D01*
G01*
X172258999Y-52135000D01*
G75*
G02*
X172009000Y-51885001I0J249999D01*
G01*
X172009000Y-50984999D01*
G75*
G02*
X172258999Y-50735000I249999J0D01*
G01*
X172909001Y-50735000D01*
G75*
G02*
X173159000Y-50984999I0J-249999D01*
G01*
G37*
G04 #@! TD*
G04 #@! TO.C,R19*
G36*
G01*
X157547000Y-90354999D02*
X157547000Y-91255001D01*
G75*
G02*
X157297001Y-91505000I-249999J0D01*
G01*
X156646999Y-91505000D01*
G75*
G02*
X156397000Y-91255001I0J249999D01*
G01*
X156397000Y-90354999D01*
G75*
G02*
X156646999Y-90105000I249999J0D01*
G01*
X157297001Y-90105000D01*
G75*
G02*
X157547000Y-90354999I0J-249999D01*
G01*
G37*
G36*
G01*
X155497000Y-90354999D02*
X155497000Y-91255001D01*
G75*
G02*
X155247001Y-91505000I-249999J0D01*
G01*
X154596999Y-91505000D01*
G75*
G02*
X154347000Y-91255001I0J249999D01*
G01*
X154347000Y-90354999D01*
G75*
G02*
X154596999Y-90105000I249999J0D01*
G01*
X155247001Y-90105000D01*
G75*
G02*
X155497000Y-90354999I0J-249999D01*
G01*
G37*
G04 #@! TD*
G04 #@! TO.C,R20*
G36*
G01*
X155497000Y-77231665D02*
X155497000Y-78131667D01*
G75*
G02*
X155247001Y-78381666I-249999J0D01*
G01*
X154596999Y-78381666D01*
G75*
G02*
X154347000Y-78131667I0J249999D01*
G01*
X154347000Y-77231665D01*
G75*
G02*
X154596999Y-76981666I249999J0D01*
G01*
X155247001Y-76981666D01*
G75*
G02*
X155497000Y-77231665I0J-249999D01*
G01*
G37*
G36*
G01*
X157547000Y-77231665D02*
X157547000Y-78131667D01*
G75*
G02*
X157297001Y-78381666I-249999J0D01*
G01*
X156646999Y-78381666D01*
G75*
G02*
X156397000Y-78131667I0J249999D01*
G01*
X156397000Y-77231665D01*
G75*
G02*
X156646999Y-76981666I249999J0D01*
G01*
X157297001Y-76981666D01*
G75*
G02*
X157547000Y-77231665I0J-249999D01*
G01*
G37*
G04 #@! TD*
G04 #@! TO.C,R21*
G36*
G01*
X157547000Y-64108332D02*
X157547000Y-65008334D01*
G75*
G02*
X157297001Y-65258333I-249999J0D01*
G01*
X156646999Y-65258333D01*
G75*
G02*
X156397000Y-65008334I0J249999D01*
G01*
X156397000Y-64108332D01*
G75*
G02*
X156646999Y-63858333I249999J0D01*
G01*
X157297001Y-63858333D01*
G75*
G02*
X157547000Y-64108332I0J-249999D01*
G01*
G37*
G36*
G01*
X155497000Y-64108332D02*
X155497000Y-65008334D01*
G75*
G02*
X155247001Y-65258333I-249999J0D01*
G01*
X154596999Y-65258333D01*
G75*
G02*
X154347000Y-65008334I0J249999D01*
G01*
X154347000Y-64108332D01*
G75*
G02*
X154596999Y-63858333I249999J0D01*
G01*
X155247001Y-63858333D01*
G75*
G02*
X155497000Y-64108332I0J-249999D01*
G01*
G37*
G04 #@! TD*
G04 #@! TO.C,R22*
G36*
G01*
X157547000Y-50984999D02*
X157547000Y-51885001D01*
G75*
G02*
X157297001Y-52135000I-249999J0D01*
G01*
X156646999Y-52135000D01*
G75*
G02*
X156397000Y-51885001I0J249999D01*
G01*
X156397000Y-50984999D01*
G75*
G02*
X156646999Y-50735000I249999J0D01*
G01*
X157297001Y-50735000D01*
G75*
G02*
X157547000Y-50984999I0J-249999D01*
G01*
G37*
G36*
G01*
X155497000Y-50984999D02*
X155497000Y-51885001D01*
G75*
G02*
X155247001Y-52135000I-249999J0D01*
G01*
X154596999Y-52135000D01*
G75*
G02*
X154347000Y-51885001I0J249999D01*
G01*
X154347000Y-50984999D01*
G75*
G02*
X154596999Y-50735000I249999J0D01*
G01*
X155247001Y-50735000D01*
G75*
G02*
X155497000Y-50984999I0J-249999D01*
G01*
G37*
G04 #@! TD*
G04 #@! TO.C,R23*
G36*
G01*
X182820000Y-90481999D02*
X182820000Y-91382001D01*
G75*
G02*
X182570001Y-91632000I-249999J0D01*
G01*
X181919999Y-91632000D01*
G75*
G02*
X181670000Y-91382001I0J249999D01*
G01*
X181670000Y-90481999D01*
G75*
G02*
X181919999Y-90232000I249999J0D01*
G01*
X182570001Y-90232000D01*
G75*
G02*
X182820000Y-90481999I0J-249999D01*
G01*
G37*
G36*
G01*
X180770000Y-90481999D02*
X180770000Y-91382001D01*
G75*
G02*
X180520001Y-91632000I-249999J0D01*
G01*
X179869999Y-91632000D01*
G75*
G02*
X179620000Y-91382001I0J249999D01*
G01*
X179620000Y-90481999D01*
G75*
G02*
X179869999Y-90232000I249999J0D01*
G01*
X180520001Y-90232000D01*
G75*
G02*
X180770000Y-90481999I0J-249999D01*
G01*
G37*
G04 #@! TD*
G04 #@! TO.C,R24*
G36*
G01*
X186493999Y-80850000D02*
X187394001Y-80850000D01*
G75*
G02*
X187644000Y-81099999I0J-249999D01*
G01*
X187644000Y-81750001D01*
G75*
G02*
X187394001Y-82000000I-249999J0D01*
G01*
X186493999Y-82000000D01*
G75*
G02*
X186244000Y-81750001I0J249999D01*
G01*
X186244000Y-81099999D01*
G75*
G02*
X186493999Y-80850000I249999J0D01*
G01*
G37*
G36*
G01*
X186493999Y-78800000D02*
X187394001Y-78800000D01*
G75*
G02*
X187644000Y-79049999I0J-249999D01*
G01*
X187644000Y-79700001D01*
G75*
G02*
X187394001Y-79950000I-249999J0D01*
G01*
X186493999Y-79950000D01*
G75*
G02*
X186244000Y-79700001I0J249999D01*
G01*
X186244000Y-79049999D01*
G75*
G02*
X186493999Y-78800000I249999J0D01*
G01*
G37*
G04 #@! TD*
G04 #@! TO.C,R25*
G36*
G01*
X186376000Y-88576999D02*
X186376000Y-89477001D01*
G75*
G02*
X186126001Y-89727000I-249999J0D01*
G01*
X185475999Y-89727000D01*
G75*
G02*
X185226000Y-89477001I0J249999D01*
G01*
X185226000Y-88576999D01*
G75*
G02*
X185475999Y-88327000I249999J0D01*
G01*
X186126001Y-88327000D01*
G75*
G02*
X186376000Y-88576999I0J-249999D01*
G01*
G37*
G36*
G01*
X184326000Y-88576999D02*
X184326000Y-89477001D01*
G75*
G02*
X184076001Y-89727000I-249999J0D01*
G01*
X183425999Y-89727000D01*
G75*
G02*
X183176000Y-89477001I0J249999D01*
G01*
X183176000Y-88576999D01*
G75*
G02*
X183425999Y-88327000I249999J0D01*
G01*
X184076001Y-88327000D01*
G75*
G02*
X184326000Y-88576999I0J-249999D01*
G01*
G37*
G04 #@! TD*
G04 #@! TO.C,R26*
G36*
G01*
X188906999Y-79562000D02*
X189807001Y-79562000D01*
G75*
G02*
X190057000Y-79811999I0J-249999D01*
G01*
X190057000Y-80462001D01*
G75*
G02*
X189807001Y-80712000I-249999J0D01*
G01*
X188906999Y-80712000D01*
G75*
G02*
X188657000Y-80462001I0J249999D01*
G01*
X188657000Y-79811999D01*
G75*
G02*
X188906999Y-79562000I249999J0D01*
G01*
G37*
G36*
G01*
X188906999Y-77512000D02*
X189807001Y-77512000D01*
G75*
G02*
X190057000Y-77761999I0J-249999D01*
G01*
X190057000Y-78412001D01*
G75*
G02*
X189807001Y-78662000I-249999J0D01*
G01*
X188906999Y-78662000D01*
G75*
G02*
X188657000Y-78412001I0J249999D01*
G01*
X188657000Y-77761999D01*
G75*
G02*
X188906999Y-77512000I249999J0D01*
G01*
G37*
G04 #@! TD*
D13*
G04 #@! TO.C,U1*
X184597000Y-56535000D03*
X184597000Y-57035000D03*
X184597000Y-57535000D03*
X184597000Y-58035000D03*
X184597000Y-58535000D03*
X184597000Y-59035000D03*
X186497000Y-59035000D03*
X186497000Y-58535000D03*
X186497000Y-58035000D03*
X186497000Y-57535000D03*
X186497000Y-57035000D03*
X186497000Y-56535000D03*
D14*
X185547000Y-57285000D03*
X185547000Y-58285000D03*
G04 #@! TD*
G04 #@! TO.C,U2*
G36*
G01*
X177525000Y-83335000D02*
X177525000Y-83035000D01*
G75*
G02*
X177675000Y-82885000I150000J0D01*
G01*
X179125000Y-82885000D01*
G75*
G02*
X179275000Y-83035000I0J-150000D01*
G01*
X179275000Y-83335000D01*
G75*
G02*
X179125000Y-83485000I-150000J0D01*
G01*
X177675000Y-83485000D01*
G75*
G02*
X177525000Y-83335000I0J150000D01*
G01*
G37*
G36*
G01*
X177525000Y-84605000D02*
X177525000Y-84305000D01*
G75*
G02*
X177675000Y-84155000I150000J0D01*
G01*
X179125000Y-84155000D01*
G75*
G02*
X179275000Y-84305000I0J-150000D01*
G01*
X179275000Y-84605000D01*
G75*
G02*
X179125000Y-84755000I-150000J0D01*
G01*
X177675000Y-84755000D01*
G75*
G02*
X177525000Y-84605000I0J150000D01*
G01*
G37*
G36*
G01*
X177525000Y-85875000D02*
X177525000Y-85575000D01*
G75*
G02*
X177675000Y-85425000I150000J0D01*
G01*
X179125000Y-85425000D01*
G75*
G02*
X179275000Y-85575000I0J-150000D01*
G01*
X179275000Y-85875000D01*
G75*
G02*
X179125000Y-86025000I-150000J0D01*
G01*
X177675000Y-86025000D01*
G75*
G02*
X177525000Y-85875000I0J150000D01*
G01*
G37*
G36*
G01*
X177525000Y-87145000D02*
X177525000Y-86845000D01*
G75*
G02*
X177675000Y-86695000I150000J0D01*
G01*
X179125000Y-86695000D01*
G75*
G02*
X179275000Y-86845000I0J-150000D01*
G01*
X179275000Y-87145000D01*
G75*
G02*
X179125000Y-87295000I-150000J0D01*
G01*
X177675000Y-87295000D01*
G75*
G02*
X177525000Y-87145000I0J150000D01*
G01*
G37*
G36*
G01*
X182675000Y-87145000D02*
X182675000Y-86845000D01*
G75*
G02*
X182825000Y-86695000I150000J0D01*
G01*
X184275000Y-86695000D01*
G75*
G02*
X184425000Y-86845000I0J-150000D01*
G01*
X184425000Y-87145000D01*
G75*
G02*
X184275000Y-87295000I-150000J0D01*
G01*
X182825000Y-87295000D01*
G75*
G02*
X182675000Y-87145000I0J150000D01*
G01*
G37*
G36*
G01*
X182675000Y-85875000D02*
X182675000Y-85575000D01*
G75*
G02*
X182825000Y-85425000I150000J0D01*
G01*
X184275000Y-85425000D01*
G75*
G02*
X184425000Y-85575000I0J-150000D01*
G01*
X184425000Y-85875000D01*
G75*
G02*
X184275000Y-86025000I-150000J0D01*
G01*
X182825000Y-86025000D01*
G75*
G02*
X182675000Y-85875000I0J150000D01*
G01*
G37*
G36*
G01*
X182675000Y-84605000D02*
X182675000Y-84305000D01*
G75*
G02*
X182825000Y-84155000I150000J0D01*
G01*
X184275000Y-84155000D01*
G75*
G02*
X184425000Y-84305000I0J-150000D01*
G01*
X184425000Y-84605000D01*
G75*
G02*
X184275000Y-84755000I-150000J0D01*
G01*
X182825000Y-84755000D01*
G75*
G02*
X182675000Y-84605000I0J150000D01*
G01*
G37*
G36*
G01*
X182675000Y-83335000D02*
X182675000Y-83035000D01*
G75*
G02*
X182825000Y-82885000I150000J0D01*
G01*
X184275000Y-82885000D01*
G75*
G02*
X184425000Y-83035000I0J-150000D01*
G01*
X184425000Y-83335000D01*
G75*
G02*
X184275000Y-83485000I-150000J0D01*
G01*
X182825000Y-83485000D01*
G75*
G02*
X182675000Y-83335000I0J150000D01*
G01*
G37*
G04 #@! TD*
G04 #@! TO.C,D1*
G36*
G01*
X199194000Y-65081999D02*
X199194000Y-65982001D01*
G75*
G02*
X198944001Y-66232000I-249999J0D01*
G01*
X198293999Y-66232000D01*
G75*
G02*
X198044000Y-65982001I0J249999D01*
G01*
X198044000Y-65081999D01*
G75*
G02*
X198293999Y-64832000I249999J0D01*
G01*
X198944001Y-64832000D01*
G75*
G02*
X199194000Y-65081999I0J-249999D01*
G01*
G37*
G36*
G01*
X201244000Y-65081999D02*
X201244000Y-65982001D01*
G75*
G02*
X200994001Y-66232000I-249999J0D01*
G01*
X200343999Y-66232000D01*
G75*
G02*
X200094000Y-65982001I0J249999D01*
G01*
X200094000Y-65081999D01*
G75*
G02*
X200343999Y-64832000I249999J0D01*
G01*
X200994001Y-64832000D01*
G75*
G02*
X201244000Y-65081999I0J-249999D01*
G01*
G37*
G04 #@! TD*
G04 #@! TO.C,D2*
G36*
G01*
X197926000Y-50615001D02*
X197926000Y-49714999D01*
G75*
G02*
X198175999Y-49465000I249999J0D01*
G01*
X198826001Y-49465000D01*
G75*
G02*
X199076000Y-49714999I0J-249999D01*
G01*
X199076000Y-50615001D01*
G75*
G02*
X198826001Y-50865000I-249999J0D01*
G01*
X198175999Y-50865000D01*
G75*
G02*
X197926000Y-50615001I0J249999D01*
G01*
G37*
G36*
G01*
X199976000Y-50615001D02*
X199976000Y-49714999D01*
G75*
G02*
X200225999Y-49465000I249999J0D01*
G01*
X200876001Y-49465000D01*
G75*
G02*
X201126000Y-49714999I0J-249999D01*
G01*
X201126000Y-50615001D01*
G75*
G02*
X200876001Y-50865000I-249999J0D01*
G01*
X200225999Y-50865000D01*
G75*
G02*
X199976000Y-50615001I0J249999D01*
G01*
G37*
G04 #@! TD*
G04 #@! TO.C,R27*
G36*
G01*
X194359000Y-65081999D02*
X194359000Y-65982001D01*
G75*
G02*
X194109001Y-66232000I-249999J0D01*
G01*
X193458999Y-66232000D01*
G75*
G02*
X193209000Y-65982001I0J249999D01*
G01*
X193209000Y-65081999D01*
G75*
G02*
X193458999Y-64832000I249999J0D01*
G01*
X194109001Y-64832000D01*
G75*
G02*
X194359000Y-65081999I0J-249999D01*
G01*
G37*
G36*
G01*
X196409000Y-65081999D02*
X196409000Y-65982001D01*
G75*
G02*
X196159001Y-66232000I-249999J0D01*
G01*
X195508999Y-66232000D01*
G75*
G02*
X195259000Y-65982001I0J249999D01*
G01*
X195259000Y-65081999D01*
G75*
G02*
X195508999Y-64832000I249999J0D01*
G01*
X196159001Y-64832000D01*
G75*
G02*
X196409000Y-65081999I0J-249999D01*
G01*
G37*
G04 #@! TD*
G04 #@! TO.C,R28*
G36*
G01*
X196164000Y-49714999D02*
X196164000Y-50615001D01*
G75*
G02*
X195914001Y-50865000I-249999J0D01*
G01*
X195263999Y-50865000D01*
G75*
G02*
X195014000Y-50615001I0J249999D01*
G01*
X195014000Y-49714999D01*
G75*
G02*
X195263999Y-49465000I249999J0D01*
G01*
X195914001Y-49465000D01*
G75*
G02*
X196164000Y-49714999I0J-249999D01*
G01*
G37*
G36*
G01*
X194114000Y-49714999D02*
X194114000Y-50615001D01*
G75*
G02*
X193864001Y-50865000I-249999J0D01*
G01*
X193213999Y-50865000D01*
G75*
G02*
X192964000Y-50615001I0J249999D01*
G01*
X192964000Y-49714999D01*
G75*
G02*
X193213999Y-49465000I249999J0D01*
G01*
X193864001Y-49465000D01*
G75*
G02*
X194114000Y-49714999I0J-249999D01*
G01*
G37*
G04 #@! TD*
G04 #@! TO.C,R29*
G36*
G01*
X191700999Y-69257000D02*
X192601001Y-69257000D01*
G75*
G02*
X192851000Y-69506999I0J-249999D01*
G01*
X192851000Y-70157001D01*
G75*
G02*
X192601001Y-70407000I-249999J0D01*
G01*
X191700999Y-70407000D01*
G75*
G02*
X191451000Y-70157001I0J249999D01*
G01*
X191451000Y-69506999D01*
G75*
G02*
X191700999Y-69257000I249999J0D01*
G01*
G37*
G36*
G01*
X191700999Y-71307000D02*
X192601001Y-71307000D01*
G75*
G02*
X192851000Y-71556999I0J-249999D01*
G01*
X192851000Y-72207001D01*
G75*
G02*
X192601001Y-72457000I-249999J0D01*
G01*
X191700999Y-72457000D01*
G75*
G02*
X191451000Y-72207001I0J249999D01*
G01*
X191451000Y-71556999D01*
G75*
G02*
X191700999Y-71307000I249999J0D01*
G01*
G37*
G04 #@! TD*
G04 #@! TO.C,C19*
G36*
G01*
X179393001Y-56972000D02*
X178492999Y-56972000D01*
G75*
G02*
X178243000Y-56722001I0J249999D01*
G01*
X178243000Y-56071999D01*
G75*
G02*
X178492999Y-55822000I249999J0D01*
G01*
X179393001Y-55822000D01*
G75*
G02*
X179643000Y-56071999I0J-249999D01*
G01*
X179643000Y-56722001D01*
G75*
G02*
X179393001Y-56972000I-249999J0D01*
G01*
G37*
G36*
G01*
X179393001Y-54922000D02*
X178492999Y-54922000D01*
G75*
G02*
X178243000Y-54672001I0J249999D01*
G01*
X178243000Y-54021999D01*
G75*
G02*
X178492999Y-53772000I249999J0D01*
G01*
X179393001Y-53772000D01*
G75*
G02*
X179643000Y-54021999I0J-249999D01*
G01*
X179643000Y-54672001D01*
G75*
G02*
X179393001Y-54922000I-249999J0D01*
G01*
G37*
G04 #@! TD*
G04 #@! TO.C,R30*
G36*
G01*
X140039000Y-86163999D02*
X140039000Y-87064001D01*
G75*
G02*
X139789001Y-87314000I-249999J0D01*
G01*
X139138999Y-87314000D01*
G75*
G02*
X138889000Y-87064001I0J249999D01*
G01*
X138889000Y-86163999D01*
G75*
G02*
X139138999Y-85914000I249999J0D01*
G01*
X139789001Y-85914000D01*
G75*
G02*
X140039000Y-86163999I0J-249999D01*
G01*
G37*
G36*
G01*
X137989000Y-86163999D02*
X137989000Y-87064001D01*
G75*
G02*
X137739001Y-87314000I-249999J0D01*
G01*
X137088999Y-87314000D01*
G75*
G02*
X136839000Y-87064001I0J249999D01*
G01*
X136839000Y-86163999D01*
G75*
G02*
X137088999Y-85914000I249999J0D01*
G01*
X137739001Y-85914000D01*
G75*
G02*
X137989000Y-86163999I0J-249999D01*
G01*
G37*
G04 #@! TD*
G04 #@! TO.C,R31*
G36*
G01*
X140039000Y-74987999D02*
X140039000Y-75888001D01*
G75*
G02*
X139789001Y-76138000I-249999J0D01*
G01*
X139138999Y-76138000D01*
G75*
G02*
X138889000Y-75888001I0J249999D01*
G01*
X138889000Y-74987999D01*
G75*
G02*
X139138999Y-74738000I249999J0D01*
G01*
X139789001Y-74738000D01*
G75*
G02*
X140039000Y-74987999I0J-249999D01*
G01*
G37*
G36*
G01*
X137989000Y-74987999D02*
X137989000Y-75888001D01*
G75*
G02*
X137739001Y-76138000I-249999J0D01*
G01*
X137088999Y-76138000D01*
G75*
G02*
X136839000Y-75888001I0J249999D01*
G01*
X136839000Y-74987999D01*
G75*
G02*
X137088999Y-74738000I249999J0D01*
G01*
X137739001Y-74738000D01*
G75*
G02*
X137989000Y-74987999I0J-249999D01*
G01*
G37*
G04 #@! TD*
G04 #@! TO.C,R32*
G36*
G01*
X140039000Y-63684999D02*
X140039000Y-64585001D01*
G75*
G02*
X139789001Y-64835000I-249999J0D01*
G01*
X139138999Y-64835000D01*
G75*
G02*
X138889000Y-64585001I0J249999D01*
G01*
X138889000Y-63684999D01*
G75*
G02*
X139138999Y-63435000I249999J0D01*
G01*
X139789001Y-63435000D01*
G75*
G02*
X140039000Y-63684999I0J-249999D01*
G01*
G37*
G36*
G01*
X137989000Y-63684999D02*
X137989000Y-64585001D01*
G75*
G02*
X137739001Y-64835000I-249999J0D01*
G01*
X137088999Y-64835000D01*
G75*
G02*
X136839000Y-64585001I0J249999D01*
G01*
X136839000Y-63684999D01*
G75*
G02*
X137088999Y-63435000I249999J0D01*
G01*
X137739001Y-63435000D01*
G75*
G02*
X137989000Y-63684999I0J-249999D01*
G01*
G37*
G04 #@! TD*
G04 #@! TO.C,R33*
G36*
G01*
X140021000Y-52508999D02*
X140021000Y-53409001D01*
G75*
G02*
X139771001Y-53659000I-249999J0D01*
G01*
X139120999Y-53659000D01*
G75*
G02*
X138871000Y-53409001I0J249999D01*
G01*
X138871000Y-52508999D01*
G75*
G02*
X139120999Y-52259000I249999J0D01*
G01*
X139771001Y-52259000D01*
G75*
G02*
X140021000Y-52508999I0J-249999D01*
G01*
G37*
G36*
G01*
X137971000Y-52508999D02*
X137971000Y-53409001D01*
G75*
G02*
X137721001Y-53659000I-249999J0D01*
G01*
X137070999Y-53659000D01*
G75*
G02*
X136821000Y-53409001I0J249999D01*
G01*
X136821000Y-52508999D01*
G75*
G02*
X137070999Y-52259000I249999J0D01*
G01*
X137721001Y-52259000D01*
G75*
G02*
X137971000Y-52508999I0J-249999D01*
G01*
G37*
G04 #@! TD*
G04 #@! TO.C,R34*
G36*
G01*
X138744000Y-89350001D02*
X138744000Y-88449999D01*
G75*
G02*
X138993999Y-88200000I249999J0D01*
G01*
X139644001Y-88200000D01*
G75*
G02*
X139894000Y-88449999I0J-249999D01*
G01*
X139894000Y-89350001D01*
G75*
G02*
X139644001Y-89600000I-249999J0D01*
G01*
X138993999Y-89600000D01*
G75*
G02*
X138744000Y-89350001I0J249999D01*
G01*
G37*
G36*
G01*
X136694000Y-89350001D02*
X136694000Y-88449999D01*
G75*
G02*
X136943999Y-88200000I249999J0D01*
G01*
X137594001Y-88200000D01*
G75*
G02*
X137844000Y-88449999I0J-249999D01*
G01*
X137844000Y-89350001D01*
G75*
G02*
X137594001Y-89600000I-249999J0D01*
G01*
X136943999Y-89600000D01*
G75*
G02*
X136694000Y-89350001I0J249999D01*
G01*
G37*
G04 #@! TD*
G04 #@! TO.C,R35*
G36*
G01*
X138744000Y-78174001D02*
X138744000Y-77273999D01*
G75*
G02*
X138993999Y-77024000I249999J0D01*
G01*
X139644001Y-77024000D01*
G75*
G02*
X139894000Y-77273999I0J-249999D01*
G01*
X139894000Y-78174001D01*
G75*
G02*
X139644001Y-78424000I-249999J0D01*
G01*
X138993999Y-78424000D01*
G75*
G02*
X138744000Y-78174001I0J249999D01*
G01*
G37*
G36*
G01*
X136694000Y-78174001D02*
X136694000Y-77273999D01*
G75*
G02*
X136943999Y-77024000I249999J0D01*
G01*
X137594001Y-77024000D01*
G75*
G02*
X137844000Y-77273999I0J-249999D01*
G01*
X137844000Y-78174001D01*
G75*
G02*
X137594001Y-78424000I-249999J0D01*
G01*
X136943999Y-78424000D01*
G75*
G02*
X136694000Y-78174001I0J249999D01*
G01*
G37*
G04 #@! TD*
G04 #@! TO.C,R36*
G36*
G01*
X138753000Y-66871001D02*
X138753000Y-65970999D01*
G75*
G02*
X139002999Y-65721000I249999J0D01*
G01*
X139653001Y-65721000D01*
G75*
G02*
X139903000Y-65970999I0J-249999D01*
G01*
X139903000Y-66871001D01*
G75*
G02*
X139653001Y-67121000I-249999J0D01*
G01*
X139002999Y-67121000D01*
G75*
G02*
X138753000Y-66871001I0J249999D01*
G01*
G37*
G36*
G01*
X136703000Y-66871001D02*
X136703000Y-65970999D01*
G75*
G02*
X136952999Y-65721000I249999J0D01*
G01*
X137603001Y-65721000D01*
G75*
G02*
X137853000Y-65970999I0J-249999D01*
G01*
X137853000Y-66871001D01*
G75*
G02*
X137603001Y-67121000I-249999J0D01*
G01*
X136952999Y-67121000D01*
G75*
G02*
X136703000Y-66871001I0J249999D01*
G01*
G37*
G04 #@! TD*
G04 #@! TO.C,R37*
G36*
G01*
X138744000Y-55695001D02*
X138744000Y-54794999D01*
G75*
G02*
X138993999Y-54545000I249999J0D01*
G01*
X139644001Y-54545000D01*
G75*
G02*
X139894000Y-54794999I0J-249999D01*
G01*
X139894000Y-55695001D01*
G75*
G02*
X139644001Y-55945000I-249999J0D01*
G01*
X138993999Y-55945000D01*
G75*
G02*
X138744000Y-55695001I0J249999D01*
G01*
G37*
G36*
G01*
X136694000Y-55695001D02*
X136694000Y-54794999D01*
G75*
G02*
X136943999Y-54545000I249999J0D01*
G01*
X137594001Y-54545000D01*
G75*
G02*
X137844000Y-54794999I0J-249999D01*
G01*
X137844000Y-55695001D01*
G75*
G02*
X137594001Y-55945000I-249999J0D01*
G01*
X136943999Y-55945000D01*
G75*
G02*
X136694000Y-55695001I0J249999D01*
G01*
G37*
G04 #@! TD*
G04 #@! TO.C,R38*
G36*
G01*
X185986000Y-93275999D02*
X185986000Y-94176001D01*
G75*
G02*
X185736001Y-94426000I-249999J0D01*
G01*
X185085999Y-94426000D01*
G75*
G02*
X184836000Y-94176001I0J249999D01*
G01*
X184836000Y-93275999D01*
G75*
G02*
X185085999Y-93026000I249999J0D01*
G01*
X185736001Y-93026000D01*
G75*
G02*
X185986000Y-93275999I0J-249999D01*
G01*
G37*
G36*
G01*
X188036000Y-93275999D02*
X188036000Y-94176001D01*
G75*
G02*
X187786001Y-94426000I-249999J0D01*
G01*
X187135999Y-94426000D01*
G75*
G02*
X186886000Y-94176001I0J249999D01*
G01*
X186886000Y-93275999D01*
G75*
G02*
X187135999Y-93026000I249999J0D01*
G01*
X187786001Y-93026000D01*
G75*
G02*
X188036000Y-93275999I0J-249999D01*
G01*
G37*
G04 #@! TD*
G04 #@! TO.C,R39*
G36*
G01*
X190923000Y-78428001D02*
X190923000Y-77527999D01*
G75*
G02*
X191172999Y-77278000I249999J0D01*
G01*
X191823001Y-77278000D01*
G75*
G02*
X192073000Y-77527999I0J-249999D01*
G01*
X192073000Y-78428001D01*
G75*
G02*
X191823001Y-78678000I-249999J0D01*
G01*
X191172999Y-78678000D01*
G75*
G02*
X190923000Y-78428001I0J249999D01*
G01*
G37*
G36*
G01*
X192973000Y-78428001D02*
X192973000Y-77527999D01*
G75*
G02*
X193222999Y-77278000I249999J0D01*
G01*
X193873001Y-77278000D01*
G75*
G02*
X194123000Y-77527999I0J-249999D01*
G01*
X194123000Y-78428001D01*
G75*
G02*
X193873001Y-78678000I-249999J0D01*
G01*
X193222999Y-78678000D01*
G75*
G02*
X192973000Y-78428001I0J249999D01*
G01*
G37*
G04 #@! TD*
G04 #@! TO.C,FB1*
G36*
G01*
X184663501Y-72711000D02*
X183763499Y-72711000D01*
G75*
G02*
X183513500Y-72461001I0J249999D01*
G01*
X183513500Y-71810999D01*
G75*
G02*
X183763499Y-71561000I249999J0D01*
G01*
X184663501Y-71561000D01*
G75*
G02*
X184913500Y-71810999I0J-249999D01*
G01*
X184913500Y-72461001D01*
G75*
G02*
X184663501Y-72711000I-249999J0D01*
G01*
G37*
G36*
G01*
X184663501Y-70661000D02*
X183763499Y-70661000D01*
G75*
G02*
X183513500Y-70411001I0J249999D01*
G01*
X183513500Y-69760999D01*
G75*
G02*
X183763499Y-69511000I249999J0D01*
G01*
X184663501Y-69511000D01*
G75*
G02*
X184913500Y-69760999I0J-249999D01*
G01*
X184913500Y-70411001D01*
G75*
G02*
X184663501Y-70661000I-249999J0D01*
G01*
G37*
G04 #@! TD*
G04 #@! TO.C,FB2*
G36*
G01*
X181742501Y-70724500D02*
X180842499Y-70724500D01*
G75*
G02*
X180592500Y-70474501I0J249999D01*
G01*
X180592500Y-69824499D01*
G75*
G02*
X180842499Y-69574500I249999J0D01*
G01*
X181742501Y-69574500D01*
G75*
G02*
X181992500Y-69824499I0J-249999D01*
G01*
X181992500Y-70474501D01*
G75*
G02*
X181742501Y-70724500I-249999J0D01*
G01*
G37*
G36*
G01*
X181742501Y-72774500D02*
X180842499Y-72774500D01*
G75*
G02*
X180592500Y-72524501I0J249999D01*
G01*
X180592500Y-71874499D01*
G75*
G02*
X180842499Y-71624500I249999J0D01*
G01*
X181742501Y-71624500D01*
G75*
G02*
X181992500Y-71874499I0J-249999D01*
G01*
X181992500Y-72524501D01*
G75*
G02*
X181742501Y-72774500I-249999J0D01*
G01*
G37*
G04 #@! TD*
G04 #@! TO.C,FB3*
G36*
G01*
X178758001Y-72720000D02*
X177857999Y-72720000D01*
G75*
G02*
X177608000Y-72470001I0J249999D01*
G01*
X177608000Y-71819999D01*
G75*
G02*
X177857999Y-71570000I249999J0D01*
G01*
X178758001Y-71570000D01*
G75*
G02*
X179008000Y-71819999I0J-249999D01*
G01*
X179008000Y-72470001D01*
G75*
G02*
X178758001Y-72720000I-249999J0D01*
G01*
G37*
G36*
G01*
X178758001Y-70670000D02*
X177857999Y-70670000D01*
G75*
G02*
X177608000Y-70420001I0J249999D01*
G01*
X177608000Y-69769999D01*
G75*
G02*
X177857999Y-69520000I249999J0D01*
G01*
X178758001Y-69520000D01*
G75*
G02*
X179008000Y-69769999I0J-249999D01*
G01*
X179008000Y-70420001D01*
G75*
G02*
X178758001Y-70670000I-249999J0D01*
G01*
G37*
G04 #@! TD*
M02*
